<svg width="22" height="22" viewBox="0 0 22 22" fill="none" xmlns="http://www.w3.org/2000/svg">
<path d="M15.1762 11.8305L14.7591 12.2458C14.7591 12.2458 13.7664 13.2321 11.0576 10.5389C8.34889 7.84577 9.34164 6.85944 9.34164 6.85944L9.60381 6.59727C10.2519 5.95377 10.3133 4.91977 9.74772 4.16444L8.59272 2.62169C7.89239 1.68669 6.54031 1.56294 5.73822 2.36044L4.29906 3.79044C3.90214 4.18644 3.63631 4.69794 3.66839 5.26627C3.75089 6.72102 4.40906 9.84961 8.07939 13.4998C11.9725 17.3699 15.6254 17.5239 17.1186 17.3846C17.5916 17.3406 18.0023 17.1004 18.3332 16.7704L19.6349 15.4761C20.5149 14.6025 20.2674 13.1038 19.1417 12.4924L17.3909 11.5399C16.6521 11.1384 15.7537 11.2567 15.1762 11.8305Z" fill="#728196"/>
</svg>
