<svg width="20" height="20" viewBox="0 0 20 20" fill="none" xmlns="http://www.w3.org/2000/svg">
<path d="M10.0001 7.39646C8.5665 7.39646 7.39658 8.56638 7.39658 9.99997C7.39658 11.4336 8.5665 12.6035 10.0001 12.6035C11.4337 12.6035 12.6036 11.4336 12.6036 9.99997C12.6036 8.56638 11.4337 7.39646 10.0001 7.39646ZM17.8087 9.99997C17.8087 8.92185 17.8185 7.85349 17.7579 6.77731C17.6974 5.52731 17.4122 4.41794 16.4981 3.50388C15.5821 2.58786 14.4747 2.30466 13.2247 2.24411C12.1466 2.18356 11.0782 2.19333 10.002 2.19333C8.92392 2.19333 7.85556 2.18356 6.77939 2.24411C5.52939 2.30466 4.42001 2.58981 3.50595 3.50388C2.58994 4.41989 2.30673 5.52731 2.24619 6.77731C2.18564 7.85544 2.19541 8.9238 2.19541 9.99997C2.19541 11.0761 2.18564 12.1465 2.24619 13.2226C2.30673 14.4726 2.59189 15.582 3.50595 16.4961C4.42197 17.4121 5.52939 17.6953 6.77939 17.7558C7.85751 17.8164 8.92587 17.8066 10.002 17.8066C11.0802 17.8066 12.1485 17.8164 13.2247 17.7558C14.4747 17.6953 15.5841 17.4101 16.4981 16.4961C17.4142 15.58 17.6974 14.4726 17.7579 13.2226C17.8204 12.1465 17.8087 11.0781 17.8087 9.99997ZM10.0001 14.0058C7.7833 14.0058 5.99423 12.2168 5.99423 9.99997C5.99423 7.78317 7.7833 5.99411 10.0001 5.99411C12.2169 5.99411 14.006 7.78317 14.006 9.99997C14.006 12.2168 12.2169 14.0058 10.0001 14.0058ZM14.17 6.7656C13.6524 6.7656 13.2345 6.34763 13.2345 5.83005C13.2345 5.31247 13.6524 4.8945 14.17 4.8945C14.6876 4.8945 15.1056 5.31247 15.1056 5.83005C15.1057 5.95295 15.0816 6.07467 15.0347 6.18825C14.9877 6.30182 14.9188 6.40502 14.8319 6.49192C14.745 6.57883 14.6418 6.64773 14.5282 6.6947C14.4146 6.74166 14.2929 6.76575 14.17 6.7656Z" fill="#728196"/>
</svg>
