<svg width="22" height="22" viewBox="0 0 22 22" fill="none" xmlns="http://www.w3.org/2000/svg">
<path d="M16.5638 3.66669H4.43275C3.74332 3.66669 3.08213 3.94056 2.59463 4.42806C2.10713 4.91556 1.83325 5.57676 1.83325 6.26619V14.9312C1.83325 15.6206 2.10713 16.2818 2.59463 16.7693C3.08213 17.2568 3.74332 17.5307 4.43275 17.5307H16.5638C17.2532 17.5307 17.9144 17.2568 18.4019 16.7693C18.8894 16.2818 19.1633 15.6206 19.1633 14.9312V6.26619C19.1633 5.57676 18.8894 4.91556 18.4019 4.42806C17.9144 3.94056 17.2532 3.66669 16.5638 3.66669ZM16.5638 5.39969L10.9315 9.27294C10.7998 9.34899 10.6504 9.38903 10.4983 9.38903C10.3461 9.38903 10.1967 9.34899 10.065 9.27294L4.43275 5.39969H16.5638Z" fill="#728196"/>
</svg>
