<svg width="15" height="17" viewBox="0 0 15 17" fill="none" xmlns="http://www.w3.org/2000/svg">
<path d="M8.945 16.4641C11.1238 14.5993 15 10.7897 15 7.2936C15 5.35921 14.2098 3.50406 12.8033 2.13624C11.3968 0.76843 9.48912 0 7.5 0C5.51088 0 3.60322 0.76843 2.1967 2.13624C0.790176 3.50406 2.96403e-08 5.35921 0 7.2936C0 10.7897 3.875 14.5993 6.055 16.4641C6.45264 16.8092 6.967 17 7.5 17C8.033 17 8.54736 16.8092 8.945 16.4641ZM5 7.2936C5 6.6488 5.26339 6.03042 5.73223 5.57448C6.20107 5.11854 6.83696 4.8624 7.5 4.8624C8.16304 4.8624 8.79893 5.11854 9.26777 5.57448C9.73661 6.03042 10 6.6488 10 7.2936C10 7.93839 9.73661 8.55677 9.26777 9.01271C8.79893 9.46865 8.16304 9.72479 7.5 9.72479C6.83696 9.72479 6.20107 9.46865 5.73223 9.01271C5.26339 8.55677 5 7.93839 5 7.2936Z" fill="#19A7CE"/>
</svg>
