<svg width="17" height="17" viewBox="0 0 17 17" fill="none" xmlns="http://www.w3.org/2000/svg">
<path d="M7.8624 4.96997C7.0668 5.18757 6.5874 5.79872 6.5874 6.37502C6.5874 6.95132 7.0668 7.56247 7.8624 7.77922V4.96997ZM9.1374 9.22082V12.0292C9.933 11.8125 10.4124 11.2013 10.4124 10.625C10.4124 10.0487 9.933 9.43757 9.1374 9.22082Z" fill="#146C94"/>
<path fill-rule="evenodd" clip-rule="evenodd" d="M17 8.5C17 13.1946 13.1946 17 8.5 17C3.80545 17 0 13.1946 0 8.5C0 3.80545 3.80545 0 8.5 0C13.1946 0 17 3.80545 17 8.5ZM8.5 2.7625C8.66908 2.7625 8.83123 2.82966 8.95078 2.94922C9.07034 3.06877 9.1375 3.23092 9.1375 3.4V3.66945C10.523 3.91765 11.6875 4.9589 11.6875 6.375C11.6875 6.54408 11.6203 6.70623 11.5008 6.82578C11.3812 6.94533 11.2191 7.0125 11.05 7.0125C10.8809 7.0125 10.7188 6.94533 10.5992 6.82578C10.4797 6.70623 10.4125 6.54408 10.4125 6.375C10.4125 5.7987 9.9331 5.18755 9.1375 4.96995V7.91945C10.523 8.16765 11.6875 9.2089 11.6875 10.625C11.6875 12.0411 10.523 13.0824 9.1375 13.3306V13.6C9.1375 13.7691 9.07034 13.9312 8.95078 14.0508C8.83123 14.1703 8.66908 14.2375 8.5 14.2375C8.33092 14.2375 8.16877 14.1703 8.04922 14.0508C7.92967 13.9312 7.8625 13.7691 7.8625 13.6V13.3306C6.477 13.0824 5.3125 12.0411 5.3125 10.625C5.3125 10.4559 5.37967 10.2938 5.49922 10.1742C5.61877 10.0547 5.78092 9.9875 5.95 9.9875C6.11908 9.9875 6.28123 10.0547 6.40078 10.1742C6.52033 10.2938 6.5875 10.4559 6.5875 10.625C6.5875 11.2013 7.0669 11.8125 7.8625 12.0292V9.08055C6.477 8.83235 5.3125 7.7911 5.3125 6.375C5.3125 4.9589 6.477 3.91765 7.8625 3.66945V3.4C7.8625 3.23092 7.92967 3.06877 8.04922 2.94922C8.16877 2.82966 8.33092 2.7625 8.5 2.7625Z" fill="#146C94"/>
</svg>
