<svg width="13" height="18" viewBox="0 0 13 18" fill="none" xmlns="http://www.w3.org/2000/svg">
<path d="M0 18H13V14.7857C12.9986 13.5927 12.5188 12.4489 11.6658 11.6052C10.8128 10.7616 9.65631 10.2871 8.45 10.2857H4.55C3.34369 10.2871 2.18718 10.7616 1.33418 11.6052C0.481192 12.4489 0.00137628 13.5927 0 14.7857V18ZM1.95 4.5C1.95 5.39002 2.21685 6.26004 2.71681 7.00007C3.21677 7.74009 3.92739 8.31686 4.75879 8.65746C5.59019 8.99805 6.50505 9.08717 7.38766 8.91353C8.27027 8.7399 9.08101 8.31132 9.71734 7.68198C10.3537 7.05264 10.787 6.25082 10.9626 5.37791C11.1381 4.50499 11.048 3.60019 10.7037 2.77792C10.3593 1.95566 9.77609 1.25285 9.02784 0.758387C8.2796 0.26392 7.39991 0 6.5 0C5.29326 0 4.13595 0.474106 3.28266 1.31802C2.42937 2.16193 1.95 3.30653 1.95 4.5Z" fill="#19A7CE"/>
</svg>
