<svg width="16" height="18" viewBox="0 0 16 18" fill="none" xmlns="http://www.w3.org/2000/svg">
<path d="M8 10.8C7.74815 10.8 7.53689 10.7136 7.36622 10.5408C7.19556 10.368 7.11052 10.1544 7.11111 9.9C7.11111 9.645 7.19644 9.4311 7.36711 9.2583C7.53778 9.0855 7.74874 8.9994 8 9C8.25185 9 8.46311 9.0864 8.63378 9.2592C8.80444 9.432 8.88948 9.6456 8.88889 9.9C8.88889 10.155 8.80356 10.3689 8.63289 10.5417C8.46222 10.7145 8.25126 10.8006 8 10.8ZM4.44445 10.8C4.19259 10.8 3.98133 10.7136 3.81067 10.5408C3.64 10.368 3.55496 10.1544 3.55556 9.9C3.55556 9.645 3.64089 9.4311 3.81156 9.2583C3.98222 9.0855 4.19319 8.9994 4.44445 9C4.6963 9 4.90756 9.0864 5.07822 9.2592C5.24889 9.432 5.33393 9.6456 5.33333 9.9C5.33333 10.155 5.248 10.3689 5.07733 10.5417C4.90667 10.7145 4.6957 10.8006 4.44445 10.8ZM11.5556 10.8C11.3037 10.8 11.0924 10.7136 10.9218 10.5408C10.7511 10.368 10.6661 10.1544 10.6667 9.9C10.6667 9.645 10.752 9.4311 10.9227 9.2583C11.0933 9.0855 11.3043 8.9994 11.5556 9C11.8074 9 12.0187 9.0864 12.1893 9.2592C12.36 9.432 12.445 9.6456 12.4444 9.9C12.4444 10.155 12.3591 10.3689 12.1884 10.5417C12.0178 10.7145 11.8068 10.8006 11.5556 10.8ZM8 14.4C7.74815 14.4 7.53689 14.3136 7.36622 14.1408C7.19556 13.968 7.11052 13.7544 7.11111 13.5C7.11111 13.245 7.19644 13.0311 7.36711 12.8583C7.53778 12.6855 7.74874 12.5994 8 12.6C8.25185 12.6 8.46311 12.6864 8.63378 12.8592C8.80444 13.032 8.88948 13.2456 8.88889 13.5C8.88889 13.755 8.80356 13.9689 8.63289 14.1417C8.46222 14.3145 8.25126 14.4006 8 14.4ZM4.44445 14.4C4.19259 14.4 3.98133 14.3136 3.81067 14.1408C3.64 13.968 3.55496 13.7544 3.55556 13.5C3.55556 13.245 3.64089 13.0311 3.81156 12.8583C3.98222 12.6855 4.19319 12.5994 4.44445 12.6C4.6963 12.6 4.90756 12.6864 5.07822 12.8592C5.24889 13.032 5.33393 13.2456 5.33333 13.5C5.33333 13.755 5.248 13.9689 5.07733 14.1417C4.90667 14.3145 4.6957 14.4006 4.44445 14.4ZM11.5556 14.4C11.3037 14.4 11.0924 14.3136 10.9218 14.1408C10.7511 13.968 10.6661 13.7544 10.6667 13.5C10.6667 13.245 10.752 13.0311 10.9227 12.8583C11.0933 12.6855 11.3043 12.5994 11.5556 12.6C11.8074 12.6 12.0187 12.6864 12.1893 12.8592C12.36 13.032 12.445 13.2456 12.4444 13.5C12.4444 13.755 12.3591 13.9689 12.1884 14.1417C12.0178 14.3145 11.8068 14.4006 11.5556 14.4ZM1.77778 18C1.28889 18 0.870223 17.8236 0.521779 17.4708C0.173335 17.118 -0.000591083 16.6944 1.50915e-06 16.2V3.6C1.50915e-06 3.105 0.174224 2.6811 0.522668 2.3283C0.871112 1.9755 1.28948 1.7994 1.77778 1.8H2.66667V0H4.44445V1.8H11.5556V0H13.3333V1.8H14.2222C14.7111 1.8 15.1298 1.9764 15.4782 2.3292C15.8267 2.682 16.0006 3.1056 16 3.6V16.2C16 16.695 15.8258 17.1189 15.4773 17.4717C15.1289 17.8245 14.7105 18.0006 14.2222 18H1.77778ZM1.77778 16.2H14.2222V7.2H1.77778V16.2Z" fill="#146C94"/>
</svg>
