<svg width="20" height="16" viewBox="0 0 20 16" fill="none" xmlns="http://www.w3.org/2000/svg">
<path fill-rule="evenodd" clip-rule="evenodd" d="M18 0C18.5304 0 19.0391 0.210714 19.4142 0.585786C19.7893 0.960859 20 1.46957 20 2V14C20 14.5304 19.7893 15.0391 19.4142 15.4142C19.0391 15.7893 18.5304 16 18 16H2C1.46957 16 0.960859 15.7893 0.585786 15.4142C0.210714 15.0391 0 14.5304 0 14V2C0 1.46957 0.210714 0.960859 0.585786 0.585786C0.960859 0.210714 1.46957 0 2 0H18ZM7.5 8H5.5C4.86528 7.9999 4.25429 8.24123 3.79095 8.67504C3.32762 9.10885 3.04664 9.70265 3.005 10.336L3 10.5V11C3.00028 11.2549 3.09788 11.5 3.27285 11.6854C3.44782 11.8707 3.68695 11.9822 3.94139 11.9972C4.19584 12.0121 4.44638 11.9293 4.64183 11.7657C4.83729 11.6021 4.9629 11.3701 4.993 11.117L5 11V10.5C4.99996 10.383 5.04097 10.2696 5.11589 10.1797C5.19081 10.0898 5.29489 10.0291 5.41 10.008L5.5 10H7.5C7.61703 9.99996 7.73036 10.041 7.82026 10.1159C7.91016 10.1908 7.97094 10.2949 7.992 10.41L8 10.5V11C8.00028 11.2549 8.09788 11.5 8.27285 11.6854C8.44782 11.8707 8.68695 11.9822 8.94139 11.9972C9.19584 12.0121 9.44638 11.9293 9.64183 11.7657C9.83729 11.6021 9.9629 11.3701 9.993 11.117L10 11V10.5C10.0001 9.86528 9.75877 9.25429 9.32496 8.79095C8.89115 8.32762 8.29735 8.04664 7.664 8.005L7.5 8ZM16 9H12L11.883 9.007C11.64 9.03591 11.4159 9.15296 11.2534 9.33597C11.0909 9.51897 11.0011 9.75524 11.0011 10C11.0011 10.2448 11.0909 10.481 11.2534 10.664C11.4159 10.847 11.64 10.9641 11.883 10.993L12 11H16L16.117 10.993C16.36 10.9641 16.5841 10.847 16.7466 10.664C16.9091 10.481 16.9989 10.2448 16.9989 10C16.9989 9.75524 16.9091 9.51897 16.7466 9.33597C16.5841 9.15296 16.36 9.03591 16.117 9.007L16 9ZM14 6H12C11.7451 6.00028 11.5 6.09788 11.3146 6.27285C11.1293 6.44782 11.0178 6.68695 11.0028 6.94139C10.9879 7.19584 11.0707 7.44638 11.2343 7.64183C11.3979 7.83729 11.6299 7.9629 11.883 7.993L12 8H14C14.2549 7.99972 14.5 7.90212 14.6854 7.72715C14.8707 7.55218 14.9822 7.31305 14.9972 7.05861C15.0121 6.80416 14.9293 6.55362 14.7657 6.35817C14.6021 6.16271 14.3701 6.0371 14.117 6.007L14 6ZM6.5 4C6.03587 4 5.59075 4.18437 5.26256 4.51256C4.93437 4.84075 4.75 5.28587 4.75 5.75C4.75 6.21413 4.93437 6.65925 5.26256 6.98744C5.59075 7.31563 6.03587 7.5 6.5 7.5C6.96413 7.5 7.40925 7.31563 7.73744 6.98744C8.06563 6.65925 8.25 6.21413 8.25 5.75C8.25 5.28587 8.06563 4.84075 7.73744 4.51256C7.40925 4.18437 6.96413 4 6.5 4Z" fill="#19A7CE"/>
</svg>
