<svg width="16" height="16" viewBox="0 0 16 16" fill="none" xmlns="http://www.w3.org/2000/svg">
<g clip-path="url(#clip0_1367_2844)">
<path fill-rule="evenodd" clip-rule="evenodd" d="M1.88498 0.510994C2.05996 0.336283 2.27006 0.200753 2.50138 0.113384C2.7327 0.026016 2.97994 -0.011195 3.22672 0.00421719C3.47351 0.0196294 3.7142 0.0873129 3.93285 0.202782C4.15149 0.318252 4.34311 0.47887 4.49498 0.673994L6.28998 2.97999C6.61898 3.40299 6.73498 3.95399 6.60498 4.47399L6.05798 6.66399C6.0297 6.77742 6.03123 6.89624 6.06242 7.0089C6.09361 7.12157 6.1534 7.22426 6.23598 7.30699L8.69298 9.76399C8.77582 9.84675 8.87868 9.90664 8.99153 9.93783C9.10439 9.96902 9.22341 9.97046 9.33698 9.94199L11.526 9.39499C11.7826 9.33083 12.0504 9.32585 12.3093 9.38042C12.5681 9.43499 12.8111 9.54769 13.02 9.70999L15.326 11.504C16.155 12.149 16.231 13.374 15.489 14.115L14.455 15.149C13.715 15.889 12.609 16.214 11.578 15.851C8.93917 14.9225 6.54325 13.4118 4.56798 11.431C2.58727 9.45601 1.07659 7.06045 0.147983 4.42199C-0.214017 3.39199 0.110983 2.28499 0.850983 1.54499L1.88498 0.510994Z" fill="#19A7CE"/>
</g>
<defs>
<clipPath id="clip0_1367_2844">
<rect width="16" height="16" fill="white"/>
</clipPath>
</defs>
</svg>
