<svg width="20" height="20" viewBox="0 0 20 20" fill="none" xmlns="http://www.w3.org/2000/svg">
<path d="M16.25 10C16.2499 8.99444 16.0054 8.00393 15.5375 7.1138L14.6031 8.0488C14.8658 8.66576 15.0008 9.32951 15 10H16.25ZM14.6338 6.25005L13.75 5.3663L10.8031 8.31255C10.5529 8.19053 10.2784 8.12645 10 8.12505C9.62917 8.12505 9.26665 8.23501 8.95831 8.44104C8.64997 8.64707 8.40965 8.9399 8.26773 9.28251C8.12582 9.62513 8.08869 10.0021 8.16103 10.3658C8.23338 10.7296 8.41196 11.0636 8.67418 11.3259C8.9364 11.5881 9.2705 11.7667 9.63421 11.839C9.99793 11.9114 10.3749 11.8742 10.7175 11.7323C11.0602 11.5904 11.353 11.3501 11.559 11.0417C11.765 10.7334 11.875 10.3709 11.875 10C11.8736 9.72165 11.8095 9.44715 11.6875 9.19692L14.6338 6.25005ZM10 10.625C9.87639 10.625 9.75556 10.5884 9.65278 10.5197C9.54999 10.451 9.46989 10.3534 9.42258 10.2392C9.37528 10.125 9.3629 9.99935 9.38702 9.87811C9.41113 9.75688 9.47066 9.64551 9.55807 9.5581C9.64547 9.4707 9.75684 9.41117 9.87808 9.38705C9.99931 9.36294 10.125 9.37532 10.2392 9.42262C10.3534 9.46993 10.451 9.55003 10.5197 9.65281C10.5884 9.75559 10.625 9.87643 10.625 10C10.6248 10.1658 10.5589 10.3246 10.4418 10.4418C10.3246 10.559 10.1657 10.6249 10 10.625ZM10 5.00005C10.6705 4.99936 11.3343 5.13436 11.9513 5.39692L12.8863 4.46192C11.9343 3.96351 10.8699 3.71931 9.79591 3.75294C8.72194 3.78657 7.67483 4.0969 6.75597 4.65389C5.83711 5.21087 5.0776 5.99565 4.55099 6.93225C4.02437 7.86885 3.74847 8.92555 3.75001 10H5.00001C5.00166 8.67447 5.52898 7.40366 6.4663 6.46634C7.40362 5.52901 8.67443 5.0017 10 5.00005Z" fill="#146C94"/>
<path d="M10 18.75C8.26942 18.75 6.57769 18.2368 5.13876 17.2754C3.69983 16.3139 2.57832 14.9473 1.91606 13.3485C1.25379 11.7496 1.08051 9.9903 1.41813 8.29296C1.75575 6.59563 2.58911 5.03653 3.81282 3.81282C5.03653 2.58911 6.59563 1.75575 8.29296 1.41813C9.9903 1.08051 11.7496 1.25379 13.3485 1.91606C14.9473 2.57832 16.3139 3.69983 17.2754 5.13876C18.2368 6.57769 18.75 8.26942 18.75 10C18.7474 12.3198 17.8246 14.5439 16.1843 16.1843C14.5439 17.8246 12.3198 18.7474 10 18.75ZM10 2.5C8.51664 2.5 7.0666 2.93987 5.83323 3.76398C4.59986 4.58809 3.63856 5.75943 3.07091 7.12988C2.50325 8.50032 2.35473 10.0083 2.64411 11.4632C2.9335 12.918 3.64781 14.2544 4.6967 15.3033C5.7456 16.3522 7.08197 17.0665 8.53683 17.3559C9.99168 17.6453 11.4997 17.4968 12.8701 16.9291C14.2406 16.3614 15.4119 15.4001 16.236 14.1668C17.0601 12.9334 17.5 11.4834 17.5 10C17.4977 8.01159 16.7068 6.10528 15.3007 4.69926C13.8947 3.29324 11.9884 2.50232 10 2.5Z" fill="#146C94"/>
</svg>
