<svg width="19" height="19" viewBox="0 0 19 19" fill="none" xmlns="http://www.w3.org/2000/svg">
<path d="M8.49462 4.0158C8.82836 3.97709 9.16407 3.95779 9.50004 3.95801C13.1924 3.95801 16.15 6.25622 17.4167 9.49968C17.1101 10.2886 16.6958 11.0314 16.1857 11.7068M5.16171 5.16055C3.54671 6.14618 2.29587 7.6733 1.58337 9.49968C2.85004 12.7431 5.80771 15.0413 9.50004 15.0413C11.0296 15.0494 12.5315 14.6328 13.8384 13.838M7.82171 7.82134C7.60115 8.0419 7.42619 8.30374 7.30683 8.59191C7.18746 8.88009 7.12603 9.18895 7.12603 9.50086C7.12603 9.81278 7.18746 10.1216 7.30683 10.4098C7.42619 10.698 7.60115 10.9598 7.82171 11.1804C8.04226 11.4009 8.30411 11.5759 8.59228 11.6953C8.88045 11.8146 9.18931 11.8761 9.50123 11.8761C9.81314 11.8761 10.122 11.8146 10.4102 11.6953C10.6984 11.5759 10.9602 11.4009 11.1807 11.1804" stroke="#728196" stroke-width="1.5" stroke-linecap="round" stroke-linejoin="round"/>
<path d="M3.16675 3.1665L15.8334 15.8332" stroke="#728196" stroke-width="1.5" stroke-linecap="round"/>
</svg>
