<svg width="58" height="60" viewBox="0 0 58 60" fill="none" xmlns="http://www.w3.org/2000/svg">
<path d="M28.677 60C44.5148 60 57.354 52.587 57.354 43.4426C57.354 34.2982 44.5148 26.8853 28.677 26.8853C12.8391 26.8853 0 34.2982 0 43.4426C0 52.587 12.8391 60 28.677 60Z" fill="#F5F5F5"/>
<path d="M7.93912 47.5653C10.2501 47.5653 12.1235 46.4837 12.1235 45.1496C12.1235 43.8154 10.2501 42.7339 7.93912 42.7339C5.62816 42.7339 3.75476 43.8154 3.75476 45.1496C3.75476 46.4837 5.62816 47.5653 7.93912 47.5653Z" fill="#E0E0E0"/>
<path d="M25.2142 39.8604L13.6876 46.5158L5.30725 41.6406L16.8339 34.9866L25.2142 39.8604Z" fill="#E0E0E0"/>
<path d="M43.9982 53.5274L15.6622 37.1669C15.6031 37.1331 15.554 37.0844 15.5198 37.0255C15.4856 36.9667 15.4677 36.8998 15.4677 36.8318C15.4677 36.7638 15.4856 36.6969 15.5198 36.6381C15.554 36.5792 15.6031 36.5305 15.6622 36.4967L20.2363 33.8559C20.4227 33.7478 20.6343 33.6909 20.8498 33.6909C21.0653 33.6909 21.277 33.7478 21.4634 33.8559L49.7995 50.2152C49.8589 50.2489 49.9083 50.2977 49.9427 50.3566C49.977 50.4156 49.9951 50.4827 49.9951 50.5509C49.9951 50.6192 49.977 50.6862 49.9427 50.7452C49.9083 50.8042 49.8589 50.853 49.7995 50.8867L45.2267 53.5274C45.0398 53.6349 44.828 53.6914 44.6125 53.6914C44.3969 53.6914 44.1851 53.6349 43.9982 53.5274Z" fill="#E0E0E0"/>
<path d="M48.4193 45.0735L50.0117 45.9984C50.0117 45.9984 49.2078 43.4335 49.6542 40.8531C49.8227 39.8781 50.1764 39.3945 50.2973 39.1346C50.4182 38.8748 51.383 37.2643 50.5378 36.5234C49.6927 35.7825 47.708 37.2566 47.798 41.2313C47.8418 42.5332 48.0506 43.8242 48.4193 45.0735Z" fill="#BA68C8"/>
<path opacity="0.3" d="M48.4193 45.0735L50.0117 45.9984C50.0117 45.9984 49.2078 43.4335 49.6542 40.8531C49.8227 39.8781 50.1764 39.3945 50.2973 39.1346C50.4182 38.8748 51.383 37.2643 50.5378 36.5234C49.6927 35.7825 47.708 37.2566 47.798 41.2313C47.8418 42.5332 48.0506 43.8242 48.4193 45.0735Z" fill="black"/>
<path d="M49.1589 45.5613C49.1472 45.5612 49.1357 45.5577 49.1261 45.551C49.1165 45.5444 49.1091 45.5349 49.1049 45.524C49.0985 45.5072 48.4977 43.8376 48.5286 41.1582C48.5595 38.4789 49.9744 37.0305 49.9886 37.0163C49.9995 37.0054 50.0143 36.9993 50.0297 36.9993C50.0452 36.9993 50.06 37.0054 50.0709 37.0163C50.0818 37.0272 50.088 37.042 50.088 37.0575C50.088 37.0729 50.0818 37.0877 50.0709 37.0986C50.0568 37.1128 48.6753 38.5136 48.6444 41.1595C48.6135 43.8055 49.2078 45.4674 49.2129 45.4841C49.2156 45.4911 49.2169 45.4986 49.2166 45.5061C49.2164 45.5135 49.2147 45.5209 49.2115 45.5277C49.2084 45.5346 49.204 45.5407 49.1985 45.5458C49.193 45.5509 49.1865 45.5548 49.1795 45.5574C49.1729 45.5599 49.1659 45.5612 49.1589 45.5613Z" fill="white"/>
<path d="M48.8721 45.3128L51.5038 46.8564C51.5038 46.8564 52.7078 46.6789 52.6165 45.5456C52.5252 44.4124 52.0364 44.1436 52.6461 43.6458C53.2558 43.148 53.4179 43.1145 53.3831 42.6257C53.3484 42.1369 53.0256 41.9247 52.8686 41.7253C52.7117 41.5259 52.2833 41.1259 52.5856 40.5368C52.8879 39.9476 53.3008 39.3791 52.6898 39.109C52.3258 38.9482 51.7135 39.1501 51.307 39.581C50.9006 40.0119 50.5674 40.322 50.1828 40.4223C49.7982 40.5226 48.9955 40.5303 49.0251 41.1941C49.0547 41.8578 49.2245 42.0855 49.0637 42.38C48.755 42.946 47.4571 43.2393 48.8721 45.3128Z" fill="#BA68C8"/>
<path d="M49.9384 46.0011C49.924 46.0009 49.9101 45.9954 49.8995 45.9857C49.8888 45.976 49.8821 45.9627 49.8805 45.9484C49.8805 45.9085 49.5924 41.993 52.3129 39.4216C52.3182 39.4162 52.3245 39.4119 52.3315 39.409C52.3384 39.4061 52.3459 39.4045 52.3534 39.4045C52.361 39.4045 52.3685 39.4061 52.3754 39.409C52.3824 39.4119 52.3887 39.4162 52.394 39.4216C52.4046 39.4327 52.4106 39.4474 52.4106 39.4628C52.4106 39.4782 52.4046 39.4929 52.394 39.5039C49.7146 42.0367 49.995 45.8982 49.9988 45.9355C49.9999 45.9508 49.995 45.9659 49.9852 45.9777C49.9754 45.9894 49.9614 45.9969 49.9461 45.9985L49.9384 46.0011Z" fill="white"/>
<path d="M50.4156 42.6386C50.4011 42.6386 50.3871 42.6333 50.3763 42.6235C50.3656 42.6137 50.359 42.6003 50.3577 42.5858C50.3354 42.2831 50.2521 41.9881 50.1128 41.7184C49.9736 41.4487 49.7812 41.21 49.5473 41.0165C49.5411 41.0121 49.5359 41.0064 49.5319 40.9999C49.5279 40.9935 49.5252 40.9862 49.524 40.9787C49.5228 40.9712 49.5231 40.9635 49.5249 40.9561C49.5267 40.9487 49.5299 40.9417 49.5344 40.9355C49.5388 40.9294 49.5443 40.9242 49.5507 40.9202C49.5571 40.9162 49.5642 40.9135 49.5716 40.9123C49.579 40.9111 49.5866 40.9114 49.5939 40.9132C49.6013 40.915 49.6081 40.9182 49.6142 40.9226C49.8639 41.1248 50.0688 41.3768 50.2158 41.6624C50.3629 41.9481 50.4489 42.2613 50.4683 42.582C50.469 42.5973 50.4638 42.6122 50.4537 42.6237C50.4437 42.6352 50.4295 42.6424 50.4143 42.6437L50.4156 42.6386Z" fill="white"/>
<path d="M50.2162 43.309C50.2091 43.3091 50.202 43.3078 50.1954 43.3052C50.1887 43.3025 50.1827 43.2986 50.1776 43.2936C50.1722 43.2883 50.1679 43.282 50.165 43.2751C50.162 43.2681 50.1605 43.2606 50.1605 43.2531C50.1605 43.2455 50.162 43.2381 50.165 43.2311C50.1679 43.2241 50.1722 43.2178 50.1776 43.2126C50.2059 43.1817 50.8889 42.4408 52.4659 42.662C52.4811 42.664 52.4949 42.6718 52.5043 42.6838C52.5137 42.6959 52.5179 42.7112 52.5161 42.7263C52.5139 42.7416 52.5058 42.7554 52.4935 42.7648C52.4813 42.7741 52.4658 42.7783 52.4505 42.7765C50.9378 42.5681 50.2702 43.282 50.2638 43.291C50.2578 43.2975 50.2504 43.3026 50.2421 43.3057C50.2339 43.3088 50.225 43.31 50.2162 43.309Z" fill="white"/>
<path d="M45.9212 33.4969L42.2488 31.3462L44.4355 34.3536L45.9212 33.4969Z" fill="#BA68C8"/>
<path opacity="0.6" d="M45.9212 33.4969L42.2488 31.3462L44.4355 34.3536L45.9212 33.4969Z" fill="black"/>
<path d="M43.7383 41.4566L22.2453 29.0463C22.1531 28.9932 22.0765 28.9167 22.0232 28.8246C21.9699 28.7324 21.9418 28.6279 21.9418 28.5215V13.846C21.9418 13.7395 21.9699 13.635 22.0231 13.5429C22.0763 13.4507 22.1528 13.3741 22.2449 13.3209C22.337 13.2676 22.4415 13.2394 22.5479 13.2393C22.6543 13.2391 22.7589 13.2669 22.8512 13.3199L44.3467 25.7302C44.439 25.7836 44.5156 25.8603 44.5688 25.9526C44.6221 26.045 44.6502 26.1497 44.6503 26.2563V40.9318C44.6502 41.0384 44.6221 41.1432 44.5687 41.2356C44.5152 41.3279 44.4384 41.4045 44.346 41.4578C44.2535 41.511 44.1486 41.5389 44.042 41.5387C43.9353 41.5385 43.8305 41.5101 43.7383 41.4566Z" fill="#E0E0E0"/>
<path d="M44.4355 34.3538L45.9212 33.4971V50.8622C45.9214 51.0188 45.8802 51.1726 45.8018 51.3081C45.7234 51.4437 45.6107 51.5561 45.4749 51.634L44.0072 52.4843L44.4355 34.3538Z" fill="#BA68C8"/>
<path opacity="0.3" d="M44.4355 34.3538L45.9212 33.4971V50.8622C45.9214 51.0188 45.8802 51.1726 45.8018 51.3081C45.7234 51.4437 45.6107 51.5561 45.4749 51.634L44.0072 52.4843L44.4355 34.3538Z" fill="black"/>
<path d="M42.7632 42.0058L21.2677 29.5955C21.1758 29.5418 21.0995 29.465 21.0465 29.3727C20.9935 29.2804 20.9655 29.1759 20.9655 29.0694V14.39C20.9654 14.2836 20.9933 14.179 21.0465 14.0868C21.0997 13.9946 21.1763 13.918 21.2685 13.8648C21.3607 13.8116 21.4653 13.7836 21.5717 13.7837C21.6782 13.7838 21.7827 13.8119 21.8749 13.8652L43.3704 26.2755C43.4626 26.3286 43.5392 26.4051 43.5925 26.4972C43.6458 26.5894 43.6739 26.6939 43.674 26.8004V41.4797C43.674 41.5863 43.646 41.691 43.5927 41.7834C43.5395 41.8757 43.4628 41.9524 43.3705 42.0057C43.2782 42.0591 43.1735 42.0871 43.0669 42.0872C42.9603 42.0872 42.8556 42.0591 42.7632 42.0058Z" fill="#EBEBEB"/>
<path d="M41.7869 42.5793L20.2927 30.1703C20.2005 30.1168 20.1238 30.0401 20.0706 29.9478C20.0173 29.8555 19.9892 29.7508 19.9891 29.6442V14.9687C19.989 14.8622 20.017 14.7576 20.0702 14.6654C20.1234 14.5732 20.2 14.4966 20.2922 14.4434C20.3844 14.3902 20.489 14.3622 20.5954 14.3623C20.7019 14.3624 20.8064 14.3905 20.8986 14.4438L42.3941 26.8542C42.4867 26.9075 42.5636 26.9843 42.6169 27.077C42.6702 27.1696 42.698 27.2747 42.6976 27.3815V42.0545C42.6975 42.161 42.6693 42.2655 42.6159 42.3577C42.5626 42.4499 42.4859 42.5264 42.3936 42.5795C42.3014 42.6327 42.1967 42.6607 42.0903 42.6606C41.9838 42.6606 41.8792 42.6325 41.7869 42.5793Z" fill="#FAFAFA"/>
<path d="M16.9639 14.7761V36.3475C16.9638 36.6537 17.0444 36.9544 17.1975 37.2195C17.3506 37.4846 17.5708 37.7047 17.836 37.8577L43.1763 52.4856C43.3043 52.5593 43.4495 52.5981 43.5973 52.5981C43.7451 52.598 43.8902 52.5591 44.0182 52.4852C44.1462 52.4113 44.2525 52.305 44.3264 52.1771C44.4003 52.0491 44.4393 51.904 44.4394 51.7562V34.3538L31.0747 26.6359L28.7658 21.3106C28.3348 20.316 27.5952 19.4866 26.6562 18.9451L18.1987 14.0571C18.0731 13.9846 17.9306 13.9465 17.7856 13.9468C17.6406 13.947 17.4982 13.9856 17.3729 14.0586C17.2475 14.1316 17.1437 14.2364 17.0719 14.3624C17.0001 14.4884 16.9628 14.6311 16.9639 14.7761Z" fill="#BA68C8"/>
<path opacity="0.2" d="M16.9639 14.7761V36.3475C16.9638 36.6537 17.0444 36.9544 17.1975 37.2195C17.3506 37.4846 17.5708 37.7047 17.836 37.8577L43.1763 52.4856C43.3043 52.5593 43.4495 52.5981 43.5973 52.5981C43.7451 52.598 43.8902 52.5591 44.0182 52.4852C44.1462 52.4113 44.2525 52.305 44.3264 52.1771C44.4003 52.0491 44.4393 51.904 44.4394 51.7562V34.3538L31.0747 26.6359L28.7658 21.3106C28.3348 20.316 27.5952 19.4866 26.6562 18.9451L18.1987 14.0571C18.0731 13.9846 17.9306 13.9465 17.7856 13.9468C17.6406 13.947 17.4982 13.9856 17.3729 14.0586C17.2475 14.1316 17.1437 14.2364 17.0719 14.3624C17.0001 14.4884 16.9628 14.6311 16.9639 14.7761Z" fill="black"/>
<path d="M37.0457 38.3153C36.9749 38.2742 36.9042 38.2382 36.8347 38.206C36.7807 36.5467 35.623 34.5851 34.2081 33.767C33.7309 33.4904 33.2832 33.3811 32.8973 33.4145C32.3571 31.6626 31.1158 29.9415 29.67 29.1028C27.8254 28.0377 26.3127 28.8057 26.1661 30.8072C26.0773 30.7454 25.9873 30.6875 25.8973 30.6348C24.4965 29.827 23.3619 30.4817 23.3619 32.0986C23.3619 33.7155 24.4965 35.6823 25.8973 36.4901L37.0496 42.9293C38.1545 43.5725 39.0498 43.0503 39.0498 41.7717C39.0498 40.4931 38.1506 38.9469 37.0457 38.3153Z" fill="#BA68C8"/>
<path opacity="0.4" d="M37.0457 38.3153C36.9749 38.2742 36.9042 38.2382 36.8347 38.206C36.7807 36.5467 35.623 34.5851 34.2081 33.767C33.7309 33.4904 33.2832 33.3811 32.8973 33.4145C32.3571 31.6626 31.1158 29.9415 29.67 29.1028C27.8254 28.0377 26.3127 28.8057 26.1661 30.8072C26.0773 30.7454 25.9873 30.6875 25.8973 30.6348C24.4965 29.827 23.3619 30.4817 23.3619 32.0986C23.3619 33.7155 24.4965 35.6823 25.8973 36.4901L37.0496 42.9293C38.1545 43.5725 39.0498 43.0503 39.0498 41.7717C39.0498 40.4931 38.1506 38.9469 37.0457 38.3153Z" fill="white"/>
<path d="M27.5437 38.1649L30.1716 42.9564L32.9796 41.2546L31.8696 40.6281V35.8855L28.8776 34.1619V38.9431L27.5437 38.1649Z" fill="white"/>
<path d="M19.9842 7.88379C17.1834 7.88374 14.4554 8.77529 12.1952 10.4293C9.93508 12.0833 8.26015 14.4139 7.41307 17.0835L6.3493 16.4712C6.31812 16.4529 6.2828 16.4429 6.24668 16.4421C6.21056 16.4413 6.17484 16.4498 6.1429 16.4667C6.11095 16.4835 6.08384 16.5083 6.06414 16.5386C6.04443 16.5688 6.03278 16.6037 6.03029 16.6397C5.83702 18.7015 6.13455 20.7798 6.89855 22.7046C7.27425 23.66 7.78262 24.5576 8.40868 25.3712C8.42872 25.3965 8.45506 25.416 8.48507 25.4279C8.51507 25.4398 8.54768 25.4436 8.57961 25.4389C8.61155 25.4342 8.64168 25.4212 8.667 25.4012C8.69231 25.3812 8.71191 25.3548 8.72382 25.3249C9.1874 24.1621 9.82687 23.0776 10.6198 22.1091C11.1327 21.4726 11.7094 20.8903 12.3409 20.3713C12.3764 20.3424 12.4043 20.3052 12.4222 20.2631C12.44 20.221 12.4474 20.1752 12.4436 20.1296C12.4398 20.084 12.425 20.04 12.4003 20.0014C12.3757 19.9628 12.3421 19.9309 12.3023 19.9082L11.0263 19.1712C11.7065 16.7134 13.193 14.5556 15.2472 13.0445C17.3014 11.5333 19.8039 10.7566 22.3527 10.8389C24.9014 10.9213 27.3486 11.858 29.3009 13.4987C31.2532 15.1393 32.5973 17.3885 33.1174 19.8851C32.821 16.6064 31.3092 13.5572 28.8791 11.3365C26.4489 9.1158 23.2761 7.88423 19.9842 7.88379Z" fill="#BA68C8"/>
<path opacity="0.4" d="M19.9842 7.88379C17.1834 7.88374 14.4554 8.77529 12.1952 10.4293C9.93508 12.0833 8.26015 14.4139 7.41307 17.0835L6.3493 16.4712C6.31812 16.4529 6.2828 16.4429 6.24668 16.4421C6.21056 16.4413 6.17484 16.4498 6.1429 16.4667C6.11095 16.4835 6.08384 16.5083 6.06414 16.5386C6.04443 16.5688 6.03278 16.6037 6.03029 16.6397C5.83702 18.7015 6.13455 20.7798 6.89855 22.7046C7.27425 23.66 7.78262 24.5576 8.40868 25.3712C8.42872 25.3965 8.45506 25.416 8.48507 25.4279C8.51507 25.4398 8.54768 25.4436 8.57961 25.4389C8.61155 25.4342 8.64168 25.4212 8.667 25.4012C8.69231 25.3812 8.71191 25.3548 8.72382 25.3249C9.1874 24.1621 9.82687 23.0776 10.6198 22.1091C11.1327 21.4726 11.7094 20.8903 12.3409 20.3713C12.3764 20.3424 12.4043 20.3052 12.4222 20.2631C12.44 20.221 12.4474 20.1752 12.4436 20.1296C12.4398 20.084 12.425 20.04 12.4003 20.0014C12.3757 19.9628 12.3421 19.9309 12.3023 19.9082L11.0263 19.1712C11.7065 16.7134 13.193 14.5556 15.2472 13.0445C17.3014 11.5333 19.8039 10.7566 22.3527 10.8389C24.9014 10.9213 27.3486 11.858 29.3009 13.4987C31.2532 15.1393 32.5973 17.3885 33.1174 19.8851C32.821 16.6064 31.3092 13.5572 28.8791 11.3365C26.4489 9.1158 23.2761 7.88423 19.9842 7.88379Z" fill="white"/>
<path d="M45.3434 10.6156C46.7941 9.77803 46.7942 7.06217 45.3435 4.54957C43.8929 2.03696 41.5409 0.679074 40.0901 1.51665C38.6394 2.35422 38.6394 5.07007 40.09 7.58268C41.5407 10.0953 43.8927 11.4532 45.3434 10.6156Z" fill="#BA68C8"/>
<path opacity="0.2" d="M45.3434 10.6156C46.7941 9.77803 46.7942 7.06217 45.3435 4.54957C43.8929 2.03696 41.5409 0.679074 40.0901 1.51665C38.6394 2.35422 38.6394 5.07007 40.09 7.58268C41.5407 10.0953 43.8927 11.4532 45.3434 10.6156Z" fill="black"/>
<path d="M45.125 10.7416C46.5758 9.90401 46.5758 7.18815 45.1251 4.67554C43.6745 2.16293 41.3225 0.805049 39.8718 1.64262C38.421 2.48019 38.421 5.19605 39.8716 7.70866C41.3223 10.2213 43.6743 11.5792 45.125 10.7416Z" fill="#BA68C8"/>
<path d="M41.0256 7.44399L43.885 9.10332C43.9199 9.12373 43.9595 9.13457 43.9998 9.13475C44.0402 9.13492 44.0799 9.12442 44.1149 9.10431C44.1499 9.0842 44.1789 9.05519 44.1991 9.02023C44.2193 8.98527 44.2299 8.9456 44.2298 8.90523V5.36788C44.2291 5.27933 44.2049 5.19254 44.1597 5.11638C44.1145 5.04022 44.0499 4.97742 43.9725 4.9344L41.113 3.2802C41.0782 3.25979 41.0386 3.24895 40.9983 3.24878C40.9579 3.24861 40.9182 3.25911 40.8832 3.27922C40.8482 3.29933 40.8191 3.32834 40.799 3.3633C40.7788 3.39826 40.7682 3.43793 40.7683 3.47829V7.01564C40.7699 7.10332 40.7945 7.18905 40.8396 7.26423C40.8848 7.3394 40.9489 7.40139 41.0256 7.44399Z" fill="#BA68C8"/>
<path opacity="0.6" d="M41.0256 7.44399L43.885 9.10332C43.9199 9.12373 43.9595 9.13457 43.9998 9.13475C44.0402 9.13492 44.0799 9.12442 44.1149 9.10431C44.1499 9.0842 44.1789 9.05519 44.1991 9.02023C44.2193 8.98527 44.2299 8.9456 44.2298 8.90523V5.36788C44.2291 5.27933 44.2049 5.19254 44.1597 5.11638C44.1145 5.04022 44.0499 4.97742 43.9725 4.9344L41.113 3.2802C41.0782 3.25979 41.0386 3.24895 40.9983 3.24878C40.9579 3.24861 40.9182 3.25911 40.8832 3.27922C40.8482 3.29933 40.8191 3.32834 40.799 3.3633C40.7788 3.39826 40.7682 3.43793 40.7683 3.47829V7.01564C40.7699 7.10332 40.7945 7.18905 40.8396 7.26423C40.8848 7.3394 40.9489 7.40139 41.0256 7.44399Z" fill="white"/>
<path d="M41.3124 6.92938L43.611 8.25042C43.6392 8.26702 43.6713 8.27575 43.704 8.2757C43.7367 8.27565 43.7688 8.26681 43.797 8.25012C43.8251 8.23343 43.8482 8.20949 43.8639 8.18081C43.8796 8.15213 43.8874 8.11975 43.8863 8.08706V5.43726C43.8862 5.36686 43.8677 5.29771 43.8325 5.23675C43.7972 5.17579 43.7466 5.12516 43.6856 5.08996L41.387 3.76378C41.359 3.74778 41.3274 3.73941 41.2952 3.7395C41.2629 3.73959 41.2313 3.74814 41.2034 3.76429C41.1756 3.78044 41.1524 3.80362 41.1363 3.83153C41.1202 3.85943 41.1118 3.89107 41.1117 3.92328V6.57693C41.1109 6.64821 41.129 6.71843 41.1643 6.78037C41.1995 6.84232 41.2507 6.89375 41.3124 6.92938Z" fill="#BA68C8"/>
<path opacity="0.4" d="M43.8863 5.43749V8.08728C43.8866 8.11965 43.8784 8.15153 43.8624 8.17966C43.8464 8.20779 43.8232 8.23117 43.7952 8.2474C43.7672 8.26362 43.7354 8.27212 43.703 8.27201C43.6707 8.2719 43.6389 8.2632 43.611 8.24678L41.3124 6.9296C41.2513 6.89481 41.2006 6.84446 41.1653 6.78368C41.1301 6.72289 41.1116 6.65385 41.1117 6.58359V3.9235C41.1113 3.89114 41.1196 3.85926 41.1356 3.83112C41.1516 3.80299 41.1748 3.77961 41.2028 3.76338C41.2308 3.74716 41.2626 3.73866 41.295 3.73877C41.3273 3.73888 41.3591 3.74758 41.387 3.764L43.6856 5.09147C43.7467 5.12626 43.7974 5.17661 43.8326 5.2374C43.8679 5.29818 43.8864 5.36722 43.8863 5.43749Z" fill="white"/>
<path d="M43.8863 7.99335V8.08725C43.8866 8.11961 43.8784 8.15149 43.8624 8.17963C43.8464 8.20776 43.8232 8.23114 43.7952 8.24736C43.7672 8.26359 43.7354 8.27208 43.703 8.27198C43.6706 8.27187 43.6389 8.26316 43.611 8.24675L41.3124 6.92957C41.2513 6.89478 41.2006 6.84443 41.1653 6.78364C41.1301 6.72286 41.1116 6.65382 41.1117 6.58355V6.32629L41.7137 5.81177L42.4237 6.82281L43.1171 5.99828L43.8863 7.99335Z" fill="#FAFAFA"/>
<path d="M41.9041 5.01548C41.91 5.1228 41.941 5.22725 41.9946 5.32041C42.0482 5.41357 42.1229 5.49285 42.2128 5.55187C42.3838 5.65091 42.5228 5.57116 42.5228 5.37307C42.5167 5.26563 42.4855 5.16111 42.4317 5.06794C42.3778 4.97477 42.3028 4.89555 42.2128 4.83668C42.043 4.74278 41.9041 4.81867 41.9041 5.01548Z" fill="#FAFAFA"/>
<path d="M51.7814 23.8221C53.2321 22.9846 53.2322 20.2687 51.7815 17.7561C50.3309 15.2435 47.9788 13.8856 46.5281 14.7232C45.0774 15.5608 45.0774 18.2766 46.528 20.7892C47.9787 23.3018 50.3307 24.6597 51.7814 23.8221Z" fill="#BA68C8"/>
<path opacity="0.2" d="M51.7814 23.8221C53.2321 22.9846 53.2322 20.2687 51.7815 17.7561C50.3309 15.2435 47.9788 13.8856 46.5281 14.7232C45.0774 15.5608 45.0774 18.2766 46.528 20.7892C47.9787 23.3018 50.3307 24.6597 51.7814 23.8221Z" fill="black"/>
<path d="M51.5638 23.9491C53.0145 23.1115 53.0145 20.3957 51.5639 17.8831C50.1132 15.3705 47.7612 14.0126 46.3105 14.8501C44.8598 15.6877 44.8597 18.4036 46.3104 20.9162C47.761 23.4288 50.113 24.7867 51.5638 23.9491Z" fill="#BA68C8"/>
<path d="M47.551 16.4868C47.516 16.4667 47.4764 16.4562 47.4361 16.4563C47.3958 16.4564 47.3562 16.467 47.3213 16.4872C47.2864 16.5074 47.2574 16.5364 47.2372 16.5713C47.217 16.6062 47.2064 16.6458 47.2063 16.6862V20.2235C47.2063 20.3113 47.2295 20.3975 47.2736 20.4734C47.3176 20.5493 47.3809 20.6122 47.4571 20.6557L50.323 22.3112C50.3583 22.3332 50.399 22.3451 50.4406 22.3458C50.4822 22.3464 50.5231 22.3357 50.5591 22.3148C50.5951 22.2939 50.6247 22.2636 50.6447 22.2272C50.6648 22.1907 50.6745 22.1495 50.6729 22.1079V19.4826L49.9011 17.8374L47.551 16.4868Z" fill="#BA68C8"/>
<path opacity="0.6" d="M47.551 16.4868C47.516 16.4667 47.4764 16.4562 47.4361 16.4563C47.3958 16.4564 47.3562 16.467 47.3213 16.4872C47.2864 16.5074 47.2574 16.5364 47.2372 16.5713C47.217 16.6062 47.2064 16.6458 47.2063 16.6862V20.2235C47.2063 20.3113 47.2295 20.3975 47.2736 20.4734C47.3176 20.5493 47.3809 20.6122 47.4571 20.6557L50.323 22.3112C50.3583 22.3332 50.399 22.3451 50.4406 22.3458C50.4822 22.3464 50.5231 22.3357 50.5591 22.3148C50.5951 22.2939 50.6247 22.2636 50.6447 22.2272C50.6648 22.1907 50.6745 22.1495 50.6729 22.1079V19.4826L49.9011 17.8374L47.551 16.4868Z" fill="white"/>
<path d="M49.7892 18.4394L49.8895 17.8374L50.6613 19.4839L49.9603 18.9063C49.8933 18.8503 49.8423 18.7777 49.8122 18.6958C49.7822 18.6138 49.7743 18.5254 49.7892 18.4394Z" fill="#BA68C8"/>
<path opacity="0.4" d="M49.7892 18.4394L49.8895 17.8374L50.6613 19.4839L49.9603 18.9063C49.8933 18.8503 49.8423 18.7777 49.8122 18.6958C49.7822 18.6138 49.7743 18.5254 49.7892 18.4394Z" fill="white"/>
<path d="M50.0684 19.8208C50.0543 19.8206 50.0405 19.8166 50.0285 19.8092L47.7659 18.5062C47.7479 18.4954 47.7349 18.4781 47.7297 18.4579C47.7244 18.4377 47.7272 18.4162 47.7376 18.3981C47.748 18.3803 47.7651 18.3673 47.7851 18.362C47.8051 18.3567 47.8264 18.3595 47.8443 18.3698L50.1082 19.6754C50.1262 19.6861 50.1392 19.7035 50.1445 19.7237C50.1498 19.7439 50.1469 19.7653 50.1365 19.7835C50.1295 19.7952 50.1195 19.8048 50.1075 19.8113C50.0955 19.8179 50.082 19.8211 50.0684 19.8208Z" fill="#FAFAFA"/>
<path d="M50.0684 20.5875C50.0545 20.5871 50.0408 20.5836 50.0285 20.5772L47.7659 19.2703C47.7479 19.2596 47.7349 19.2423 47.7297 19.2221C47.7244 19.2019 47.7272 19.1804 47.7376 19.1623C47.748 19.1444 47.7651 19.1315 47.7851 19.1262C47.8051 19.1209 47.8264 19.1237 47.8443 19.134L50.1082 20.4357C50.1262 20.4464 50.1392 20.4638 50.1445 20.484C50.1498 20.5042 50.1469 20.5256 50.1365 20.5438C50.1303 20.5567 50.1207 20.5676 50.1087 20.5753C50.0966 20.583 50.0827 20.5872 50.0684 20.5875Z" fill="#FAFAFA"/>
<path d="M50.0684 21.3541C50.0545 21.3538 50.0408 21.3502 50.0285 21.3438L47.7659 20.0369C47.7479 20.0262 47.7349 20.0089 47.7297 19.9887C47.7244 19.9685 47.7272 19.947 47.7376 19.9289C47.748 19.911 47.7651 19.8981 47.7851 19.8928C47.8051 19.8875 47.8264 19.8903 47.8443 19.9006L50.1082 21.2075C50.1234 21.2161 50.1352 21.2295 50.1419 21.2455C50.1485 21.2616 50.1497 21.2794 50.1451 21.2962C50.1406 21.313 50.1305 21.3278 50.1166 21.3383C50.1028 21.3488 50.0858 21.3543 50.0684 21.3541Z" fill="#FAFAFA"/>
<path d="M38.3414 16.1825C39.7988 15.3449 39.8043 12.6197 38.3536 10.0956C36.903 7.57145 34.5455 6.20422 33.0882 7.04179C31.6308 7.87936 31.6253 10.6046 33.076 13.1287C34.5266 15.6528 36.8841 17.0201 38.3414 16.1825Z" fill="#BA68C8"/>
<path opacity="0.2" d="M38.3414 16.1825C39.7988 15.3449 39.8043 12.6197 38.3536 10.0956C36.903 7.57145 34.5455 6.20422 33.0882 7.04179C31.6308 7.87936 31.6253 10.6046 33.076 13.1287C34.5266 15.6528 36.8841 17.0201 38.3414 16.1825Z" fill="black"/>
<path d="M37.969 16.2345C39.4197 15.3969 39.4198 12.6811 37.9691 10.1685C36.5185 7.65585 34.1665 6.29797 32.7157 7.13554C31.265 7.97311 31.265 10.689 32.7156 13.2016C34.1663 15.7142 36.5183 17.0721 37.969 16.2345Z" fill="#BA68C8"/>
<path d="M33.8621 12.943L36.728 14.5972C36.7628 14.6176 36.8024 14.6285 36.8428 14.6286C36.8832 14.6288 36.9229 14.6183 36.9579 14.5982C36.9929 14.5781 37.0219 14.5491 37.0421 14.5141C37.0623 14.4792 37.0728 14.4395 37.0727 14.3991V10.8618C37.0727 10.7738 37.0495 10.6875 37.0055 10.6114C36.9614 10.5353 36.8981 10.4721 36.8219 10.4283L33.9509 8.77408C33.9161 8.754 33.8766 8.74342 33.8364 8.74341C33.7963 8.7434 33.7568 8.75396 33.722 8.77403C33.6872 8.79411 33.6583 8.82298 33.6382 8.85776C33.6181 8.89254 33.6075 8.932 33.6074 8.97217V12.5095C33.608 12.5978 33.6318 12.6844 33.6765 12.7605C33.7213 12.8366 33.7853 12.8996 33.8621 12.943Z" fill="#BA68C8"/>
<path opacity="0.6" d="M33.8621 12.943L36.728 14.5972C36.7628 14.6176 36.8024 14.6285 36.8428 14.6286C36.8832 14.6288 36.9229 14.6183 36.9579 14.5982C36.9929 14.5781 37.0219 14.5491 37.0421 14.5141C37.0623 14.4792 37.0728 14.4395 37.0727 14.3991V10.8618C37.0727 10.7738 37.0495 10.6875 37.0055 10.6114C36.9614 10.5353 36.8981 10.4721 36.8219 10.4283L33.9509 8.77408C33.9161 8.754 33.8766 8.74342 33.8364 8.74341C33.7963 8.7434 33.7568 8.75396 33.722 8.77403C33.6872 8.79411 33.6583 8.82298 33.6382 8.85776C33.6181 8.89254 33.6075 8.932 33.6074 8.97217V12.5095C33.608 12.5978 33.6318 12.6844 33.6765 12.7605C33.7213 12.8366 33.7853 12.8996 33.8621 12.943Z" fill="white"/>
<path d="M34.6429 11.0857V12.2858C34.6429 12.3332 34.6618 12.3787 34.6953 12.4122C34.7288 12.4458 34.7743 12.4646 34.8217 12.4646H35.8624C35.8966 12.4646 35.9302 12.4547 35.959 12.4362C35.9878 12.4176 36.0107 12.3912 36.0249 12.3601C36.0392 12.3289 36.0441 12.2943 36.0392 12.2604C36.0344 12.2264 36.0199 12.1946 35.9974 12.1687L34.9568 10.9686C34.9329 10.9411 34.9012 10.9215 34.8659 10.9125C34.8306 10.9035 34.7934 10.9055 34.7593 10.9183C34.7251 10.931 34.6957 10.9538 34.6749 10.9838C34.6541 11.0137 34.643 11.0492 34.6429 11.0857Z" fill="#FAFAFA"/>
<path d="M42.7171 11.2412C42.6928 11.2412 42.6696 11.2316 42.6525 11.2144C42.6354 11.1973 42.6257 11.1741 42.6257 11.1499V10.9068C42.6257 10.8825 42.6354 10.8593 42.6525 10.8422C42.6696 10.8251 42.6928 10.8154 42.7171 10.8154C42.729 10.8154 42.7408 10.8178 42.7518 10.8224C42.7628 10.827 42.7728 10.8338 42.7812 10.8423C42.7896 10.8508 42.7962 10.8608 42.8006 10.8719C42.8051 10.883 42.8073 10.8948 42.8071 10.9068V11.1499C42.8073 11.1618 42.8051 11.1736 42.8006 11.1847C42.7962 11.1958 42.7896 11.2059 42.7812 11.2144C42.7728 11.2229 42.7628 11.2296 42.7518 11.2342C42.7408 11.2388 42.729 11.2412 42.7171 11.2412Z" fill="#BA68C8"/>
<path d="M42.7171 24.8477C42.6928 24.8477 42.6696 24.8381 42.6525 24.8209C42.6354 24.8038 42.6257 24.7806 42.6257 24.7564V24.2701C42.6257 24.2459 42.6354 24.2227 42.6525 24.2056C42.6696 24.1884 42.6928 24.1788 42.7171 24.1788C42.729 24.1788 42.7408 24.1812 42.7518 24.1858C42.7628 24.1904 42.7728 24.1971 42.7812 24.2056C42.7896 24.2141 42.7962 24.2242 42.8006 24.2353C42.8051 24.2464 42.8073 24.2582 42.8071 24.2701V24.7564C42.8073 24.7683 42.8051 24.7801 42.8006 24.7912C42.7962 24.8023 42.7896 24.8124 42.7812 24.8209C42.7728 24.8294 42.7628 24.8361 42.7518 24.8407C42.7408 24.8453 42.729 24.8477 42.7171 24.8477ZM42.7171 23.8752C42.6928 23.8752 42.6696 23.8656 42.6525 23.8485C42.6354 23.8314 42.6257 23.8081 42.6257 23.7839V23.299C42.6257 23.2747 42.6354 23.2515 42.6525 23.2344C42.6696 23.2173 42.6928 23.2076 42.7171 23.2076C42.729 23.2076 42.7408 23.21 42.7518 23.2146C42.7628 23.2192 42.7728 23.226 42.7812 23.2345C42.7896 23.243 42.7962 23.253 42.8006 23.2641C42.8051 23.2752 42.8073 23.287 42.8071 23.299V23.78C42.8078 23.7923 42.806 23.8046 42.8018 23.8161C42.7976 23.8276 42.7911 23.8382 42.7826 23.8471C42.7742 23.856 42.764 23.8631 42.7527 23.8679C42.7415 23.8728 42.7293 23.8753 42.7171 23.8752ZM42.7171 22.9041C42.6928 22.9041 42.6696 22.8944 42.6525 22.8773C42.6354 22.8602 42.6257 22.837 42.6257 22.8127V22.3265C42.6257 22.3023 42.6354 22.2791 42.6525 22.2619C42.6696 22.2448 42.6928 22.2352 42.7171 22.2352C42.729 22.2352 42.7408 22.2376 42.7518 22.2422C42.7628 22.2468 42.7728 22.2535 42.7812 22.262C42.7896 22.2705 42.7962 22.2806 42.8006 22.2917C42.8051 22.3027 42.8073 22.3146 42.8071 22.3265V22.8127C42.8073 22.8247 42.8051 22.8365 42.8006 22.8476C42.7962 22.8587 42.7896 22.8687 42.7812 22.8772C42.7728 22.8857 42.7628 22.8925 42.7518 22.8971C42.7408 22.9017 42.729 22.9041 42.7171 22.9041ZM42.7171 21.9316C42.6928 21.9316 42.6696 21.922 42.6525 21.9049C42.6354 21.8877 42.6257 21.8645 42.6257 21.8403V21.3541C42.6257 21.3421 42.6281 21.3303 42.6327 21.3193C42.6373 21.3083 42.6441 21.2983 42.6526 21.2899C42.6611 21.2816 42.6711 21.275 42.6822 21.2705C42.6933 21.2661 42.7051 21.2639 42.7171 21.264C42.7409 21.264 42.7638 21.2735 42.7807 21.2904C42.7976 21.3073 42.8071 21.3302 42.8071 21.3541V21.8403C42.8073 21.8522 42.8051 21.8641 42.8006 21.8751C42.7962 21.8862 42.7896 21.8963 42.7812 21.9048C42.7728 21.9133 42.7628 21.92 42.7518 21.9246C42.7408 21.9293 42.729 21.9316 42.7171 21.9316ZM42.7171 20.9605C42.6928 20.9605 42.6696 20.9508 42.6525 20.9337C42.6354 20.9166 42.6257 20.8934 42.6257 20.8691V20.3829C42.6257 20.3587 42.6354 20.3355 42.6525 20.3183C42.6696 20.3012 42.6928 20.2916 42.7171 20.2916C42.729 20.2916 42.7408 20.2939 42.7518 20.2986C42.7628 20.3032 42.7728 20.3099 42.7812 20.3184C42.7896 20.3269 42.7962 20.337 42.8006 20.3481C42.8051 20.3591 42.8073 20.371 42.8071 20.3829V20.8691C42.8073 20.8811 42.8051 20.8929 42.8006 20.904C42.7962 20.9151 42.7896 20.9251 42.7812 20.9336C42.7728 20.9421 42.7628 20.9489 42.7518 20.9535C42.7408 20.9581 42.729 20.9605 42.7171 20.9605ZM42.7171 19.988C42.6928 19.988 42.6696 19.9784 42.6525 19.9613C42.6354 19.9441 42.6257 19.9209 42.6257 19.8967V19.4066C42.6257 19.3824 42.6354 19.3591 42.6525 19.342C42.6696 19.3249 42.6928 19.3153 42.7171 19.3153C42.729 19.3153 42.7408 19.3176 42.7518 19.3222C42.7628 19.3269 42.7728 19.3336 42.7812 19.3421C42.7896 19.3506 42.7962 19.3607 42.8006 19.3717C42.8051 19.3828 42.8073 19.3947 42.8071 19.4066V19.8928C42.8078 19.9051 42.806 19.9173 42.8018 19.9289C42.7976 19.9404 42.7911 19.9509 42.7826 19.9598C42.7742 19.9688 42.764 19.9759 42.7527 19.9807C42.7415 19.9855 42.7293 19.988 42.7171 19.988ZM42.7171 19.0156C42.7051 19.0157 42.6933 19.0135 42.6822 19.0091C42.6711 19.0046 42.6611 18.998 42.6526 18.9896C42.6441 18.9813 42.6373 18.9713 42.6327 18.9603C42.6281 18.9493 42.6257 18.9375 42.6257 18.9255V18.4393C42.6257 18.4151 42.6354 18.3918 42.6525 18.3747C42.6696 18.3576 42.6928 18.348 42.7171 18.348C42.729 18.348 42.7408 18.3503 42.7518 18.3549C42.7628 18.3595 42.7728 18.3663 42.7812 18.3748C42.7896 18.3833 42.7962 18.3934 42.8006 18.4044C42.8051 18.4155 42.8073 18.4274 42.8071 18.4393V18.9255C42.8078 18.9378 42.806 18.95 42.8018 18.9616C42.7976 18.9731 42.7911 18.9836 42.7826 18.9925C42.7742 19.0015 42.764 19.0086 42.7527 19.0134C42.7415 19.0182 42.7293 19.0207 42.7171 19.0207V19.0156ZM42.7171 18.0444C42.6928 18.0444 42.6696 18.0348 42.6525 18.0176C42.6354 18.0005 42.6257 17.9773 42.6257 17.9531V17.4668C42.6257 17.4426 42.6354 17.4194 42.6525 17.4023C42.6696 17.3851 42.6928 17.3755 42.7171 17.3755C42.729 17.3755 42.7408 17.3779 42.7518 17.3825C42.7628 17.3871 42.7728 17.3938 42.7812 17.4023C42.7896 17.4108 42.7962 17.4209 42.8006 17.432C42.8051 17.4431 42.8073 17.4549 42.8071 17.4668V17.9531C42.8073 17.965 42.8051 17.9768 42.8006 17.9879C42.7962 17.999 42.7896 18.0091 42.7812 18.0176C42.7728 18.0261 42.7628 18.0328 42.7518 18.0374C42.7408 18.042 42.729 18.0444 42.7171 18.0444ZM42.7171 17.0719C42.7051 17.0719 42.6932 17.0696 42.6821 17.065C42.671 17.0604 42.661 17.0537 42.6525 17.0452C42.644 17.0367 42.6373 17.0267 42.6327 17.0156C42.6281 17.0045 42.6257 16.9926 42.6257 16.9806V16.4957C42.6257 16.4715 42.6354 16.4482 42.6525 16.4311C42.6696 16.414 42.6928 16.4044 42.7171 16.4044C42.729 16.4044 42.7408 16.4067 42.7518 16.4113C42.7628 16.4159 42.7728 16.4227 42.7812 16.4312C42.7896 16.4397 42.7962 16.4498 42.8006 16.4608C42.8051 16.4719 42.8073 16.4837 42.8071 16.4957V16.9806C42.8073 16.9926 42.8051 17.0044 42.8006 17.0155C42.7962 17.0265 42.7896 17.0366 42.7812 17.0451C42.7728 17.0536 42.7628 17.0604 42.7518 17.065C42.7408 17.0696 42.729 17.0719 42.7171 17.0719ZM42.7171 16.1008C42.6928 16.1008 42.6696 16.0912 42.6525 16.074C42.6354 16.0569 42.6257 16.0337 42.6257 16.0095V15.5232C42.6257 15.499 42.6354 15.4758 42.6525 15.4587C42.6696 15.4415 42.6928 15.4319 42.7171 15.4319C42.729 15.4319 42.7408 15.4343 42.7518 15.4389C42.7628 15.4435 42.7728 15.4502 42.7812 15.4587C42.7896 15.4672 42.7962 15.4773 42.8006 15.4884C42.8051 15.4995 42.8073 15.5113 42.8071 15.5232V16.0095C42.8073 16.0214 42.8051 16.0332 42.8006 16.0443C42.7962 16.0554 42.7896 16.0655 42.7812 16.074C42.7728 16.0825 42.7628 16.0892 42.7518 16.0938C42.7408 16.0984 42.729 16.1008 42.7171 16.1008ZM42.7171 15.1283C42.6928 15.1283 42.6696 15.1187 42.6525 15.1016C42.6354 15.0845 42.6257 15.0612 42.6257 15.037V14.5508C42.6257 14.5388 42.6281 14.527 42.6327 14.516C42.6373 14.505 42.6441 14.495 42.6526 14.4867C42.6611 14.4783 42.6711 14.4717 42.6822 14.4672C42.6933 14.4628 42.7051 14.4606 42.7171 14.4607C42.7409 14.4607 42.7638 14.4702 42.7807 14.4871C42.7976 14.504 42.8071 14.5269 42.8071 14.5508V15.0331C42.8078 15.0454 42.806 15.0577 42.8018 15.0692C42.7976 15.0807 42.7911 15.0913 42.7826 15.1002C42.7742 15.1091 42.764 15.1162 42.7527 15.121C42.7415 15.1259 42.7293 15.1284 42.7171 15.1283ZM42.7171 14.1572C42.6928 14.1572 42.6696 14.1475 42.6525 14.1304C42.6354 14.1133 42.6257 14.0901 42.6257 14.0658V13.5796C42.6257 13.5554 42.6354 13.5322 42.6525 13.515C42.6696 13.4979 42.6928 13.4883 42.7171 13.4883C42.729 13.4883 42.7408 13.4907 42.7518 13.4953C42.7628 13.4999 42.7728 13.5066 42.7812 13.5151C42.7896 13.5236 42.7962 13.5337 42.8006 13.5448C42.8051 13.5558 42.8073 13.5677 42.8071 13.5796V14.0658C42.8073 14.0778 42.8051 14.0896 42.8006 14.1007C42.7962 14.1118 42.7896 14.1218 42.7812 14.1303C42.7728 14.1388 42.7628 14.1456 42.7518 14.1502C42.7408 14.1548 42.729 14.1572 42.7171 14.1572ZM42.7171 13.1847C42.6928 13.1847 42.6696 13.1751 42.6525 13.158C42.6354 13.1408 42.6257 13.1176 42.6257 13.0934V12.6072C42.6257 12.5829 42.6354 12.5597 42.6525 12.5426C42.6696 12.5255 42.6928 12.5158 42.7171 12.5158C42.729 12.5158 42.7408 12.5182 42.7518 12.5228C42.7628 12.5274 42.7728 12.5342 42.7812 12.5427C42.7896 12.5512 42.7962 12.5612 42.8006 12.5723C42.8051 12.5834 42.8073 12.5952 42.8071 12.6072V13.0934C42.8073 13.1053 42.8051 13.1172 42.8006 13.1282C42.7962 13.1393 42.7896 13.1494 42.7812 13.1579C42.7728 13.1664 42.7628 13.1731 42.7518 13.1777C42.7408 13.1824 42.729 13.1847 42.7171 13.1847ZM42.7171 12.2123C42.7051 12.2124 42.6933 12.2102 42.6822 12.2058C42.6711 12.2013 42.6611 12.1947 42.6526 12.1864C42.6441 12.178 42.6373 12.168 42.6327 12.157C42.6281 12.146 42.6257 12.1342 42.6257 12.1222V11.636C42.6257 11.6118 42.6354 11.5886 42.6525 11.5714C42.6696 11.5543 42.6928 11.5447 42.7171 11.5447C42.729 11.5447 42.7408 11.547 42.7518 11.5517C42.7628 11.5563 42.7728 11.563 42.7812 11.5715C42.7896 11.58 42.7962 11.5901 42.8006 11.6012C42.8051 11.6122 42.8073 11.6241 42.8071 11.636V12.1222C42.8071 12.1341 42.8048 12.1458 42.8002 12.1567C42.7957 12.1676 42.7891 12.1775 42.7807 12.1859C42.7724 12.1943 42.7624 12.2009 42.7515 12.2054C42.7406 12.2099 42.7289 12.2123 42.7171 12.2123Z" fill="#BA68C8"/>
<path d="M42.7171 25.5807C42.7051 25.5809 42.6933 25.5787 42.6822 25.5743C42.6711 25.5698 42.6611 25.5632 42.6526 25.5548C42.6441 25.5464 42.6373 25.5365 42.6327 25.5254C42.6281 25.5144 42.6257 25.5026 42.6257 25.4907V25.2476C42.6257 25.2234 42.6354 25.2001 42.6525 25.183C42.6696 25.1659 42.6928 25.1563 42.7171 25.1563C42.729 25.1562 42.7408 25.1586 42.7518 25.1632C42.7628 25.1678 42.7728 25.1746 42.7812 25.1831C42.7896 25.1916 42.7962 25.2017 42.8006 25.2127C42.8051 25.2238 42.8073 25.2356 42.8071 25.2476V25.4907C42.8071 25.5146 42.7976 25.5375 42.7807 25.5544C42.7638 25.5712 42.7409 25.5807 42.7171 25.5807Z" fill="#BA68C8"/>
<path d="M45.0132 19.5983C44.9963 19.5985 44.9797 19.5939 44.9653 19.585C44.951 19.5762 44.9395 19.5634 44.9321 19.5482C44.9267 19.5375 44.9234 19.5258 44.9225 19.5138C44.9216 19.5018 44.9231 19.4898 44.927 19.4784C44.9308 19.467 44.9369 19.4565 44.9448 19.4475C44.9528 19.4385 44.9625 19.4312 44.9733 19.426L45.1907 19.3179C45.2013 19.3126 45.2129 19.3094 45.2248 19.3086C45.2366 19.3077 45.2486 19.3092 45.2599 19.313C45.2711 19.3168 45.2816 19.3227 45.2906 19.3305C45.2996 19.3383 45.3069 19.3478 45.3122 19.3584C45.3176 19.3691 45.3207 19.3807 45.3216 19.3925C45.3224 19.4044 45.3209 19.4163 45.3172 19.4276C45.3134 19.4389 45.3074 19.4493 45.2996 19.4583C45.2919 19.4673 45.2824 19.4747 45.2717 19.48L45.0543 19.5893C45.0415 19.5955 45.0274 19.5986 45.0132 19.5983Z" fill="#BA68C8"/>
<path d="M43.943 20.1308C43.9261 20.131 43.9095 20.1264 43.8952 20.1175C43.8808 20.1087 43.8693 20.0959 43.862 20.0807C43.8554 20.0697 43.8513 20.0575 43.8498 20.0448C43.8484 20.0321 43.8496 20.0192 43.8535 20.0071C43.8574 19.9949 43.8639 19.9837 43.8724 19.9742C43.881 19.9647 43.8914 19.9572 43.9031 19.952L44.4382 19.6858C44.4493 19.6794 44.4615 19.6755 44.4741 19.6741C44.4868 19.6728 44.4995 19.6741 44.5117 19.6779C44.5238 19.6818 44.5349 19.6882 44.5444 19.6966C44.5539 19.705 44.5616 19.7154 44.5669 19.7269C44.5732 19.7379 44.5772 19.7502 44.5785 19.7628C44.5799 19.7754 44.5786 19.7882 44.5747 19.8003C44.5708 19.8124 44.5645 19.8236 44.556 19.8331C44.5476 19.8426 44.5373 19.8503 44.5257 19.8556L43.9842 20.1218C43.9713 20.128 43.9572 20.1311 43.943 20.1308Z" fill="#BA68C8"/>
<path d="M43.1903 20.5053C43.1734 20.5055 43.1569 20.5009 43.1425 20.492C43.1282 20.4832 43.1166 20.4704 43.1093 20.4552C43.1027 20.4442 43.0986 20.432 43.0971 20.4193C43.0957 20.4066 43.0969 20.3937 43.1008 20.3816C43.1047 20.3694 43.1112 20.3582 43.1197 20.3487C43.1283 20.3392 43.1388 20.3317 43.1505 20.3265L43.3678 20.2185C43.3789 20.2121 43.3911 20.2082 43.4037 20.2068C43.4164 20.2055 43.4291 20.2068 43.4413 20.2106C43.4534 20.2145 43.4645 20.2209 43.474 20.2293C43.4835 20.2378 43.4912 20.2481 43.4965 20.2596C43.5072 20.2813 43.5089 20.3063 43.5011 20.3293C43.4934 20.3522 43.4769 20.3711 43.4553 20.3818L43.2379 20.4899C43.2238 20.4994 43.2073 20.5047 43.1903 20.5053Z" fill="#BA68C8"/>
<path d="M39.8229 13.9139C39.8074 13.9141 39.792 13.9101 39.7785 13.9024C39.7649 13.8947 39.7536 13.8836 39.7457 13.8702L39.6171 13.6618C39.6102 13.6516 39.6054 13.64 39.6031 13.6278C39.6008 13.6156 39.6011 13.6031 39.6039 13.591C39.6066 13.579 39.6119 13.5676 39.6192 13.5576C39.6266 13.5477 39.636 13.5394 39.6467 13.5332C39.6571 13.5266 39.6688 13.5222 39.6809 13.5203C39.6931 13.5183 39.7055 13.5187 39.7175 13.5216C39.7295 13.5245 39.7408 13.5297 39.7507 13.537C39.7606 13.5443 39.769 13.5535 39.7753 13.5641L39.904 13.7724C39.9125 13.7862 39.9172 13.8021 39.9176 13.8183C39.9179 13.8345 39.9138 13.8505 39.9058 13.8646C39.8977 13.8788 39.886 13.8904 39.8719 13.8984C39.8578 13.9064 39.8417 13.9104 39.8255 13.9101L39.8229 13.9139Z" fill="#BA68C8"/>
<path d="M41.8192 17.2083C41.8035 17.2084 41.788 17.2044 41.7742 17.1967C41.7605 17.1891 41.7489 17.178 41.7407 17.1646L41.4912 16.7529C41.4842 16.7427 41.4794 16.7312 41.4771 16.7191C41.4747 16.7069 41.4748 16.6944 41.4774 16.6823C41.48 16.6703 41.4851 16.6588 41.4922 16.6487C41.4994 16.6387 41.5085 16.6301 41.5191 16.6237C41.5296 16.6172 41.5414 16.613 41.5536 16.6112C41.5658 16.6094 41.5783 16.6102 41.5903 16.6133C41.6022 16.6165 41.6134 16.6221 41.6231 16.6297C41.6328 16.6374 41.6409 16.6469 41.6468 16.6578L41.8964 17.0694C41.9029 17.0798 41.9073 17.0915 41.9093 17.1036C41.9113 17.1158 41.9108 17.1282 41.908 17.1402C41.9051 17.1522 41.8999 17.1634 41.8926 17.1734C41.8853 17.1833 41.8761 17.1917 41.8655 17.198C41.8513 17.2056 41.8353 17.2092 41.8192 17.2083ZM41.3201 16.3851C41.3044 16.3851 41.2889 16.3812 41.2751 16.3735C41.2614 16.3658 41.2499 16.3548 41.2417 16.3413L40.9921 15.9297C40.9856 15.9193 40.9812 15.9076 40.9792 15.8955C40.9772 15.8833 40.9777 15.8709 40.9805 15.8589C40.9834 15.8469 40.9886 15.8356 40.9959 15.8257C41.0032 15.8158 41.0124 15.8074 41.023 15.8011C41.0334 15.7944 41.045 15.7898 41.0572 15.7877C41.0694 15.7856 41.0819 15.7861 41.0939 15.7889C41.1059 15.7918 41.1173 15.7971 41.1272 15.8045C41.1371 15.8119 41.1454 15.8212 41.1516 15.8319L41.4012 16.2436C41.4092 16.2574 41.4135 16.2731 41.4136 16.2891C41.4137 16.3051 41.4097 16.3209 41.4019 16.3349C41.3942 16.3489 41.3829 16.3606 41.3692 16.369C41.3556 16.3773 41.34 16.382 41.324 16.3825L41.3201 16.3851ZM40.821 15.5618C40.8052 15.5615 40.7897 15.5573 40.776 15.5494C40.7623 15.5415 40.7508 15.5303 40.7426 15.5168L40.493 15.1052C40.4833 15.0847 40.4815 15.0614 40.488 15.0396C40.4945 15.0179 40.5089 14.9994 40.5283 14.9877C40.5477 14.976 40.5708 14.9719 40.593 14.9763C40.6153 14.9806 40.6351 14.9931 40.6487 15.0113L40.8969 15.419C40.9039 15.4293 40.9086 15.4409 40.9109 15.453C40.9132 15.4652 40.913 15.4777 40.9102 15.4898C40.9074 15.5019 40.9022 15.5133 40.8948 15.5232C40.8874 15.5332 40.8781 15.5415 40.8673 15.5477C40.8534 15.5562 40.8374 15.5611 40.821 15.5618ZM40.3219 14.7373C40.3062 14.7373 40.2908 14.7332 40.2771 14.7256C40.2633 14.7179 40.2518 14.7069 40.2435 14.6936L39.9939 14.2819C39.9878 14.2716 39.9837 14.2602 39.9819 14.2483C39.9802 14.2365 39.9808 14.2244 39.9837 14.2127C39.9866 14.2011 39.9918 14.1901 39.999 14.1805C40.0062 14.1708 40.0151 14.1627 40.0254 14.1565C40.0358 14.1504 40.0472 14.1463 40.059 14.1445C40.0709 14.1428 40.083 14.1434 40.0947 14.1463C40.1063 14.1492 40.1173 14.1544 40.1269 14.1616C40.1366 14.1688 40.1447 14.1777 40.1509 14.188L40.4004 14.5997C40.409 14.6134 40.4137 14.6293 40.414 14.6455C40.4143 14.6618 40.4102 14.6778 40.4022 14.6919C40.3942 14.706 40.3825 14.7176 40.3683 14.7256C40.3542 14.7336 40.3382 14.7377 40.3219 14.7373Z" fill="#BA68C8"/>
<path d="M42.1936 17.8282C42.1779 17.8281 42.1625 17.8238 42.149 17.8159C42.1355 17.808 42.1242 17.7967 42.1164 17.7832L41.9878 17.5761C41.9765 17.5555 41.9736 17.5314 41.9796 17.5087C41.9857 17.486 42.0002 17.4666 42.0202 17.4543C42.0403 17.4421 42.0642 17.438 42.0871 17.443C42.1101 17.4479 42.1302 17.4615 42.1434 17.4809L42.272 17.6893C42.279 17.6996 42.2836 17.7112 42.2858 17.7235C42.288 17.7357 42.2877 17.7483 42.2848 17.7603C42.2819 17.7724 42.2765 17.7838 42.269 17.7937C42.2615 17.8036 42.252 17.8118 42.2412 17.8179C42.2266 17.8256 42.2101 17.8292 42.1936 17.8282Z" fill="#BA68C8"/>
<path d="M15.7651 31.561L9.99471 34.9736V38.1624L6.98218 39.85V41.5647L12.5725 44.8074L21.3541 39.8796V34.8038L15.7651 31.561Z" fill="#263238"/>
<path d="M6.98218 39.8499L12.5725 43.0926V44.8073L6.98218 41.5645V39.8499Z" fill="#455A64"/>
<path d="M15.5836 38.2176V41.4063L12.5724 43.0927V44.8073L21.354 39.8795V34.8037L15.5836 38.2176Z" fill="#263238"/>
<path d="M12.5725 43.0928L15.5837 41.4064L9.99471 38.1624L6.98218 39.85L12.5725 43.0928Z" fill="#37474F"/>
<path d="M15.5836 41.4065V38.2177L9.99463 34.9736V38.1624L15.5836 41.4065Z" fill="#455A64"/>
<path d="M15.5836 38.2177L9.99463 34.9736L15.765 31.561L21.354 34.8038L15.5836 38.2177Z" fill="#37474F"/>
<path d="M17.1671 23.1846C17.1671 23.1846 15.7907 25.114 16.6088 25.7816C17.4269 26.4492 19.2213 25.9103 19.2933 25.5925C19.3654 25.2748 17.1671 23.1846 17.1671 23.1846Z" fill="#263238"/>
<path d="M11.0185 40.0713L8.99646 42.7622L9.55858 43.206C9.55858 43.206 10.369 43.0362 10.6558 41.966C10.824 41.3444 10.9452 40.7111 11.0185 40.0713Z" fill="#FFA8A7"/>
<path d="M11.2011 39.8887C11.2011 39.8887 11.7632 40.4032 11.515 40.8547C11.2667 41.3062 10.8358 41.6779 10.8229 42.2786C10.8101 42.8793 10.5091 43.9508 9.84278 44.1206C9.17647 44.2904 8.52431 44.0589 8.53717 43.8222C8.55004 43.5855 8.99639 42.7623 8.99639 42.7623C8.99639 42.7623 9.60867 43.1417 10.0602 42.7751C10.5117 42.4086 10.6158 40.8688 10.6158 40.8688L11.2011 39.8887Z" fill="#BA68C8"/>
<path opacity="0.2" d="M11.2011 39.8887C11.2011 39.8887 11.7632 40.4032 11.515 40.8547C11.2667 41.3062 10.8358 41.6779 10.8229 42.2786C10.8101 42.8793 10.5091 43.9508 9.84278 44.1206C9.17647 44.2904 8.52431 44.0589 8.53717 43.8222C8.55004 43.5855 8.99639 42.7623 8.99639 42.7623C8.99639 42.7623 9.60867 43.1417 10.0602 42.7751C10.5117 42.4086 10.6158 40.8688 10.6158 40.8688L11.2011 39.8887Z" fill="black"/>
<path d="M14.6563 31.5586C14.6563 31.5586 10.1465 33.4662 9.78116 33.654C9.41585 33.8418 8.77527 34.1685 8.83958 35.6388C8.9039 37.109 9.27307 40.7506 9.27307 40.7506L11.7454 35.9912L18.1293 32.9568L14.6563 31.5586Z" fill="#BA68C8"/>
<path opacity="0.5" d="M14.6563 31.5586C14.6563 31.5586 10.1465 33.4662 9.78116 33.654C9.41585 33.8418 8.77527 34.1685 8.83958 35.6388C8.9039 37.109 9.27307 40.7506 9.27307 40.7506L11.7454 35.9912L18.1293 32.9568L14.6563 31.5586Z" fill="black"/>
<path d="M9.08899 38.8658C9.18418 39.9052 9.27036 40.7503 9.27036 40.7503L11.7426 35.9909L16.2949 33.8235L15.2658 33.0144C13.811 33.745 11.6976 34.8049 11.066 35.1291C10.2634 35.5407 10.0151 36.7048 9.3231 38.3217C9.24463 38.4992 9.16745 38.6793 9.08899 38.8658Z" fill="#BA68C8"/>
<path opacity="0.7" d="M9.08899 38.8658C9.18418 39.9052 9.27036 40.7503 9.27036 40.7503L11.7426 35.9909L16.2949 33.8235L15.2658 33.0144C13.811 33.745 11.6976 34.8049 11.066 35.1291C10.2634 35.5407 10.0151 36.7048 9.3231 38.3217C9.24463 38.4992 9.16745 38.6793 9.08899 38.8658Z" fill="black"/>
<path d="M15.028 32.5308L15.4936 33.2344L15.1296 33.2897L15.028 32.5308Z" fill="#BA68C8"/>
<path opacity="0.7" d="M15.028 32.5308L15.4936 33.2344L15.1296 33.2897L15.028 32.5308Z" fill="black"/>
<path d="M9.02086 43.822C9.02086 43.822 9.08517 43.9301 9.08517 44.4742C9.08517 45.0183 8.86779 45.1328 8.59895 45.2241C8.33011 45.3154 7.53131 45.9007 7.31264 46.1554C7.09397 46.4101 6.21156 46.6699 5.33944 46.5181C4.46732 46.3663 4.28338 45.7901 4.70272 45.4209C5.12206 45.0517 6.31704 44.379 6.31704 44.379L9.02086 43.822Z" fill="#BA68C8"/>
<path d="M19.4631 32.6853L17.5234 32.2363C17.5234 32.2363 12.135 34.9376 11.3324 35.3492C10.5297 35.7608 10.2827 36.9262 9.58814 38.5431C9.07361 39.7599 8.38801 41.4296 7.93909 42.4329C7.93909 42.4329 8.25809 43.2793 9.26913 43.0671C9.61129 42.3197 10.2159 41.6521 11.0957 40.4636C11.6602 39.7294 12.0611 38.8829 12.2714 37.981C12.3048 37.8204 12.383 37.6726 12.4967 37.5545C12.6105 37.4364 12.7553 37.3528 12.9145 37.3134C13.8034 37.0973 15.6158 36.6278 17.5298 35.9692C20.2272 35.0405 19.4631 32.6853 19.4631 32.6853Z" fill="#BA68C8"/>
<path opacity="0.5" d="M19.4631 32.6853L17.5234 32.2363C17.5234 32.2363 12.135 34.9376 11.3324 35.3492C10.5297 35.7608 10.2827 36.9262 9.58814 38.5431C9.07361 39.7599 8.38801 41.4296 7.93909 42.4329C7.93909 42.4329 8.25809 43.2793 9.26913 43.0671C9.61129 42.3197 10.2159 41.6521 11.0957 40.4636C11.6602 39.7294 12.0611 38.8829 12.2714 37.981C12.3048 37.8204 12.383 37.6726 12.4967 37.5545C12.6105 37.4364 12.7553 37.3528 12.9145 37.3134C13.8034 37.0973 15.6158 36.6278 17.5298 35.9692C20.2272 35.0405 19.4631 32.6853 19.4631 32.6853Z" fill="black"/>
<path d="M7.93908 42.4316C7.79115 42.7622 7.66895 43.0208 7.58534 43.1661C7.24704 43.754 6.26044 44.3907 5.91314 44.6917C5.56584 44.9927 5.49252 45.1059 5.82438 45.3606C6.66434 46.0037 7.3924 45.3014 7.86318 44.846C8.17754 44.5575 8.52263 44.3043 8.89223 44.091C8.9188 44.0763 8.94188 44.0561 8.95986 44.0317C8.97785 44.0072 8.99033 43.9792 8.99642 43.9495C9.04856 43.6446 9.14068 43.3479 9.27041 43.0671C8.25808 43.2793 7.93908 42.4316 7.93908 42.4316Z" fill="#FFA8A7"/>
<path d="M17.4064 34.5271L14.0144 36.4848L8.3739 33.224L11.7659 31.2251L17.4064 34.5271Z" fill="#37474F"/>
<path d="M14.3785 33.9691L13.1063 33.2347L13.9038 32.7742L15.1773 33.5087L14.3785 33.9691Z" fill="#263238"/>
<path d="M13.869 35.9962L15.5837 34.9865L12.2341 32.9592L13.869 35.9962Z" fill="#263238"/>
<path d="M13.9692 29.9441L12.6122 30.5872C12.2068 30.6898 11.8071 30.8135 11.4146 30.9577C11.4146 30.9577 10.4705 31.3436 10.4267 31.6009C10.383 31.8581 11.1355 32.464 11.7954 32.1668C11.9693 32.0755 12.155 32.0084 12.3472 31.9675C12.7484 31.9293 13.1276 31.7665 13.4316 31.5018L14.5288 31.2008C14.5288 31.2008 15.0948 30.1023 13.9692 29.9441Z" fill="#FFA8A7"/>
<path d="M13.0907 31.8375C12.9338 32.006 12.4861 32.4304 12.3884 32.5526C12.2906 32.6748 12.0591 32.3597 12.4643 31.8902C12.8145 31.7615 13.1438 31.5821 13.4419 31.3577C13.3374 31.5264 13.22 31.6868 13.0907 31.8375Z" fill="#FFA8A7"/>
<path d="M16.7465 25.2259C16.4348 25.1761 16.1154 25.2387 15.8455 25.4024C15.5755 25.5661 15.3724 25.8204 15.2724 26.1199C15.1286 26.5522 15.0357 26.9999 14.9959 27.4538C14.8788 28.8507 14.8467 29.5492 14.8467 29.5492L13.442 30.1923C13.442 30.1923 14.2009 30.2283 14.1495 31.2986L15.8976 30.8548L16.7465 25.2259Z" fill="#BA68C8"/>
<path opacity="0.3" d="M16.7465 25.2259C16.4348 25.1761 16.1154 25.2387 15.8455 25.4024C15.5755 25.5661 15.3724 25.8204 15.2724 26.1199C15.1286 26.5522 15.0357 26.9999 14.9959 27.4538C14.8788 28.8507 14.8467 29.5492 14.8467 29.5492L13.442 30.1923C13.442 30.1923 14.1945 30.2283 14.1495 31.2986L15.8976 30.8548L16.7465 25.2259Z" fill="white"/>
<path d="M14.8466 29.5493C15.0043 29.5985 15.1468 29.687 15.2607 29.8066C15.2607 29.8066 15.091 29.485 14.8543 29.386L14.8466 29.5493Z" fill="#BA68C8"/>
<path opacity="0.1" d="M14.8466 29.5493C15.0043 29.5985 15.1468 29.687 15.2607 29.8066C15.2607 29.8066 15.091 29.485 14.8543 29.386L14.8466 29.5493Z" fill="white"/>
<path d="M16.1316 22.0538C16.1316 22.0538 15.2647 21.7966 15.5772 20.8177C15.8898 19.8388 18.101 19.4195 19.7655 20.8177C19.7655 20.8177 20.9334 20.6376 20.9334 22.2686C20.9334 23.8997 20.28 24.6444 21.2859 25.0689C21.2859 25.0689 20.6723 25.6503 20.1758 25.0689C20.1758 25.0689 20.0716 26.3424 18.1897 25.8986L16.1316 22.0538Z" fill="#263238"/>
<path d="M18.9615 25.7815L19.9469 26.2009V29.0899C19.6384 29.8292 19.4713 30.6198 19.4542 31.4207V32.8511C19.4542 32.8511 17.4398 33.5688 15.8783 32.7919C15.1219 32.4163 14.6537 31.5583 14.6537 31.5583C14.6537 31.5583 15.4859 31.0682 15.4859 30.4701C15.4698 30.0028 15.4142 29.5376 15.32 29.0796C15.1378 28.8986 14.9998 28.6781 14.9166 28.4352C14.8334 28.1923 14.8073 27.9335 14.8402 27.6788C14.9508 26.7244 16.7465 25.2258 16.7465 25.2258L17.4154 25.3172L18.9615 25.7815Z" fill="#BA68C8"/>
<path d="M18.9615 25.7815L17.4154 25.3171V23.4456H18.9615V25.7815Z" fill="#FFA8A7"/>
<path d="M17.4154 25.3239C17.7304 25.2062 18.0181 25.0258 18.2613 24.7936C18.5046 24.5615 18.6981 24.2824 18.8303 23.9733V23.4587H17.4154V25.3239Z" fill="#F28F8F"/>
<path d="M17.0552 20.9103C17.0552 20.9103 15.6402 20.9927 15.8152 23.4122C15.8962 24.53 16.1573 25.1088 17.0191 25.0664C17.9942 25.0188 19.3795 24.3486 19.2895 22.4346C19.1994 20.5206 17.0552 20.9103 17.0552 20.9103Z" fill="#FFA8A7"/>
<path d="M18.9615 23.4455C18.9615 23.4455 18.5756 23.5484 18.5756 22.9928C18.5756 22.9928 16.8519 22.8757 16.4712 21.1649C16.4712 21.1649 16.641 20.6504 17.7176 20.6504C18.7943 20.6504 19.6973 21.601 19.4168 22.9091L18.9615 23.4455Z" fill="#263238"/>
<path d="M16.852 22.9258V23.758L16.3645 23.6088L16.852 22.9258Z" fill="#F28F8F"/>
<path d="M17.584 23.0148C17.584 23.0484 17.574 23.0813 17.5553 23.1092C17.5365 23.1372 17.51 23.1589 17.4789 23.1718C17.4478 23.1846 17.4135 23.1879 17.3806 23.1812C17.3476 23.1745 17.3174 23.1582 17.2937 23.1344C17.27 23.1105 17.2539 23.0801 17.2475 23.0471C17.2411 23.0141 17.2446 22.9799 17.2577 22.9489C17.2707 22.9179 17.2927 22.8915 17.3208 22.873C17.3489 22.8545 17.3818 22.8447 17.4155 22.845C17.4377 22.845 17.4597 22.8494 17.4802 22.8579C17.5008 22.8665 17.5194 22.879 17.5351 22.8948C17.5507 22.9106 17.5631 22.9293 17.5715 22.9499C17.5799 22.9705 17.5841 22.9925 17.584 23.0148Z" fill="#263238"/>
<path d="M16.47 22.8963C16.4702 22.93 16.4604 22.963 16.4419 22.9911C16.4233 23.0192 16.3968 23.0412 16.3657 23.0542C16.3347 23.0672 16.3004 23.0707 16.2674 23.0642C16.2343 23.0577 16.2039 23.0415 16.1801 23.0176C16.1563 22.9938 16.1401 22.9634 16.1336 22.9304C16.1271 22.8973 16.1305 22.8631 16.1435 22.832C16.1566 22.8009 16.1785 22.7744 16.2066 22.7559C16.2347 22.7373 16.2678 22.7275 16.3014 22.7278C16.346 22.7281 16.3887 22.746 16.4202 22.7775C16.4518 22.809 16.4696 22.8517 16.47 22.8963Z" fill="#263238"/>
<path d="M16.0943 22.5438L16.4262 22.347C16.4262 22.347 16.2975 22.2183 16.1689 22.2942C16.1329 22.3235 16.1065 22.363 16.0932 22.4075C16.0799 22.452 16.0803 22.4995 16.0943 22.5438Z" fill="#263238"/>
<path d="M16.8944 24.0373C17.0875 24.0511 17.2797 23.9995 17.4398 23.8906C17.4398 23.8906 17.4771 24.1788 17.2366 24.2328C17.1657 24.2449 17.0928 24.2321 17.0304 24.1964C16.968 24.1607 16.9199 24.1045 16.8944 24.0373Z" fill="#F28F8F"/>
<path d="M18.8252 23.5088C18.8192 23.3681 18.8452 23.2278 18.9011 23.0985C18.9281 23.0179 18.9782 22.9469 19.0452 22.8945C19.1122 22.8422 19.1932 22.8107 19.2779 22.8039C19.7114 22.7924 19.7706 23.2104 19.7642 23.3596C19.7487 23.7455 19.4323 24.1726 18.8432 24.1893L18.8252 23.5088Z" fill="#FFA8A7"/>
<path d="M17.4153 25.3237L16.9586 25.9167C16.9073 25.9835 16.8712 26.0606 16.8529 26.1427C16.8345 26.2249 16.8344 26.31 16.8524 26.3923C16.8704 26.4745 16.9061 26.5518 16.9572 26.6187C17.0082 26.6857 17.0732 26.7407 17.1477 26.7798C17.3502 26.8857 17.5831 26.918 17.8068 26.8711C18.0304 26.8241 18.2307 26.7009 18.3736 26.5226L18.9614 25.7881L17.4153 25.3237Z" fill="#FFA8A7"/>
<path d="M17.4063 32.45L16.12 33.1536C15.9222 33.1388 15.7235 33.1388 15.5257 33.1536C15.2967 33.1819 14.6896 33.2925 14.5327 33.2989C14.3758 33.3053 14.5262 33.5986 14.9379 33.5729C14.9379 33.5729 14.0104 33.9974 13.977 34.2521C13.9436 34.5068 14.7205 35.0856 15.3688 34.7666C15.5381 34.668 15.7204 34.5935 15.9103 34.5453C16.3102 34.4887 16.6824 34.3088 16.9754 34.0308L18.0597 33.6835C18.0597 33.6835 18.5357 32.5606 17.4063 32.45Z" fill="#FFA8A7"/>
<path d="M19.9468 26.2009C19.9468 26.2009 19.1583 26.7386 19.2933 28.4108C19.3719 29.4225 19.3719 30.4387 19.2933 31.4504L17.405 32.4498C17.6076 32.5845 17.7728 32.7682 17.8852 32.9839C17.9977 33.1996 18.0537 33.4402 18.0482 33.6834C18.0482 33.6834 20.7597 33.1251 20.9218 32.4935C21.0839 31.862 21.143 28.8404 21.143 28.3156C21.143 27.7908 20.9321 26.6203 19.9468 26.2009Z" fill="#BA68C8"/>
<path opacity="0.3" d="M19.9468 26.2009C19.9468 26.2009 19.1583 26.7386 19.2933 28.4108C19.3719 29.4225 19.3719 30.4387 19.2933 31.4504L17.405 32.4498C17.6076 32.5845 17.7728 32.7682 17.8852 32.9839C17.9977 33.1996 18.0537 33.4402 18.0482 33.6834C18.0482 33.6834 20.7597 33.1251 20.9218 32.4935C21.0839 31.862 21.143 28.8404 21.143 28.3156C21.143 27.7908 20.9321 26.6203 19.9468 26.2009Z" fill="white"/>
<path d="M19.2948 31.4504C19.5026 31.446 19.7091 31.4836 19.9019 31.561C19.7284 31.4261 19.5235 31.3376 19.3064 31.3037L19.2948 31.4504Z" fill="#BA68C8"/>
<path opacity="0.1" d="M19.2948 31.4504C19.5026 31.446 19.7091 31.4836 19.9019 31.561C19.7284 31.4261 19.5235 31.3376 19.3064 31.3037L19.2948 31.4504Z" fill="white"/>
<path d="M7.58792 29.4861L8.17705 33.345C8.17644 33.3471 8.17644 33.3494 8.17705 33.3515L14.0362 36.7499C14.0376 36.7506 14.0392 36.7509 14.0408 36.7508C14.0424 36.7506 14.0439 36.7501 14.0453 36.7492C14.0466 36.7482 14.0476 36.747 14.0483 36.7455C14.0489 36.7441 14.0492 36.7425 14.0491 36.7409L13.4766 32.9964C13.4644 32.9173 13.4351 32.8417 13.3906 32.7751C13.3462 32.7084 13.2878 32.6523 13.2194 32.6106L7.84776 29.3112C7.81969 29.2934 7.78706 29.2842 7.75385 29.2847C7.72064 29.2852 7.68829 29.2953 7.66074 29.3138C7.63319 29.3324 7.61163 29.3585 7.5987 29.3891C7.58577 29.4197 7.58203 29.4534 7.58792 29.4861Z" fill="#455A64"/>
<path d="M14.0401 36.7511L17.1684 34.9387C17.2406 34.8969 17.3005 34.8369 17.3423 34.7647C17.384 34.6924 17.4061 34.6105 17.4063 34.5271L14.0131 36.4849L14.0401 36.7511Z" fill="#263238"/>
<path d="M10.9774 33.2061C10.9774 33.4827 10.7845 33.592 10.5452 33.4557C10.4194 33.3736 10.3148 33.2631 10.2397 33.133C10.1646 33.0029 10.1212 32.857 10.113 32.707C10.113 32.4318 10.3073 32.3211 10.5452 32.4575C10.6711 32.5395 10.7758 32.65 10.8509 32.7801C10.926 32.9102 10.9694 33.0561 10.9774 33.2061Z" fill="#37474F"/>
<path opacity="0.2" d="M16.7465 29.2869C16.7465 29.2869 17.9286 29.6085 18.5563 28.7209C18.5563 28.7209 18.1498 29.867 16.7465 29.2869Z" fill="black"/>
</svg>
