<svg width="80" height="60" viewBox="0 0 80 60" fill="none" xmlns="http://www.w3.org/2000/svg">
<path d="M79.579 52.1084H0V52.1482H79.579V52.1084Z" fill="#EBEBEB"/>
<path d="M71.6052 54.6692H66.3339V54.709H71.6052V54.6692Z" fill="#EBEBEB"/>
<path d="M52.7163 55.1021H51.3333V55.1418H52.7163V55.1021Z" fill="#EBEBEB"/>
<path d="M66.1747 53.1921H63.1205V53.2319H66.1747V53.1921Z" fill="#EBEBEB"/>
<path d="M15.2235 53.4595H8.34949V53.4993H15.2235V53.4595Z" fill="#EBEBEB"/>
<path d="M17.6491 53.4595H16.6416V53.4993H17.6491V53.4595Z" fill="#EBEBEB"/>
<path d="M35.8345 54.1311H20.9246V54.1709H35.8345V54.1311Z" fill="#EBEBEB"/>
<path d="M37.7204 45.0099H6.98862C6.74787 45.0095 6.51712 44.9135 6.34704 44.7431C6.17695 44.5728 6.08142 44.3418 6.08142 44.1011V0.900834C6.08352 0.661465 6.17997 0.432588 6.34983 0.263919C6.51969 0.0952494 6.74924 0.000410053 6.98862 0H37.7204C37.9615 0 38.1926 0.0957475 38.363 0.266179C38.5335 0.436611 38.6292 0.667765 38.6292 0.908792V44.1011C38.6292 44.3421 38.5335 44.5733 38.363 44.7437C38.1926 44.9141 37.9615 45.0099 37.7204 45.0099ZM6.98862 0.0318317C6.75842 0.0322533 6.5378 0.123994 6.37517 0.286918C6.21255 0.449842 6.12121 0.670636 6.12121 0.900834V44.1011C6.12121 44.3313 6.21255 44.5521 6.37517 44.715C6.5378 44.8779 6.75842 44.9697 6.98862 44.9701H37.7204C37.9508 44.9697 38.1716 44.878 38.3344 44.7151C38.4973 44.5522 38.589 44.3314 38.5894 44.1011V0.900834C38.589 0.67049 38.4973 0.4497 38.3344 0.286821C38.1716 0.123943 37.9508 0.0322524 37.7204 0.0318317H6.98862Z" fill="#EBEBEB"/>
<path d="M72.1479 45.0099H41.4145C41.1736 45.0095 40.9427 44.9136 40.7724 44.7432C40.602 44.5729 40.5062 44.342 40.5057 44.1011V0.900834C40.5082 0.661319 40.6051 0.432445 40.7752 0.263819C40.9453 0.0951938 41.175 0.000405581 41.4145 0H72.1479C72.387 0.000828337 72.6162 0.0958528 72.7857 0.264477C72.9552 0.433102 73.0515 0.661739 73.0535 0.900834V44.1011C73.0535 44.3416 72.9582 44.5722 72.7885 44.7426C72.6187 44.9129 72.3884 45.009 72.1479 45.0099ZM41.4145 0.0318317C41.1842 0.0322524 40.9634 0.123943 40.8005 0.286821C40.6376 0.4497 40.5459 0.67049 40.5455 0.900834V44.1011C40.5459 44.3314 40.6376 44.5522 40.8005 44.7151C40.9634 44.878 41.1842 44.9697 41.4145 44.9701H72.1479C72.3783 44.9697 72.5991 44.878 72.7619 44.7151C72.9248 44.5522 73.0165 44.3314 73.0169 44.1011V0.900834C73.0165 0.67049 72.9248 0.4497 72.7619 0.286821C72.5991 0.123943 72.3783 0.0322524 72.1479 0.0318317H41.4145Z" fill="#EBEBEB"/>
<path d="M23.3023 9.65283C23.3023 9.37167 23.2365 9.0944 23.1102 8.84319C22.984 8.59197 22.8007 8.37375 22.5751 8.20597C22.3495 8.03819 22.0878 7.92549 21.8108 7.87687C21.5339 7.82826 21.2494 7.84507 20.9802 7.92597C21.0071 7.74258 21.0204 7.55745 21.02 7.3721C21.02 6.81087 20.8963 6.25653 20.6578 5.74851C20.4192 5.24049 20.0717 4.79128 19.6398 4.43283C19.208 4.07438 18.7025 3.81549 18.1592 3.67458C17.616 3.53367 17.0483 3.5142 16.4967 3.61756C16.1185 3.00182 15.5508 2.52525 14.8789 2.25928C14.207 1.99331 13.467 1.95227 12.7698 2.1423C12.0726 2.33233 11.4558 2.7432 11.0118 3.31333C10.5678 3.88346 10.3205 4.58213 10.307 5.30464H10.2513C9.43538 5.30464 8.65286 5.62877 8.0759 6.20573C7.49894 6.78269 7.1748 7.56522 7.1748 8.38116C7.1748 9.19711 7.49894 9.97963 8.0759 10.5566C8.65286 11.1336 9.43538 11.4577 10.2513 11.4577H21.5515C22.0209 11.444 22.4664 11.2478 22.7934 10.9107C23.1203 10.5737 23.3029 10.1224 23.3023 9.65283Z" fill="#F0F0F0"/>
<path d="M16.6717 12.3522V8.83643H13.8037V12.3522H11.4689L15.2377 15.537L19.0082 12.3522H16.6717Z" fill="#E0E0E0"/>
<path d="M66.5742 8.70275C66.5741 8.55708 66.54 8.41344 66.4746 8.28329C66.4092 8.15315 66.3142 8.04011 66.1973 7.9532C66.0804 7.86629 65.9448 7.80793 65.8013 7.78277C65.6578 7.7576 65.5104 7.76634 65.3709 7.80828C65.3856 7.71349 65.393 7.61772 65.3932 7.5218C65.3942 7.23086 65.3307 6.94331 65.2075 6.67977C65.0842 6.41623 64.9042 6.18323 64.6802 5.99748C64.4563 5.81174 64.194 5.67784 63.9123 5.6054C63.6305 5.53296 63.3362 5.52376 63.0504 5.57848C62.8566 5.25598 62.5629 5.00558 62.2137 4.86537C61.8646 4.72515 61.4792 4.7028 61.1162 4.8017C60.7532 4.9006 60.4324 5.11535 60.2027 5.41328C59.9729 5.71122 59.8468 6.07604 59.8434 6.45225H59.8147C59.3926 6.45225 58.9878 6.61994 58.6893 6.91842C58.3908 7.2169 58.2231 7.62172 58.2231 8.04383C58.2231 8.46595 58.3908 8.87077 58.6893 9.16925C58.9878 9.46773 59.3926 9.63541 59.8147 9.63541H65.6622C65.9058 9.6296 66.1375 9.52883 66.3079 9.35459C66.4783 9.18035 66.5738 8.94644 66.5742 8.70275Z" fill="#F0F0F0"/>
<path d="M61.6563 8.77437V10.5951H63.1412V8.77437H64.3508L62.3995 7.12549L60.4482 8.77437H61.6563Z" fill="#E0E0E0"/>
<path d="M21.0017 19.4503L7.1532 22.5103L9.44399 32.8776L23.2925 29.8176L21.0017 19.4503Z" fill="#FAFAFA"/>
<path d="M20.4781 20.271L8.00806 23.0264L9.9946 32.0168L22.4646 29.2614L20.4781 20.271Z" fill="#E0E0E0"/>
<path d="M22.1962 28.0358L22.4668 29.2597L9.99673 32.0147L9.03064 27.6443L11.1061 24.824L15.7487 27.7063L17.4437 25.7853L22.1962 28.0358Z" fill="#EBEBEB"/>
<path d="M18.9271 23.0937C18.9711 23.2923 18.9552 23.4995 18.8815 23.689C18.8078 23.8786 18.6795 24.042 18.5128 24.1586C18.3462 24.2752 18.1487 24.3398 17.9454 24.3442C17.7421 24.3485 17.542 24.2925 17.3705 24.1832C17.199 24.0738 17.0638 23.9161 16.982 23.7298C16.9002 23.5436 16.8754 23.3374 16.9109 23.1371C16.9463 22.9368 17.0404 22.7516 17.1811 22.6047C17.3219 22.4579 17.503 22.3561 17.7016 22.3123C17.9677 22.2535 18.2463 22.3028 18.4761 22.4493C18.7059 22.5959 18.8681 22.8277 18.9271 23.0937Z" fill="#EBEBEB"/>
<path opacity="0.3" d="M18.9271 23.0937C18.9711 23.2923 18.9552 23.4995 18.8815 23.689C18.8078 23.8786 18.6795 24.042 18.5128 24.1586C18.3462 24.2752 18.1487 24.3398 17.9454 24.3442C17.7421 24.3485 17.542 24.2925 17.3705 24.1832C17.199 24.0738 17.0638 23.9161 16.982 23.7298C16.9002 23.5436 16.8754 23.3374 16.9109 23.1371C16.9463 22.9368 17.0404 22.7516 17.1811 22.6047C17.3219 22.4579 17.503 22.3561 17.7016 22.3123C17.9677 22.2535 18.2463 22.3028 18.4761 22.4493C18.7059 22.5959 18.8681 22.8277 18.9271 23.0937Z" fill="#EBEBEB"/>
<path d="M24.5719 41.1797L16.0723 38.7986L12.9625 49.899L21.4622 52.2802L24.5719 41.1797Z" fill="#EBEBEB"/>
<path d="M22.8646 42.4006L16.9014 40.73L16.7331 41.3308L22.6963 43.0013L22.8646 42.4006Z" fill="#E0E0E0"/>
<path d="M22.5699 43.4504L16.6067 41.7798L16.4388 42.379L22.4021 44.0496L22.5699 43.4504Z" fill="#E0E0E0"/>
<path d="M22.2756 44.4987L16.3124 42.8281L16.1445 43.4274L22.1078 45.0979L22.2756 44.4987Z" fill="#E0E0E0"/>
<path d="M21.9824 45.5505L16.0192 43.8799L15.8509 44.4807L21.8141 46.1512L21.9824 45.5505Z" fill="#E0E0E0"/>
<path d="M21.6877 46.6005L15.7245 44.9299L15.5566 45.5292L21.5199 47.1998L21.6877 46.6005Z" fill="#E0E0E0"/>
<path d="M21.3929 47.6503L15.4297 45.9797L15.2618 46.579L21.2251 48.2496L21.3929 47.6503Z" fill="#E0E0E0"/>
<path d="M21.0986 48.7001L15.1354 47.0295L14.9671 47.6303L20.9303 49.3009L21.0986 48.7001Z" fill="#E0E0E0"/>
<path d="M18.6342 48.9973L14.7854 47.9148L14.6169 48.5137L18.4658 49.5962L18.6342 48.9973Z" fill="#E0E0E0"/>
<path d="M22.4923 36.69L13.9927 34.3088L10.8829 45.4093L19.3826 47.7904L22.4923 36.69Z" fill="#FAFAFA"/>
<path d="M20.7852 37.9106L14.8219 36.24L14.6536 36.8408L20.6168 38.5113L20.7852 37.9106Z" fill="#E0E0E0"/>
<path d="M20.4905 38.9606L14.5272 37.29L14.3593 37.8893L20.3226 39.5599L20.4905 38.9606Z" fill="#E0E0E0"/>
<path d="M20.1962 40.009L14.2329 38.3384L14.065 38.9376L20.0283 40.6082L20.1962 40.009Z" fill="#E0E0E0"/>
<path d="M19.903 41.0607L13.9397 39.3901L13.7714 39.9909L19.7346 41.6615L19.903 41.0607Z" fill="#E0E0E0"/>
<path d="M19.6083 42.1105L13.645 40.4399L13.4767 41.0407L19.44 42.7113L19.6083 42.1105Z" fill="#E0E0E0"/>
<path d="M19.3135 43.1603L13.3502 41.4897L13.1823 42.089L19.1456 43.7596L19.3135 43.1603Z" fill="#E0E0E0"/>
<path d="M19.0192 44.2104L13.0559 42.5398L12.888 43.139L18.8513 44.8096L19.0192 44.2104Z" fill="#E0E0E0"/>
<path d="M16.6233 44.6709L12.7627 43.5894L12.5944 44.1901L16.455 45.2716L16.6233 44.6709Z" fill="#E0E0E0"/>
<path d="M70.5436 19.9696C69.6332 19.2614 68.4189 16.9329 68.4205 16.9233L67.2299 25.1232C67.257 24.9369 66.5297 24.7189 66.0442 24.6457C64.868 24.4754 63.8526 24.9879 63.7364 25.7837C63.6202 26.5795 64.4956 27.3752 65.6718 27.5344C66.848 27.6936 67.8523 27.1922 67.9684 26.3948C67.9844 26.2755 67.8952 26.145 67.9111 26.0335L68.8295 19.715C69.2888 20.2951 69.8653 20.7718 70.5213 21.114C71.3935 21.5628 71.6768 22.809 71.6768 22.809C71.6768 22.809 71.9506 21.063 70.5436 19.9696Z" fill="#E0E0E0"/>
<path d="M61.6021 23.9374C60.975 23.4504 60.1363 21.8445 60.1379 21.8381L59.3166 27.493C59.3357 27.3641 58.8391 27.2129 58.5001 27.1652C57.6884 27.0474 56.9881 27.4007 56.9085 27.9498C56.829 28.4989 57.4322 29.0416 58.2423 29.1594C59.0524 29.2772 59.7463 28.9223 59.8259 28.3732C59.8386 28.2904 59.7766 28.1997 59.7877 28.1233L60.4243 23.7671C60.7418 24.1664 61.1391 24.4949 61.591 24.7316C62.1942 25.0404 62.3868 25.8998 62.3868 25.8998C62.3868 25.8998 62.573 24.6918 61.6021 23.9374Z" fill="#E0E0E0"/>
<path d="M61.3028 40.1937L60.8652 39.8499C60.7874 39.7887 60.6964 39.7465 60.5994 39.7266C60.5024 39.7067 60.4021 39.7097 60.3065 39.7353L58.1117 40.3719C58.0198 40.3972 57.936 40.446 57.8688 40.5136C57.8015 40.5811 57.753 40.6651 57.7282 40.7571L57.5913 41.2648C57.5665 41.3568 57.5183 41.4408 57.4513 41.5086C57.3844 41.5764 57.301 41.6257 57.2093 41.6516L55.8978 42.0288C55.8243 42.0493 55.7558 42.0849 55.6967 42.1333C55.6376 42.1817 55.5892 42.2419 55.5547 42.31C55.5201 42.3781 55.5 42.4526 55.4958 42.5289C55.4916 42.6051 55.5033 42.6815 55.5302 42.753L58.0672 49.9644C58.1215 50.114 58.2299 50.2379 58.371 50.3115C58.5121 50.3852 58.6757 50.4033 58.8295 50.3623L69.2162 47.3701C69.2898 47.3496 69.3583 47.314 69.4173 47.2656C69.4764 47.2172 69.5248 47.1571 69.5594 47.0889C69.5939 47.0208 69.614 46.9463 69.6182 46.87C69.6224 46.7938 69.6107 46.7175 69.5838 46.646L67.0469 39.4345C66.9925 39.2849 66.8841 39.161 66.743 39.0874C66.6019 39.0137 66.4383 38.9956 66.2845 39.0366L61.8615 40.3099C61.7658 40.3353 61.6654 40.338 61.5684 40.3179C61.4714 40.2977 61.3805 40.2552 61.3028 40.1937Z" fill="#E0E0E0"/>
<path d="M67.5244 39.433L58.0083 42.1769C57.8142 42.2363 57.6485 42.3644 57.5421 42.5373C57.4358 42.7102 57.3961 42.9159 57.4306 43.1159L58.6879 49.6318C58.7044 49.7256 58.7407 49.8148 58.7944 49.8935C58.8481 49.9721 58.9179 50.0385 58.9992 50.088C59.0805 50.1376 59.1715 50.1692 59.266 50.1808C59.3605 50.1925 59.4565 50.1838 59.5474 50.1555L69.0634 47.4148C69.2575 47.3553 69.4232 47.2272 69.5296 47.0543C69.636 46.8815 69.6756 46.6757 69.6412 46.4757L68.3838 39.9614C68.3679 39.8672 68.3321 39.7774 68.2786 39.6982C68.2252 39.619 68.1554 39.5521 68.074 39.5021C67.9926 39.452 67.9015 39.42 67.8067 39.4081C67.7119 39.3961 67.6156 39.4046 67.5244 39.433Z" fill="#E6E6E6"/>
<path d="M39.7894 59.296C56.8325 59.296 70.6486 58.4893 70.6486 57.4943C70.6486 56.4993 56.8325 55.6926 39.7894 55.6926C22.7464 55.6926 8.9303 56.4993 8.9303 57.4943C8.9303 58.4893 22.7464 59.296 39.7894 59.296Z" fill="#F5F5F5"/>
<path d="M71.6307 29.2849C71.6307 38.3331 64.7869 45.6941 56.3881 45.6941C47.9894 45.6941 41.1456 38.3331 41.1456 29.2849C41.1456 20.2368 47.9894 12.8758 56.3881 12.8758C61.5719 12.8758 66.3323 15.661 69.1621 20.3339L68.048 21.0835L70.9718 21.9844L71.4715 18.8012L70.4259 19.4999C67.3239 14.3512 62.086 11.2842 56.3881 11.2842C47.1681 11.2842 39.667 19.3599 39.667 29.2849C39.667 39.21 47.1681 47.2857 56.3881 47.2857C65.6082 47.2857 73.1093 39.2116 73.1093 29.2849H71.6307Z" fill="#407BFF"/>
<path opacity="0.7" d="M71.6307 29.2849C71.6307 38.3331 64.7869 45.6941 56.3881 45.6941C47.9894 45.6941 41.1456 38.3331 41.1456 29.2849C41.1456 20.2368 47.9894 12.8758 56.3881 12.8758C61.5719 12.8758 66.3323 15.661 69.1621 20.3339L68.048 21.0835L70.9718 21.9844L71.4715 18.8012L70.4259 19.4999C67.3239 14.3512 62.086 11.2842 56.3881 11.2842C47.1681 11.2842 39.667 19.3599 39.667 29.2849C39.667 39.21 47.1681 47.2857 56.3881 47.2857C65.6082 47.2857 73.1093 39.2116 73.1093 29.2849H71.6307Z" fill="white"/>
<path d="M58.6402 25.8853V23.7224L57.6041 23.6173C57.4693 22.9104 57.2078 22.2337 56.8322 21.6199L57.4975 20.7541L56.0762 19.2245L55.2804 19.9408C54.723 19.5435 54.0922 19.2611 53.4246 19.11L53.3259 17.9958H51.311L51.2123 19.11C50.5447 19.2611 49.9139 19.5435 49.3565 19.9408L48.5607 19.2245L47.1395 20.7541L47.8031 21.6199C47.4288 22.2344 47.1674 22.9108 47.0312 23.6173L45.9967 23.7224V25.8853L47.0312 25.9904C47.1675 26.6973 47.4289 27.3743 47.8031 27.9894L47.1395 28.8536L48.5607 30.3831L49.3565 29.6685C49.9143 30.0651 50.545 30.3475 51.2123 30.4993L51.311 31.6134H53.318L53.4166 30.4993C54.084 30.3475 54.7147 30.0651 55.2724 29.6685L56.0682 30.3831L57.4895 28.8536L56.8242 27.9894C57.1999 27.375 57.4614 26.6978 57.5961 25.9904L58.6402 25.8853ZM52.3153 27.7331C50.8128 27.7331 49.5953 26.4217 49.5953 24.8046C49.5953 23.1876 50.8128 21.8761 52.3153 21.8761C53.8177 21.8761 55.0353 23.186 55.0353 24.8046C55.0353 26.4233 53.8177 27.7331 52.3153 27.7331Z" fill="#407BFF"/>
<path d="M66.7843 31.9907V30.2972L65.9742 30.216C65.868 29.662 65.6631 29.1316 65.3694 28.6499L65.8899 27.9719L64.7758 26.7735L64.1407 27.3337C63.7036 27.0227 63.2092 26.8015 62.686 26.6827L62.6096 25.8105H61.0356L60.9592 26.6827C60.436 26.8015 59.9416 27.0227 59.5045 27.3337L58.8678 26.7735L57.7537 27.9719L58.2742 28.6499C57.9805 29.1316 57.7756 29.662 57.6694 30.216L56.8593 30.2972V31.9907L57.6694 32.0734C57.7759 32.6274 57.9807 33.1578 58.2742 33.6395L57.7744 34.3175L58.8885 35.5176L59.5251 34.9558C59.9619 35.2674 60.4565 35.4887 60.9799 35.6067L61.0562 36.4805H62.6303L62.7067 35.6067C63.2301 35.4887 63.7246 35.2674 64.1614 34.9558L64.7901 35.5176L65.9042 34.3175L65.3838 33.6411C65.6772 33.1594 65.882 32.629 65.9886 32.075L66.7843 31.9907ZM61.8282 33.439C60.652 33.439 59.697 32.4108 59.697 31.1439C59.697 29.877 60.652 28.8489 61.8282 28.8489C63.0043 28.8489 63.9609 29.8754 63.9609 31.1439C63.9609 32.4124 63.0059 33.4406 61.8282 33.4406V33.439Z" fill="#407BFF"/>
<path d="M58.6403 36.8068V35.3824L57.9591 35.3123C57.8687 34.8474 57.6962 34.4022 57.4497 33.9977L57.8874 33.4295L56.9532 32.422L56.4248 32.8995C56.0579 32.6373 55.6423 32.4512 55.2024 32.352L55.1388 31.6199H53.8162L53.7509 32.352C53.3116 32.4515 52.8966 32.6376 52.5302 32.8995L52.0018 32.422L51.0659 33.4231L51.5036 33.9913C51.2576 34.3959 51.0857 34.8411 50.9959 35.306L50.3147 35.376V36.8005L50.9959 36.8689C51.0828 37.3391 51.2549 37.7895 51.5036 38.1979L51.0659 38.7677L52.0018 39.7735L52.5302 39.2961C52.8966 39.5579 53.3116 39.7441 53.7509 39.8436L53.8162 40.5773H55.1388L55.2024 39.8436C55.6423 39.7444 56.0579 39.5582 56.4248 39.2961L56.9532 39.7735L57.8874 38.7677L57.4561 38.1979C57.7031 37.7936 57.8756 37.3484 57.9654 36.8832L58.6403 36.8068ZM54.4767 38.0212C53.4883 38.0212 52.6862 37.1586 52.6862 36.0938C52.6862 35.029 53.4819 34.1664 54.4767 34.1664C55.4714 34.1664 56.2672 35.029 56.2672 36.0938C56.2672 37.1586 55.4666 38.0212 54.4767 38.0212Z" fill="#407BFF"/>
<path opacity="0.7" d="M58.6402 25.8853V23.7224L57.6041 23.6173C57.4693 22.9104 57.2078 22.2337 56.8322 21.6199L57.4975 20.7541L56.0762 19.2245L55.2804 19.9408C54.723 19.5435 54.0922 19.2611 53.4246 19.11L53.3259 17.9958H51.311L51.2123 19.11C50.5447 19.2611 49.9139 19.5435 49.3565 19.9408L48.5607 19.2245L47.1395 20.7541L47.8031 21.6199C47.4288 22.2344 47.1674 22.9108 47.0312 23.6173L45.9967 23.7224V25.8853L47.0312 25.9904C47.1675 26.6973 47.4289 27.3743 47.8031 27.9894L47.1395 28.8536L48.5607 30.3831L49.3565 29.6685C49.9143 30.0651 50.545 30.3475 51.2123 30.4993L51.311 31.6134H53.318L53.4166 30.4993C54.084 30.3475 54.7147 30.0651 55.2724 29.6685L56.0682 30.3831L57.4895 28.8536L56.8242 27.9894C57.1999 27.375 57.4614 26.6978 57.5961 25.9904L58.6402 25.8853ZM52.3153 27.7331C50.8128 27.7331 49.5953 26.4217 49.5953 24.8046C49.5953 23.1876 50.8128 21.8761 52.3153 21.8761C53.8177 21.8761 55.0353 23.186 55.0353 24.8046C55.0353 26.4233 53.8177 27.7331 52.3153 27.7331Z" fill="white"/>
<path opacity="0.5" d="M66.7843 31.9907V30.2972L65.9742 30.216C65.868 29.662 65.6631 29.1316 65.3694 28.6499L65.8899 27.9719L64.7758 26.7735L64.1407 27.3337C63.7036 27.0227 63.2092 26.8015 62.686 26.6827L62.6096 25.8105H61.0356L60.9592 26.6827C60.436 26.8015 59.9416 27.0227 59.5045 27.3337L58.8678 26.7735L57.7537 27.9719L58.2742 28.6499C57.9805 29.1316 57.7756 29.662 57.6694 30.216L56.8593 30.2972V31.9907L57.6694 32.0734C57.7759 32.6274 57.9807 33.1578 58.2742 33.6395L57.7744 34.3175L58.8885 35.5176L59.5251 34.9558C59.9619 35.2674 60.4565 35.4887 60.9799 35.6067L61.0562 36.4805H62.6303L62.7067 35.6067C63.2301 35.4887 63.7246 35.2674 64.1614 34.9558L64.7901 35.5176L65.9042 34.3175L65.3838 33.6411C65.6772 33.1594 65.882 32.629 65.9886 32.075L66.7843 31.9907ZM61.8282 33.439C60.652 33.439 59.697 32.4108 59.697 31.1439C59.697 29.877 60.652 28.8489 61.8282 28.8489C63.0043 28.8489 63.9609 29.8754 63.9609 31.1439C63.9609 32.4124 63.0059 33.4406 61.8282 33.4406V33.439Z" fill="white"/>
<path opacity="0.3" d="M58.6403 36.8068V35.3824L57.9591 35.3123C57.8687 34.8474 57.6962 34.4022 57.4497 33.9977L57.8874 33.4295L56.9532 32.422L56.4248 32.8995C56.0579 32.6373 55.6423 32.4512 55.2024 32.352L55.1388 31.6199H53.8162L53.7509 32.352C53.3116 32.4515 52.8966 32.6376 52.5302 32.8995L52.0018 32.422L51.0659 33.4231L51.5036 33.9913C51.2576 34.3959 51.0857 34.8411 50.9959 35.306L50.3147 35.376V36.8005L50.9959 36.8689C51.0828 37.3391 51.2549 37.7895 51.5036 38.1979L51.0659 38.7677L52.0018 39.7735L52.5302 39.2961C52.8966 39.5579 53.3116 39.7441 53.7509 39.8436L53.8162 40.5773H55.1388L55.2024 39.8436C55.6423 39.7444 56.0579 39.5582 56.4248 39.2961L56.9532 39.7735L57.8874 38.7677L57.4561 38.1979C57.7031 37.7936 57.8756 37.3484 57.9654 36.8832L58.6403 36.8068ZM54.4767 38.0212C53.4883 38.0212 52.6862 37.1586 52.6862 36.0938C52.6862 35.029 53.4819 34.1664 54.4767 34.1664C55.4714 34.1664 56.2672 35.029 56.2672 36.0938C56.2672 37.1586 55.4666 38.0212 54.4767 38.0212Z" fill="white"/>
<path opacity="0.1" d="M55.9933 5.13594V53.3799C55.9933 53.4734 55.9747 53.566 55.9386 53.6523C55.9025 53.7386 55.8496 53.8168 55.7829 53.8824C55.7162 53.9481 55.6372 53.9998 55.5504 54.0345C55.4635 54.0693 55.3707 54.0865 55.2771 54.085H32.8263C32.6586 54.086 32.4974 54.0208 32.3775 53.9035C32.3156 53.8429 32.2667 53.7703 32.2339 53.6901C32.201 53.6099 32.1849 53.5238 32.1865 53.4372V5.07864C32.1835 5.0038 32.1953 4.92911 32.2212 4.85883C32.2471 4.78856 32.2866 4.72408 32.3375 4.66909C32.3883 4.6141 32.4495 4.56968 32.5176 4.53836C32.5856 4.50704 32.6591 4.48944 32.734 4.48657H39.1099C39.199 4.48834 39.2856 4.5165 39.3586 4.5675C39.4317 4.6185 39.4881 4.69003 39.5205 4.77306L39.7895 5.42401C39.8222 5.50656 39.8787 5.57754 39.9518 5.62797C40.0249 5.6784 40.1113 5.70601 40.2001 5.70731H47.9988C48.0872 5.70682 48.1734 5.68008 48.2465 5.63048C48.3196 5.58089 48.3763 5.51069 48.4095 5.42879L48.6721 4.77465C48.7046 4.69157 48.7609 4.61993 48.8339 4.56869C48.907 4.51745 48.9935 4.48888 49.0827 4.48657H55.3678C55.4516 4.48802 55.5342 4.50598 55.611 4.53942C55.6878 4.57286 55.7572 4.62113 55.8154 4.68145C55.8735 4.74177 55.9191 4.81297 55.9496 4.89096C55.9802 4.96895 55.995 5.0522 55.9933 5.13594Z" fill="black"/>
<path d="M52.1894 6.34384V52.1813C52.1897 52.2702 52.1722 52.3582 52.138 52.4402C52.1038 52.5223 52.0536 52.5966 51.9903 52.659C51.927 52.7214 51.8519 52.7706 51.7694 52.8036C51.6869 52.8366 51.5987 52.8529 51.5098 52.8514H30.1827C30.0256 52.8523 29.8746 52.7911 29.7625 52.6811C29.704 52.623 29.6578 52.5538 29.6266 52.4775C29.5955 52.4012 29.58 52.3194 29.5811 52.237V6.28973C29.5758 6.14777 29.6267 6.00946 29.7225 5.90464C29.8184 5.79983 29.9517 5.73692 30.0935 5.72949H36.1511C36.236 5.73115 36.3184 5.75809 36.3878 5.80685C36.4573 5.85562 36.5106 5.924 36.541 6.00324L36.7909 6.62078C36.822 6.69913 36.8757 6.7665 36.9451 6.81437C37.0145 6.86225 37.0965 6.88848 37.1808 6.88975H44.5944C44.6785 6.88916 44.7604 6.86356 44.8299 6.81623C44.8993 6.76889 44.9531 6.70196 44.9844 6.62396L45.2342 6.00324C45.2648 5.92412 45.3182 5.85586 45.3876 5.80712C45.457 5.75838 45.5394 5.73136 45.6242 5.72949H51.5942C51.7539 5.73406 51.9056 5.80084 52.0168 5.91561C52.128 6.03038 52.1899 6.18404 52.1894 6.34384Z" fill="#407BFF"/>
<path opacity="0.6" d="M32.3838 7.57422H32.699V7.15404H32.3838V7.57422Z" fill="white"/>
<path opacity="0.6" d="M31.8714 7.57422H32.1865V7.01398H31.8714V7.57422Z" fill="white"/>
<path opacity="0.6" d="M31.3572 7.57275H31.6724V6.87246H31.3572V7.57275Z" fill="white"/>
<path opacity="0.6" d="M30.8432 7.57275H31.1583V6.7324H30.8432V7.57275Z" fill="white"/>
<path opacity="0.6" d="M49.3007 6.99976H49.1145V7.41993H49.3007V6.99976Z" fill="white"/>
<path opacity="0.6" d="M49.4297 7.57275H50.9178V6.8454H49.4297V7.57275Z" fill="white"/>
<path opacity="0.3" d="M33.7096 32.7402H48.0529C48.5003 32.7402 48.863 32.3779 48.863 31.9309C48.863 31.4839 48.5003 31.1216 48.0529 31.1216H33.7096C33.2622 31.1216 32.8995 31.4839 32.8995 31.9309C32.8995 32.3779 33.2622 32.7402 33.7096 32.7402Z" fill="black"/>
<path d="M41.5291 31.2664C41.6191 31.262 41.709 31.2759 41.7935 31.3073C41.8779 31.3387 41.9551 31.387 42.0204 31.4491C42.0856 31.5113 42.1376 31.586 42.1731 31.6688C42.2086 31.7516 42.2269 31.8408 42.2269 31.9309C42.2269 32.021 42.2086 32.1102 42.1731 32.193C42.1376 32.2758 42.0856 32.3506 42.0204 32.4127C41.9551 32.4748 41.8779 32.5231 41.7935 32.5545C41.709 32.5859 41.6191 32.5998 41.5291 32.5954H33.7097C33.6197 32.5998 33.5297 32.5859 33.4452 32.5545C33.3608 32.5231 33.2836 32.4748 33.2183 32.4127C33.1531 32.3506 33.1011 32.2758 33.0656 32.193C33.0301 32.1102 33.0118 32.021 33.0118 31.9309C33.0118 31.8408 33.0301 31.7516 33.0656 31.6688C33.1011 31.586 33.1531 31.5113 33.2183 31.4491C33.2836 31.387 33.3608 31.3387 33.4452 31.3073C33.5297 31.2759 33.6197 31.262 33.7097 31.2664H41.5291Z" fill="#407BFF"/>
<path opacity="0.3" d="M41.5291 31.2664C41.6191 31.262 41.709 31.2759 41.7935 31.3073C41.8779 31.3387 41.9551 31.387 42.0204 31.4491C42.0856 31.5113 42.1376 31.586 42.1731 31.6688C42.2086 31.7516 42.2269 31.8408 42.2269 31.9309C42.2269 32.021 42.2086 32.1102 42.1731 32.193C42.1376 32.2758 42.0856 32.3506 42.0204 32.4127C41.9551 32.4748 41.8779 32.5231 41.7935 32.5545C41.709 32.5859 41.6191 32.5998 41.5291 32.5954H33.7097C33.6197 32.5998 33.5297 32.5859 33.4452 32.5545C33.3608 32.5231 33.2836 32.4748 33.2183 32.4127C33.1531 32.3506 33.1011 32.2758 33.0656 32.193C33.0301 32.1102 33.0118 32.021 33.0118 31.9309C33.0118 31.8408 33.0301 31.7516 33.0656 31.6688C33.1011 31.586 33.1531 31.5113 33.2183 31.4491C33.2836 31.387 33.3608 31.3387 33.4452 31.3073C33.5297 31.2759 33.6197 31.262 33.7097 31.2664H41.5291Z" fill="white"/>
<path d="M38.9412 30.5948L38.7566 29.5635H38.9157L39.0447 30.3672L39.1752 29.5635H39.3343L39.1529 30.5948H38.9412Z" fill="white"/>
<path d="M39.4712 30.5949V29.562H39.9137V29.7212H39.6303V30.0029H39.8388V30.162H39.6303V30.4437H39.9168V30.6029L39.4712 30.5949Z" fill="white"/>
<path d="M40.267 29.5636C40.3021 29.5606 40.3375 29.5656 40.3705 29.5779C40.4035 29.5903 40.4334 29.6099 40.4579 29.6352C40.4955 29.6849 40.5141 29.7464 40.5105 29.8087V29.9678C40.511 30.0028 40.5039 30.0374 40.4896 30.0693C40.4753 30.1012 40.4542 30.1296 40.4277 30.1524L40.5439 30.6029H40.3784L40.2829 30.2145H40.1794V30.6029H40.0203V29.5715L40.267 29.5636ZM40.3593 29.8118C40.3612 29.7997 40.3602 29.7873 40.3564 29.7756C40.3526 29.7639 40.3461 29.7533 40.3374 29.7446C40.3287 29.7359 40.3181 29.7294 40.3064 29.7256C40.2947 29.7218 40.2823 29.7208 40.2701 29.7227H40.1762V30.0522H40.267C40.2788 30.0525 40.2905 30.0504 40.3014 30.0461C40.3124 30.0417 40.3223 30.0351 40.3306 30.0267C40.3389 30.0184 40.3455 30.0084 40.3498 29.9975C40.3542 29.9865 40.3563 29.9748 40.3561 29.963L40.3593 29.8118Z" fill="white"/>
<path d="M40.6537 30.4404H40.8128V30.5996H40.6537V30.4404Z" fill="white"/>
<path d="M41.0261 29.8532C41.0232 29.8128 41.0287 29.7721 41.0421 29.7338C41.0555 29.6955 41.0766 29.6603 41.1041 29.6304C41.1279 29.6074 41.1561 29.5895 41.187 29.5777C41.2179 29.5659 41.2509 29.5606 41.284 29.562C41.3169 29.5616 41.3495 29.5682 41.3797 29.5814C41.4099 29.5945 41.4369 29.614 41.459 29.6384C41.5056 29.686 41.5313 29.7501 41.5307 29.8166C41.5305 29.8871 41.5147 29.9567 41.4845 30.0204C41.4492 30.0852 41.4093 30.1474 41.3651 30.2066L41.2887 30.3196L41.2601 30.3626L41.2187 30.4278C41.2187 30.4278 41.2187 30.4405 41.2187 30.4421H41.5243V30.6013H41.0293V30.458C41.0383 30.4373 41.0495 30.4175 41.0627 30.3992C41.0723 30.3832 41.085 30.3657 41.0977 30.3466L41.1375 30.2877C41.1614 30.2559 41.1996 30.205 41.2489 30.1286C41.2914 30.0716 41.3276 30.0102 41.3572 29.9456C41.375 29.9065 41.3847 29.8643 41.3858 29.8214C41.3861 29.7926 41.3765 29.7645 41.3588 29.7418C41.35 29.7308 41.3389 29.7219 41.3262 29.7159C41.3135 29.7098 41.2996 29.7067 41.2856 29.7068C41.264 29.707 41.2431 29.7145 41.2263 29.7281C41.2096 29.7417 41.1979 29.7606 41.1932 29.7816C41.1865 29.8011 41.1832 29.8215 41.1837 29.8421V29.8819H41.0245L41.0261 29.8532Z" fill="white"/>
<path d="M41.6373 30.4404H41.7965V30.5996H41.6373V30.4404Z" fill="white"/>
<path d="M42.3933 30.3592C42.3933 30.4247 42.3673 30.4874 42.321 30.5337C42.2748 30.5799 42.212 30.6059 42.1466 30.6059C42.0812 30.6059 42.0184 30.5799 41.9722 30.5337C41.9259 30.4874 41.8999 30.4247 41.8999 30.3592V29.7958C41.8999 29.7633 41.9063 29.7311 41.9188 29.701C41.9313 29.671 41.9496 29.6437 41.9727 29.6208C41.9958 29.5979 42.0232 29.5797 42.0533 29.5674C42.0834 29.5551 42.1157 29.5489 42.1482 29.5491C42.1806 29.5484 42.2128 29.5546 42.2427 29.5672C42.2726 29.5798 42.2995 29.5986 42.3217 29.6223C42.3449 29.6448 42.3632 29.6718 42.3755 29.7016C42.3878 29.7315 42.3939 29.7635 42.3933 29.7958V30.3592ZM42.2341 29.7926C42.2341 29.7808 42.2317 29.769 42.227 29.7581C42.2224 29.7471 42.2156 29.7372 42.2071 29.729C42.199 29.7207 42.1894 29.7142 42.1787 29.7098C42.168 29.7054 42.1565 29.7033 42.145 29.7035C42.1332 29.7032 42.1215 29.7052 42.1105 29.7096C42.0996 29.714 42.0896 29.7206 42.0813 29.729C42.073 29.7373 42.0665 29.7473 42.0621 29.7582C42.0577 29.7691 42.0556 29.7809 42.0559 29.7926V30.3576C42.0556 30.3692 42.0578 30.3806 42.0622 30.3913C42.0666 30.402 42.0731 30.4117 42.0813 30.4197C42.0893 30.4286 42.0991 30.4357 42.1101 30.4404C42.1212 30.445 42.1331 30.4472 42.145 30.4468C42.1567 30.4471 42.1683 30.4449 42.1791 30.4402C42.1898 30.4355 42.1994 30.4285 42.2071 30.4197C42.2156 30.4117 42.2223 30.4021 42.227 30.3915C42.2316 30.3808 42.2341 30.3693 42.2341 30.3576V29.7926Z" fill="white"/>
<path d="M42.6941 29.7178V29.9391C42.711 29.9166 42.7335 29.8991 42.7594 29.8881C42.7767 29.8848 42.7945 29.8848 42.8119 29.8881C42.8412 29.8849 42.8709 29.8898 42.8976 29.9025C42.9243 29.9151 42.947 29.935 42.9631 29.9598C42.9943 30.012 43.0087 30.0725 43.0045 30.1332V30.3561C43.0057 30.3906 43 30.425 42.9877 30.4572C42.9754 30.4895 42.9567 30.519 42.9328 30.5439C42.9102 30.5671 42.8829 30.5854 42.8527 30.5974C42.8226 30.6095 42.7902 30.6151 42.7578 30.6139C42.726 30.6148 42.6944 30.6088 42.6652 30.5961C42.6361 30.5835 42.6101 30.5645 42.5891 30.5407C42.5453 30.4937 42.5218 30.4314 42.5238 30.3672V30.3433L42.6718 30.3306V30.3672C42.6717 30.3842 42.6764 30.4008 42.6854 30.4152C42.6945 30.4296 42.7074 30.4411 42.7227 30.4484C42.7314 30.4536 42.7413 30.4563 42.7514 30.4563C42.8151 30.4563 42.8469 30.4229 42.8469 30.3561V30.103C42.8473 30.0888 42.8446 30.0747 42.8388 30.0618C42.833 30.0488 42.8243 30.0373 42.8135 30.0282C42.8009 30.0181 42.785 30.013 42.7689 30.0139C42.7569 30.0132 42.7449 30.0159 42.7343 30.0215C42.7236 30.0271 42.7147 30.0355 42.7084 30.0457C42.6973 30.064 42.6913 30.0848 42.6909 30.1062V30.1332H42.5318V29.5698H42.9885V29.729L42.6941 29.7178Z" fill="white"/>
<path d="M37.8907 20.0714C37.8253 20.0718 37.7605 20.0593 37.7 20.0345C37.6395 20.0097 37.5844 19.9731 37.5381 19.927C37.4918 19.8808 37.4551 19.8259 37.4301 19.7655C37.4051 19.705 37.3924 19.6402 37.3926 19.5748V17.9578H37.7013V19.5764C37.7009 19.6001 37.7054 19.6236 37.7144 19.6455C37.7235 19.6674 37.7369 19.6872 37.7539 19.7037C37.7707 19.7207 37.7908 19.7341 37.813 19.7431C37.8351 19.7521 37.8589 19.7566 37.8828 19.7562C37.9305 19.7562 37.9762 19.7373 38.01 19.7036C38.0437 19.6698 38.0626 19.6241 38.0626 19.5764V17.9578H38.3921V19.5764C38.3932 19.6423 38.3805 19.7077 38.3551 19.7686C38.3296 19.8294 38.2918 19.8842 38.2441 19.9297C38.198 19.9763 38.1429 20.0129 38.0821 20.0373C38.0214 20.0617 37.9562 20.0733 37.8907 20.0714Z" fill="white"/>
<path d="M39.1688 17.9577C39.2369 17.9542 39.3049 17.9653 39.3683 17.9903C39.4317 18.0152 39.4891 18.0535 39.5365 18.1025C39.6228 18.1995 39.6684 18.3261 39.6638 18.4558V18.7598C39.6653 18.8255 39.6531 18.8908 39.6282 18.9516C39.6033 19.0124 39.5661 19.0674 39.519 19.1131C39.4738 19.1605 39.4195 19.198 39.3592 19.2235C39.299 19.249 39.2342 19.2618 39.1688 19.2612H38.9937V20.0538H38.6754V17.9577H39.1688ZM39.3582 18.4606C39.3596 18.4366 39.3559 18.4125 39.3473 18.39C39.3388 18.3674 39.3256 18.347 39.3087 18.3298C39.2917 18.3127 39.2713 18.2994 39.2489 18.2907C39.2264 18.2819 39.2024 18.278 39.1784 18.2792H38.9937V18.9492H39.1847C39.2085 18.949 39.2321 18.9441 39.254 18.9348C39.276 18.9255 39.2959 18.9119 39.3126 18.8949C39.3293 18.878 39.3424 18.8578 39.3514 18.8357C39.3603 18.8136 39.3648 18.79 39.3646 18.7662L39.3582 18.4606Z" fill="white"/>
<path d="M40.9035 19.5477C40.905 19.6134 40.8929 19.6786 40.868 19.7394C40.8431 19.8002 40.8059 19.8552 40.7587 19.901C40.7136 19.9483 40.6592 19.9859 40.599 20.0114C40.5388 20.0368 40.4739 20.0496 40.4086 20.049H39.912V17.9561H40.4086C40.4738 17.9553 40.5386 17.9678 40.5988 17.993C40.659 18.0182 40.7135 18.0555 40.7587 18.1025C40.8067 18.149 40.8443 18.205 40.8693 18.267C40.8942 18.329 40.9059 18.3955 40.9035 18.4622V19.5477ZM40.2303 19.7355H40.4261C40.4499 19.7356 40.4734 19.7308 40.4953 19.7215C40.5172 19.7122 40.537 19.6986 40.5534 19.6814C40.5863 19.6465 40.6046 19.6004 40.6043 19.5524V18.4622C40.6047 18.4385 40.6003 18.415 40.5912 18.3931C40.5822 18.3712 40.5688 18.3514 40.5518 18.3349C40.5362 18.3171 40.5168 18.303 40.4951 18.2936C40.4733 18.2843 40.4497 18.2799 40.4261 18.2808H40.2351L40.2303 19.7355Z" fill="white"/>
<path d="M41.529 19.5763L41.4526 20.0537H41.1232L41.4797 17.9624H41.9126L42.2643 20.0537H41.9317L41.8585 19.5763H41.529ZM41.6882 18.4447L41.572 19.2691H41.806L41.6882 18.4447Z" fill="white"/>
<path d="M42.57 18.2744H42.2341V17.9561H43.2193V18.2744H42.8851V20.0538H42.5668L42.57 18.2744Z" fill="white"/>
<path d="M43.4724 20.0538V17.9561H44.3701V18.2744H43.7875V18.8457H44.2141V19.1641H43.7875V19.7354H44.3701V20.0538H43.4724Z" fill="white"/>
<path opacity="0.2" d="M43.3689 34.1504H38.3921C38.029 34.1504 37.7347 34.4447 37.7347 34.8077V35.8788C37.7347 36.2419 38.029 36.5362 38.3921 36.5362H43.3689C43.732 36.5362 44.0263 36.2419 44.0263 35.8788V34.8077C44.0263 34.4447 43.732 34.1504 43.3689 34.1504Z" fill="black"/>
<path d="M39.355 35.7992C39.3225 35.7997 39.2902 35.7936 39.2602 35.7812C39.2301 35.7689 39.2028 35.7507 39.1799 35.7276C39.1569 35.705 39.1387 35.678 39.1263 35.6482C39.114 35.6184 39.1079 35.5864 39.1083 35.5541V34.9907C39.1087 34.9253 39.1348 34.8626 39.1809 34.8162C39.227 34.7697 39.2895 34.7433 39.355 34.7424C39.3875 34.7424 39.4197 34.7489 39.4498 34.7614C39.4798 34.7739 39.5071 34.7922 39.53 34.8152C39.5529 34.8383 39.5711 34.8657 39.5834 34.8958C39.5957 34.9259 39.6019 34.9582 39.6017 34.9907V35.1085H39.4425V34.9875C39.4421 34.9636 39.4324 34.9408 39.4155 34.9238C39.3986 34.9069 39.3757 34.8972 39.3518 34.8968C39.3402 34.8969 39.3287 34.8993 39.318 34.904C39.3073 34.9086 39.2977 34.9154 39.2897 34.9239C39.2811 34.932 39.2742 34.9419 39.2695 34.9529C39.2649 34.9638 39.2625 34.9756 39.2627 34.9875V35.5525C39.2628 35.5642 39.2652 35.5757 39.2698 35.5864C39.2745 35.597 39.2813 35.6066 39.2897 35.6146C39.2978 35.6229 39.3075 35.6294 39.3181 35.6338C39.3288 35.6382 39.3403 35.6403 39.3518 35.6401C39.3635 35.6403 39.3751 35.6382 39.386 35.6339C39.3969 35.6296 39.4069 35.6232 39.4153 35.6151C39.4237 35.607 39.4305 35.5973 39.4351 35.5865C39.4398 35.5758 39.4423 35.5643 39.4425 35.5525V35.4093H39.6017V35.5541C39.6023 35.5864 39.5962 35.6185 39.5839 35.6483C39.5716 35.6782 39.5533 35.7052 39.5301 35.7276C39.5072 35.7507 39.4799 35.7689 39.4498 35.7812C39.4197 35.7936 39.3875 35.7997 39.355 35.7992Z" fill="white"/>
<path d="M39.8913 35.5493L39.8531 35.7865H39.694L39.869 34.7551H40.0839L40.2574 35.7865H40.0982L40.0616 35.5493H39.8913ZM39.9725 34.9907L39.9152 35.3981H40.0298L39.9725 34.9907Z" fill="white"/>
<path d="M40.5598 34.7537L40.7652 35.4476V34.7537H40.9243V35.7866H40.7572L40.5439 35.1245V35.7866H40.3848V34.7537H40.5598Z" fill="white"/>
<path d="M41.3047 35.7992C41.2722 35.7997 41.2399 35.7936 41.2099 35.7812C41.1798 35.7689 41.1525 35.7507 41.1296 35.7276C41.1066 35.705 41.0884 35.678 41.0761 35.6482C41.0637 35.6184 41.0576 35.5864 41.058 35.5541V34.9907C41.0584 34.9253 41.0845 34.8626 41.1306 34.8162C41.1767 34.7697 41.2393 34.7433 41.3047 34.7424C41.3372 34.7424 41.3694 34.7489 41.3995 34.7614C41.4295 34.7739 41.4568 34.7922 41.4797 34.8152C41.5026 34.8383 41.5208 34.8657 41.5331 34.8958C41.5454 34.9259 41.5516 34.9582 41.5514 34.9907V35.1085H41.3922V34.9875C41.3918 34.9636 41.3821 34.9408 41.3652 34.9238C41.3483 34.9069 41.3254 34.8972 41.3015 34.8968C41.2899 34.8969 41.2784 34.8993 41.2677 34.904C41.257 34.9086 41.2474 34.9154 41.2394 34.9239C41.2308 34.932 41.2239 34.9419 41.2192 34.9529C41.2146 34.9638 41.2122 34.9756 41.2124 34.9875V35.5525C41.2125 35.5642 41.2149 35.5757 41.2195 35.5864C41.2242 35.597 41.231 35.6066 41.2394 35.6146C41.2475 35.6229 41.2572 35.6294 41.2678 35.6338C41.2785 35.6382 41.29 35.6403 41.3015 35.6401C41.3132 35.6403 41.3249 35.6382 41.3357 35.6339C41.3466 35.6296 41.3566 35.6232 41.365 35.6151C41.3734 35.607 41.3802 35.5973 41.3848 35.5865C41.3895 35.5758 41.392 35.5643 41.3922 35.5525V35.4093H41.5514V35.5541C41.552 35.5864 41.5459 35.6185 41.5336 35.6483C41.5213 35.6782 41.503 35.7052 41.4798 35.7276C41.4569 35.7507 41.4296 35.7689 41.3995 35.7812C41.3694 35.7936 41.3372 35.7997 41.3047 35.7992Z" fill="white"/>
<path d="M41.6787 35.7866V34.7537H42.1228V34.9128H41.8347V35.1945H42.0448V35.3537H41.8347V35.6354H42.1228V35.7946L41.6787 35.7866Z" fill="white"/>
<path d="M42.6543 35.7865H42.2294V34.7551H42.3885V35.6321H42.6543V35.7865Z" fill="white"/>
<g opacity="0.3">
<path d="M46.5712 45.5001H35.1914C35.1648 45.5001 35.1386 45.4949 35.114 45.4847C35.0895 45.4745 35.0672 45.4596 35.0485 45.4409C35.0297 45.4221 35.0148 45.3998 35.0046 45.3753C34.9945 45.3508 34.9893 45.3245 34.9893 45.2979C34.9897 45.2446 35.0112 45.1936 35.049 45.1561C35.0869 45.1185 35.1381 45.0974 35.1914 45.0974H46.5712C46.6245 45.0974 46.6757 45.1185 46.7136 45.1561C46.7514 45.1936 46.7729 45.2446 46.7733 45.2979C46.7733 45.3516 46.752 45.403 46.7141 45.4409C46.6762 45.4788 46.6248 45.5001 46.5712 45.5001Z" fill="white"/>
<path d="M48.0211 46.7097H33.7414C33.6878 46.7097 33.6364 46.6884 33.5985 46.6505C33.5606 46.6126 33.5393 46.5611 33.5393 46.5075C33.5414 46.4555 33.5636 46.4062 33.6014 46.3703C33.6391 46.3343 33.6893 46.3145 33.7414 46.3149H48.0211C48.0475 46.3147 48.0737 46.3198 48.0981 46.3298C48.1225 46.3398 48.1447 46.3546 48.1634 46.3732C48.182 46.3919 48.1968 46.4141 48.2068 46.4385C48.2168 46.4629 48.2218 46.4891 48.2216 46.5155C48.22 46.5676 48.1981 46.617 48.1607 46.6532C48.1233 46.6894 48.0732 46.7097 48.0211 46.7097Z" fill="white"/>
<path d="M45.1213 47.9178H36.6413C36.6149 47.918 36.5886 47.913 36.5641 47.903C36.5396 47.893 36.5173 47.8783 36.4985 47.8596C36.4797 47.841 36.4648 47.8188 36.4546 47.7944C36.4444 47.7699 36.4392 47.7437 36.4392 47.7173C36.4392 47.6637 36.4605 47.6122 36.4984 47.5743C36.5363 47.5364 36.5877 47.5151 36.6413 47.5151H45.1213C45.1749 47.5151 45.2263 47.5364 45.2642 47.5743C45.3021 47.6122 45.3234 47.6637 45.3234 47.7173C45.3234 47.7437 45.3182 47.7699 45.308 47.7944C45.2978 47.8188 45.2829 47.841 45.2641 47.8596C45.2453 47.8783 45.223 47.893 45.1985 47.903C45.174 47.913 45.1477 47.918 45.1213 47.9178Z" fill="white"/>
<path d="M48.0211 50.3353H33.7414C33.715 50.3355 33.6887 50.3305 33.6642 50.3205C33.6397 50.3105 33.6174 50.2958 33.5986 50.2771C33.5798 50.2585 33.5649 50.2363 33.5547 50.2119C33.5445 50.1874 33.5393 50.1612 33.5393 50.1348C33.5393 50.0812 33.5606 50.0297 33.5985 49.9918C33.6364 49.9539 33.6878 49.9326 33.7414 49.9326H48.0211C48.0478 49.9322 48.0744 49.9371 48.0992 49.9471C48.124 49.9571 48.1465 49.972 48.1655 49.9908C48.1845 50.0096 48.1995 50.0321 48.2097 50.0568C48.2199 50.0815 48.225 50.108 48.2248 50.1348C48.225 50.1614 48.2199 50.1879 48.2097 50.2125C48.1995 50.2372 48.1844 50.2595 48.1654 50.2782C48.1464 50.2969 48.1239 50.3116 48.0991 50.3214C48.0743 50.3312 48.0478 50.336 48.0211 50.3353Z" fill="white"/>
</g>
<g opacity="0.1">
<path d="M39.7481 6.88657L33.2369 31.2743L33.1637 31.5481L33.0475 31.9874L32.9727 32.2611L29.5731 44.9938V29.5889L35.9426 5.72949H36.1511C36.236 5.73115 36.3184 5.75809 36.3879 5.80685C36.4573 5.85562 36.5107 5.924 36.5411 6.00324L36.7909 6.62078C36.8221 6.69913 36.8757 6.7665 36.9451 6.81437C37.0145 6.86225 37.0966 6.88848 37.1809 6.88975L39.7481 6.88657Z" fill="white"/>
<path d="M52.1894 19.3423V34.7536L48.1277 49.9643L48.0306 50.3335L47.3606 52.8434H43.2463L43.9164 50.3351L44.023 49.9325L44.561 47.9175L44.6676 47.5148L44.8841 46.7079L44.9907 46.3052L45.2056 45.4999L45.3138 45.0972L48.6991 32.4187V32.4171L48.8551 31.8314V31.8298L52.1894 19.3423Z" fill="white"/>
<path d="M41.9779 6.88647L35.5066 31.1215L35.4684 31.2663L35.1134 32.5953L35.0752 32.7401L29.7625 52.681C29.7041 52.6229 29.6579 52.5537 29.6267 52.4774C29.5955 52.4011 29.58 52.3194 29.5811 52.237V49.8846L34.1585 32.7401L34.1967 32.5953L34.5516 31.2663L34.5898 31.1215L41.0516 6.88647H41.9779Z" fill="white"/>
</g>
<path d="M64.1406 48.0354C63.886 47.6168 63.4658 47.9812 63.4658 47.9812C63.5263 47.1775 62.7862 46.6268 62.7862 46.6268C62.7862 46.6268 63.6457 46.6268 63.7666 45.8071C63.8876 44.9875 63.4658 45.3679 63.0727 45.3631C62.6796 45.3583 62.2673 46.5074 62.7862 47.1536C63.3051 47.7998 63.1666 48.9044 61.9681 49.9659C61.6808 50.234 61.4657 50.5701 61.3426 50.9432C61.4334 49.9675 61.4843 48.594 61.1962 47.6757C60.7092 46.1175 61.6387 45.6989 61.9076 44.919C62.1766 44.1392 61.1962 43.4866 61.1962 43.4866C61.1962 43.4866 62.1177 43.068 61.6737 42.5874C61.2296 42.1067 60.2938 42.1736 60.2938 42.8007C60.2938 43.4277 60.9304 43.6665 60.9304 43.6665C60.9304 43.6665 61.6498 44.4161 61.6498 44.806C61.6498 45.196 60.9304 46.0347 60.9304 46.0347C60.9304 46.0347 61.2599 45.3169 60.601 45.2851C59.942 45.2533 59.732 46.1239 60.0009 46.5138C60.2699 46.9037 60.7203 46.5743 60.7203 46.5743C60.7485 47.0289 60.8172 47.48 60.9256 47.9224C60.9941 48.1468 60.9623 49.0253 60.905 49.9405C60.7817 49.6078 60.5815 49.309 60.3208 49.0683C59.1208 48.0051 58.9823 46.9022 59.5012 46.256C60.02 45.6098 59.6094 44.4591 59.2147 44.4639C58.82 44.4686 58.4014 44.0882 58.5224 44.9079C58.6433 45.7276 59.5012 45.7276 59.5012 45.7276C59.5012 45.7276 58.7611 46.2783 58.8216 47.082C58.8216 47.082 58.4014 46.7175 58.1467 47.1361C57.6931 47.8858 58.7468 48.3505 58.9234 47.9812C58.9234 47.9812 61.1596 49.5649 60.6201 51.8424L60.7458 52.027C60.7283 52.2101 60.7187 52.3215 60.7187 52.3215L60.8938 52.2467L61.0928 52.5395C61.085 52.8703 61.102 53.2012 61.1437 53.5295L61.6785 52.7337C61.1389 50.4562 63.3735 48.8741 63.3735 48.8741C63.5422 49.2497 64.5974 48.785 64.1406 48.0354Z" fill="#407BFF"/>
<path opacity="0.2" d="M64.1406 48.0354C63.886 47.6168 63.4658 47.9812 63.4658 47.9812C63.5263 47.1775 62.7862 46.6268 62.7862 46.6268C62.7862 46.6268 63.6457 46.6268 63.7666 45.8071C63.8876 44.9875 63.4658 45.3679 63.0727 45.3631C62.6796 45.3583 62.2673 46.5074 62.7862 47.1536C63.3051 47.7998 63.1666 48.9044 61.9681 49.9659C61.6808 50.234 61.4657 50.5701 61.3426 50.9432C61.4334 49.9675 61.4843 48.594 61.1962 47.6757C60.7092 46.1175 61.6387 45.6989 61.9076 44.919C62.1766 44.1392 61.1962 43.4866 61.1962 43.4866C61.1962 43.4866 62.1177 43.068 61.6737 42.5874C61.2296 42.1067 60.2938 42.1736 60.2938 42.8007C60.2938 43.4277 60.9304 43.6665 60.9304 43.6665C60.9304 43.6665 61.6498 44.4161 61.6498 44.806C61.6498 45.196 60.9304 46.0347 60.9304 46.0347C60.9304 46.0347 61.2599 45.3169 60.601 45.2851C59.942 45.2533 59.732 46.1239 60.0009 46.5138C60.2699 46.9037 60.7203 46.5743 60.7203 46.5743C60.7485 47.0289 60.8172 47.48 60.9256 47.9224C60.9941 48.1468 60.9623 49.0253 60.905 49.9405C60.7817 49.6078 60.5815 49.309 60.3208 49.0683C59.1208 48.0051 58.9823 46.9022 59.5012 46.256C60.02 45.6098 59.6094 44.4591 59.2147 44.4639C58.82 44.4686 58.4014 44.0882 58.5224 44.9079C58.6433 45.7276 59.5012 45.7276 59.5012 45.7276C59.5012 45.7276 58.7611 46.2783 58.8216 47.082C58.8216 47.082 58.4014 46.7175 58.1467 47.1361C57.6931 47.8858 58.7468 48.3505 58.9234 47.9812C58.9234 47.9812 61.1596 49.5649 60.6201 51.8424L60.7458 52.027C60.7283 52.2101 60.7187 52.3215 60.7187 52.3215L60.8938 52.2467L61.0928 52.5395C61.085 52.8703 61.102 53.2012 61.1437 53.5295L61.6785 52.7337C61.1389 50.4562 63.3735 48.8741 63.3735 48.8741C63.5422 49.2497 64.5974 48.785 64.1406 48.0354Z" fill="#407BFF"/>
<g opacity="0.3">
<path d="M64.1406 48.0354C63.886 47.6168 63.4658 47.9812 63.4658 47.9812C63.5263 47.1775 62.7862 46.6268 62.7862 46.6268C62.7862 46.6268 63.6457 46.6268 63.7666 45.8071C63.8876 44.9875 63.4658 45.3679 63.0727 45.3631C62.6796 45.3583 62.2673 46.5074 62.7862 47.1536C63.3051 47.7998 63.1666 48.9044 61.9681 49.9659C61.6808 50.234 61.4657 50.5701 61.3426 50.9432C61.4334 49.9675 61.4843 48.594 61.1962 47.6757C60.7092 46.1175 61.6387 45.6989 61.9076 44.919C62.1766 44.1392 61.1962 43.4866 61.1962 43.4866C61.1962 43.4866 62.1177 43.068 61.6737 42.5874C61.2296 42.1067 60.2938 42.1736 60.2938 42.8007C60.2938 43.4277 60.9304 43.6665 60.9304 43.6665C60.9304 43.6665 61.6498 44.4161 61.6498 44.806C61.6498 45.196 60.9304 46.0347 60.9304 46.0347C60.9304 46.0347 61.2599 45.3169 60.601 45.2851C59.942 45.2533 59.732 46.1239 60.0009 46.5138C60.2699 46.9037 60.7203 46.5743 60.7203 46.5743C60.7485 47.0289 60.8172 47.48 60.9256 47.9224C60.9941 48.1468 60.9623 49.0253 60.905 49.9405C60.7817 49.6078 60.5815 49.309 60.3208 49.0683C59.1208 48.0051 58.9823 46.9022 59.5012 46.256C60.02 45.6098 59.6094 44.4591 59.2147 44.4639C58.82 44.4686 58.4014 44.0882 58.5224 44.9079C58.6433 45.7276 59.5012 45.7276 59.5012 45.7276C59.5012 45.7276 58.7611 46.2783 58.8216 47.082C58.8216 47.082 58.4014 46.7175 58.1467 47.1361C57.6931 47.8858 58.7468 48.3505 58.9234 47.9812C58.9234 47.9812 61.1596 49.5649 60.6201 51.8424L60.7458 52.027C60.7283 52.2101 60.7187 52.3215 60.7187 52.3215L60.8938 52.2467L61.0928 52.5395C61.085 52.8703 61.102 53.2012 61.1437 53.5295L61.6785 52.7337C61.1389 50.4562 63.3735 48.8741 63.3735 48.8741C63.5422 49.2497 64.5974 48.785 64.1406 48.0354Z" fill="black"/>
<path opacity="0.2" d="M64.1406 48.0354C63.886 47.6168 63.4658 47.9812 63.4658 47.9812C63.5263 47.1775 62.7862 46.6268 62.7862 46.6268C62.7862 46.6268 63.6457 46.6268 63.7666 45.8071C63.8876 44.9875 63.4658 45.3679 63.0727 45.3631C62.6796 45.3583 62.2673 46.5074 62.7862 47.1536C63.3051 47.7998 63.1666 48.9044 61.9681 49.9659C61.6808 50.234 61.4657 50.5701 61.3426 50.9432C61.4334 49.9675 61.4843 48.594 61.1962 47.6757C60.7092 46.1175 61.6387 45.6989 61.9076 44.919C62.1766 44.1392 61.1962 43.4866 61.1962 43.4866C61.1962 43.4866 62.1177 43.068 61.6737 42.5874C61.2296 42.1067 60.2938 42.1736 60.2938 42.8007C60.2938 43.4277 60.9304 43.6665 60.9304 43.6665C60.9304 43.6665 61.6498 44.4161 61.6498 44.806C61.6498 45.196 60.9304 46.0347 60.9304 46.0347C60.9304 46.0347 61.2599 45.3169 60.601 45.2851C59.942 45.2533 59.732 46.1239 60.0009 46.5138C60.2699 46.9037 60.7203 46.5743 60.7203 46.5743C60.7485 47.0289 60.8172 47.48 60.9256 47.9224C60.9941 48.1468 60.9623 49.0253 60.905 49.9405C60.7817 49.6078 60.5815 49.309 60.3208 49.0683C59.1208 48.0051 58.9823 46.9022 59.5012 46.256C60.02 45.6098 59.6094 44.4591 59.2147 44.4639C58.82 44.4686 58.4014 44.0882 58.5224 44.9079C58.6433 45.7276 59.5012 45.7276 59.5012 45.7276C59.5012 45.7276 58.7611 46.2783 58.8216 47.082C58.8216 47.082 58.4014 46.7175 58.1467 47.1361C57.6931 47.8858 58.7468 48.3505 58.9234 47.9812C58.9234 47.9812 61.1596 49.5649 60.6201 51.8424L60.7458 52.027C60.7283 52.2101 60.7187 52.3215 60.7187 52.3215L60.8938 52.2467L61.0928 52.5395C61.085 52.8703 61.102 53.2012 61.1437 53.5295L61.6785 52.7337C61.1389 50.4562 63.3735 48.8741 63.3735 48.8741C63.5422 49.2497 64.5974 48.785 64.1406 48.0354Z" fill="black"/>
</g>
<path d="M63.7046 57.7519H58.5845L58.0322 52.1448H64.2569L63.7046 57.7519Z" fill="#407BFF"/>
<path opacity="0.3" d="M63.7046 57.7519H58.5845L58.0322 52.1448H64.2569L63.7046 57.7519Z" fill="white"/>
<path d="M64.5306 51.5273H57.7584V52.764H64.5306V51.5273Z" fill="#407BFF"/>
<path opacity="0.5" d="M64.5306 51.5273H57.7584V52.764H64.5306V51.5273Z" fill="white"/>
<path d="M25.1294 19.8691C25.7326 19.8978 28.2616 23.2942 28.2616 23.2942L29.2007 22.0719C29.2007 22.0719 30.649 24.8858 29.9328 26.2243C29.2166 27.5628 25.4413 23.9038 25.4413 23.9038L25.1294 19.8691Z" fill="#407BFF"/>
<path opacity="0.6" d="M25.1294 19.8708L25.3777 22.5765L25.4413 23.9007C25.4413 23.9007 26.0621 24.5023 26.8467 25.1278C27.999 26.0478 29.5062 27.0186 29.9328 26.2228C30.649 24.8843 29.2007 22.0704 29.2007 22.0704L28.2616 23.2912V23.2816C28.112 23.0779 25.7135 19.8947 25.1294 19.8708Z" fill="white"/>
<path opacity="0.2" d="M25.3777 22.5798L25.4414 23.904C25.4414 23.904 26.0621 24.5056 26.8467 25.1311C26.9215 23.5395 25.4414 21.2253 25.4414 21.2253L25.3777 22.5798Z" fill="black"/>
<path opacity="0.2" d="M28.2617 23.2943L28.1264 23.5521L28.5211 25.0848C28.5211 25.0848 27.4341 24.0965 28.1264 23.1272L28.2617 23.2943Z" fill="black"/>
<path d="M25.2376 28.362L20.1446 28.7552C20.1446 28.7552 20.0761 25.7136 19.6671 24.13C19.535 23.6175 19.3695 23.0414 19.1594 22.3793C19.0703 22.096 18.9732 21.7968 18.8665 21.4769C18.7599 21.157 18.6628 20.8625 18.5482 20.5219C19.2448 20.2997 19.9565 20.1279 20.6778 20.0078C21.4393 19.8726 22.2094 19.7912 22.9824 19.7643C23.9803 19.7564 25.1278 19.8694 25.1278 19.8694C25.1278 19.8694 25.287 19.9092 25.3936 20.966C25.4891 21.9639 25.4445 24.7476 25.2376 28.362Z" fill="#407BFF"/>
<path opacity="0.6" d="M25.2376 28.3618L20.1446 28.7549C20.1446 28.7549 20.1446 28.6929 20.1446 28.5799C20.1223 27.913 20.022 25.4858 19.6671 24.1234C19.5732 23.7574 19.4618 23.3579 19.3281 22.917C19.2756 22.7404 19.2199 22.5573 19.1594 22.3663C19.0703 22.083 18.9732 21.7838 18.8665 21.4639C18.7599 21.144 18.6628 20.8496 18.5482 20.509C19.2448 20.2868 19.9565 20.115 20.6778 19.9949C21.4393 19.8596 22.2094 19.7783 22.9824 19.7514C23.9803 19.7434 25.1278 19.8564 25.1278 19.8564C25.1278 19.8564 25.287 19.8962 25.3936 20.953C25.4891 21.9637 25.4445 24.7473 25.2376 28.3618Z" fill="white"/>
<path d="M18.8442 54.1297L19.613 54.5817C19.9736 54.0966 20.3637 53.6341 20.7812 53.197C21.004 52.9615 21.238 52.7004 21.4815 52.4203C21.9685 51.8617 22.4953 51.2235 23.0476 50.5375L23.5426 49.9184C25.4652 47.496 27.547 44.6502 28.3301 42.726C28.572 42.1276 28.6898 41.6199 28.6372 41.2395C28.4781 40.0904 28.0324 38.3603 27.5231 36.6891C26.7464 34.1426 25.8727 31.7139 25.8727 31.7139L23.7145 35.3506C23.7145 35.3506 24.3734 36.9215 24.9734 38.5943C25.5639 40.2368 26.0971 41.9796 25.8997 42.4332C25.8806 42.4777 25.8567 42.5302 25.8297 42.5923C25.4732 43.3308 24.4864 45.0036 23.3659 46.8514L23.0237 47.4132C22.4221 48.4 21.7966 49.4138 21.2173 50.3449C20.9913 50.711 20.7716 51.0643 20.5631 51.3985C19.5764 52.979 18.8442 54.1297 18.8442 54.1297Z" fill="#EEC1BB"/>
<path opacity="0.2" d="M23.5872 49.9167C22.5718 51.19 21.5961 52.3518 20.8704 53.1954C20.7669 52.6765 20.6619 52.0622 20.5791 51.3921C21.4179 50.0456 22.4444 48.384 23.3771 46.845C23.3573 47.8731 23.4276 48.9009 23.5872 49.9167Z" fill="black"/>
<path d="M19.7547 39.3933C20.0205 41.2061 20.3913 42.8486 20.6459 43.8274C20.794 44.4147 20.8942 44.7617 20.8942 44.7617C20.8978 46.6232 21.0073 48.4831 21.2221 50.3322C21.3033 51.0611 21.3908 51.7646 21.4815 52.4124C21.8158 54.822 22.1675 56.5505 22.1675 56.5505L23.0827 56.4311L23.0476 50.528L23.0285 47.3989L23.0031 43.1414L22.9935 42.3998L22.949 39.1625L22.8837 34.3877L19.7005 32.9553C19.274 34.7777 19.4332 37.2096 19.7547 39.3933Z" fill="#EEC1BB"/>
<path opacity="0.2" d="M27.5344 36.7544L24.765 38.0133C24.2319 36.5809 23.7178 35.3506 23.7178 35.3506L25.8648 31.7139C25.8648 31.7139 26.7386 34.1347 27.5153 36.6891L27.5344 36.7544Z" fill="black"/>
<path opacity="0.2" d="M22.9395 38.459L19.6576 38.6754C19.4062 36.6907 19.3202 34.5851 19.7006 32.968L22.8838 34.4004L22.9395 38.459Z" fill="black"/>
<path d="M18.9143 53.6266C19.0082 53.5582 19.8008 54.7407 19.8008 54.7407C19.8008 54.7407 19.6242 55.979 19.9823 56.7764C20.3404 57.5738 19.6449 57.5069 19.0671 56.7509L17.6347 54.8808C17.2288 54.3476 17.9435 54.3333 18.9143 53.6266Z" fill="#263238"/>
<path d="M20.0699 55.6415C19.89 55.6001 19.7738 55.0861 19.7515 54.9842C19.75 54.9795 19.75 54.9745 19.7515 54.9699C19.7505 54.9662 19.7505 54.9624 19.7515 54.9587V54.9492C19.7557 54.9477 19.7602 54.9477 19.7643 54.9492C19.7802 54.9492 20.116 54.8378 20.2959 54.9492C20.3236 54.9644 20.3477 54.9856 20.3664 55.0112C20.3851 55.0367 20.398 55.0661 20.4041 55.0972C20.4141 55.1227 20.4158 55.1508 20.4089 55.1774C20.4021 55.2039 20.387 55.2277 20.3659 55.2452C20.3038 55.2866 20.1829 55.2452 20.0635 55.1975C20.1409 55.2729 20.1959 55.3681 20.2227 55.4728C20.2261 55.4935 20.2253 55.5146 20.22 55.5349C20.2148 55.5552 20.2054 55.5742 20.1924 55.5906C20.18 55.6105 20.1629 55.6271 20.1427 55.639C20.1225 55.6509 20.0997 55.6578 20.0762 55.659L20.0699 55.6415ZM20.0874 55.5683C20.0874 55.5683 20.116 55.5763 20.1526 55.5301C20.1592 55.5213 20.1638 55.5112 20.1663 55.5006C20.1687 55.4899 20.169 55.4788 20.167 55.468C20.1526 55.3503 19.9744 55.1784 19.8486 55.0733C19.9059 55.2945 20.003 55.546 20.0874 55.5683ZM19.8805 54.9906C20.0715 55.1099 20.2831 55.2054 20.3373 55.1688C20.3532 55.1577 20.3484 55.1211 20.3373 55.0988C20.3333 55.0779 20.3249 55.0581 20.3125 55.0407C20.3001 55.0234 20.2841 55.009 20.2656 54.9985C20.2123 54.9723 20.1531 54.9603 20.0937 54.9635C20.0219 54.9653 19.9505 54.9743 19.8805 54.9906Z" fill="#407BFF"/>
<path d="M21.8444 55.9742C21.8444 55.858 23.2768 55.9488 23.2768 55.9488C23.2768 55.9488 24.1538 56.84 25.0053 57.0406C25.8568 57.2411 25.3809 57.752 24.4291 57.752H22.0688C21.3924 57.752 21.8158 57.1759 21.8444 55.9742Z" fill="#263238"/>
<path d="M23.4296 56.1317C23.4253 56.13 23.4215 56.1273 23.4185 56.1238C23.4177 56.1201 23.4177 56.1163 23.4185 56.1126C23.4178 56.1089 23.4178 56.1052 23.4185 56.1015C23.4176 56.0962 23.4176 56.0908 23.4185 56.0856C23.4185 56.0681 23.5442 55.7386 23.7368 55.659C23.7657 55.6456 23.7972 55.6387 23.8291 55.6387C23.861 55.6387 23.8925 55.6456 23.9214 55.659C23.9867 55.6908 24.0169 55.7306 24.0153 55.7784C24.0153 55.8532 23.9087 55.9296 23.7925 55.9917C23.8997 55.9727 24.01 55.9843 24.1108 56.0251C24.1294 56.0354 24.1457 56.0492 24.1588 56.0659C24.172 56.0826 24.1816 56.1017 24.1872 56.1222C24.1995 56.1489 24.2027 56.1789 24.1964 56.2076C24.1901 56.2363 24.1746 56.2622 24.1522 56.2813C24.1158 56.3076 24.0712 56.3201 24.0265 56.3163C23.8181 56.2908 23.616 56.2283 23.4296 56.1317ZM23.5601 56.1078C23.7702 56.197 24.0376 56.2765 24.0981 56.2208C24.0981 56.2208 24.122 56.2017 24.1076 56.146C24.1048 56.1353 24.0998 56.1253 24.0929 56.1165C24.0861 56.1078 24.0776 56.1005 24.0679 56.0951C24.0148 56.0718 23.957 56.0614 23.8992 56.0649C23.7834 56.068 23.6683 56.0824 23.5554 56.1078H23.5601ZM23.7575 55.729C23.6452 55.8017 23.5597 55.909 23.514 56.0346C23.7241 55.955 23.9278 55.8436 23.931 55.78C23.931 55.7593 23.9007 55.7418 23.8816 55.7322C23.8609 55.7217 23.838 55.7162 23.8148 55.7163C23.795 55.7167 23.7756 55.7211 23.7575 55.729Z" fill="#407BFF"/>
<path d="M22.5606 20.9007C21.2953 20.7416 20.9149 20.1972 20.9149 20.1972C21.4322 19.7102 21.3383 18.9908 21.2062 18.542C21.1651 18.3997 21.1119 18.2613 21.047 18.1282L22.5702 18.4131C22.5351 18.6236 22.5154 18.8363 22.5113 19.0497C22.5056 19.21 22.52 19.3704 22.5542 19.5272C22.6577 19.9824 22.9171 19.9887 22.9171 19.9887C23.1877 20.4869 22.5606 20.9007 22.5606 20.9007Z" fill="#EEC1BB"/>
<path opacity="0.2" d="M22.5144 19.0545C22.5088 19.2148 22.5232 19.3752 22.5574 19.5319C21.9526 19.4523 21.4942 18.9685 21.2062 18.5483C21.1651 18.4061 21.1119 18.2676 21.047 18.1345L22.5701 18.4194C22.5362 18.6295 22.5176 18.8417 22.5144 19.0545Z" fill="black"/>
<path d="M21.203 13.3057C19.048 13.4791 17.7795 19.0831 20.8274 18.5483C21.7234 18.3892 25.443 15.5387 24.0201 14.4548C23.2062 13.8172 22.2306 13.4193 21.203 13.3057Z" fill="#263238"/>
<path d="M22.7802 14.3655C24.0917 14.5549 24.4116 15.3204 24.3129 16.6844C24.1888 18.3906 23.6413 19.5365 22.0529 18.9397C19.8947 18.128 20.6014 14.0503 22.7802 14.3655Z" fill="#EEC1BB"/>
<path d="M23.4758 16.4888C23.5521 16.6997 23.6537 16.9006 23.7782 17.0872C23.7323 17.136 23.6738 17.171 23.6091 17.1884C23.5445 17.2058 23.4763 17.205 23.4121 17.1859L23.4758 16.4888Z" fill="#D4827D"/>
<path d="M22.688 16.2659C22.6753 16.3741 22.6068 16.4537 22.5288 16.4458C22.4508 16.4378 22.4095 16.3423 22.4222 16.2341C22.4349 16.1259 22.505 16.0447 22.5814 16.0542C22.6578 16.0638 22.7007 16.1577 22.688 16.2659Z" fill="#263238"/>
<path d="M22.551 16.0559L22.7961 15.9922C22.7961 15.9922 22.6561 16.1752 22.551 16.0559Z" fill="#263238"/>
<path d="M24.0328 16.4044C24.0201 16.5126 23.9517 16.5938 23.8737 16.5842C23.7957 16.5747 23.7543 16.4823 23.767 16.3741C23.7798 16.2659 23.8498 16.1847 23.9262 16.1927C24.0026 16.2006 24.0488 16.2961 24.0328 16.4044Z" fill="#263238"/>
<path d="M23.8976 16.1943L24.1443 16.1306C24.1443 16.1306 24.0026 16.3152 23.8976 16.1943Z" fill="#263238"/>
<path d="M22.2088 15.5307C22.201 15.5307 22.1932 15.529 22.186 15.5257C22.1789 15.5224 22.1726 15.5176 22.1675 15.5116C22.162 15.5065 22.1576 15.5003 22.1546 15.4935C22.1516 15.4866 22.15 15.4792 22.15 15.4718C22.15 15.4643 22.1516 15.4569 22.1546 15.45C22.1576 15.4432 22.162 15.437 22.1675 15.432C22.2584 15.3613 22.3647 15.3128 22.4777 15.2905C22.5907 15.2681 22.7074 15.2724 22.8184 15.3031C22.8326 15.3075 22.8446 15.3173 22.8517 15.3303C22.8588 15.3434 22.8606 15.3587 22.8566 15.3731C22.8525 15.3872 22.8431 15.3991 22.8303 15.4063C22.8174 15.4134 22.8023 15.4152 22.7882 15.4113C22.6955 15.3864 22.5984 15.3828 22.5042 15.4007C22.4099 15.4186 22.3209 15.4576 22.2439 15.5147C22.2345 15.5242 22.2221 15.5298 22.2088 15.5307Z" fill="#263238"/>
<path d="M24.2748 15.6802C24.2607 15.6803 24.2471 15.6752 24.2366 15.6659C24.1781 15.6045 24.1065 15.5573 24.0271 15.5278C23.9476 15.4982 23.8625 15.4872 23.7782 15.4956C23.7637 15.498 23.7488 15.4946 23.7366 15.4864C23.7245 15.4781 23.716 15.4654 23.7129 15.451C23.7113 15.4438 23.7111 15.4363 23.7124 15.4291C23.7137 15.4218 23.7164 15.4148 23.7204 15.4086C23.7244 15.4024 23.7296 15.397 23.7357 15.3928C23.7418 15.3886 23.7487 15.3857 23.7559 15.3842C23.8574 15.373 23.9601 15.385 24.0563 15.4192C24.1525 15.4533 24.2397 15.5089 24.3114 15.5815C24.3167 15.5867 24.3209 15.5929 24.3237 15.5997C24.3266 15.6066 24.3281 15.6139 24.3281 15.6213C24.3281 15.6287 24.3266 15.6361 24.3237 15.6429C24.3209 15.6497 24.3167 15.6559 24.3114 15.6611C24.3022 15.6721 24.289 15.6789 24.2748 15.6802Z" fill="#263238"/>
<path d="M21.0263 16.3695C21.0263 16.3695 21.795 15.3811 21.8221 14.5344C21.8221 14.5344 24.5755 13.8484 24.3225 16.5063C24.3225 16.5063 24.9145 14.2001 22.6672 13.8214C20.4199 13.4426 19.9615 16.7435 20.9754 17.8958C20.9754 17.8958 20.5504 16.9886 21.0263 16.3695Z" fill="#263238"/>
<path d="M21.2014 16.6781C21.2106 16.5244 21.1584 16.3732 21.0564 16.2578C20.9544 16.1424 20.8108 16.072 20.6571 16.0622C20.2449 16.0479 19.9298 16.858 20.9118 17.2018C21.0534 17.2511 21.1553 17.1206 21.2014 16.6781Z" fill="#EEC1BB"/>
<path d="M23.1034 17.9291C22.9389 17.9365 22.7765 17.8897 22.6411 17.796C22.5057 17.7023 22.4047 17.5668 22.3537 17.4102C22.3495 17.3959 22.3512 17.3804 22.3583 17.3673C22.3655 17.3542 22.3776 17.3444 22.3919 17.3402C22.4063 17.336 22.4217 17.3376 22.4349 17.3448C22.448 17.3519 22.4577 17.364 22.462 17.3784C22.6036 17.8559 23.1066 17.8177 23.1288 17.8161C23.1435 17.8152 23.158 17.8199 23.1693 17.8294C23.1805 17.8389 23.1877 17.8524 23.1893 17.867C23.19 17.8744 23.1891 17.8819 23.1868 17.8891C23.1845 17.8962 23.1808 17.9027 23.1759 17.9084C23.171 17.914 23.165 17.9186 23.1583 17.9219C23.1516 17.9252 23.1443 17.9271 23.1368 17.9275L23.1034 17.9291Z" fill="#263238"/>
<path d="M21.203 13.3056C21.203 13.3056 23.1256 13.0541 24.3289 14.2191C25.5321 15.3842 21.9956 15.1948 21.9956 15.1948L22.8917 14.7857C22.8917 14.7857 21.7696 15.1041 21.2842 14.9449L21.203 13.3056Z" fill="#263238"/>
<path d="M19.7722 16.7244C19.7722 16.7244 19.1897 17.7446 19.7722 18.6263C19.6477 18.9131 19.6285 19.2347 19.7179 19.5343C19.8073 19.8339 19.9995 20.0923 20.2608 20.264C20.2608 20.264 20.0889 20.7988 20.915 21.445C20.915 21.445 21.1728 22.2869 20.9691 22.8886L21.5675 22.5941C21.5675 22.5941 21.5675 21.8381 21.203 21.3972C21.203 21.3972 21.3956 20.1988 20.915 19.8057C20.915 19.8057 21.1298 19.0497 21.0502 18.7202C21.0502 18.7202 20.8099 17.2957 20.7717 17.143C20.7717 17.1445 19.9616 17.0411 19.7722 16.7244Z" fill="#263238"/>
<path d="M23.1336 15.4732C23.1236 15.4733 23.1139 15.4695 23.1065 15.4627C23.0991 15.4559 23.0946 15.4466 23.0938 15.4366C23.0936 15.4316 23.0943 15.4266 23.0961 15.4219C23.0978 15.4172 23.1004 15.4128 23.1038 15.4091C23.1072 15.4054 23.1113 15.4025 23.1159 15.4003C23.1204 15.3982 23.1254 15.397 23.1304 15.3968C23.5187 15.373 24.5421 15.2377 24.6137 14.9034C24.7013 14.496 24.1363 14.1777 24.1251 14.1745C24.1206 14.1722 24.1165 14.1689 24.1133 14.165C24.11 14.1611 24.1075 14.1565 24.106 14.1516C24.1046 14.1467 24.1041 14.1416 24.1046 14.1365C24.1052 14.1314 24.1067 14.1265 24.1092 14.122C24.1142 14.1131 24.1225 14.1065 24.1323 14.1035C24.1421 14.1006 24.1526 14.1015 24.1617 14.1061C24.1872 14.1204 24.7888 14.4562 24.6901 14.9194C24.5915 15.3825 23.1941 15.47 23.1352 15.4732H23.1336Z" fill="#263238"/>
<path d="M26.051 22.1134C26.0485 22.1318 26.05 22.1506 26.0554 22.1685C26.0608 22.1863 26.0701 22.2028 26.0825 22.2167C26.0949 22.2306 26.1102 22.2417 26.1273 22.2491C26.1444 22.2565 26.1629 22.2602 26.1815 22.2598H27.6362C27.6755 22.2573 27.7127 22.2414 27.7417 22.2147C27.7707 22.1881 27.7896 22.1523 27.7954 22.1134L28.1137 19.2485C28.1172 19.2099 28.1053 19.1715 28.0805 19.1416C28.0558 19.1118 28.0202 19.093 27.9816 19.0894H26.5269C26.4866 19.0949 26.4493 19.1134 26.4205 19.1422C26.3918 19.1709 26.3733 19.2083 26.3677 19.2485L26.051 22.1134Z" fill="#263238"/>
<path opacity="0.5" d="M26.5365 19.223L26.207 22.1228C26.2027 22.1398 26.2025 22.1575 26.2063 22.1746C26.2102 22.1917 26.218 22.2076 26.2292 22.2211C26.2404 22.2346 26.2545 22.2453 26.2706 22.2522C26.2866 22.2592 26.3041 22.2623 26.3216 22.2613H27.5551C27.6378 22.2613 27.789 22.2151 27.7986 22.134L28.128 19.2246C28.1376 19.1434 27.9959 19.0781 27.9132 19.0781H26.6797C26.6419 19.0797 26.6062 19.0955 26.5796 19.1224C26.553 19.1493 26.5376 19.1852 26.5365 19.223Z" fill="white"/>
<path opacity="0.6" d="M23.2371 29.013C23.2371 29.064 23.2522 29.1138 23.2805 29.1562C23.3089 29.1986 23.3491 29.2317 23.3962 29.2512C23.4433 29.2707 23.4952 29.2758 23.5452 29.2659C23.5952 29.2559 23.6412 29.2313 23.6772 29.1953C23.7133 29.1592 23.7378 29.1133 23.7478 29.0633C23.7577 29.0133 23.7526 28.9614 23.7331 28.9143C23.7136 28.8672 23.6805 28.8269 23.6381 28.7986C23.5957 28.7703 23.5459 28.7551 23.4949 28.7551C23.461 28.7549 23.4274 28.7614 23.396 28.7743C23.3646 28.7872 23.3361 28.8062 23.3121 28.8302C23.2881 28.8542 23.2691 28.8827 23.2563 28.914C23.2434 28.9454 23.2369 28.979 23.2371 29.013Z" fill="white"/>
<path d="M29.0973 22.3521L28.3397 21.0661C28.3397 21.0661 28.3397 20.3896 28.2744 20.2305C28.2092 20.0713 27.4659 19.7116 27.3195 19.7657C27.173 19.8199 27.1205 21.1456 27.2542 21.3239C27.3879 21.5022 27.851 21.7027 27.851 21.7027L27.8192 21.9542L28.2617 23.2943L29.0973 22.3521Z" fill="#EEC1BB"/>
<path d="M29.4028 22.2056L29.1497 21.9541L27.9561 23.2942L28.1264 23.8242L29.4028 22.2056Z" fill="#407BFF"/>
<path d="M27.9211 36.3054L24.0106 37.6948L23.8801 37.3367L23.7209 36.8959L23.6541 37.5325L23.6031 38.0211H18.8539C18.8539 38.0211 18.8395 37.8842 18.8252 37.6391C18.738 36.0779 18.802 34.512 19.0162 32.9631C19.1934 31.6224 19.5311 30.3078 20.0221 29.0478C20.0619 28.9491 20.1032 28.852 20.1446 28.7549L25.2377 28.3618L25.2807 28.6069L25.599 30.4356L26.207 31.9731L27.7078 35.769L27.9211 36.3054Z" fill="#263238"/>
<path opacity="0.2" d="M23.3548 24.3512C23.3548 24.3512 21.9511 27.5487 20.1398 28.5848C20.1176 27.918 20.0173 25.4908 19.6624 24.1284C19.5685 23.7623 19.4571 23.3629 19.3234 22.922L19.8756 22.2583C19.8756 22.2583 20.2576 23.4424 20.0889 24.4706L22.2009 23.1766L23.3548 24.3512Z" fill="black"/>
<path d="M21.9956 23.611L23.7145 22.2598C23.8145 21.967 23.9369 21.6823 24.0806 21.4083C24.1856 21.281 25.696 20.7239 25.8218 20.7096C25.9475 20.6953 25.8218 21.9478 25.634 22.1595C25.4462 22.3712 24.227 22.7962 24.227 22.7962L22.4222 24.496L21.9956 23.611Z" fill="#EEC1BB"/>
<path d="M18.5498 20.5312C17.5376 21.0374 17.0872 26.7543 18.8443 27.7411C20.6014 28.7279 23.237 24.2603 23.237 24.2603L22.2168 23.178C22.2168 23.178 20.0761 24.9686 19.8183 24.8046C19.5605 24.6407 19.8533 22.8947 19.8533 22.8947C19.8533 22.8947 20.1541 22.3663 19.5207 21.5324C18.8872 20.6984 18.5498 20.5312 18.5498 20.5312Z" fill="#407BFF"/>
<path opacity="0.6" d="M18.5498 20.5312C17.5376 21.0374 17.0872 26.7543 18.8443 27.7411C20.6014 28.7279 23.237 24.2603 23.237 24.2603L22.2168 23.178C22.2168 23.178 20.0761 24.9686 19.8183 24.8046C19.5605 24.6407 19.8533 22.8947 19.8533 22.8947C19.8533 22.8947 20.1541 22.3663 19.5207 21.5324C18.8872 20.6984 18.5498 20.5312 18.5498 20.5312Z" fill="white"/>
<path d="M23.2482 24.6567L23.5538 24.4737L22.4079 22.793L21.9861 23.0285L23.2482 24.6567Z" fill="#407BFF"/>
<path opacity="0.2" d="M21.262 29.2182C21.262 29.2182 20.6842 32.4013 19.0162 32.9631C19.1934 31.6224 19.5311 30.3079 20.0221 29.0479L21.262 29.2182Z" fill="black"/>
<path opacity="0.2" d="M26.2086 31.9731C24.8732 31.3222 24.8955 28.7549 24.8955 28.7549L25.2807 28.6069L25.599 30.4357L26.2086 31.9731Z" fill="black"/>
<path opacity="0.2" d="M23.6525 37.5327L23.6015 38.0213H18.8538C18.8538 38.0213 18.8395 37.8845 18.8252 37.6393L23.6525 37.5327Z" fill="black"/>
<path opacity="0.2" d="M27.921 36.3054L24.0105 37.6949L23.88 37.3368L27.7093 35.769L27.921 36.3054Z" fill="black"/>
<path opacity="0.2" d="M23.7145 36.896L23.8163 35.5957L24.8907 33.4868C24.8907 33.4868 25.2297 34.7028 24.6949 35.7867C24.1601 36.8705 23.7145 36.896 23.7145 36.896Z" fill="black"/>
<path opacity="0.5" d="M20.1447 28.7549L19.9298 29.2849L25.3523 29.0128L25.2377 28.3618L20.1447 28.7549Z" fill="black"/>
<path d="M23.0062 28.5577L23.0699 29.1546C23.0735 29.1858 23.0892 29.2145 23.1135 29.2344C23.1379 29.2543 23.1691 29.2639 23.2004 29.2612L23.9962 29.1991C24.0121 29.1977 24.0276 29.1932 24.0417 29.1858C24.0559 29.1784 24.0684 29.1682 24.0786 29.156C24.0889 29.1437 24.0965 29.1295 24.1012 29.1142C24.1059 29.099 24.1076 29.0829 24.106 29.067L24.0503 28.4797C24.0475 28.4482 24.0324 28.419 24.0083 28.3985C23.9842 28.378 23.953 28.3677 23.9214 28.3699L23.1256 28.424C23.1088 28.4244 23.0923 28.4282 23.077 28.4353C23.0617 28.4423 23.0481 28.4524 23.0369 28.4649C23.0257 28.4775 23.0172 28.4922 23.0119 28.5082C23.0066 28.5241 23.0047 28.541 23.0062 28.5577Z" fill="#407BFF"/>
<path d="M21.6773 28.6294L21.6136 29.3313H21.4178L21.4481 28.6294H21.6773Z" fill="#263238"/>
<path d="M24.5342 28.416L24.6122 29.1497H24.7936L24.7299 28.3857L24.5342 28.416Z" fill="#263238"/>
</svg>
