<svg width="12" height="12" viewBox="0 0 12 12" fill="none" xmlns="http://www.w3.org/2000/svg">
<g clip-path="url(#clip0_1519_735)">
<path d="M1.8001 0.599976C1.48184 0.599976 1.17661 0.726404 0.95157 0.951448C0.726526 1.17649 0.600098 1.48172 0.600098 1.79998V4.49998H1.8001V1.79998H4.8001V0.599976H1.8001ZM0.600098 10.2V6.89998H1.8001V10.2H4.8001V11.4H1.8001C1.48184 11.4 1.17661 11.2735 0.95157 11.0485C0.726526 10.8235 0.600098 10.5182 0.600098 10.2ZM7.2001 10.2V11.4H10.2001C10.5184 11.4 10.8236 11.2735 11.0486 11.0485C11.2737 10.8235 11.4001 10.5182 11.4001 10.2V6.89998H10.2001V10.2H7.2001ZM10.2001 4.49998H11.4001V1.79998C11.4001 1.48172 11.2737 1.17649 11.0486 0.951448C10.8236 0.726404 10.5184 0.599976 10.2001 0.599976H7.2001V1.79998H10.2001V4.49998Z" fill="white"/>
<path d="M3.6 3H8.4V3.6H3.6V3ZM3 4.8H9V5.4H3V4.8ZM3.6 6.6H8.4V7.2H3.6V6.6ZM3 8.4H9V9H3V8.4Z" fill="white"/>
</g>
<defs>
<clipPath id="clip0_1519_735">
<rect width="12" height="12" fill="white"/>
</clipPath>
</defs>
</svg>
