<svg width="30" height="30" viewBox="0 0 30 30" fill="none" xmlns="http://www.w3.org/2000/svg">
<path fill-rule="evenodd" clip-rule="evenodd" d="M7.5 8.75C7.5 7.0924 8.15848 5.50269 9.33058 4.33058C10.5027 3.15848 12.0924 2.5 13.75 2.5C15.4076 2.5 16.9973 3.15848 18.1694 4.33058C19.3415 5.50269 20 7.0924 20 8.75C20 10.4076 19.3415 11.9973 18.1694 13.1694C16.9973 14.3415 15.4076 15 13.75 15C12.0924 15 10.5027 14.3415 9.33058 13.1694C8.15848 11.9973 7.5 10.4076 7.5 8.75ZM6.0275 18.3388C8.03125 17.1175 10.7562 16.25 13.75 16.25C14.3087 16.25 14.8587 16.28 15.395 16.3375C15.6097 16.3605 15.8148 16.4388 15.9903 16.5647C16.1657 16.6905 16.3056 16.8597 16.3962 17.0557C16.4869 17.2517 16.5252 17.4679 16.5074 17.6831C16.4897 17.8983 16.4165 18.1052 16.295 18.2838C15.4482 19.5265 14.9968 20.9962 15 22.5C15 23.65 15.2587 24.7375 15.7187 25.7088C15.8084 25.898 15.849 26.1067 15.837 26.3157C15.825 26.5247 15.7607 26.7274 15.6499 26.905C15.5392 27.0827 15.3856 27.2297 15.2032 27.3326C15.0209 27.4355 14.8156 27.4909 14.6062 27.4938C14.3237 27.4975 14.0375 27.5 13.75 27.5C10.9637 27.5 8.33125 27.325 6.35875 26.8025C5.3775 26.5425 4.45375 26.17 3.75375 25.6075C3.0125 25.0125 2.5 24.1813 2.5 23.125C2.5 22.1413 2.9475 21.2213 3.555 20.4513C4.1725 19.67 5.02625 18.9513 6.0275 18.3388ZM21.875 20C21.3777 20 20.9008 20.1975 20.5492 20.5492C20.1975 20.9008 20 21.3777 20 21.875C20 22.3723 20.1975 22.8492 20.5492 23.2008C20.9008 23.5525 21.3777 23.75 21.875 23.75C22.3723 23.75 22.8492 23.5525 23.2008 23.2008C23.5525 22.8492 23.75 22.3723 23.75 21.875C23.75 21.3777 23.5525 20.9008 23.2008 20.5492C22.8492 20.1975 22.3723 20 21.875 20ZM17.5 21.875C17.5005 21.2094 17.6529 20.5526 17.9455 19.9548C18.2382 19.3569 18.6634 18.8337 19.1888 18.425C19.7142 18.0163 20.3259 17.7329 20.9774 17.5963C21.6289 17.4597 22.3029 17.4736 22.9482 17.6369C23.5935 17.8002 24.1931 18.1086 24.7012 18.5386C25.2093 18.9686 25.6126 19.5088 25.8804 20.1182C26.1481 20.7276 26.2733 21.3901 26.2464 22.0552C26.2195 22.7203 26.0412 23.3705 25.725 23.9563L26.7675 25C26.8869 25.1153 26.9821 25.2532 27.0476 25.4058C27.1131 25.5583 27.1476 25.7223 27.1491 25.8883C27.1505 26.0542 27.1189 26.2188 27.056 26.3724C26.9932 26.5261 26.9004 26.6656 26.783 26.783C26.6656 26.9004 26.5261 26.9932 26.3724 27.056C26.2188 27.1189 26.0542 27.1505 25.8882 27.1491C25.7223 27.1476 25.5582 27.1131 25.4057 27.0476C25.2532 26.9821 25.1153 26.8869 25 26.7675L23.9562 25.7238C23.2898 26.0842 22.5411 26.2654 21.7836 26.2495C21.0261 26.2337 20.2856 26.0214 19.6348 25.6334C18.984 25.2455 18.445 24.6951 18.0708 24.0363C17.6966 23.3774 17.4999 22.6327 17.5 21.875Z" fill="#19A7CE"/>
</svg>
