<svg width="21" height="21" viewBox="0 0 21 21" fill="none" xmlns="http://www.w3.org/2000/svg">
<path fill-rule="evenodd" clip-rule="evenodd" d="M8.55575 18.375H12.4443C15.1751 18.375 16.541 18.375 17.5219 17.7319C17.9451 17.4545 18.3096 17.0966 18.5946 16.6784C19.25 15.7159 19.25 14.3745 19.25 11.6935C19.25 9.01167 19.25 7.67117 18.5946 6.70867C18.3096 6.29051 17.9451 5.93254 17.5219 5.65517C16.8919 5.24129 16.1026 5.09342 14.8942 5.04092C14.3176 5.04092 13.8215 4.61217 13.7086 4.05654C13.6224 3.64955 13.3982 3.28482 13.0741 3.024C12.75 2.76317 12.3458 2.62225 11.9297 2.62504H9.07025C8.20575 2.62504 7.46113 3.22442 7.29138 4.05654C7.1785 4.61217 6.68238 5.04092 6.10575 5.04092C4.89825 5.09342 4.109 5.24217 3.47812 5.65517C3.05517 5.9326 2.69095 6.29057 2.40625 6.70867C1.75 7.67117 1.75 9.01167 1.75 11.6935C1.75 14.3745 1.75 15.715 2.40538 16.6784C2.68888 17.0949 3.05287 17.4528 3.47812 17.7319C4.459 18.375 5.82487 18.375 8.55575 18.375ZM10.5 8.11392C8.48662 8.11392 6.85388 9.71604 6.85388 11.6927C6.85388 13.6702 8.48662 15.2723 10.5 15.2723C12.5134 15.2723 14.1461 13.6702 14.1461 11.6935C14.1461 9.71604 12.5134 8.11392 10.5 8.11392ZM10.5 9.54542C9.2925 9.54542 8.3125 10.507 8.3125 11.6935C8.3125 12.8792 9.2925 13.8408 10.5 13.8408C11.7075 13.8408 12.6875 12.8792 12.6875 11.6935C12.6875 10.507 11.7075 9.54542 10.5 9.54542ZM14.6318 8.82967C14.6318 8.43417 14.9581 8.11392 15.3615 8.11392H16.3328C16.7353 8.11392 17.0625 8.43417 17.0625 8.82967C17.0607 9.0212 16.9828 9.20417 16.8462 9.33838C16.7095 9.47258 16.5252 9.54705 16.3336 9.54542H15.3615C15.2666 9.54634 15.1724 9.52856 15.0844 9.49309C14.9963 9.45762 14.9161 9.40515 14.8484 9.33869C14.7806 9.27222 14.7266 9.19306 14.6894 9.10572C14.6523 9.01838 14.6327 8.92458 14.6318 8.82967Z" fill="#728196"/>
</svg>
