<svg width="22" height="21" viewBox="0 0 22 21" fill="none" xmlns="http://www.w3.org/2000/svg">
<path d="M4.53058 5.01841C6.2495 3.4006 8.16936 2.16107 9.46795 1.41036C10.4144 0.863214 11.5856 0.863214 12.532 1.41036C13.8306 2.16107 15.7504 3.4006 17.4694 5.01841C21.1961 8.52602 20.9982 10.5537 20.9982 13.8749C20.9982 15.4356 20.8682 16.7519 20.7306 17.7089C20.5857 18.7156 19.6527 19.4102 18.5732 19.4102H16.8813C15.582 19.4102 14.5288 18.4189 14.5288 17.1961V14.982C14.5288 14.1011 14.157 13.2564 13.4952 12.6336C12.8334 12.0107 11.9358 11.6608 11 11.6608C10.0641 11.6608 9.16659 12.0107 8.50476 12.6336C7.84299 13.2564 7.47121 14.1011 7.47121 14.982V17.1961C7.47121 18.4189 6.41796 19.4102 5.1187 19.4102H3.42673C2.34724 19.4102 1.41427 18.7156 1.2694 17.7088C1.13171 16.7519 1.00183 15.4356 1.00183 13.8749C1.00183 10.5537 0.803748 8.52602 4.53058 5.01841Z"/>
</svg>
