<svg width="22" height="22" viewBox="0 0 22 22" fill="none" xmlns="http://www.w3.org/2000/svg">
<path d="M17.6666 18.4469C17.6666 15.0784 13.7778 14.3333 11 14.3333C8.2222 14.3333 4.33332 15.0784 4.33332 18.4469M11 21C16.5229 21 21 16.5229 21 11C21 5.47716 16.5229 1 11 1C5.47716 1 1 5.47716 1 11C1 16.5229 5.47716 21 11 21ZM11 10.9999C12.841 10.9999 14.3334 9.5076 14.3334 7.6666C14.3334 5.82565 12.841 4.33326 11 4.33326C9.15902 4.33326 7.66668 5.82565 7.66668 7.6666C7.66668 9.5076 9.15902 10.9999 11 10.9999Z"/>
</svg>
