<svg width="22" height="15" viewBox="0 0 22 15" fill="none" xmlns="http://www.w3.org/2000/svg">
<path d="M17.3636 9.18182C19.3719 9.18182 21 11 21 12.3636C21 13.1167 20.3895 13.7273 19.6364 13.7273H19.1818M15.5455 6.45455C17.0517 6.45455 18.2727 5.2335 18.2727 3.72727C18.2727 2.22105 17.0517 1 15.5455 1M4.63636 9.18182C2.62805 9.18182 1 11 1 12.3636C1 13.1167 1.61052 13.7273 2.36364 13.7273H2.81818M6.45455 6.45455C4.94832 6.45455 3.72727 5.2335 3.72727 3.72727C3.72727 2.22105 4.94832 1 6.45455 1M6.90909 13.7273H15.0909C15.844 13.7273 16.4545 13.1167 16.4545 12.3636C16.4545 10.0909 13.7273 9.18182 11 9.18182C8.27273 9.18182 5.54545 10.0909 5.54545 12.3636C5.54545 13.1167 6.15597 13.7273 6.90909 13.7273ZM11 6.45455C12.5063 6.45455 13.7273 5.2335 13.7273 3.72727C13.7273 2.22105 12.5063 1 11 1C9.49373 1 8.27273 2.22105 8.27273 3.72727C8.27273 5.2335 9.49373 6.45455 11 6.45455Z"/>
</svg>
