<svg width="57" height="54" viewBox="0 0 57 54" fill="none" xmlns="http://www.w3.org/2000/svg">
<path d="M28.4999 53.647C44.24 53.647 56.9999 46.2798 56.9999 37.1919C56.9999 28.104 44.24 20.7368 28.4999 20.7368C12.7599 20.7368 0 28.104 0 37.1919C0 46.2798 12.7599 53.647 28.4999 53.647Z" fill="#F5F5F5"/>
<path d="M47.2916 45.2615C51.757 45.2615 55.3769 43.1715 55.3769 40.5933C55.3769 38.0151 51.757 35.925 47.2916 35.925C42.8263 35.925 39.2064 38.0151 39.2064 40.5933C39.2064 43.1715 42.8263 45.2615 47.2916 45.2615Z" fill="#E0E0E0"/>
<path d="M26.8296 43.1113L17.7087 37.8435L28.1341 31.8247L37.2562 37.0913L26.8296 43.1113Z" fill="#E0E0E0"/>
<path d="M1.99377 41.482L13.7576 48.2736L23.6246 42.5782L11.8608 35.7866L1.99377 41.482Z" fill="#E0E0E0"/>
<path d="M19.3887 9.55917V8.89055C19.3837 8.85192 19.3688 8.81524 19.3455 8.78404C19.3221 8.75285 19.2911 8.72821 19.2555 8.71249L15.2183 6.39655C15.1221 6.34819 15.0159 6.323 14.9083 6.323C14.8006 6.323 14.6944 6.34819 14.5982 6.39655L2.99542 13.0585C2.95978 13.0742 2.92879 13.0989 2.90545 13.1301C2.88211 13.1613 2.8672 13.198 2.86218 13.2366V13.9052C2.86709 13.9439 2.88195 13.9806 2.9053 14.0118C2.92866 14.043 2.95971 14.0676 2.99542 14.0833L7.03137 16.3956C7.12758 16.4439 7.23377 16.4691 7.34145 16.4691C7.44914 16.4691 7.55533 16.4439 7.65154 16.3956L19.2543 9.73359C19.29 9.71798 19.3211 9.69336 19.3444 9.66215C19.3678 9.63094 19.3826 9.59421 19.3875 9.55554L19.3887 9.55917Z" fill="#F0F0F0"/>
<path d="M2.9954 13.411L7.03135 15.727C7.12739 15.7759 7.23365 15.8014 7.34143 15.8014C7.44922 15.8014 7.55548 15.7759 7.65152 15.727L19.2543 9.06497C19.4251 8.96686 19.4251 8.80818 19.2543 8.70886L15.2183 6.39655C15.1221 6.34819 15.0159 6.323 14.9082 6.323C14.8005 6.323 14.6944 6.34819 14.5981 6.39655L2.9954 13.0585C2.82461 13.1542 2.82461 13.3129 2.9954 13.411Z" fill="#FAFAFA"/>
<path d="M7.34145 15.8019V16.4694C7.23355 16.4709 7.12697 16.4455 7.03137 16.3955L2.99542 14.0856C2.95971 14.07 2.92866 14.0453 2.9053 14.0141C2.88195 13.9829 2.86709 13.9462 2.86218 13.9075V13.2377C2.86456 13.2106 2.87327 13.1845 2.88762 13.1614C2.84038 13.2474 2.87551 13.3467 2.99542 13.4157L7.03137 15.7281C7.12671 15.7788 7.23347 15.8043 7.34145 15.8019Z" fill="#E0E0E0"/>
<path d="M9.50964 10.1527L12.9291 12.1017L18.5772 8.8603L15.159 6.91016L9.50964 10.1527Z" fill="#E0E0E0"/>
<path d="M12.9678 11.9537L9.66954 10.0605C9.75525 9.78084 9.74888 9.48107 9.65137 9.20532L12.9291 11.0779C12.9291 11.0779 12.992 11.2851 12.9678 11.9537Z" fill="white"/>
<path d="M12.7606 10.8152C12.8527 10.8747 12.9294 10.9551 12.9845 11.0498C13.0397 11.1445 13.0717 11.2509 13.078 11.3603V11.9974C13.078 12.1985 12.935 12.2797 12.7606 12.1803L9.5144 10.3101V10.1527L12.7218 11.9817C12.8272 12.0422 12.912 11.9926 12.912 11.8727V11.2816C12.9084 11.2159 12.8892 11.1521 12.8562 11.0952C12.8231 11.0384 12.7771 10.9902 12.7218 10.9545L9.5144 9.11945V8.94019L12.7606 10.8152Z" fill="#EBEBEB"/>
<path d="M9.5144 8.94594L15.1589 5.70337L18.4087 7.56872C18.501 7.62825 18.5779 7.70878 18.6331 7.80374C18.6882 7.89869 18.7201 8.00536 18.7261 8.11501V8.75577C18.7304 8.79495 18.724 8.83456 18.7076 8.8704C18.6912 8.90623 18.6653 8.93694 18.6328 8.95926L12.9847 12.2018C13.0166 12.179 13.0419 12.1482 13.058 12.1124C13.0742 12.0767 13.0807 12.0374 13.0767 11.9983V11.36C13.0709 11.2505 13.039 11.144 12.9838 11.0492C12.9286 10.9544 12.8517 10.8741 12.7594 10.8149L9.5144 8.94594Z" fill="#FAFAFA"/>
<path d="M12.9847 11.0465C13.0423 11.14 13.0745 11.2469 13.078 11.3566V11.995C13.0819 12.034 13.0755 12.0733 13.0593 12.1091C13.0431 12.1448 13.0178 12.1756 12.986 12.1984L18.6341 8.95588C18.6666 8.93356 18.6924 8.90285 18.7088 8.86702C18.7253 8.83118 18.7317 8.79157 18.7274 8.75239V8.11526C18.7238 8.00554 18.6917 7.89864 18.6341 7.80518L12.9847 11.0465Z" fill="#F0F0F0"/>
<path d="M6.03319 5.30176L6.00049 5.73297L9.81841 7.78122L9.90441 7.52928L6.03319 5.30176Z" fill="#EBEBEB"/>
<path d="M9.85364 7.62962L6.15563 5.49536L5.51245 5.86601L9.28313 8.07173L9.85364 7.62962Z" fill="white"/>
<path d="M8.58909 7.84277L8.22571 12.1282C8.2275 12.1766 8.24086 12.2239 8.26467 12.266C8.28849 12.3082 8.32206 12.344 8.36258 12.3705L10.5077 13.612C10.542 13.631 10.5801 13.6418 10.6192 13.6435L9.28678 8.21584C9.24792 8.21372 9.20994 8.2034 9.17534 8.18556L9.02151 8.09593L8.58909 7.84277Z" fill="#E0E0E0"/>
<path d="M9.44672 8.18065L9.82948 7.85239L10.1093 7.61014C10.1383 7.56411 10.1723 7.5302 10.1541 7.48901L11.4695 12.8767C11.4877 12.9143 11.4925 12.9979 11.4405 13.0294L10.7779 13.5962C10.7278 13.6228 10.6708 13.6338 10.6144 13.6277L9.28198 8.20003C9.33761 8.20963 9.39483 8.2029 9.44672 8.18065Z" fill="#F0F0F0"/>
<path d="M10.1105 7.45385C10.1856 7.49746 10.1674 7.54591 10.1105 7.61132L9.44668 8.1794C9.40443 8.20148 9.35747 8.21301 9.30981 8.21301C9.26214 8.21301 9.21518 8.20148 9.17293 8.1794L8.5891 7.84267C8.51279 7.79906 8.49947 7.73608 8.55882 7.70216C8.59782 7.68634 8.63992 7.67964 8.68191 7.68258C8.7239 7.68552 8.76466 7.69802 8.80107 7.71912L9.26136 7.9856C9.27544 7.99273 9.291 7.99644 9.30678 7.99644C9.32256 7.99644 9.33812 7.99273 9.3522 7.9856L9.83671 7.56408C9.86215 7.54954 9.86215 7.52653 9.83671 7.51199L6.03333 5.30143L6.21502 5.19604L10.1105 7.45385Z" fill="#FAFAFA"/>
<path d="M4.93103 5.50879L8.56847 7.60913V14.5303L4.93103 12.4288V5.50879Z" fill="#EBEBEB"/>
<path d="M8.45093 7.72377L4.93098 5.70337C4.7157 5.93161 4.43377 6.08593 4.12549 6.14427L7.61637 8.15619C7.61637 8.15619 7.84166 8.10289 8.45093 7.72377Z" fill="white"/>
<path d="M7.27839 8.15015C7.3833 8.20269 7.49901 8.23005 7.61633 8.23005C7.73366 8.23005 7.84937 8.20269 7.95428 8.15015L8.54538 7.80373C8.73191 7.69592 8.73191 7.52271 8.54538 7.41491L5.07752 5.42358L4.93095 5.50837L8.3431 7.47911C8.36826 7.48645 8.39036 7.50175 8.40608 7.52271C8.42181 7.54368 8.43031 7.56918 8.43031 7.59539C8.43031 7.6216 8.42181 7.6471 8.40608 7.66807C8.39036 7.68903 8.36826 7.70433 8.3431 7.71167L7.79197 8.02902C7.72902 8.06066 7.65954 8.07714 7.58908 8.07714C7.51863 8.07714 7.44915 8.06066 7.38619 8.02902L3.97526 6.05708L3.80811 6.15277L7.27839 8.15015Z" fill="#FAFAFA"/>
<path d="M3.80933 6.15308V13.0731L7.2784 15.0644C7.3833 15.1169 7.49902 15.1443 7.61634 15.1443C7.73367 15.1443 7.84938 15.1169 7.95429 15.0644L8.54781 14.724C8.58639 14.707 8.61968 14.6799 8.64419 14.6456C8.6687 14.6113 8.68352 14.571 8.68711 14.529V7.60902C8.68335 7.65116 8.66816 7.69147 8.64319 7.72562C8.61822 7.75977 8.5844 7.78647 8.54539 7.80282L7.95429 8.15046C7.84938 8.203 7.73367 8.23036 7.61634 8.23036C7.49902 8.23036 7.3833 8.203 7.2784 8.15046L3.80933 6.15308Z" fill="#EBEBEB"/>
<path d="M7.61631 8.22446C7.73391 8.22677 7.85017 8.19927 7.95426 8.14451L8.54536 7.80293C8.58392 7.78623 8.61724 7.75939 8.64176 7.72526C8.66629 7.69114 8.68111 7.65101 8.68465 7.60913V14.5291C8.68107 14.5711 8.66624 14.6114 8.64173 14.6457C8.61723 14.68 8.58394 14.7071 8.54536 14.7241L7.95184 15.0645C7.84774 15.1192 7.73148 15.1467 7.61389 15.1444L7.61631 8.22446Z" fill="#F0F0F0"/>
<path d="M36.837 33.3447C36.8188 33.0383 36.7776 32.6712 36.728 32.2449C36.5427 30.6266 36.2895 28.41 36.9605 26.2866C37.3687 24.9942 38.3523 23.462 39.8882 23.0368C40.2298 22.9423 41.0558 22.803 41.3732 23.5358C41.4178 23.6417 41.4444 23.7543 41.4519 23.8689C41.4846 24.3341 41.2751 24.7447 41.0425 25.119C40.7748 25.5538 40.4647 25.9669 40.1643 26.369C39.8809 26.7493 39.5866 27.1418 39.3298 27.5488C39.0524 27.991 38.8095 28.4538 38.603 28.9333L38.5049 28.8909C38.711 28.4066 38.9539 27.9389 39.2317 27.4919C39.4897 27.0812 39.7852 26.6864 40.0711 26.3048C40.369 25.9051 40.6767 25.4933 40.9432 25.0633C41.1661 24.6999 41.3671 24.3111 41.3369 23.8762C41.3303 23.7737 41.3065 23.6729 41.2666 23.5782C40.9832 22.9229 40.2225 23.0538 39.9088 23.1398C38.4141 23.554 37.4535 25.0536 37.0538 26.3181C36.39 28.4209 36.642 30.6242 36.8261 32.2328C36.8745 32.6603 36.9169 33.0298 36.9351 33.3386L36.837 33.3447Z" fill="#BA68C8"/>
<path d="M36.9462 35.106C36.9382 35.1071 36.93 35.1071 36.922 35.106C36.8987 35.1015 36.8769 35.0916 36.8582 35.077C36.8394 35.0625 36.8244 35.0438 36.8142 35.0224C36.7931 34.9625 36.7931 34.8971 36.8142 34.8371C36.8313 34.721 36.8313 34.6031 36.8142 34.487C36.8142 34.4216 36.8033 34.3526 36.8033 34.2908V33.5386C36.9 32.1874 37.296 30.8746 37.9625 29.6953C38.5536 28.6669 39.2077 27.9825 40.0216 27.5392C40.4604 27.2981 40.9416 27.1439 41.4388 27.085C41.8778 27.0365 42.319 27.1531 42.6767 27.412C43.0462 27.7039 43.2121 28.2042 43.0728 28.6003C42.9747 28.8776 42.7506 29.0848 42.5217 29.2725C42.1135 29.6056 41.6678 29.9036 41.2378 30.1919C40.8804 30.4341 40.511 30.6764 40.1658 30.9429C39.1096 31.758 38.2236 32.7724 37.5579 33.9286C37.4489 34.1164 37.3459 34.3102 37.2515 34.504L37.2127 34.5803C37.1749 34.6495 37.1417 34.7211 37.1134 34.7947C37.1073 34.8104 37.1013 34.8431 37.0928 34.8807C37.0866 34.9498 37.0647 35.0165 37.0286 35.0757C37.0059 35.0957 36.9765 35.1066 36.9462 35.106ZM41.6132 27.1855C41.5587 27.1855 41.5042 27.1855 41.4485 27.1928C40.966 27.2491 40.499 27.3988 40.0737 27.6337C39.2791 28.0661 38.6384 28.7384 38.057 29.7486C37.3994 30.9133 37.0085 32.2094 36.9123 33.5435V34.2884C36.9123 34.3465 36.9123 34.4095 36.9232 34.4761C36.9427 34.603 36.9427 34.7321 36.9232 34.8589C36.9102 34.8982 36.9102 34.9407 36.9232 34.98C36.9263 34.9862 36.9308 34.9915 36.9362 34.9957C36.9417 34.9999 36.948 35.0028 36.9547 35.0043C36.9763 34.9595 36.991 34.9117 36.9983 34.8625C37.0041 34.8289 37.0122 34.7957 37.0225 34.7632C37.0521 34.6854 37.0869 34.6097 37.1267 34.5367L37.1643 34.4616C37.2612 34.2654 37.3653 34.0704 37.4743 33.8802C37.7008 33.4883 37.952 33.1112 38.2265 32.7513C38.7692 32.0423 39.4024 31.4074 40.1101 30.8629C40.4589 30.5964 40.8296 30.3481 41.1881 30.1083C41.6169 29.8212 42.059 29.5245 42.4648 29.195C42.6804 29.0194 42.8923 28.8219 42.982 28.57C43.1031 28.2151 42.9541 27.7657 42.6186 27.5004C42.3289 27.2845 41.9744 27.1734 41.6132 27.1855Z" fill="#BA68C8"/>
<path d="M36.8552 34.0714H36.8419C36.8351 34.0699 36.8286 34.067 36.823 34.0629C36.8173 34.0588 36.8125 34.0536 36.8089 34.0476C36.8053 34.0416 36.8029 34.0349 36.8019 34.028C36.8009 34.0211 36.8013 34.014 36.8031 34.0072C37.8024 30.0222 40.5653 28.244 42.0407 27.8213C42.0542 27.8175 42.0686 27.8192 42.0808 27.826C42.0931 27.8328 42.1021 27.8442 42.1061 27.8576C42.1099 27.8713 42.1082 27.8859 42.1014 27.8983C42.0946 27.9107 42.0833 27.92 42.0697 27.9242C40.6162 28.3397 37.8945 30.0948 36.9073 34.0327C36.9039 34.0439 36.8971 34.0537 36.8877 34.0607C36.8783 34.0676 36.8669 34.0714 36.8552 34.0714Z" fill="#BA68C8"/>
<path d="M36.8492 30.8009C36.835 30.7997 36.8218 30.7929 36.8125 30.782C36.8032 30.7712 36.7986 30.7571 36.7996 30.7428C37.1181 26.4392 39.9331 24.0808 40.2529 23.8277C40.2583 23.8231 40.2646 23.8197 40.2714 23.8177C40.2781 23.8156 40.2852 23.815 40.2923 23.8158C40.2993 23.8166 40.3061 23.8188 40.3122 23.8223C40.3184 23.8258 40.3237 23.8305 40.328 23.8361C40.3324 23.8416 40.3357 23.8479 40.3376 23.8547C40.3396 23.8614 40.3402 23.8685 40.3394 23.8754C40.3386 23.8824 40.3364 23.8892 40.333 23.8953C40.3296 23.9015 40.325 23.9069 40.3195 23.9112C40.0034 24.162 37.2211 26.4924 36.9074 30.7513C36.9058 30.7654 36.899 30.7784 36.8882 30.7876C36.8774 30.7969 36.8634 30.8016 36.8492 30.8009Z" fill="#BA68C8"/>
<path d="M36.5137 15.7921L29.7778 11.9051C29.7257 11.8677 29.6647 11.8448 29.6009 11.8386C29.537 11.8324 29.4727 11.8433 29.4144 11.87L28.9299 12.1498C28.8767 12.1869 28.8343 12.2376 28.8072 12.2966C28.7802 12.3556 28.7694 12.4207 28.7761 12.4853V30.922C28.786 31.1017 28.8381 31.2764 28.9282 31.4322C29.0182 31.5879 29.1437 31.7202 29.2945 31.8184L36.0292 35.7005C36.0811 35.7381 36.1421 35.7612 36.206 35.7676C36.2698 35.774 36.3342 35.7634 36.3925 35.7368L36.8771 35.4558C36.9297 35.4185 36.9715 35.3679 36.9981 35.3092C37.0247 35.2504 37.0352 35.1856 37.0285 35.1215V16.6884C37.0191 16.5091 36.9676 16.3345 36.8781 16.1788C36.7887 16.023 36.6638 15.8906 36.5137 15.7921Z" fill="#263238"/>
<path d="M30.2272 31.2383L29.7427 31.5181V33.0516C29.7451 33.0965 29.7581 33.1402 29.7807 33.1791C29.8032 33.218 29.8346 33.2511 29.8723 33.2756L30.0988 33.4065C30.139 33.4268 30.1834 33.4374 30.2284 33.4374C30.2734 33.4374 30.3178 33.4268 30.358 33.4065L30.5845 33.2756C30.665 33.2237 30.7272 33.1479 30.7626 33.0588L31.1998 31.7991L30.2272 31.2383Z" fill="#263238"/>
<path d="M29.7427 33.0515C29.7451 33.0964 29.7581 33.1401 29.7807 33.1791C29.8032 33.218 29.8346 33.2511 29.8723 33.2756L30.0988 33.4064C30.1144 33.4159 30.132 33.4217 30.1502 33.4234C30.1685 33.4251 30.1868 33.4227 30.204 33.4163C30.2211 33.4098 30.2365 33.3996 30.2492 33.3864C30.2618 33.3732 30.2713 33.3572 30.2768 33.3398L30.7117 32.0789L29.7427 31.5181V33.0515Z" fill="#37474F"/>
<path d="M35.0868 34.0352L34.6023 34.3162V35.8484C34.6045 35.8934 34.6173 35.9373 34.6396 35.9764C34.6619 36.0155 34.6931 36.0489 34.7307 36.0737L34.9584 36.2045C34.9984 36.2249 35.0426 36.2354 35.0874 36.2354C35.1322 36.2354 35.1764 36.2249 35.2164 36.2045L35.4441 36.0737C35.5246 36.0217 35.5868 35.9459 35.6222 35.8569L36.0582 34.596L35.0868 34.0352Z" fill="#263238"/>
<path d="M34.6023 35.8482C34.6045 35.8932 34.6173 35.937 34.6396 35.9761C34.6619 36.0153 34.6931 36.0486 34.7307 36.0735L34.9584 36.2043C34.9741 36.2138 34.9916 36.2196 35.0099 36.2213C35.0281 36.223 35.0464 36.2205 35.0636 36.2141C35.0807 36.2077 35.0962 36.1975 35.1088 36.1843C35.1214 36.171 35.1309 36.1551 35.1365 36.1377L35.5737 34.8767L34.6047 34.3159L34.6023 35.8482Z" fill="#37474F"/>
<path d="M29.3261 12.1997L36.0607 16.0757C36.2115 16.1742 36.337 16.3067 36.4271 16.4626C36.5172 16.6186 36.5693 16.7935 36.5792 16.9733V35.41C36.592 35.4748 36.5842 35.5419 36.5569 35.602C36.5296 35.6621 36.4842 35.7122 36.4271 35.7452C36.3699 35.7782 36.3038 35.7925 36.2381 35.786C36.1724 35.7795 36.1104 35.7527 36.0607 35.7092L29.3261 31.8259C29.1755 31.7277 29.0501 31.5953 28.9603 31.4396C28.8704 31.2838 28.8185 31.1091 28.8089 30.9295V12.4977C28.7959 12.433 28.8036 12.3659 28.8308 12.3059C28.858 12.2458 28.9033 12.1958 28.9605 12.1629C29.0176 12.13 29.0836 12.1158 29.1492 12.1224C29.2148 12.129 29.2767 12.1561 29.3261 12.1997Z" fill="#37474F"/>
<path d="M19.5463 37.4002L26.8308 41.6057L37.0297 35.7177L36.544 35.4367L29.2594 31.2312L19.5463 36.8394V37.4002Z" fill="#455A64"/>
<path d="M26.8308 41.6055V41.0447L37.0297 35.1567V35.7176L26.8308 41.6055Z" fill="#263238"/>
<path d="M26.877 40.7891L26.8031 40.7395C28.0955 38.7833 28.087 35.4038 27.9817 34.5559C27.9732 34.499 27.9671 34.4639 27.9659 34.4506L28.0543 34.436C28.0543 34.4627 28.064 34.4942 28.0689 34.5317C28.1634 35.1313 28.6975 38.3884 29.3298 39.3768L29.2547 39.4253C28.7545 38.6488 28.3269 36.5533 28.1125 35.3445C28.1258 36.7169 27.9259 39.2109 26.877 40.7891Z" fill="#FAFAFA"/>
<path d="M31.1309 37.8023C31.0207 37.7696 28.4455 36.9895 28.2081 35.8534L28.2966 35.8352C28.5218 36.9193 31.1297 37.709 31.1564 37.7175L31.1309 37.8023Z" fill="#FAFAFA"/>
<path d="M28.5315 37.3419L28.4661 37.0645C28.4571 37.0135 28.4312 36.9671 28.3925 36.9328C28.3538 36.8985 28.3046 36.8783 28.2529 36.8755C28.2103 36.8693 28.1667 36.8763 28.1282 36.8955C28.0896 36.9148 28.0579 36.9455 28.0373 36.9833L27.9537 36.9482C27.9818 36.8928 28.0263 36.8474 28.0812 36.8183C28.1361 36.7893 28.1986 36.7779 28.2602 36.7859C28.3048 36.7887 28.3482 36.8009 28.3877 36.8218C28.4271 36.8427 28.4617 36.8717 28.4891 36.907C28.5036 36.7922 28.5623 36.6875 28.6526 36.6151C28.6869 36.5972 28.7252 36.5884 28.7638 36.5897C28.8024 36.591 28.8401 36.6022 28.8731 36.6224L28.8331 36.7023C28.8129 36.6893 28.7897 36.6817 28.7658 36.6802C28.7418 36.6787 28.7179 36.6834 28.6962 36.6938C28.5933 36.752 28.5533 36.976 28.5473 37.0572L28.5315 37.3419Z" fill="#FAFAFA"/>
<path d="M28.7847 38.2661L28.7047 38.0142C28.6139 37.7295 28.4625 37.566 28.2832 37.5551C28.2083 37.5537 28.1346 37.5741 28.0711 37.6139C28.0077 37.6537 27.9572 37.7111 27.9259 37.7792L27.8447 37.7404C27.883 37.6554 27.9457 37.5836 28.0249 37.5342C28.104 37.4849 28.196 37.4601 28.2893 37.463C28.3971 37.4691 28.5824 37.5272 28.7205 37.8083C28.7508 37.5866 28.8416 37.2305 29.0754 37.0815C29.1593 37.0355 29.2536 37.0119 29.3493 37.013C29.445 37.014 29.5388 37.0397 29.6217 37.0875L29.5841 37.1687C29.5147 37.1277 29.436 37.1051 29.3554 37.1032C29.2748 37.1013 29.1951 37.1201 29.1238 37.1578C28.8125 37.3516 28.7919 37.9924 28.7919 37.9996L28.7847 38.2661Z" fill="#FAFAFA"/>
<path d="M27.6909 38.8816L27.611 38.8404C27.7902 38.4952 28.1839 38.2469 28.5255 38.2639C28.5979 38.2647 28.6693 38.2818 28.7343 38.3139C28.7993 38.3459 28.8562 38.3922 28.901 38.4492C28.9338 38.2749 29.0017 38.1091 29.1003 37.9617C29.199 37.8143 29.3265 37.6884 29.4751 37.5916C29.6346 37.4857 29.8186 37.4226 30.0096 37.4084C30.2005 37.3941 30.3918 37.4293 30.5652 37.5105L30.5301 37.5916C30.3704 37.5177 30.1944 37.4857 30.0189 37.4989C29.8434 37.512 29.6741 37.5698 29.5272 37.6667C29.3701 37.7685 29.239 37.9057 29.1443 38.0672C29.0497 38.2287 28.9941 38.4101 28.9821 38.597V38.8259L28.8973 38.6127C28.8692 38.5369 28.8187 38.4715 28.7525 38.4252C28.6863 38.3789 28.6075 38.3539 28.5267 38.3535C28.213 38.3377 27.8556 38.5655 27.6909 38.8816Z" fill="#FAFAFA"/>
<path d="M27.1991 40.2187L27.1204 40.1751C27.2294 39.9764 27.8096 38.9783 28.4964 38.7979C28.5933 38.7701 28.695 38.7632 28.7948 38.7776C28.8946 38.792 28.9902 38.8274 29.0753 38.8814L29.0293 38.9578C28.9543 38.9103 28.8701 38.8792 28.7822 38.8665C28.6944 38.8538 28.6048 38.8597 28.5194 38.8839C28.0155 39.0171 27.4946 39.6857 27.1991 40.2187Z" fill="#FAFAFA"/>
<path d="M36.0583 29.5485V30.1094L26.8308 35.4365L19.5463 31.231V30.6702L28.7737 25.343L36.0583 29.5485Z" fill="#263238"/>
<path d="M36.0583 29.5485L26.8308 34.8757L19.5463 30.6702L28.7737 25.343L36.0583 29.5485Z" fill="#455A64"/>
<path d="M36.0583 23.3808V23.9404L26.8308 29.2688L19.5463 25.0621V24.5024L28.7737 19.1741L36.0583 23.3808Z" fill="#263238"/>
<path d="M36.0583 23.3808L26.8308 28.708L19.5463 24.5024L28.7737 19.1741L36.0583 23.3808Z" fill="#455A64"/>
<path d="M26.7994 21.3932L20.0648 17.5111C20.0128 17.4735 19.9518 17.4503 19.888 17.4439C19.8241 17.4376 19.7598 17.4482 19.7014 17.4747C19.6142 17.5244 19.3041 17.7049 19.2169 17.7545C19.1638 17.7918 19.1217 17.8425 19.0949 17.9015C19.068 17.9605 19.0575 18.0256 19.0643 18.0901V36.5219C19.0742 36.7016 19.1262 36.8763 19.2163 37.0321C19.3064 37.1878 19.4319 37.3201 19.5827 37.4183L26.3173 41.3016C26.3693 41.3392 26.4303 41.3624 26.4941 41.3687C26.558 41.3751 26.6223 41.3645 26.6807 41.3379C26.7679 41.2871 27.0804 41.1078 27.1652 41.0557C27.2185 41.0189 27.261 40.9685 27.2883 40.9097C27.3155 40.8509 27.3266 40.7859 27.3203 40.7214V22.2907C27.3103 22.1107 27.2579 21.9355 27.1674 21.7796C27.0769 21.6236 26.9508 21.4912 26.7994 21.3932Z" fill="#263238"/>
<path opacity="0.2" d="M26.8308 24.2227L27.3177 23.9417V22.2581L26.8296 22.5391L26.8308 24.2227Z" fill="black"/>
<path opacity="0.2" d="M36.5453 18.6143L37.0322 18.3345V16.6509L36.5441 16.9319L36.5453 18.6143Z" fill="black"/>
<path d="M20.5176 36.8394L20.0331 37.1192V38.6526C20.0355 38.6975 20.0485 38.7412 20.0711 38.7802C20.0936 38.8191 20.125 38.8522 20.1627 38.8767L20.3892 39.0075C20.4294 39.0279 20.4738 39.0384 20.5188 39.0384C20.5638 39.0384 20.6082 39.0279 20.6484 39.0075L20.8749 38.8767C20.9551 38.8249 21.0173 38.7496 21.053 38.6611L21.4902 37.4002L20.5176 36.8394Z" fill="#263238"/>
<path d="M20.032 38.6526C20.0344 38.6975 20.0474 38.7412 20.07 38.7802C20.0925 38.8191 20.1239 38.8522 20.1616 38.8767L20.3881 39.0075C20.4037 39.017 20.4213 39.0228 20.4396 39.0245C20.4578 39.0262 20.4761 39.0237 20.4933 39.0173C20.5104 39.0109 20.5259 39.0007 20.5385 38.9875C20.5511 38.9742 20.5606 38.9583 20.5662 38.9409L21.0034 37.68L20.0344 37.1191L20.032 38.6526Z" fill="#37474F"/>
<path d="M25.3737 39.6433L24.8892 39.9231V41.4566C24.8914 41.5014 24.9042 41.5451 24.9265 41.584C24.9488 41.623 24.98 41.6561 25.0176 41.6807L25.2453 41.8115C25.2852 41.8318 25.3294 41.8424 25.3743 41.8424C25.4191 41.8424 25.4633 41.8318 25.5033 41.8115L25.731 41.6807C25.8108 41.6285 25.8729 41.5533 25.9091 41.4651L26.3451 40.2041L25.3737 39.6433Z" fill="#263238"/>
<path d="M24.8892 41.4505C24.8914 41.4953 24.9042 41.539 24.9265 41.5779C24.9488 41.6168 24.98 41.65 25.0176 41.6745L25.2453 41.8054C25.2609 41.8148 25.2785 41.8206 25.2967 41.8223C25.3149 41.824 25.3333 41.8216 25.3504 41.8152C25.3676 41.8088 25.383 41.7986 25.3957 41.7853C25.4083 41.7721 25.4177 41.7562 25.4233 41.7387L25.8594 40.4778L24.8904 39.917L24.8892 41.4505Z" fill="#37474F"/>
<path d="M19.5778 17.792L26.3137 21.6741C26.4643 21.7726 26.5896 21.9051 26.6795 22.0611C26.7693 22.217 26.8212 22.3919 26.8309 22.5716V41.6055C26.8309 41.6055 26.4566 41.3839 26.3137 41.3015L19.579 37.4182C19.4282 37.32 19.3027 37.1877 19.2126 37.032C19.1226 36.8762 19.0705 36.7015 19.0606 36.5218V18.0899C19.0476 18.0253 19.0553 17.9582 19.0825 17.8982C19.1097 17.8381 19.155 17.7881 19.2122 17.7552C19.2693 17.7223 19.3353 17.7081 19.4009 17.7147C19.4665 17.7213 19.5284 17.7483 19.5778 17.792Z" fill="#37474F"/>
<path opacity="0.2" d="M26.3137 21.6741L19.5778 17.792C19.5284 17.7483 19.4665 17.7213 19.4009 17.7147C19.3353 17.7081 19.2693 17.7223 19.2122 17.7552C19.155 17.7881 19.1097 17.8381 19.0825 17.8982C19.0553 17.9582 19.0476 18.0253 19.0606 18.0899V19.7361L26.8309 24.2177V22.5716C26.8212 22.3919 26.7693 22.217 26.6795 22.0611C26.5896 21.9051 26.4643 21.7726 26.3137 21.6741Z" fill="black"/>
<path d="M35.5725 23.4257C35.5608 23.4254 35.5495 23.4206 35.5412 23.4122C35.5329 23.4039 35.528 23.3927 35.5277 23.3809V17.8502L30.2526 20.8954C30.2477 20.8986 30.2422 20.9007 30.2363 20.9016C30.2305 20.9026 30.2246 20.9023 30.2189 20.9008C30.2132 20.8993 30.2079 20.8967 30.2033 20.893C30.1986 20.8894 30.1948 20.8848 30.1921 20.8796C30.189 20.8745 30.187 20.8689 30.1861 20.863C30.1853 20.8572 30.1856 20.8512 30.1871 20.8454C30.1885 20.8397 30.1911 20.8343 30.1947 20.8296C30.1982 20.8248 30.2027 20.8208 30.2078 20.8178L35.5568 17.7339C35.5635 17.7298 35.5713 17.7275 35.5792 17.7275C35.5871 17.7275 35.5949 17.7298 35.6016 17.7339C35.6083 17.738 35.6138 17.7436 35.6177 17.7504C35.6215 17.7572 35.6235 17.7649 35.6234 17.7727V23.3809C35.6235 23.3873 35.6221 23.3937 35.6195 23.3996C35.6169 23.4054 35.613 23.4107 35.6082 23.4149C35.6034 23.4192 35.5977 23.4223 35.5916 23.4242C35.5854 23.4261 35.5789 23.4266 35.5725 23.4257Z" fill="#FAFAFA"/>
<path d="M34.601 22.023H34.5877C34.5761 22.0204 34.5661 22.0133 34.5597 22.0033C34.5534 21.9934 34.5512 21.9813 34.5538 21.9697L35.4574 18.0561L33.6647 21.1606C33.6619 21.1658 33.6581 21.1703 33.6535 21.174C33.649 21.1777 33.6437 21.1804 33.638 21.182C33.6324 21.1835 33.6264 21.184 33.6206 21.1832C33.6148 21.1825 33.6092 21.1805 33.6041 21.1775C33.5989 21.1746 33.5943 21.1707 33.5906 21.166C33.5869 21.1614 33.5842 21.156 33.5827 21.1502C33.5811 21.1445 33.5807 21.1385 33.5814 21.1325C33.5822 21.1266 33.5842 21.1209 33.5872 21.1158L35.5252 17.7509C35.5307 17.7416 35.5394 17.7346 35.5495 17.7311C35.5597 17.7275 35.5708 17.7277 35.5809 17.7315C35.5909 17.7355 35.599 17.743 35.6039 17.7526C35.6088 17.7621 35.6101 17.7731 35.6076 17.7836L34.6385 21.9903C34.6364 21.9989 34.6316 22.0067 34.6249 22.0125C34.6182 22.0184 34.6098 22.022 34.601 22.023Z" fill="#FAFAFA"/>
<path d="M32.6595 20.6265C32.6534 20.6265 32.6473 20.6252 32.6416 20.6227C32.636 20.6202 32.6309 20.6165 32.6268 20.6119C32.6185 20.6035 32.6139 20.5922 32.6139 20.5804C32.6139 20.5687 32.6185 20.5573 32.6268 20.549L35.5411 17.7449C35.5495 17.7366 35.5608 17.7319 35.5726 17.7319C35.5844 17.7319 35.5957 17.7366 35.6041 17.7449C35.6125 17.7535 35.6172 17.765 35.6172 17.777C35.6172 17.789 35.6125 17.8005 35.6041 17.8091L32.6898 20.6119C32.686 20.6162 32.6813 20.6197 32.6761 20.6222C32.6709 20.6247 32.6653 20.6262 32.6595 20.6265Z" fill="#FAFAFA"/>
<path d="M35.5727 22.5305C35.5609 22.5302 35.5497 22.5253 35.5413 22.517C35.533 22.5087 35.5282 22.4974 35.5278 22.4856C35.5278 21.7516 34.709 21.702 34.6739 21.7007C34.6673 21.7003 34.6609 21.6984 34.655 21.6953C34.6492 21.6921 34.644 21.6878 34.64 21.6826C34.6362 21.6774 34.6336 21.6715 34.6323 21.6652C34.631 21.6589 34.6312 21.6525 34.6327 21.6462C34.6626 21.4963 34.6525 21.3411 34.6033 21.1963C34.5542 21.0515 34.4679 20.9222 34.3529 20.8214C34.3109 20.7794 34.2604 20.747 34.2049 20.7261C34.1493 20.7052 34.0899 20.6964 34.0307 20.7002C33.9991 20.7056 33.969 20.7177 33.9425 20.7356C33.916 20.7536 33.8936 20.777 33.8769 20.8044C33.8718 20.8132 33.8639 20.8201 33.8545 20.8238C33.845 20.8276 33.8345 20.828 33.8248 20.825C33.8151 20.822 33.8067 20.8158 33.801 20.8075C33.7953 20.7991 33.7926 20.7891 33.7933 20.779C33.7933 20.7511 33.843 20.0982 33.2688 20.034C33.2615 20.0331 33.2544 20.0305 33.2483 20.0262C33.2422 20.022 33.2372 20.0164 33.2337 20.0098C33.2304 20.0034 33.2287 19.9964 33.2287 19.9892C33.2287 19.9821 33.2304 19.975 33.2337 19.9686C33.2337 19.9686 33.4881 19.4926 33.39 19.2588C33.3786 19.2314 33.361 19.207 33.3385 19.1876C33.316 19.1683 33.2892 19.1545 33.2604 19.1474C33.2546 19.1459 33.2492 19.1432 33.2446 19.1395C33.2399 19.1359 33.236 19.1313 33.2332 19.1261C33.2304 19.1208 33.2286 19.1151 33.2281 19.1092C33.2275 19.1033 33.2282 19.0973 33.2301 19.0917C33.2337 19.0804 33.2415 19.071 33.2519 19.0654C33.2623 19.0598 33.2744 19.0583 33.2858 19.0614C33.3275 19.0721 33.3661 19.0925 33.3985 19.1209C33.4309 19.1493 33.4562 19.1849 33.4723 19.2249C33.5656 19.4466 33.4081 19.8136 33.3403 19.9517C33.786 20.0377 33.8684 20.458 33.8805 20.6663C33.9204 20.638 33.9658 20.6186 34.0138 20.6094C34.0866 20.6023 34.16 20.6119 34.2286 20.6372C34.2972 20.6626 34.3592 20.7032 34.4098 20.756C34.5302 20.8621 34.6223 20.9964 34.6779 21.147C34.7335 21.2975 34.7509 21.4595 34.7284 21.6184C34.9246 21.6438 35.6175 21.7807 35.6163 22.4881C35.6157 22.4993 35.6108 22.5099 35.6028 22.5178C35.5947 22.5256 35.5839 22.5302 35.5727 22.5305Z" fill="#FAFAFA"/>
<path d="M35.5725 21.3218C35.5613 21.3218 35.5504 21.3176 35.5421 21.31C35.5338 21.3024 35.5286 21.2919 35.5277 21.2806C35.5084 21.0238 35.3594 20.692 35.1716 20.6096C35.1344 20.593 35.0932 20.5876 35.0529 20.594C35.0127 20.6005 34.9752 20.6185 34.9451 20.6459C34.9377 20.6507 34.9291 20.6532 34.9203 20.6532C34.9115 20.6532 34.9029 20.6507 34.8954 20.6459C34.8878 20.6417 34.8815 20.6353 34.8774 20.6276C34.8733 20.6198 34.8716 20.611 34.8724 20.6023C34.8724 20.6023 34.9124 20.1481 34.7077 19.9603C34.6633 19.9233 34.6107 19.8973 34.5542 19.8847C34.4977 19.872 34.4391 19.8731 34.3831 19.8877C34.3754 19.8893 34.3673 19.8888 34.3599 19.8863C34.3524 19.8837 34.3458 19.8792 34.3407 19.8731C34.3355 19.867 34.332 19.8597 34.3305 19.8518C34.329 19.844 34.3296 19.8359 34.3322 19.8283C34.3734 19.7157 34.4533 19.3995 34.3455 19.2869C34.2947 19.2348 34.2014 19.23 34.0669 19.2736C34.0578 19.2766 34.0479 19.2766 34.0387 19.2735C34.0295 19.2705 34.0216 19.2645 34.0161 19.2566C34.0105 19.2488 34.0076 19.2395 34.0076 19.23C34.0076 19.2204 34.0105 19.2111 34.0161 19.2033C34.0912 19.1088 34.2765 18.8327 34.2305 18.7006C34.2229 18.6824 34.2106 18.6665 34.1948 18.6546C34.1791 18.6427 34.1604 18.6351 34.1408 18.6328C34.1351 18.6314 34.1297 18.6288 34.1249 18.6253C34.1202 18.6218 34.1162 18.6174 34.1131 18.6123C34.1101 18.6073 34.1081 18.6017 34.1072 18.5958C34.1064 18.59 34.1067 18.584 34.1081 18.5783C34.1092 18.5725 34.1115 18.567 34.1149 18.5622C34.1182 18.5574 34.1226 18.5533 34.1276 18.5502C34.1326 18.5471 34.1382 18.5451 34.144 18.5443C34.1498 18.5435 34.1558 18.544 34.1614 18.5456C34.1954 18.5505 34.2275 18.5643 34.2545 18.5856C34.2815 18.6068 34.3025 18.6348 34.3153 18.6667C34.3649 18.8109 34.2438 19.0301 34.159 19.1512C34.2027 19.1408 34.2482 19.1412 34.2917 19.1524C34.3352 19.1636 34.3753 19.1852 34.4085 19.2154C34.5418 19.3535 34.4776 19.6454 34.4376 19.7823C34.4967 19.7752 34.5566 19.7808 34.6133 19.7985C34.6701 19.8162 34.7225 19.8458 34.7671 19.8852C34.9475 20.05 34.9669 20.3698 34.9645 20.5163C35.0024 20.4985 35.0437 20.4893 35.0856 20.4893C35.1275 20.4893 35.1688 20.4985 35.2067 20.5163C35.4357 20.6169 35.5944 20.9742 35.6174 21.2637C35.6179 21.2695 35.6172 21.2754 35.6154 21.2809C35.6135 21.2865 35.6106 21.2916 35.6068 21.296C35.6029 21.3004 35.5983 21.304 35.593 21.3066C35.5877 21.3091 35.582 21.3106 35.5762 21.3109L35.5725 21.3218Z" fill="#FAFAFA"/>
<path d="M38.1816 15.8104C38.1758 15.7461 38.153 15.6845 38.1156 15.6319C38.0781 15.5793 38.0273 15.5377 37.9684 15.5112L30.748 11.342C30.5875 11.2608 30.4101 11.2185 30.2302 11.2185C30.0503 11.2185 29.8729 11.2608 29.7124 11.342L18.6075 17.7545C18.5486 17.7809 18.4978 17.8226 18.4603 17.8752C18.4228 17.9277 18.4 17.9894 18.3943 18.0537V18.6145C18.4 18.6788 18.4228 18.7404 18.4603 18.793C18.4978 18.8456 18.5486 18.8872 18.6075 18.9137L25.8278 23.0817C25.9882 23.1634 26.1657 23.2061 26.3457 23.2061C26.5257 23.2061 26.7031 23.1634 26.8635 23.0817L37.9684 16.6704C38.0273 16.644 38.0781 16.6023 38.1156 16.5497C38.153 16.4972 38.1758 16.4355 38.1816 16.3712V15.8104Z" fill="#37474F"/>
<path d="M25.828 22.5208L18.6076 18.3529C18.3217 18.1869 18.3217 17.9192 18.6076 17.7545L29.7125 11.342C29.873 11.2608 30.0504 11.2185 30.2303 11.2185C30.4102 11.2185 30.5876 11.2608 30.7481 11.342L37.9685 15.5112C38.2556 15.6772 38.2556 15.9436 37.9685 16.1096L26.8636 22.5208C26.7032 22.6026 26.5258 22.6452 26.3458 22.6452C26.1658 22.6452 25.9883 22.6026 25.828 22.5208Z" fill="#455A64"/>
<path opacity="0.1" d="M36.544 17.4917L33.1452 21.6984L27.3177 25.0633L27.3165 22.8201L36.544 17.4917Z" fill="black"/>
<path opacity="0.1" d="M36.0583 23.9407L33.1452 27.8664L27.3177 31.2325V28.988L36.0583 23.9407Z" fill="black"/>
<path opacity="0.1" d="M36.0583 30.1094L33.1452 34.0351L27.3177 37.4012V35.1567L36.0583 30.1094Z" fill="black"/>
<path d="M22.6907 42.3614L13.7564 47.5202L3.69556 41.6976L12.6299 36.54L22.6907 42.3614Z" fill="#BA68C8"/>
<path opacity="0.5" d="M22.6907 42.3614L13.7564 47.5202L3.69556 41.6976L12.6299 36.54L22.6907 42.3614Z" fill="black"/>
<path d="M12.6299 29.5474V36.54L3.69556 41.6976V34.7062L12.6299 29.5474Z" fill="#BA68C8"/>
<path opacity="0.23" d="M12.6299 29.5474V36.54L3.69556 41.6976V34.7062L12.6299 29.5474Z" fill="black"/>
<path d="M13.7564 40.5274V47.5201L3.69556 41.6975V34.7061L13.7564 40.5274Z" fill="#BA68C8"/>
<path opacity="0.38" d="M13.7564 40.5274V47.5201L3.69556 41.6975V34.7061L13.7564 40.5274Z" fill="black"/>
<path d="M22.6907 35.3687V42.3614L12.6299 36.54V29.5474L22.6907 35.3687Z" fill="#BA68C8"/>
<path opacity="0.4" d="M22.6907 35.3687V42.3614L12.6299 36.54V29.5474L22.6907 35.3687Z" fill="black"/>
<path d="M22.6908 42.3613V35.3687L13.7565 40.5274V47.5201L22.6908 42.3613Z" fill="#BA68C8"/>
<path opacity="0.23" d="M22.6908 42.3613V35.3687L13.7565 40.5274V47.5201L22.6908 42.3613Z" fill="black"/>
<path d="M12.6299 29.5472L12.642 25.676L22.6786 31.5047L22.6907 35.3686L12.6299 29.5472Z" fill="#BA68C8"/>
<path opacity="0.2" d="M12.6299 29.5472L12.642 25.676L22.6786 31.5047L22.6907 35.3686L12.6299 29.5472Z" fill="black"/>
<path d="M13.7565 40.5276L14.5947 37.1408L23.4478 32.0293L22.6908 35.3688L13.7565 40.5276Z" fill="#BA68C8"/>
<path opacity="0.3" d="M13.7565 40.5276L14.5947 37.1408L23.4478 32.0293L22.6908 35.3688L13.7565 40.5276Z" fill="black"/>
<path d="M3.69556 34.7061L2.62964 31.1935L11.564 26.0359L12.6299 29.5474L3.69556 34.7061Z" fill="#BA68C8"/>
<path opacity="0.1" d="M3.69556 34.7061L2.62964 31.1935L11.564 26.0359L12.6299 29.5474L3.69556 34.7061Z" fill="black"/>
<path d="M3.69566 34.7064L1.5929 31.803L11.6549 37.6243L13.7565 40.5277L3.69566 34.7064Z" fill="#BA68C8"/>
<path opacity="0.45" d="M3.69566 34.7064L1.5929 31.803L11.6549 37.6243L13.7565 40.5277L3.69566 34.7064Z" fill="black"/>
<g opacity="0.7">
<path d="M16.3871 45.4405C16.3726 45.4405 16.3586 45.4348 16.3482 45.4246C16.3377 45.4144 16.3317 45.4005 16.3314 45.386V44.1553C16.3317 44.1406 16.3377 44.1267 16.3481 44.1163C16.3585 44.1059 16.3725 44.0999 16.3871 44.0996C16.4017 44.0999 16.4156 44.1059 16.4258 44.1164C16.4359 44.1268 16.4417 44.1408 16.4416 44.1553V45.386C16.4416 45.4004 16.4359 45.4143 16.4257 45.4245C16.4155 45.4347 16.4016 45.4405 16.3871 45.4405Z" fill="white"/>
<path d="M16.2261 44.5819C16.2189 44.583 16.2116 44.583 16.2043 44.5819C16.1911 44.5758 16.1807 44.5648 16.1753 44.5513C16.1699 44.5378 16.1699 44.5227 16.1753 44.5092L16.3715 44.0574L16.5895 44.3093C16.5973 44.3206 16.6007 44.3344 16.599 44.348C16.5973 44.3616 16.5906 44.3741 16.5803 44.3831C16.5699 44.3921 16.5566 44.3969 16.5429 44.3967C16.5292 44.3965 16.516 44.3913 16.5059 44.382L16.403 44.2609L16.2819 44.5516C16.2766 44.5616 16.2685 44.5698 16.2586 44.5752C16.2487 44.5806 16.2374 44.5829 16.2261 44.5819Z" fill="white"/>
<path d="M16.8946 45.1509C16.88 45.1506 16.8662 45.1446 16.856 45.1342C16.8458 45.1238 16.8401 45.1098 16.8401 45.0952V43.8658C16.8401 43.8513 16.8458 43.8375 16.8561 43.8272C16.8663 43.817 16.8801 43.8113 16.8946 43.8113C16.9091 43.8113 16.9229 43.817 16.9331 43.8272C16.9434 43.8375 16.9491 43.8513 16.9491 43.8658V45.094C16.9493 45.1013 16.948 45.1086 16.9453 45.1154C16.9427 45.1223 16.9387 45.1285 16.9336 45.1338C16.9286 45.1391 16.9225 45.1433 16.9158 45.1462C16.9091 45.1492 16.9019 45.1508 16.8946 45.1509Z" fill="white"/>
<path d="M16.7337 44.2923C16.7265 44.2934 16.7191 44.2934 16.7119 44.2923C16.7052 44.2894 16.6992 44.2852 16.6942 44.2799C16.6892 44.2747 16.6853 44.2685 16.6827 44.2618C16.6801 44.255 16.6789 44.2478 16.6791 44.2405C16.6793 44.2333 16.681 44.2262 16.684 44.2196L16.879 43.7617L17.0971 44.0125C17.1071 44.0228 17.1128 44.0367 17.1128 44.0512C17.1128 44.0657 17.1071 44.0796 17.0971 44.09C17.092 44.0951 17.086 44.0992 17.0793 44.1019C17.0726 44.1047 17.0655 44.1062 17.0583 44.1062C17.0511 44.1062 17.044 44.1047 17.0373 44.1019C17.0306 44.0992 17.0246 44.0951 17.0195 44.09L16.9166 43.9688L16.7955 44.2595C16.7904 44.2712 16.7816 44.2808 16.7703 44.2868C16.7591 44.2927 16.7462 44.2947 16.7337 44.2923Z" fill="white"/>
</g>
<g opacity="0.7">
<path d="M14.9228 46.275C14.9021 46.2753 14.8817 46.2703 14.8634 46.2605C14.8415 46.2464 14.8238 46.2268 14.8121 46.2036C14.8004 46.1803 14.7951 46.1544 14.7968 46.1284V45.977C14.7971 45.9625 14.8032 45.9486 14.8136 45.9384C14.824 45.9282 14.838 45.9225 14.8525 45.9225C14.867 45.9225 14.8809 45.9283 14.8911 45.9385C14.9013 45.9487 14.9071 45.9626 14.9071 45.977V46.1284C14.9071 46.1502 14.9071 46.1624 14.918 46.1648C14.9289 46.1672 14.9349 46.1648 14.9531 46.1551C14.9872 46.1236 15.014 46.0851 15.0318 46.0422C15.0496 45.9994 15.0578 45.9531 15.056 45.9068V45.2769C15.056 45.2625 15.0618 45.2486 15.072 45.2384C15.0822 45.2282 15.0961 45.2224 15.1105 45.2224C15.125 45.2224 15.1389 45.2282 15.1491 45.2384C15.1593 45.2486 15.1651 45.2625 15.1651 45.2769V45.9068C15.1678 45.9722 15.155 46.0373 15.1279 46.0968C15.1007 46.1564 15.0599 46.2087 15.0088 46.2496C14.9829 46.2656 14.9532 46.2743 14.9228 46.275Z" fill="white"/>
<path d="M14.3451 45.7677V45.6732C14.3595 45.4306 14.4304 45.1947 14.5522 44.9844C14.6739 44.7741 14.8432 44.5952 15.0464 44.4619C15.2451 44.3481 15.434 44.3311 15.5794 44.4159C15.6569 44.4691 15.7187 44.5421 15.7583 44.6273C15.798 44.7125 15.814 44.8069 15.8047 44.9004V44.9319L14.3451 45.7677ZM15.3759 44.4668C15.2789 44.4712 15.1847 44.5004 15.1021 44.5516C14.928 44.6661 14.7805 44.8169 14.6698 44.9935C14.559 45.1701 14.4875 45.3684 14.4602 45.5751L15.692 44.8629C15.6973 44.7927 15.6843 44.7224 15.6544 44.6587C15.6245 44.595 15.5786 44.5402 15.5212 44.4995C15.4765 44.476 15.4264 44.4647 15.3759 44.4668Z" fill="white"/>
</g>
<path opacity="0.7" d="M1.5929 31.803L11.6549 37.6243L13.7565 40.5277L11.5435 37.7273L1.5929 31.803Z" fill="white"/>
<path opacity="0.7" d="M22.6908 35.3687L13.7565 40.5274V47.5201L13.9236 40.668L22.6908 35.3687Z" fill="white"/>
<path d="M9.57993 32.572C10.5017 32.4388 11.3435 31.8453 11.8813 31.0991C12.1321 30.7505 12.3169 30.3589 12.4264 29.9436C12.5427 29.5553 12.5619 29.1443 12.4821 28.7469C12.3162 28.0819 11.7009 27.6882 11.0504 27.6058C10.7204 27.5624 10.3847 27.5952 10.0693 27.7015C9.7422 27.8138 9.45843 28.0256 9.25773 28.3072C9.1319 28.4572 9.05274 28.6408 9.03001 28.8353C9.02808 28.9115 9.05494 28.9856 9.10523 29.0428C9.15552 29.1001 9.22555 29.1363 9.30134 29.1442C9.49638 29.1606 9.69129 29.1111 9.85489 29.0037C10.0544 28.8918 10.2301 28.742 10.3721 28.5627C10.6768 28.1867 10.9048 27.7546 11.0431 27.2909C11.1402 26.893 11.1402 26.4776 11.0431 26.0796C10.9694 25.6634 10.7791 25.2766 10.4944 24.9641C10.1681 24.6673 9.75393 24.4849 9.31466 24.4444C8.87748 24.3844 8.43234 24.4258 8.01376 24.5656C7.8299 24.6213 7.65957 24.7145 7.51351 24.8393C7.40934 24.9362 7.29063 25.0961 7.33303 25.2536C7.37542 25.411 7.60556 25.4813 7.76182 25.4607C7.99307 25.4174 8.2049 25.3025 8.36745 25.1324C8.54861 24.9541 8.70248 24.75 8.8241 24.5268C8.91446 24.3664 8.96162 24.1852 8.96097 24.0011C8.94523 23.2332 8.09613 22.7365 7.43114 22.596C7.25163 22.5585 7.06775 22.5463 6.88486 22.5597C6.82308 22.5597 6.86063 22.6614 6.91029 22.6578C7.26814 22.6416 7.62376 22.7219 7.93987 22.8904C8.25174 23.0337 8.51368 23.267 8.69207 23.5602C8.77157 23.7048 8.81081 23.868 8.8057 24.0329C8.80058 24.1979 8.7513 24.3584 8.663 24.4977C8.5444 24.7043 8.39673 24.8928 8.22452 25.0573C8.08038 25.1882 7.86114 25.3396 7.65886 25.325C7.62546 25.3249 7.59276 25.3155 7.56449 25.2977C7.53621 25.2799 7.51351 25.2546 7.49897 25.2245C7.49287 25.1847 7.49615 25.1441 7.50856 25.1058C7.52097 25.0675 7.54216 25.0327 7.57043 25.004C7.6774 24.8889 7.80968 24.8001 7.95683 24.7448C8.32022 24.5938 8.7137 24.5291 9.10632 24.5559C9.51095 24.5632 9.90444 24.6896 10.2376 24.9193C10.5279 25.1603 10.7341 25.4873 10.8263 25.8531C10.9432 26.2248 10.9795 26.6171 10.9329 27.0038C10.861 27.393 10.7115 27.7638 10.4932 28.094C10.2691 28.4646 9.98813 28.8208 9.56661 28.9661C9.46244 29.0037 9.24441 29.0582 9.20323 28.9067C9.16204 28.7553 9.28075 28.5688 9.35706 28.4513C9.5258 28.1857 9.77181 27.9782 10.062 27.8566C10.3421 27.7443 10.6443 27.6987 10.945 27.7233C11.5155 27.7657 12.0945 28.0637 12.2932 28.6306C12.3928 28.9694 12.4037 29.3281 12.3247 29.6723C12.2534 30.0495 12.1178 30.4117 11.9237 30.743C11.5063 31.4469 10.8742 31.9984 10.1202 32.3165C9.94089 32.394 9.75677 32.4594 9.56903 32.52C9.54965 32.5272 9.55813 32.5757 9.57993 32.572Z" fill="#E0E0E0"/>
<path d="M5.72941 22.0557C5.2449 22.0206 4.57749 22.4021 4.8149 22.6807C5.05231 22.9593 5.68217 22.5087 5.68217 22.5087C5.68217 22.5087 5.62282 23.072 5.82873 23.1362C6.03465 23.2004 6.31324 22.6626 6.10733 22.3186C6.20663 22.3577 6.31422 22.3711 6.4201 22.3576C6.52598 22.344 6.62672 22.3039 6.71296 22.241C7.00609 22.0254 6.696 21.8219 6.28296 21.8583C6.28296 21.8583 6.57851 20.8893 5.98135 21.0746C5.68217 21.1654 5.57679 21.5155 5.72941 22.0557Z" fill="#BA68C8"/>
<path opacity="0.65" d="M5.72941 22.0557C5.2449 22.0206 4.57749 22.4021 4.8149 22.6807C5.05231 22.9593 5.68217 22.5087 5.68217 22.5087C5.68217 22.5087 5.62282 23.072 5.82873 23.1362C6.03465 23.2004 6.31324 22.6626 6.10733 22.3186C6.20663 22.3577 6.31422 22.3711 6.4201 22.3576C6.52598 22.344 6.62672 22.3039 6.71296 22.241C7.00609 22.0254 6.696 21.8219 6.28296 21.8583C6.28296 21.8583 6.57851 20.8893 5.98135 21.0746C5.68217 21.1654 5.57679 21.5155 5.72941 22.0557Z" fill="white"/>
<path d="M6.17998 22.2617C6.15317 22.2354 6.12486 22.2108 6.09519 22.1878C6.05279 22.1551 6.00797 22.1236 5.96558 22.0921C5.9243 22.0621 5.881 22.035 5.83597 22.011C5.81006 21.9966 5.78337 21.9836 5.75603 21.9722C5.71828 21.9545 5.6763 21.9477 5.6349 21.9528C5.62406 21.9531 5.61349 21.9563 5.60431 21.9621C5.59513 21.9679 5.58767 21.9761 5.58272 21.9857C5.57777 21.9954 5.5755 22.0062 5.57616 22.017C5.57682 22.0278 5.58037 22.0383 5.58645 22.0473C5.61975 22.0834 5.66132 22.1108 5.70758 22.1272L5.77299 22.1624C5.81781 22.189 5.85778 22.2193 5.89412 22.2496C5.93045 22.2799 5.9789 22.3089 6.01524 22.3392C6.07772 22.3899 6.14757 22.4307 6.22237 22.4603C6.22572 22.4621 6.22947 22.4631 6.23327 22.4631C6.23708 22.4631 6.24082 22.4621 6.24417 22.4603C6.30595 22.4119 6.2151 22.2968 6.17998 22.2617Z" fill="#455A64"/>
<path d="M44.7963 8.73048C44.267 9.4427 43.5584 13.3587 43.2907 14.6148C42.0031 14.5773 40.2807 14.5167 39.629 14.4489C38.9023 14.3726 37.3506 14.2236 36.5887 14.3277C34.698 14.57 34.7718 15.8128 34.8179 16.1374C34.8675 16.508 35.1328 16.6776 36.1503 16.4463C36.3779 16.3962 36.61 16.369 36.8431 16.3651C36.9412 16.3651 37.1484 16.3154 37.2259 16.399C37.347 16.5201 36.9969 16.7236 36.9097 16.7794C36.7753 16.8666 36.6348 16.9768 36.6069 17.1343C36.5989 17.1631 36.5994 17.1935 36.6082 17.2221C36.617 17.2506 36.6338 17.2761 36.6566 17.2954C36.7059 17.3155 36.7611 17.3155 36.8104 17.2954C37.2748 17.1851 37.7228 17.0145 38.1428 16.7878C38.3012 16.6924 38.4678 16.6113 38.6406 16.5456C38.9035 16.4608 39.1748 16.5105 39.4389 16.5105C40.0069 16.5105 43.0097 16.8084 44.3445 16.9441C45.2687 17.0374 45.3668 16.1253 45.6854 15.2011C46.0766 14.0552 47.0032 8.02915 47.0032 8.02915C46.0681 7.89349 45.4262 7.88501 44.7963 8.73048Z" fill="#FFA8A7"/>
<path d="M47.0178 7.93453C46.5709 7.85216 45.5643 7.7274 45.0168 8.33909C44.4693 8.95078 44.3397 9.59276 44.0987 10.5194C43.8576 11.446 43.4301 13.1054 43.4301 13.1054C43.4301 13.1054 44.1362 14.1193 46.3468 13.8322L47.0178 7.93453Z" fill="#37474F"/>
<path d="M52.5691 39.9631L51.0151 39.9643L50.5681 36.5909L52.5292 36.5134L52.5691 39.9631Z" fill="#FFA8A7"/>
<path d="M47.4092 38.2783C47.1451 38.7374 46.296 38.6998 45.5923 38.5375L45.5111 35.221L47.5884 35.1387L47.4092 38.2783Z" fill="#FFA8A7"/>
<path d="M52.4636 18.647C52.5193 20.0824 52.3292 28.5698 52.3292 28.5698C52.3813 28.9816 52.8076 29.6999 52.8961 31.1861C53.0257 33.3446 52.586 37.9474 52.586 37.9474C52.586 37.9474 51.6957 38.4125 50.7364 38.0564C50.7364 38.0564 49.7601 31.3944 49.404 29.265C49.0963 27.4118 48.7014 22.4407 48.7014 22.4407L47.9347 28.812C48.0753 29.5662 48.1333 30.3334 48.1079 31.1001C48.0764 32.0909 47.512 36.9021 47.512 36.9021C46.868 37.1127 46.1763 37.1292 45.5231 36.9493C45.5231 36.9493 45.0604 29.4831 45.0071 28.5782C44.9465 27.5462 44.9877 18.4363 44.9877 18.4363L52.4636 18.647Z" fill="#BA68C8"/>
<path opacity="0.2" d="M48.7039 22.4432C48.7039 22.4432 47.3461 22.058 46.4207 21.2319C46.4207 21.2319 46.8543 21.972 48.0825 22.6285L48.0123 28.1895L48.7039 22.4432Z" fill="black"/>
<path d="M49.2441 42.777C49.1944 42.8279 49.2235 43.1634 49.2841 43.2506C49.3446 43.3378 49.7153 43.6334 50.3585 43.6552C50.9726 43.6745 51.5152 43.5704 51.8653 43.3281C52.2154 43.0859 52.3801 42.8279 52.4007 42.4802C52.4213 42.1326 52.3692 41.7947 52.5218 41.5197C52.6659 41.2665 52.8997 40.977 52.947 40.8402C53.0523 40.5434 52.9239 40.1304 52.9239 40.1304L49.2441 42.777Z" fill="#263238"/>
<path d="M50.7946 39.6677C50.7953 39.8001 50.7766 39.932 50.7388 40.0589C50.6074 40.472 50.4098 40.861 50.1538 41.2109C49.9769 41.4374 49.7541 41.6275 49.5663 41.8468C49.3654 42.0547 49.2422 42.3254 49.2175 42.6135C49.2102 43.098 49.7383 43.2373 50.1417 43.293C50.5789 43.3507 51.0235 43.3093 51.4426 43.1719C51.6633 43.1054 51.8601 42.9765 52.0093 42.8007C52.1584 42.6249 52.2535 42.4097 52.2832 42.1811C52.3002 42.0466 52.2832 41.911 52.2977 41.7765C52.3388 41.4677 52.4557 41.1739 52.6381 40.9214C52.7436 40.7752 52.8338 40.6185 52.907 40.4538C53.0197 40.151 52.907 39.8203 52.815 39.5284C52.7362 39.2752 52.6466 38.9882 52.5582 39.016C52.5582 39.1505 52.5582 39.1626 52.4722 39.2583C52.351 39.3794 52.3571 39.5478 52.2299 39.6532C52.2667 39.5414 52.2918 39.4261 52.305 39.3092C52.311 39.2615 52.2994 39.2132 52.2723 39.1735C52.2286 39.1379 52.1771 39.1131 52.1221 39.1008C51.9305 39.0442 51.7337 39.0073 51.5346 38.9906C51.3451 38.9657 51.1529 38.9718 50.9653 39.0088C50.9099 39.0216 50.8604 39.0528 50.8248 39.0972C50.7936 39.1468 50.778 39.2046 50.78 39.2631C50.78 39.3419 50.7933 39.5393 50.7946 39.6677Z" fill="#455A64"/>
<path d="M50.3344 40.9431C50.5088 40.8026 50.9085 40.7844 51.1289 40.8002C51.3523 40.8103 51.5695 40.877 51.76 40.994C51.7881 41.0127 51.822 41.0209 51.8555 41.0169C51.889 41.0129 51.92 40.997 51.9429 40.9722C51.9563 40.9581 51.9665 40.9412 51.9727 40.9228C51.9789 40.9043 51.9811 40.8848 51.979 40.8654C51.9769 40.8461 51.9707 40.8274 51.9607 40.8107C51.9507 40.794 51.9372 40.7797 51.9211 40.7687C51.7106 40.626 51.4642 40.5454 51.2101 40.5361C50.6699 40.5204 50.516 40.6185 50.516 40.6185C50.516 40.6185 50.275 40.7857 50.3344 40.9431Z" fill="#F5F5F5"/>
<path d="M49.9418 41.4518C50.161 41.3101 50.6031 41.3113 50.8224 41.3307C51.0421 41.3446 51.2543 41.416 51.4377 41.5378C51.4656 41.5565 51.4992 41.5645 51.5326 41.5605C51.5659 41.5565 51.5967 41.5407 51.6194 41.516C51.633 41.502 51.6434 41.4853 51.6499 41.4668C51.6563 41.4484 51.6586 41.4288 51.6567 41.4094C51.6547 41.39 51.6485 41.3713 51.6385 41.3545C51.6285 41.3378 51.6149 41.3234 51.5988 41.3125C51.3848 41.1624 51.133 41.0751 50.872 41.0605C50.3306 41.0436 50.1949 41.1587 50.1949 41.1587C50.1334 41.1853 50.0787 41.2255 50.0348 41.2763C49.991 41.327 49.9592 41.387 49.9418 41.4518Z" fill="#F5F5F5"/>
<path d="M51.4038 40.0128C51.1752 39.9816 50.9424 40.01 50.7279 40.0952C50.6359 40.1521 50.5789 40.3047 50.6407 40.3374C50.8283 40.2532 51.0339 40.2165 51.2391 40.2308C51.4418 40.2427 51.6409 40.2894 51.8277 40.3689C51.875 40.3871 51.9307 40.4137 51.9792 40.438C51.9947 40.4459 52.0116 40.4506 52.029 40.4518C52.0464 40.4529 52.0638 40.4506 52.0802 40.4448C52.0967 40.439 52.1117 40.4299 52.1246 40.4181C52.1374 40.4064 52.1477 40.3921 52.1548 40.3762C52.1663 40.3486 52.1672 40.3178 52.1573 40.2897C52.1475 40.2615 52.1276 40.238 52.1015 40.2236C51.8868 40.104 51.6488 40.0321 51.4038 40.0128Z" fill="#F5F5F5"/>
<path d="M42.0408 40.3472C41.9858 40.4856 41.9858 40.6399 42.0408 40.7784C42.0941 40.908 42.7361 41.3101 43.6275 41.2932C44.2905 41.2771 44.9371 41.0839 45.5002 40.7336C45.8502 40.5252 46.2051 40.4998 46.646 40.4913C47.0869 40.4828 47.6756 40.2951 47.7822 40.094C47.8888 39.893 47.7943 39.5332 47.7943 39.5332L42.0408 40.3472Z" fill="#263238"/>
<path d="M45.7594 37.7427L45.6903 37.7245C45.6511 37.7127 45.6099 37.7089 45.5692 37.7136C45.5256 37.7241 45.4862 37.7478 45.4566 37.7815C45.3649 37.8889 45.2838 38.0049 45.2143 38.1279C45.0144 38.4222 44.6087 38.656 44.1726 38.8656C43.8746 39.0073 43.5851 39.1151 43.2787 39.235C42.9722 39.3549 42.5519 39.4227 42.3097 39.5729C41.9463 39.7922 41.8773 40.3796 42.2624 40.6316C42.5967 40.8496 43.4882 41.11 44.4427 40.8872C44.9648 40.766 45.5631 40.2428 46.2415 40.2222C46.6739 40.2089 47.4927 40.1265 47.7846 39.8128C47.8948 39.6735 47.7846 39.2071 47.6865 38.805C47.5848 38.3665 47.6308 37.7149 47.4346 37.7149L47.4224 37.9341C47.4043 37.9995 47.2504 38.0637 47.202 38.1146L47.0276 38.2987C46.9561 38.3839 46.8689 38.4547 46.7708 38.507C46.5976 38.5845 46.3953 38.5385 46.21 38.4901C46.2027 38.4901 46.3032 38.1533 46.3141 38.1206C46.3251 38.0951 46.3284 38.0669 46.3238 38.0395C46.3145 38.0126 46.2961 37.9899 46.2717 37.9753C46.1188 37.8632 45.9444 37.784 45.7594 37.7427Z" fill="#455A64"/>
<path d="M44.5868 38.6501C44.6207 38.5924 44.6685 38.5441 44.7258 38.5096C44.7832 38.4751 44.8482 38.4555 44.915 38.4526C45.1125 38.426 45.4504 38.5859 45.6576 38.7736C45.6771 38.7912 45.692 38.8133 45.701 38.838C45.7101 38.8627 45.7129 38.8892 45.7093 38.9153C45.7057 38.9413 45.6958 38.9661 45.6805 38.9874C45.6651 39.0087 45.6448 39.026 45.6212 39.0377C45.5917 39.0523 45.5583 39.0574 45.5257 39.0522C45.4932 39.0469 45.463 39.0317 45.4395 39.0086C45.2127 38.7827 44.9068 38.6541 44.5868 38.6501Z" fill="#F5F5F5"/>
<path d="M43.9642 38.9614C44.0096 38.9034 44.0683 38.8571 44.1354 38.8265C44.2024 38.796 44.2758 38.782 44.3494 38.7858C44.3494 38.7858 44.8606 38.8245 45.1622 39.1346C45.1808 39.1516 45.195 39.1729 45.2037 39.1965C45.2123 39.2202 45.215 39.2457 45.2117 39.2707C45.2084 39.2956 45.199 39.3195 45.1845 39.3401C45.17 39.3607 45.1507 39.3774 45.1283 39.389C45.0997 39.4029 45.0675 39.4077 45.0361 39.4027C45.0046 39.3977 44.9755 39.3832 44.9526 39.3611C44.8285 39.2245 44.6752 39.1176 44.5041 39.0484C44.3329 38.9792 44.1484 38.9495 43.9642 38.9614Z" fill="#F5F5F5"/>
<path d="M43.2799 39.2352C43.3314 39.182 43.3937 39.1404 43.4627 39.1135C43.5317 39.0865 43.6057 39.0747 43.6796 39.079C43.9692 39.1109 44.2413 39.2334 44.4573 39.429C44.4759 39.4462 44.4901 39.4675 44.4987 39.4913C44.5073 39.5151 44.5101 39.5406 44.5068 39.5656C44.5034 39.5907 44.4941 39.6146 44.4796 39.6353C44.4651 39.656 44.4458 39.6729 44.4233 39.6846C44.3947 39.6987 44.3624 39.7035 44.3308 39.6983C44.2993 39.6931 44.2703 39.6781 44.2477 39.6555C44.1301 39.5151 43.9815 39.404 43.8135 39.331C43.6455 39.2581 43.4628 39.2253 43.2799 39.2352Z" fill="#F5F5F5"/>
<path d="M49.6076 7.96137C50.1793 8.02677 50.8552 8.0619 51.4015 8.13337C52.1052 8.22542 52.6539 8.9534 52.8259 10.0799C53.0149 11.3202 52.2203 14.8765 52.2203 14.8765L52.4735 19.0699C51.4427 19.8294 47.053 20.2279 44.8655 18.6484C44.8655 18.6484 44.9164 11.5116 45.0871 10.4118C45.3221 8.90373 45.6928 7.96742 47.3886 7.85962L49.6076 7.96137Z" fill="#455A64"/>
<path d="M53.5163 17.0461C53.3309 17.3562 53.1444 17.6663 52.953 17.9727C52.8828 18.0866 52.8113 18.1992 52.7374 18.3107C52.6974 18.3652 52.6506 18.4144 52.5981 18.4572C52.5061 18.5202 52.3147 18.4802 52.2032 18.4839C51.6557 18.5024 51.1099 18.5428 50.5656 18.605C50.5201 18.6036 50.4748 18.6122 50.4329 18.6302C50.391 18.6482 50.3536 18.6751 50.3234 18.7092C50.301 18.7561 50.2965 18.8095 50.3108 18.8595C50.3251 18.9094 50.3571 18.9525 50.4009 18.9805C50.49 19.034 50.5913 19.064 50.6952 19.0677L51.1676 19.1234C51.235 19.1257 51.3004 19.1467 51.3566 19.184C51.5286 19.3233 51.2003 19.4904 51.1022 19.5583C50.9049 19.6953 50.6943 19.8122 50.4735 19.9071C49.4888 20.3214 49.3689 20.6218 49.5506 20.9633C49.708 21.2601 50.3888 22.3393 52.1185 21.4103C52.8149 21.036 53.8748 19.8538 54.3581 19.2821C55.0534 18.4572 56.2295 16.6173 56.2295 16.6173C56.8981 15.6992 56.9841 15.3225 56.9999 14.9409C57.0156 14.5594 54.9407 11.6244 54.2357 10.5937C53.5308 9.56287 53.1953 8.30921 51.4014 8.13721C51.4014 8.13721 50.7182 10.303 51.8496 11.7044L54.4623 15.3491C54.4623 15.3491 53.7706 16.6209 53.5163 17.0461Z" fill="#FFA8A7"/>
<path d="M55.4119 11.9913C55.0764 11.5068 54.7263 11.0078 54.3884 10.5136C52.9651 8.43626 53.085 8.05593 51.0332 8.02686C50.8515 8.30545 50.7437 9.5046 51.0174 10.7086C51.2463 11.72 52.1076 12.4335 52.1076 12.4335L53.1347 13.8252C53.1347 13.8252 53.7634 13.8058 54.5168 13.2535C54.9519 12.9487 55.2681 12.5028 55.4119 11.9913Z" fill="#37474F"/>
<path d="M50.9606 2.50223C50.8575 2.34853 50.7146 2.22568 50.5471 2.14676C50.3797 2.06784 50.194 2.0358 50.0098 2.05407L49.9032 4.65466L49.7288 5.6152L49.759 6.68475C49.8603 6.67043 49.9563 6.63071 50.038 6.56928C50.1198 6.50786 50.1846 6.42674 50.2266 6.33348C50.3865 6.02582 50.8322 4.53838 50.8322 4.53838C51.2319 3.31621 51.1472 2.76387 50.9606 2.50223Z" fill="#263238"/>
<path d="M49.7819 4.66678C49.8268 4.50872 49.9134 4.36565 50.0326 4.25253C50.1816 4.09264 50.7751 3.91943 51.0452 4.42332C51.3153 4.9272 50.8599 5.59219 50.5086 5.79568C50.0592 6.05732 49.7952 5.7012 49.7952 5.7012L49.8061 8.09588C49.5965 8.58039 48.6505 9.0116 48.0873 8.94377C47.6391 8.88684 47.2261 8.53436 47.627 8.02078L47.5943 7.33763C47.5943 7.33763 46.9947 7.45875 46.698 7.42847C46.205 7.3776 45.8767 7.00574 45.7023 6.48247C45.4213 5.64185 45.2965 4.9587 45.4152 3.27261C45.5461 1.42542 47.6815 1.30066 48.8722 1.96928C50.0629 2.6379 49.7819 4.66678 49.7819 4.66678Z" fill="#FFA8A7"/>
<path d="M44.7359 1.35391C44.6814 0.950559 44.8207 0.518136 45.2434 0.375206C45.3985 0.310311 45.5688 0.290547 45.7347 0.318191C45.9005 0.345835 46.0552 0.419762 46.1809 0.531459C46.2339 0.38916 46.3256 0.264462 46.4455 0.171378C46.5655 0.0782948 46.7091 0.0205158 46.8601 0.00453447C47.0111 -0.0114469 47.1635 0.015003 47.3003 0.0809115C47.4371 0.14682 47.5528 0.249575 47.6344 0.377629C47.7467 0.207079 47.9201 0.0861144 48.1189 0.0396845C48.2415 0.0123108 48.3684 0.0097835 48.4919 0.0322522C48.6155 0.0547209 48.7333 0.10173 48.8384 0.170501C49.0104 0.297685 49.2127 0.533882 49.1619 0.840333C49.5022 0.70346 49.8571 0.817319 50.1103 1.11771C50.2609 1.30166 50.3462 1.53048 50.3525 1.76817C50.3613 1.89162 50.3435 2.01552 50.3004 2.13155C50.252 2.24177 50.1527 2.31445 50.1236 2.43921C50.0813 2.54898 50.0596 2.66558 50.0594 2.78321C50.0873 2.9867 50.1321 3.19019 50.1587 3.38884C50.1874 3.5867 50.204 3.78612 50.2084 3.986C50.2021 4.03301 50.1857 4.0781 50.1604 4.11823C50.1351 4.15836 50.1015 4.19258 50.0618 4.21856C49.9488 4.31746 49.8611 4.44209 49.8063 4.58194C49.7639 4.66915 49.7227 4.88476 49.6391 4.94532C49.3811 5.1258 49.352 4.54197 49.3399 4.42932C49.3233 4.17078 49.3233 3.91144 49.3399 3.6529C49.2098 3.65122 49.0815 3.62233 48.9632 3.56809C48.8449 3.51386 48.7393 3.43547 48.6531 3.33797C48.5637 3.22841 48.5048 3.09722 48.4823 2.95763C48.4684 2.87766 48.4619 2.79656 48.4629 2.71538C48.2946 2.99397 47.9033 3.10783 47.6248 3.07876C47.1572 3.03636 46.9961 2.8365 46.921 2.68994C46.8914 2.83441 46.8279 2.96976 46.7357 3.08481C46.6162 3.19705 46.4724 3.27998 46.3154 3.32707C46.18 3.3632 46.0373 3.36177 45.9026 3.32293C45.768 3.28409 45.6464 3.20931 45.5511 3.10662C45.3609 3.37915 44.8788 3.25803 44.7722 3.18172C44.53 3.00608 44.4512 2.79653 44.4246 2.49735C44.3979 2.19817 44.5191 1.85659 44.8509 1.73909C44.7911 1.61812 44.7522 1.48788 44.7359 1.35391Z" fill="#263238"/>
<path d="M47.5945 7.33413C47.5945 7.33413 48.6774 7.06039 49.048 6.83751C49.2672 6.70914 49.4425 6.51744 49.5507 6.2876C49.5039 6.51432 49.412 6.72933 49.2806 6.91988C49.0189 7.29174 47.6066 7.62605 47.6066 7.62605L47.5945 7.33413Z" fill="#F28F8F"/>
<path d="M47.655 4.5869C47.659 4.63278 47.6765 4.67645 47.7052 4.71247C47.7339 4.7485 47.7726 4.77529 47.8164 4.78953C47.8602 4.80376 47.9072 4.8048 47.9516 4.79253C47.996 4.78025 48.0358 4.7552 48.0661 4.72048C48.0964 4.68577 48.1158 4.64292 48.1219 4.59726C48.128 4.55161 48.1206 4.50516 48.1005 4.4637C48.0805 4.42223 48.0487 4.38758 48.0091 4.36404C47.9695 4.34051 47.9238 4.32913 47.8778 4.33132C47.8146 4.33629 47.7559 4.36583 47.7142 4.41361C47.6725 4.46139 47.6513 4.52361 47.655 4.5869Z" fill="#263238"/>
<path d="M47.2928 6.33938C47.2983 6.39848 47.3211 6.45464 47.3583 6.50089C47.3955 6.54714 47.4455 6.58144 47.502 6.59953C47.5585 6.61762 47.6191 6.6187 47.6763 6.60263C47.7334 6.58656 47.7845 6.55406 47.8234 6.50915C47.8622 6.46425 47.8869 6.40894 47.8946 6.35008C47.9022 6.29122 47.8924 6.23141 47.8663 6.17809C47.8402 6.12477 47.7991 6.08029 47.7479 6.05018C47.6968 6.02006 47.6379 6.00564 47.5786 6.0087C47.4971 6.01521 47.4214 6.05355 47.3679 6.11543C47.3144 6.17731 47.2874 6.25776 47.2928 6.33938Z" fill="#F28F8F"/>
<path d="M47.85 3.78009L48.349 4.02235C48.3801 3.95395 48.3837 3.87622 48.3592 3.80522C48.3346 3.73422 48.2837 3.67536 48.217 3.6408C48.1839 3.62497 48.1479 3.61602 48.1112 3.61449C48.0746 3.61297 48.038 3.61889 48.0037 3.63191C47.9694 3.64493 47.9381 3.66478 47.9116 3.69025C47.8852 3.71572 47.8642 3.74628 47.85 3.78009Z" fill="#263238"/>
<path d="M45.6794 3.98969L46.1045 3.62631C46.0824 3.59732 46.0545 3.57317 46.0227 3.55535C45.9908 3.53752 45.9557 3.5264 45.9194 3.52265C45.8831 3.51891 45.8464 3.52263 45.8116 3.53358C45.7767 3.54453 45.7445 3.56249 45.7169 3.58634C45.6602 3.63598 45.6247 3.70549 45.6177 3.78053C45.6107 3.85557 45.6328 3.93044 45.6794 3.98969Z" fill="#263238"/>
<path d="M45.8067 4.53967C45.8096 4.58448 45.8257 4.62742 45.853 4.6631C45.8802 4.69877 45.9174 4.7256 45.9599 4.74019C46.0024 4.75479 46.0482 4.7565 46.0916 4.74512C46.1351 4.73374 46.1742 4.70977 46.204 4.67623C46.2339 4.64269 46.2531 4.60107 46.2594 4.55661C46.2657 4.51215 46.2587 4.46682 46.2392 4.42634C46.2198 4.38586 46.1889 4.35202 46.1502 4.32908C46.1116 4.30614 46.0671 4.29512 46.0223 4.29742C45.9618 4.30147 45.9053 4.32913 45.8649 4.37444C45.8246 4.41975 45.8037 4.47909 45.8067 4.53967Z" fill="#263238"/>
<path d="M46.9307 4.27051L46.9234 5.70344L46.1652 5.48541L46.9307 4.27051Z" fill="#F28F8F"/>
<path d="M45.0279 6.2752C45.0348 6.27364 45.0415 6.2707 45.0473 6.26654C45.0531 6.26238 45.058 6.25708 45.0618 6.25097C45.0661 6.24499 45.0691 6.23819 45.0707 6.23099C45.0723 6.2238 45.0725 6.21635 45.0711 6.2091C45.0697 6.20185 45.0669 6.19496 45.0628 6.18883C45.0587 6.1827 45.0534 6.17747 45.0472 6.17345L44.3883 5.73497C44.3822 5.73089 44.3753 5.72805 44.3681 5.72663C44.3609 5.72521 44.3535 5.72524 44.3463 5.7267C44.3391 5.72816 44.3322 5.73104 44.3261 5.73516C44.32 5.73928 44.3148 5.74457 44.3108 5.75072C44.3065 5.75678 44.3036 5.76364 44.3021 5.77089C44.3005 5.77813 44.3005 5.78561 44.302 5.79286C44.3035 5.80012 44.3064 5.80699 44.3106 5.81308C44.3148 5.81916 44.3203 5.82432 44.3265 5.82824L44.9842 6.26672C44.9904 6.27126 44.9976 6.27437 45.0051 6.27584C45.0126 6.27731 45.0204 6.27709 45.0279 6.2752Z" fill="#E0E0E0"/>
<path d="M44.9575 6.55853C44.9677 6.55598 44.9771 6.55068 44.9846 6.54321C44.992 6.53575 44.9973 6.52638 44.9999 6.51613C45.0032 6.50152 45.0005 6.48621 44.9926 6.47352C44.9847 6.46082 44.9721 6.45176 44.9575 6.4483L44.1871 6.27024C44.18 6.26844 44.1725 6.26808 44.1652 6.26918C44.1579 6.27027 44.1509 6.27281 44.1446 6.27665C44.1383 6.28048 44.1328 6.28553 44.1285 6.2915C44.1241 6.29747 44.121 6.30424 44.1193 6.31143C44.116 6.32604 44.1186 6.34135 44.1266 6.35404C44.1345 6.36674 44.1471 6.3758 44.1617 6.37926L44.9321 6.55853C44.9405 6.55973 44.9491 6.55973 44.9575 6.55853Z" fill="#E0E0E0"/>
<path d="M44.2415 7.07107H44.2488L44.9913 6.79975C45.0053 6.79461 45.0166 6.78413 45.0229 6.77061C45.0291 6.7571 45.0297 6.74165 45.0246 6.72768C45.0195 6.7137 45.009 6.70234 44.9955 6.6961C44.9819 6.68985 44.9665 6.68923 44.9525 6.69437L44.21 6.96569C44.203 6.96825 44.1967 6.97217 44.1912 6.97723C44.1858 6.98228 44.1814 6.98838 44.1784 6.99515C44.1753 7.00192 44.1737 7.00923 44.1735 7.01665C44.1733 7.02407 44.1746 7.03146 44.1773 7.03837C44.1824 7.05054 44.1917 7.0605 44.2034 7.06649C44.2152 7.07248 44.2287 7.0741 44.2415 7.07107Z" fill="#E0E0E0"/>
<path d="M37.9599 12.8817C37.9752 12.9124 37.9992 12.938 38.0289 12.9553C38.0586 12.9725 38.0927 12.9807 38.127 12.9787C38.1613 12.9768 38.1942 12.9648 38.2218 12.9444C38.2494 12.9239 38.2703 12.8958 38.2821 12.8635L38.8344 11.5009C38.8434 11.479 38.8479 11.4556 38.8476 11.432C38.8473 11.4084 38.8422 11.3851 38.8327 11.3634C38.8232 11.3418 38.8094 11.3224 38.7922 11.3062C38.775 11.29 38.7547 11.2775 38.7326 11.2693C38.7104 11.2612 38.6868 11.2576 38.6632 11.2588C38.6397 11.2599 38.6166 11.2658 38.5953 11.2762C38.5741 11.2865 38.5551 11.3009 38.5396 11.3187C38.5241 11.3365 38.5123 11.3573 38.505 11.3797L37.9514 12.7424C37.9433 12.765 37.9398 12.789 37.9412 12.8129C37.9427 12.8369 37.9491 12.8603 37.9599 12.8817Z" fill="#E0E0E0"/>
<path d="M37.0503 12.8743C37.0679 12.91 37.0971 12.9386 37.1332 12.9555C37.1693 12.9724 37.21 12.9766 37.2487 12.9673C37.2875 12.958 37.3219 12.9358 37.3463 12.9044C37.3708 12.873 37.3839 12.8342 37.3834 12.7943L37.3652 11.0986C37.3615 11.0547 37.3415 11.0137 37.3091 10.9839C37.2767 10.9541 37.2342 10.9375 37.1902 10.9375C37.1461 10.9375 37.1037 10.9541 37.0712 10.9839C37.0388 11.0137 37.0188 11.0547 37.0151 11.0986L37.0321 12.7943C37.0318 12.822 37.038 12.8494 37.0503 12.8743Z" fill="#E0E0E0"/>
<path d="M35.5084 11.9306L35.5193 11.9512L36.3538 13.1625C36.3797 13.2008 36.4197 13.2274 36.465 13.2365C36.5104 13.2456 36.5575 13.2364 36.5961 13.2109C36.6338 13.1845 36.6597 13.1445 36.6685 13.0993C36.6773 13.0541 36.6683 13.0073 36.6433 12.9687L35.8088 11.7574C35.7845 11.7198 35.7466 11.693 35.7031 11.6826C35.6596 11.6721 35.6138 11.6788 35.575 11.7012C35.5363 11.7236 35.5076 11.76 35.495 11.8029C35.4824 11.8459 35.4867 11.892 35.5072 11.9318L35.5084 11.9306Z" fill="#E0E0E0"/>
</svg>
