<svg width="30" height="30" viewBox="0 0 30 30" fill="none" xmlns="http://www.w3.org/2000/svg">
<path d="M3.91667 13.4167H10.25C11.9917 13.4167 13.4167 11.9917 13.4167 10.25V3.91667C13.4167 2.175 11.9917 0.75 10.25 0.75H3.91667C2.175 0.75 0.75 2.175 0.75 3.91667V10.25C0.75 11.9917 2.175 13.4167 3.91667 13.4167ZM3.91667 3.91667H10.25V10.25H3.91667V3.91667ZM3.91667 29.25H10.25C11.9917 29.25 13.4167 27.825 13.4167 26.0833V19.75C13.4167 18.0083 11.9917 16.5833 10.25 16.5833H3.91667C2.175 16.5833 0.75 18.0083 0.75 19.75V26.0833C0.75 27.825 2.175 29.25 3.91667 29.25ZM3.91667 19.75H10.25V26.0833H3.91667V19.75ZM16.5833 3.91667V10.25C16.5833 11.9917 18.0083 13.4167 19.75 13.4167H26.0833C27.825 13.4167 29.25 11.9917 29.25 10.25V3.91667C29.25 2.175 27.825 0.75 26.0833 0.75H19.75C18.0083 0.75 16.5833 2.175 16.5833 3.91667ZM26.0833 10.25H19.75V3.91667H26.0833V10.25ZM29.25 28.4583V26.875C29.25 26.4317 28.9017 26.0833 28.4583 26.0833H26.875C26.4317 26.0833 26.0833 26.4317 26.0833 26.875V28.4583C26.0833 28.9017 26.4317 29.25 26.875 29.25H28.4583C28.9017 29.25 29.25 28.9017 29.25 28.4583ZM16.5833 17.375V18.9583C16.5833 19.4017 16.9317 19.75 17.375 19.75H18.9583C19.4017 19.75 19.75 19.4017 19.75 18.9583V17.375C19.75 16.9317 19.4017 16.5833 18.9583 16.5833H17.375C16.9317 16.5833 16.5833 16.9317 16.5833 17.375ZM22.125 19.75H20.5417C20.0983 19.75 19.75 20.0983 19.75 20.5417V22.125C19.75 22.5683 20.0983 22.9167 20.5417 22.9167H22.125C22.5683 22.9167 22.9167 22.5683 22.9167 22.125V20.5417C22.9167 20.0983 22.5683 19.75 22.125 19.75ZM16.5833 23.7083V25.2917C16.5833 25.735 16.9317 26.0833 17.375 26.0833H18.9583C19.4017 26.0833 19.75 25.735 19.75 25.2917V23.7083C19.75 23.265 19.4017 22.9167 18.9583 22.9167H17.375C16.9317 22.9167 16.5833 23.265 16.5833 23.7083ZM20.5417 29.25H22.125C22.5683 29.25 22.9167 28.9017 22.9167 28.4583V26.875C22.9167 26.4317 22.5683 26.0833 22.125 26.0833H20.5417C20.0983 26.0833 19.75 26.4317 19.75 26.875V28.4583C19.75 28.9017 20.0983 29.25 20.5417 29.25ZM23.7083 26.0833H25.2917C25.735 26.0833 26.0833 25.735 26.0833 25.2917V23.7083C26.0833 23.265 25.735 22.9167 25.2917 22.9167H23.7083C23.265 22.9167 22.9167 23.265 22.9167 23.7083V25.2917C22.9167 25.735 23.265 26.0833 23.7083 26.0833ZM25.2917 16.5833H23.7083C23.265 16.5833 22.9167 16.9317 22.9167 17.375V18.9583C22.9167 19.4017 23.265 19.75 23.7083 19.75H25.2917C25.735 19.75 26.0833 19.4017 26.0833 18.9583V17.375C26.0833 16.9317 25.735 16.5833 25.2917 16.5833ZM26.875 22.9167H28.4583C28.9017 22.9167 29.25 22.5683 29.25 22.125V20.5417C29.25 20.0983 28.9017 19.75 28.4583 19.75H26.875C26.4317 19.75 26.0833 20.0983 26.0833 20.5417V22.125C26.0833 22.5683 26.4317 22.9167 26.875 22.9167Z" fill="#F6F6F6"/>
</svg>
