<svg width="38" height="38" viewBox="0 0 38 38" fill="none" xmlns="http://www.w3.org/2000/svg">
<path d="M24.5417 22.1667H23.2908L22.8475 21.7392C23.837 20.5896 24.5602 19.2356 24.9653 17.7739C25.3704 16.3122 25.4474 14.7791 25.1908 13.2842C24.4467 8.88252 20.7733 5.36752 16.34 4.82919C14.7814 4.63201 13.1983 4.79399 11.712 5.30275C10.2256 5.8115 8.87529 6.65353 7.76441 7.76442C6.65352 8.87531 5.81148 10.2256 5.30273 11.712C4.79398 13.1984 4.63199 14.7814 4.82917 16.34C5.36751 20.7734 8.88251 24.4467 13.2842 25.1909C14.7791 25.4474 16.3122 25.3704 17.7739 24.9653C19.2356 24.5602 20.5896 23.837 21.7392 22.8475L22.1667 23.2909V24.5417L28.8958 31.2709C29.545 31.92 30.6058 31.92 31.255 31.2709C31.9042 30.6217 31.9042 29.5609 31.255 28.9117L24.5417 22.1667ZM15.0417 22.1667C11.0992 22.1667 7.91667 18.9842 7.91667 15.0417C7.91667 11.0992 11.0992 7.91669 15.0417 7.91669C18.9842 7.91669 22.1667 11.0992 22.1667 15.0417C22.1667 18.9842 18.9842 22.1667 15.0417 22.1667Z" fill="#F6F6F6"/>
</svg>
