<svg width="28" height="28" viewBox="0 0 28 28" fill="none" xmlns="http://www.w3.org/2000/svg">
<path d="M8.35938 9.25C8.35938 9.01379 8.45321 8.78726 8.62023 8.62023C8.78726 8.45321 9.01379 8.35938 9.25 8.35938H18.75C18.9862 8.35938 19.2127 8.45321 19.3798 8.62023C19.5468 8.78726 19.6406 9.01379 19.6406 9.25C19.6406 9.48621 19.5468 9.71274 19.3798 9.87977C19.2127 10.0468 18.9862 10.1406 18.75 10.1406H9.25C9.01379 10.1406 8.78726 10.0468 8.62023 9.87977C8.45321 9.71274 8.35938 9.48621 8.35938 9.25ZM9.25 14.8906H18.75C18.9862 14.8906 19.2127 14.7968 19.3798 14.6298C19.5468 14.4627 19.6406 14.2362 19.6406 14C19.6406 13.7638 19.5468 13.5373 19.3798 13.3702C19.2127 13.2032 18.9862 13.1094 18.75 13.1094H9.25C9.01379 13.1094 8.78726 13.2032 8.62023 13.3702C8.45321 13.5373 8.35938 13.7638 8.35938 14C8.35938 14.2362 8.45321 14.4627 8.62023 14.6298C8.78726 14.7968 9.01379 14.8906 9.25 14.8906ZM14 17.8594H9.25C9.01379 17.8594 8.78726 17.9532 8.62023 18.1202C8.45321 18.2873 8.35938 18.5138 8.35938 18.75C8.35938 18.9862 8.45321 19.2127 8.62023 19.3798C8.78726 19.5468 9.01379 19.6406 9.25 19.6406H14C14.2362 19.6406 14.4627 19.5468 14.6298 19.3798C14.7968 19.2127 14.8906 18.9862 14.8906 18.75C14.8906 18.5138 14.7968 18.2873 14.6298 18.1202C14.4627 17.9532 14.2362 17.8594 14 17.8594ZM27.9531 2.125V18.2587C27.9536 18.5317 27.9001 18.802 27.7957 19.0542C27.6912 19.3065 27.5379 19.5355 27.3445 19.7282L19.7282 27.3445C19.5355 27.5379 19.3065 27.6912 19.0542 27.7957C18.802 27.9001 18.5317 27.9536 18.2587 27.9531H2.125C1.57385 27.9531 1.04527 27.7342 0.655544 27.3445C0.26582 26.9547 0.046875 26.4262 0.046875 25.875V2.125C0.046875 1.57385 0.26582 1.04527 0.655544 0.655544C1.04527 0.26582 1.57385 0.046875 2.125 0.046875H25.875C26.4262 0.046875 26.9547 0.26582 27.3445 0.655544C27.7342 1.04527 27.9531 1.57385 27.9531 2.125ZM2.125 26.1719H17.8594V18.75C17.8594 18.5138 17.9532 18.2873 18.1202 18.1202C18.2873 17.9532 18.5138 17.8594 18.75 17.8594H26.1719V2.125C26.1719 2.04626 26.1406 1.97075 26.0849 1.91508C26.0292 1.8594 25.9537 1.82812 25.875 1.82812H2.125C2.04626 1.82812 1.97075 1.8594 1.91508 1.91508C1.8594 1.97075 1.82812 2.04626 1.82812 2.125V25.875C1.82812 25.9537 1.8594 26.0292 1.91508 26.0849C1.97075 26.1406 2.04626 26.1719 2.125 26.1719ZM24.9131 19.6406H19.6406V24.9131L24.9131 19.6406Z" fill="#F6F6F6"/>
</svg>
