<svg width="20" height="20" viewBox="0 0 20 20" fill="none" xmlns="http://www.w3.org/2000/svg">
<path d="M10.5648 16.6308C10.7937 16.6841 10.8147 16.9839 10.5917 17.0583L9.27504 17.4916C5.96671 18.5583 4.22504 17.6666 3.15004 14.3583L2.08337 11.0666C1.01671 7.75827 1.90004 6.00827 5.20837 4.9416L5.4757 4.85307C5.87857 4.71965 6.27416 5.12502 6.16525 5.53519C6.13457 5.65074 6.10457 5.76954 6.07504 5.8916L5.25837 9.38327C4.34171 13.3083 5.68337 15.4749 9.60837 16.4083L10.5648 16.6308Z" fill="#728196"/>
<path d="M14.3083 2.67499L12.9167 2.34999C10.1333 1.69165 8.47499 2.23332 7.49999 4.24999C7.24999 4.75832 7.04999 5.37499 6.88332 6.08332L6.06665 9.57499C5.24999 13.0583 6.32499 14.775 9.79999 15.6L11.2 15.9333C11.6833 16.05 12.1333 16.125 12.55 16.1583C15.15 16.4083 16.5333 15.1917 17.2333 12.1833L18.05 8.69999C18.8667 5.21665 17.8 3.49165 14.3083 2.67499ZM12.7417 11.1083C12.6667 11.3917 12.4167 11.575 12.1333 11.575C12.0833 11.575 12.0333 11.5667 11.975 11.5583L9.54999 10.9417C9.21665 10.8583 9.01665 10.5167 9.09999 10.1833C9.18332 9.84999 9.52499 9.64999 9.85832 9.73332L12.2833 10.35C12.625 10.4333 12.825 10.775 12.7417 11.1083ZM15.1833 8.29165C15.1083 8.57499 14.8583 8.75832 14.575 8.75832C14.525 8.75832 14.475 8.74999 14.4167 8.74165L10.375 7.71665C10.0417 7.63332 9.84165 7.29165 9.92499 6.95832C10.0083 6.62499 10.35 6.42499 10.6833 6.50832L14.725 7.53332C15.0667 7.60832 15.2667 7.94999 15.1833 8.29165Z" fill="#728196"/>
</svg>
