<svg width="20" height="20" viewBox="0 0 20 20" fill="none" xmlns="http://www.w3.org/2000/svg">
<g clip-path="url(#clip0_1367_5145)">
<path fill-rule="evenodd" clip-rule="evenodd" d="M4.99996 5.83335C4.99996 4.72829 5.43895 3.66848 6.22035 2.88708C7.00175 2.10567 8.06156 1.66669 9.16663 1.66669C10.2717 1.66669 11.3315 2.10567 12.1129 2.88708C12.8943 3.66848 13.3333 4.72829 13.3333 5.83335C13.3333 6.93842 12.8943 7.99823 12.1129 8.77963C11.3315 9.56103 10.2717 10 9.16663 10C8.06156 10 7.00175 9.56103 6.22035 8.77963C5.43895 7.99823 4.99996 6.93842 4.99996 5.83335ZM9.16663 3.33335C8.83832 3.33335 8.51323 3.39802 8.20992 3.52366C7.9066 3.64929 7.63101 3.83344 7.39886 4.06559C7.16671 4.29773 6.98256 4.57333 6.85693 4.87665C6.73129 5.17996 6.66663 5.50505 6.66663 5.83335C6.66663 6.16166 6.73129 6.48675 6.85693 6.79006C6.98256 7.09338 7.16671 7.36897 7.39886 7.60112C7.63101 7.83327 7.9066 8.01742 8.20992 8.14305C8.51323 8.26869 8.83832 8.33335 9.16663 8.33335C9.82967 8.33335 10.4656 8.06996 10.9344 7.60112C11.4032 7.13228 11.6666 6.4964 11.6666 5.83335C11.6666 5.17031 11.4032 4.53443 10.9344 4.06559C10.4656 3.59675 9.82967 3.33335 9.16663 3.33335ZM3.67746 14.6675C3.40829 15.0092 3.33329 15.2675 3.33329 15.4167C3.33329 15.515 3.36246 15.61 3.50413 15.7367C3.66829 15.8834 3.96246 16.045 4.42913 16.1892C5.36246 16.4775 6.72579 16.6234 8.35079 16.6584C8.46023 16.6607 8.56814 16.6845 8.66836 16.7285C8.76859 16.7725 8.85917 16.8358 8.93492 16.9148C9.01068 16.9938 9.07013 17.087 9.10989 17.189C9.14965 17.2909 9.16892 17.3998 9.16663 17.5092C9.16433 17.6186 9.1405 17.7265 9.0965 17.8268C9.05249 17.927 8.98918 18.0176 8.91017 18.0933C8.83117 18.1691 8.73801 18.2285 8.63603 18.2683C8.53404 18.308 8.42523 18.3273 8.31579 18.325C6.65163 18.2892 5.09913 18.1409 3.93746 17.7817C3.35746 17.6017 2.80913 17.3509 2.39413 16.98C1.95579 16.5884 1.66663 16.0617 1.66663 15.4167C1.66663 14.7609 1.96496 14.1475 2.36996 13.6342C2.78163 13.1134 3.35079 12.6342 4.01829 12.2259C5.35413 11.4117 7.17079 10.8334 9.16663 10.8334C9.53913 10.8334 9.90579 10.8534 10.2633 10.8917C10.4831 10.915 10.6846 11.0247 10.8236 11.1966C10.9625 11.3685 11.0274 11.5886 11.0041 11.8084C10.9808 12.0282 10.8711 12.2297 10.6992 12.3686C10.5273 12.5076 10.3073 12.5725 10.0875 12.5492C9.78746 12.5167 9.47913 12.5 9.16663 12.5C7.48079 12.5 5.96413 12.9917 4.88663 13.6492C4.34746 13.9775 3.93996 14.3342 3.67746 14.6675ZM17.6775 11.695C17.484 11.5015 17.2543 11.348 17.0015 11.2433C16.7487 11.1385 16.4778 11.0846 16.2041 11.0846C15.9305 11.0846 15.6595 11.1385 15.4067 11.2433C15.1539 11.348 14.9243 11.5015 14.7308 11.695L11.8825 14.5425C11.6912 14.7339 11.5672 14.9822 11.5291 15.25L11.2541 17.1734C11.2357 17.3016 11.2475 17.4324 11.2884 17.5554C11.3293 17.6783 11.3984 17.79 11.49 17.8817C11.5816 17.9733 11.6933 18.0423 11.8163 18.0832C11.9392 18.1242 12.07 18.1359 12.1983 18.1175L14.1216 17.8425C14.3895 17.8044 14.6377 17.6804 14.8291 17.4892L17.6766 14.6409C18.0672 14.2502 18.2866 13.7204 18.2866 13.1679C18.2866 12.6155 18.068 12.0857 17.6775 11.695ZM15.9091 12.8734C15.9877 12.7975 16.093 12.7555 16.2022 12.7564C16.3115 12.7574 16.416 12.8012 16.4932 12.8784C16.5705 12.9557 16.6143 13.0602 16.6152 13.1694C16.6162 13.2787 16.5742 13.3839 16.4983 13.4625L13.7483 16.2125L13.0608 16.3109L13.1591 15.6234L15.9091 12.8734Z" fill="#728196"/>
</g>
<defs>
<clipPath id="clip0_1367_5145">
<rect width="20" height="20" fill="white"/>
</clipPath>
</defs>
</svg>
