<svg width="22" height="22" viewBox="0 0 22 22" fill="none" xmlns="http://www.w3.org/2000/svg">
<path d="M15.5833 10.0833C15.895 10.0833 16.1975 10.12 16.5 10.1658V5.7475L9.625 2.75L2.75 5.7475V10.2483C2.75 14.41 5.68333 18.3058 9.625 19.25C10.1292 19.1308 10.615 18.9567 11.0917 18.7458C10.4592 17.8475 10.0833 16.7567 10.0833 15.5833C10.0833 12.5492 12.5492 10.0833 15.5833 10.0833Z" fill="#728196"/>
<path d="M15.5833 11.9167C13.5575 11.9167 11.9166 13.5575 11.9166 15.5834C11.9166 17.6092 13.5575 19.25 15.5833 19.25C17.6091 19.25 19.25 17.6092 19.25 15.5834C19.25 13.5575 17.6091 11.9167 15.5833 11.9167ZM15.5833 13.1817C16.1516 13.1817 16.61 13.6492 16.61 14.2084C16.61 14.7675 16.1425 15.235 15.5833 15.235C15.0241 15.235 14.5566 14.7675 14.5566 14.2084C14.5566 13.6492 15.015 13.1817 15.5833 13.1817ZM15.5833 18.1042C14.7308 18.1042 13.9883 17.6825 13.53 17.0317C13.5758 16.3717 14.9141 16.0417 15.5833 16.0417C16.2525 16.0417 17.5908 16.3717 17.6366 17.0317C17.1783 17.6825 16.4358 18.1042 15.5833 18.1042Z" fill="#728196"/>
</svg>
