<svg width="19" height="19" viewBox="0 0 19 19" fill="none" xmlns="http://www.w3.org/2000/svg">
<g opacity="0.7">
<path fill-rule="evenodd" clip-rule="evenodd" d="M12.7656 9.49998C12.7656 9.34251 12.7031 9.19149 12.5917 9.08014C12.4804 8.96879 12.3293 8.90623 12.1719 8.90623H3.48491L5.03737 7.57623C5.09663 7.5255 5.14531 7.46359 5.18065 7.39404C5.21598 7.32449 5.23727 7.24866 5.2433 7.17088C5.24932 7.09311 5.23997 7.01491 5.21578 6.94074C5.19159 6.86658 5.15302 6.79791 5.10229 6.73865C5.05155 6.67939 4.98964 6.6307 4.92009 6.59537C4.85054 6.56004 4.77472 6.53875 4.69694 6.53272C4.61916 6.52669 4.54096 6.53604 4.4668 6.56024C4.39263 6.58443 4.32396 6.623 4.2647 6.67373L1.49387 9.04873C1.42869 9.10447 1.37636 9.17367 1.34047 9.25157C1.30459 9.32947 1.28601 9.41422 1.28601 9.49998C1.28601 9.58575 1.30459 9.67049 1.34047 9.74839C1.37636 9.82629 1.42869 9.89549 1.49387 9.95123L4.2647 12.3262C4.38438 12.4287 4.53986 12.4794 4.69694 12.4672C4.85402 12.4551 4.99982 12.381 5.10229 12.2613C5.20475 12.1416 5.25547 11.9862 5.2433 11.8291C5.23112 11.672 5.15705 11.5262 5.03737 11.4237L3.4857 10.0937H12.1719C12.3293 10.0937 12.4804 10.0312 12.5917 9.91983C12.7031 9.80848 12.7656 9.65745 12.7656 9.49998Z" fill="#728196"/>
<path d="M7.42188 6.33331C7.42188 6.88906 7.42187 7.16694 7.55567 7.36723C7.61329 7.45335 7.68726 7.52732 7.77338 7.58494C7.97367 7.71873 8.25154 7.71873 8.80729 7.71873H12.1719C12.6443 7.71873 13.0974 7.9064 13.4314 8.24045C13.7655 8.5745 13.9531 9.02756 13.9531 9.49998C13.9531 9.9724 13.7655 10.4255 13.4314 10.7595C13.0974 11.0936 12.6443 11.2812 12.1719 11.2812H8.80729C8.25154 11.2812 7.97367 11.2812 7.77338 11.4142C7.68718 11.4721 7.61321 11.5463 7.55567 11.6327C7.42187 11.833 7.42188 12.1109 7.42188 12.6666C7.42188 14.9055 7.42187 16.0257 8.11775 16.7208C8.81283 17.4166 9.93225 17.4166 12.1711 17.4166H12.9628C15.2032 17.4166 16.3218 17.4166 17.0177 16.7208C17.7135 16.0257 17.7135 14.9055 17.7135 12.6666V6.33331C17.7135 4.09448 17.7135 2.97427 17.0177 2.27919C16.3218 1.58331 15.2024 1.58331 12.9635 1.58331H12.1719C9.93225 1.58331 8.81283 1.58331 8.11775 2.27919C7.42187 2.97427 7.42188 4.09448 7.42188 6.33331Z" fill="#728196"/>
</g>
</svg>
