<svg width="19" height="19" viewBox="0 0 19 19" fill="none" xmlns="http://www.w3.org/2000/svg">
<path fill-rule="evenodd" clip-rule="evenodd" d="M4.15629 7.96019V6.33331C4.15629 4.91606 4.71929 3.55686 5.72144 2.55471C6.72359 1.55256 8.08279 0.989563 9.50004 0.989563C10.9173 0.989563 12.2765 1.55256 13.2786 2.55471C14.2808 3.55686 14.8438 4.91606 14.8438 6.33331V7.96019C15.7265 8.0259 16.3005 8.19215 16.7208 8.61252C17.4167 9.3076 17.4167 10.4278 17.4167 12.6666C17.4167 14.9055 17.4167 16.0257 16.7208 16.7208C16.0257 17.4166 14.9055 17.4166 12.6667 17.4166H6.33337C4.09454 17.4166 2.97433 17.4166 2.27925 16.7208C1.58337 16.0257 1.58337 14.9055 1.58337 12.6666C1.58337 10.4278 1.58337 9.3076 2.27925 8.61252C2.69883 8.19215 3.27358 8.0259 4.15629 7.96019ZM5.34379 6.33331C5.34379 5.23101 5.78168 4.17385 6.56113 3.3944C7.34058 2.61495 8.39773 2.17706 9.50004 2.17706C10.6023 2.17706 11.6595 2.61495 12.439 3.3944C13.2184 4.17385 13.6563 5.23101 13.6563 6.33331V7.91981C13.3531 7.91665 13.0237 7.91665 12.6667 7.91665H6.33337C5.97554 7.91665 5.647 7.91665 5.34379 7.91981V6.33331ZM6.33337 13.4583C6.54334 13.4583 6.7447 13.3749 6.89317 13.2264C7.04163 13.078 7.12504 12.8766 7.12504 12.6666C7.12504 12.4567 7.04163 12.2553 6.89317 12.1069C6.7447 11.9584 6.54334 11.875 6.33337 11.875C6.12341 11.875 5.92205 11.9584 5.77358 12.1069C5.62511 12.2553 5.54171 12.4567 5.54171 12.6666C5.54171 12.8766 5.62511 13.078 5.77358 13.2264C5.92205 13.3749 6.12341 13.4583 6.33337 13.4583ZM9.50004 13.4583C9.71 13.4583 9.91137 13.3749 10.0598 13.2264C10.2083 13.078 10.2917 12.8766 10.2917 12.6666C10.2917 12.4567 10.2083 12.2553 10.0598 12.1069C9.91137 11.9584 9.71 11.875 9.50004 11.875C9.29008 11.875 9.08871 11.9584 8.94025 12.1069C8.79178 12.2553 8.70837 12.4567 8.70837 12.6666C8.70837 12.8766 8.79178 13.078 8.94025 13.2264C9.08871 13.3749 9.29008 13.4583 9.50004 13.4583ZM13.4584 12.6666C13.4584 12.8766 13.375 13.078 13.2265 13.2264C13.078 13.3749 12.8767 13.4583 12.6667 13.4583C12.4567 13.4583 12.2554 13.3749 12.1069 13.2264C11.9584 13.078 11.875 12.8766 11.875 12.6666C11.875 12.4567 11.9584 12.2553 12.1069 12.1069C12.2554 11.9584 12.4567 11.875 12.6667 11.875C12.8767 11.875 13.078 11.9584 13.2265 12.1069C13.375 12.2553 13.4584 12.4567 13.4584 12.6666Z" fill="#728196"/>
</svg>
