<svg width="140" height="106" viewBox="0 0 140 106" fill="none" xmlns="http://www.w3.org/2000/svg">
<path d="M140 92.8766H0V92.9466H140V92.8766Z" fill="#E0E0E0"/>
<path d="M124.765 95.0045H117.326V95.0745H124.765V95.0045Z" fill="#E0E0E0"/>
<path d="M81.1048 96.4047H74.6928V96.4747H81.1048V96.4047Z" fill="#E0E0E0"/>
<path d="M67.8916 96.1973H55.1852V96.2673H67.8916V96.1973Z" fill="#E0E0E0"/>
<path d="M50.9992 96.1973H42.3724V96.2673H50.9992V96.1973Z" fill="#E0E0E0"/>
<path d="M36.12 95.7214H22.4952V95.7914H36.12V95.7214Z" fill="#E0E0E0"/>
<path d="M114.612 95.0045H90.356V95.0745H114.612V95.0045Z" fill="#E0E0E0"/>
<path d="M16.4472 95.7214H14.462V95.7914H16.4472V95.7214Z" fill="#E0E0E0"/>
<path d="M66.36 80.3886H12.2948C11.8712 80.3878 11.4653 80.2191 11.1661 79.9193C10.8669 79.6196 10.6988 79.2133 10.6988 78.7898V2.78939C10.7025 2.36828 10.8722 1.96562 11.171 1.66889C11.4698 1.37216 11.8737 1.20531 12.2948 1.20459H66.36C66.784 1.20459 67.1907 1.37303 67.4905 1.67287C67.7904 1.9727 67.9588 2.37936 67.9588 2.80339V78.7898C67.9588 79.2138 67.7904 79.6205 67.4905 79.9203C67.1907 80.2201 66.784 80.3886 66.36 80.3886ZM12.2948 1.26059C11.8898 1.26133 11.5017 1.42273 11.2156 1.70935C10.9295 1.99598 10.7688 2.38441 10.7688 2.78939V78.7898C10.7688 79.1948 10.9295 79.5832 11.2156 79.8698C11.5017 80.1564 11.8898 80.3178 12.2948 80.3186H66.36C66.7652 80.3178 67.1537 80.1565 67.4402 79.87C67.7267 79.5835 67.8881 79.195 67.8888 78.7898V2.78939C67.8881 2.38415 67.7267 1.99573 67.4402 1.70918C67.1537 1.42264 66.7652 1.26133 66.36 1.26059H12.2948Z" fill="#E0E0E0"/>
<path d="M126.927 80.3886H72.8588C72.435 80.3878 72.0288 80.2192 71.7291 79.9195C71.4294 79.6198 71.2608 79.2136 71.26 78.7898V2.78939C71.2644 2.36802 71.4347 1.96537 71.734 1.66872C72.0333 1.37206 72.4374 1.2053 72.8588 1.20459H126.927C127.347 1.20605 127.751 1.37322 128.049 1.66987C128.347 1.96653 128.516 2.36876 128.52 2.78939V78.7898C128.52 79.2129 128.352 79.6187 128.054 79.9183C127.755 80.218 127.35 80.3871 126.927 80.3886ZM72.8588 1.26059C72.4536 1.26133 72.0651 1.42264 71.7786 1.70918C71.4921 1.99573 71.3307 2.38415 71.33 2.78939V78.7898C71.3307 79.195 71.4921 79.5835 71.7786 79.87C72.0651 80.1565 72.4536 80.3178 72.8588 80.3186H126.927C127.332 80.3178 127.72 80.1565 128.007 79.87C128.294 79.5835 128.455 79.195 128.456 78.7898V2.78939C128.455 2.38415 128.294 1.99573 128.007 1.70918C127.72 1.42264 127.332 1.26133 126.927 1.26059H72.8588Z" fill="#E0E0E0"/>
<path d="M17.542 93.3833H23.4892L23.4892 61.1049H17.542L17.542 93.3833Z" fill="#E0E0E0"/>
<path d="M18.6732 93.3834H17.5448V90.1718H19.8576L18.6732 93.3834Z" fill="#EBEBEB"/>
<path d="M45.7184 59.4362H39.7712V93.3834H45.7184V59.4362Z" fill="#E0E0E0"/>
<path d="M17.5448 91.4122H40.7568L40.7568 59.4362H17.5448L17.5448 91.4122Z" fill="#EBEBEB"/>
<path d="M18.4184 74.7074V87.397H28.77V74.7074H18.4184Z" fill="#E0E0E0"/>
<path d="M29.5288 74.7046V87.3942H39.8804V74.7046H29.5288Z" fill="#E0E0E0"/>
<path d="M33.6812 75.6063H35.728C36.1684 75.6063 36.6042 75.5165 37.0086 75.3422C37.413 75.1679 37.7776 74.9128 38.08 74.5927H31.3292C31.6316 74.9128 31.9961 75.1679 32.4006 75.3422C32.805 75.5165 33.2408 75.6063 33.6812 75.6063Z" fill="#EBEBEB"/>
<path d="M22.4672 75.6063H24.514C24.9568 75.6083 25.3952 75.5193 25.8022 75.345C26.2092 75.1706 26.576 74.9146 26.88 74.5927H20.1152C20.4178 74.9126 20.7824 75.1675 21.1868 75.3417C21.5912 75.516 22.0269 75.606 22.4672 75.6063Z" fill="#EBEBEB"/>
<path d="M18.4212 60.4302V73.1198H28.7728V60.4302H18.4212Z" fill="#E0E0E0"/>
<path d="M29.5288 60.4302V73.1198H39.8804V60.4302H29.5288Z" fill="#E0E0E0"/>
<path d="M33.6812 61.3289H35.728C36.1682 61.3295 36.6039 61.2402 37.0084 61.0664C37.4128 60.8926 37.7775 60.6379 38.08 60.3181H31.3292C31.6317 60.6379 31.9964 60.8926 32.4008 61.0664C32.8053 61.2402 33.241 61.3295 33.6812 61.3289Z" fill="#EBEBEB"/>
<path d="M22.4672 61.3289H24.514C24.9542 61.3295 25.3899 61.2402 25.7944 61.0664C26.1988 60.8926 26.5635 60.6379 26.866 60.3181H20.1152C20.4179 60.6377 20.7826 60.8921 21.187 61.0659C21.5914 61.2397 22.027 61.3292 22.4672 61.3289Z" fill="#EBEBEB"/>
<path d="M39.6256 93.3834H40.7568V90.1718H38.4412L39.6256 93.3834Z" fill="#EBEBEB"/>
<path d="M75.124 26.7714H89.3004V10.2794H75.124V26.7714Z" fill="#E0E0E0"/>
<path d="M73.4972 26.7714L89.012 26.7714V10.2794L73.4972 10.2794V26.7714Z" fill="#F5F5F5"/>
<path d="M87.7128 25.4694V11.5758H74.7992V25.4694H87.7128Z" fill="#FAFAFA"/>
<path d="M84.5824 22.101V14.9442H77.9296V22.101H84.5824Z" fill="#F5F5F5"/>
<path d="M101.654 46.2538H123.077V6.52179H101.654V46.2538Z" fill="#E0E0E0"/>
<path d="M100.128 46.2538H122.363V6.52179H100.128V46.2538Z" fill="#EBEBEB"/>
<path d="M101.654 49.0818H123.077V46.251H101.654V49.0818Z" fill="#E0E0E0"/>
<path d="M97.5884 49.0818H119.823V46.251H97.5884V49.0818Z" fill="#EBEBEB"/>
<path d="M120.229 44.1202V8.6554L102.259 8.6554V44.1202H120.229Z" fill="#F5F5F5"/>
<path d="M117.009 44.1202L109.528 8.6554H105.994L113.478 44.1202H117.009Z" fill="#FAFAFA"/>
<path d="M119.244 32.0885C119.203 32.0885 119.164 32.0723 119.135 32.0434C119.106 32.0146 119.09 31.9754 119.09 31.9345V10.0413C119.09 10.001 119.107 9.96253 119.136 9.93425C119.164 9.90597 119.203 9.89013 119.244 9.89014C119.284 9.89014 119.322 9.90607 119.351 9.93442C119.379 9.96278 119.395 10.0012 119.395 10.0413V31.9345C119.395 31.9749 119.379 32.0137 119.351 32.0425C119.322 32.0713 119.284 32.0878 119.244 32.0885Z" fill="#EBEBEB"/>
<path d="M112.717 44.1202L105.235 8.6554H103.858L111.342 44.1202H112.717Z" fill="#FAFAFA"/>
<path d="M102.53 44.1202V8.6554H102.259V44.1202H102.53Z" fill="#E0E0E0"/>
<path d="M99.624 11.3825H121.047L121.243 9.48413H99.82L99.624 11.3825Z" fill="#E0E0E0"/>
<path d="M99.624 12.7741H121.047L121.243 10.8729H99.82L99.624 12.7741Z" fill="#E0E0E0"/>
<path d="M99.624 14.4429H121.047L121.243 12.5417H99.82L99.624 14.4429Z" fill="#E0E0E0"/>
<path d="M99.624 16.2994H121.047L121.243 14.401H99.82L99.624 16.2994Z" fill="#E0E0E0"/>
<path d="M99.624 18.5253H121.047L121.243 16.6241H99.82L99.624 18.5253Z" fill="#E0E0E0"/>
<path d="M99.624 21.0258H121.047L121.243 19.1274H99.82L99.624 21.0258Z" fill="#E0E0E0"/>
<path d="M110.382 54.9646C110.382 55.8046 109.791 56.4038 110.639 56.4038C111.488 56.4038 113.439 55.813 113.439 54.9646C113.439 54.5561 113.277 54.1644 112.988 53.8756C112.699 53.5868 112.308 53.4246 111.899 53.4246C111.491 53.4246 111.099 53.5868 110.81 53.8756C110.521 54.1644 110.359 54.5561 110.359 54.9646H110.382Z" fill="#E0E0E0"/>
<path d="M107.752 55.701C107.752 56.541 107.164 57.1374 108.01 57.1374C108.856 57.1374 110.824 56.5466 110.824 55.701C110.824 55.2926 110.662 54.9009 110.373 54.6121C110.084 54.3233 109.692 54.161 109.284 54.161C108.876 54.161 108.484 54.3233 108.195 54.6121C107.906 54.9009 107.744 55.2926 107.744 55.701H107.752Z" fill="#E0E0E0"/>
<path d="M105.238 55.2446C105.238 56.0846 104.647 56.681 105.496 56.681C106.344 56.681 108.296 56.0902 108.296 55.2446C108.296 54.8362 108.133 54.4445 107.845 54.1556C107.556 53.8668 107.164 53.7046 106.756 53.7046C106.347 53.7046 105.956 53.8668 105.667 54.1556C105.378 54.4445 105.216 54.8362 105.216 55.2446H105.238Z" fill="#E0E0E0"/>
<path d="M114.391 55.449C114.391 55.449 114.265 58.4422 109.455 58.4422C104.644 58.4422 104.518 55.449 104.518 55.449H114.391Z" fill="#EBEBEB"/>
<path d="M57.7416 92.8738H59.9228L59.9228 58.4422H57.7416L57.7416 92.8738Z" fill="#E0E0E0"/>
<path d="M57.0528 92.8738H58.5676L58.5676 58.4422H57.0528L57.0528 92.8738Z" fill="#F0F0F0"/>
<path d="M101.875 58.4449H56.5852V61.1245H101.875V58.4449Z" fill="#F0F0F0"/>
<path d="M102.852 92.8766H105.034V61.1246H102.852V92.8766Z" fill="#E0E0E0"/>
<path d="M102.161 92.8766H103.676V61.1246H102.161V92.8766Z" fill="#F0F0F0"/>
<path d="M116.656 92.8766H118.838V61.1246H116.656V92.8766Z" fill="#E0E0E0"/>
<path d="M115.968 92.8766H117.482V61.1246H115.968V92.8766Z" fill="#F0F0F0"/>
<path d="M71.5484 92.8766H73.7296V61.1246H71.5484V92.8766Z" fill="#E0E0E0"/>
<path d="M70.8596 92.8766H72.3744V61.1246H70.8596V92.8766Z" fill="#F0F0F0"/>
<path d="M101.872 61.1246H118.835V58.445H101.872V61.1246Z" fill="#E0E0E0"/>
<path d="M102.164 47.0994H83.958L81.3176 57.8486H99.5232L102.164 47.0994Z" fill="#E0E0E0"/>
<path d="M99.5232 57.8486L99.4504 58.445H81.2448L81.3176 57.8486H99.5232Z" fill="#E0E0E0"/>
<path d="M101.601 47.0994H83.398L80.7576 57.8486H98.9632L101.601 47.0994Z" fill="#F0F0F0"/>
<path d="M98.5796 57.3586L100.976 47.5894H83.7816L81.3848 57.3586H98.5796Z" fill="#FAFAFA"/>
<path d="M94.22 57.8486L94.1472 58.445H74.0992L74.172 57.8486H94.22Z" fill="#F0F0F0"/>
<path d="M59.0492 54.0629C59.1017 54.0658 59.1541 54.0714 59.206 54.0797V53.7269C59.206 53.6111 59.2514 53.4998 59.3326 53.4171C59.4137 53.3343 59.5241 53.2867 59.64 53.2845H63.0924C63.21 53.2845 63.3228 53.3311 63.4062 53.414C63.4896 53.4968 63.5369 53.6094 63.5376 53.7269V58.4421H59.1976V57.6497C59.1456 57.6572 59.0933 57.6619 59.0408 57.6638C58.6947 57.6638 58.3629 57.5263 58.1182 57.2816C57.8735 57.0369 57.736 56.705 57.736 56.3589V55.3705C57.736 55.1984 57.77 55.0279 57.8361 54.8689C57.9021 54.7098 57.9989 54.5654 58.121 54.4439C58.243 54.3225 58.3878 54.2263 58.5471 54.1609C58.7064 54.0955 58.877 54.0622 59.0492 54.0629ZM58.3044 56.3589C58.3044 56.5565 58.3829 56.7459 58.5225 56.8856C58.6622 57.0253 58.8517 57.1037 59.0492 57.1037C59.1019 57.1038 59.1545 57.0982 59.206 57.0869V54.6397C59.1543 54.6299 59.1018 54.6242 59.0492 54.6229C58.8514 54.6237 58.662 54.7028 58.5224 54.8429C58.3828 54.983 58.3044 55.1728 58.3044 55.3705V56.3589Z" fill="#E0E0E0"/>
<path d="M77.8176 92.8765H78.4252L80.1556 84.3421L80.4608 82.8469L82.348 73.5481H89.6L93.52 92.8681H94.1248L90.1264 73.1841C90.1137 73.1185 90.0791 73.0592 90.0282 73.0159C89.9773 72.9727 89.9132 72.948 89.8464 72.9461H82.1072C82.0397 72.9453 81.9741 72.969 81.9227 73.0127C81.8712 73.0564 81.8373 73.1173 81.8272 73.1841L80.1668 81.3517L79.8616 82.8441L77.8176 92.8765Z" fill="#F0F0F0"/>
<path d="M66.192 92.8765H66.7996L70.7196 73.5565H77.9604L79.8476 82.8609L80.15 84.3505L81.8832 92.8849H82.4908L80.4552 82.8553L80.1528 81.3685L78.4924 73.2009C78.4823 73.1341 78.4484 73.0733 78.3969 73.0296C78.3455 72.9858 78.2799 72.9621 78.2124 72.9629H70.4844C70.4176 72.9649 70.3535 72.9895 70.3026 73.0328C70.2517 73.076 70.2171 73.1353 70.2044 73.2009L66.192 92.8765Z" fill="#F0F0F0"/>
<path d="M84.042 73.2514H70.7364C69.5177 73.2487 68.3483 72.7695 67.4782 71.9162C66.6081 71.0628 66.1063 69.903 66.08 68.6846L65.5844 48.4602C65.5751 48.0083 65.6561 47.5591 65.8226 47.1389C65.9891 46.7187 66.2378 46.336 66.5541 46.0132C66.8704 45.6903 67.248 45.4339 67.6647 45.2588C68.0814 45.0838 68.5288 44.9937 68.9808 44.9938H77.322C78.157 44.9932 78.9631 45.3 79.5864 45.8556C80.2097 46.4113 80.6067 47.177 80.7016 48.0066L84.042 73.2514Z" fill="#F0F0F0"/>
<path d="M76.7872 70.7006H89.81C90.2934 70.7006 90.7571 70.8926 91.0989 71.2344C91.4408 71.5763 91.6328 72.0399 91.6328 72.5234V72.585C91.6328 72.761 91.5629 72.9297 91.4384 73.0542C91.314 73.1786 91.1452 73.2486 90.9692 73.2486H76.7872V70.7006Z" fill="#F0F0F0"/>
<path d="M16.2092 46.2538H37.632L37.632 6.52179H16.2092L16.2092 46.2538Z" fill="#E0E0E0"/>
<path d="M14.6832 46.2538H36.918L36.918 6.52179H14.6832L14.6832 46.2538Z" fill="#EBEBEB"/>
<path d="M16.2092 49.0818H37.632V46.251H16.2092V49.0818Z" fill="#E0E0E0"/>
<path d="M12.1464 49.0818H34.3812V46.251H12.1464V49.0818Z" fill="#EBEBEB"/>
<path d="M34.7872 44.1202V8.6554L16.8168 8.6554L16.8168 44.1202H34.7872Z" fill="#F5F5F5"/>
<path d="M31.5672 44.1202L24.0828 8.6554H20.5492L28.0336 44.1202H31.5672Z" fill="#FAFAFA"/>
<path d="M33.7988 32.0885C33.7585 32.0878 33.72 32.0713 33.6917 32.0425C33.6634 32.0137 33.6476 31.9749 33.6476 31.9345V10.0413C33.6476 10.0012 33.6635 9.96278 33.6919 9.93442C33.7203 9.90607 33.7587 9.89014 33.7988 9.89014C33.8392 9.89013 33.8779 9.90597 33.9067 9.93425C33.9355 9.96253 33.9521 10.001 33.9528 10.0413V31.9345C33.9528 31.9754 33.9366 32.0146 33.9077 32.0434C33.8788 32.0723 33.8397 32.0885 33.7988 32.0885Z" fill="#EBEBEB"/>
<path d="M27.2748 44.1202L19.7904 8.6554H18.4128L25.8972 44.1202H27.2748Z" fill="#FAFAFA"/>
<path d="M17.0884 44.1202L17.0884 8.6554H16.8168L16.8168 44.1202H17.0884Z" fill="#E0E0E0"/>
<path d="M14.1792 11.3825H35.6048L35.8008 9.48413H14.3752L14.1792 11.3825Z" fill="#E0E0E0"/>
<path d="M14.1792 12.7741H35.6048L35.8008 10.8729H14.3752L14.1792 12.7741Z" fill="#E0E0E0"/>
<path d="M14.1792 14.4429H35.6048L35.8008 12.5417H14.3752L14.1792 14.4429Z" fill="#E0E0E0"/>
<path d="M14.1792 16.2994H35.6048L35.8008 14.401H14.3752L14.1792 16.2994Z" fill="#E0E0E0"/>
<path d="M14.1792 18.5253H35.6048L35.8008 16.6241H14.3752L14.1792 18.5253Z" fill="#E0E0E0"/>
<path d="M14.1792 21.0258H35.6048L35.8008 19.1274H14.3752L14.1792 21.0258Z" fill="#E0E0E0"/>
<path d="M83.7116 43.479H94.3096V31.243H83.7116V43.479Z" fill="#E0E0E0"/>
<path d="M82.5048 43.479H94.0128V31.243H82.5048V43.479Z" fill="#F5F5F5"/>
<path d="M93.0496 42.513V32.2062H83.468V42.513H93.0496Z" fill="#FAFAFA"/>
<path d="M90.72 37.5457V37.1733C90.7204 36.8492 90.6568 36.5281 90.533 36.2285C90.4092 35.9289 90.2276 35.6566 89.9985 35.4272C89.7694 35.1979 89.4973 35.0159 89.1979 34.8918C88.8984 34.7676 88.5774 34.7037 88.2532 34.7037C87.5982 34.7037 86.9701 34.9639 86.5069 35.4271C86.0438 35.8902 85.7836 36.5184 85.7836 37.1733V37.5457C85.7836 38.2007 86.0438 38.8289 86.5069 39.292C86.9701 39.7551 87.5982 40.0153 88.2532 40.0153C88.5774 40.0153 88.8984 39.9514 89.1979 39.8273C89.4973 39.7032 89.7694 39.5212 89.9985 39.2918C90.2276 39.0625 90.4092 38.7902 90.533 38.4906C90.6568 38.191 90.7204 37.8699 90.72 37.5457Z" fill="#F5F5F5"/>
<path d="M51.1728 38.4418H63.6916V24.0414H51.1728V38.4418Z" fill="#E0E0E0"/>
<path d="M49.7532 38.4418H63.2996V24.0414H49.7532V38.4418Z" fill="#F5F5F5"/>
<path d="M62.1628 37.305V25.1754H50.8872V37.305H62.1628Z" fill="#FAFAFA"/>
<path d="M56.5236 28.1742L59.6092 33.5166H53.4408L56.5236 28.1742Z" fill="#F5F5F5"/>
<path d="M70 105.521C99.9831 105.521 124.289 104.102 124.289 102.352C124.289 100.601 99.9831 99.1823 70 99.1823C40.0169 99.1823 15.7108 100.601 15.7108 102.352C15.7108 104.102 40.0169 105.521 70 105.521Z" fill="#F5F5F5"/>
<path d="M88.424 15.2774C88.6648 15.2774 88.9028 15.2774 89.1408 15.3082C90.118 13.4519 91.6439 11.9423 93.5106 10.9852C95.3772 10.0281 97.4937 9.67009 99.5713 9.96006C101.649 10.25 103.586 11.1739 105.12 12.6055C106.653 14.0371 107.707 15.9069 108.139 17.9598C109.201 17.6066 110.327 17.4884 111.439 17.6132C112.551 17.738 113.622 18.103 114.579 18.6828C115.537 19.2626 116.356 20.0434 116.982 20.9712C117.608 21.899 118.024 22.9516 118.203 24.0563C118.382 25.161 118.318 26.2913 118.017 27.369C117.716 28.4468 117.184 29.4463 116.459 30.2983C115.733 31.1503 114.831 31.8346 113.816 32.3037C112.8 32.7729 111.694 33.0157 110.575 33.0154H88.424C87.2461 33.0363 86.0757 32.8224 84.9814 32.3861C83.887 31.9498 82.8905 31.2998 82.0501 30.4742C81.2096 29.6485 80.5421 28.6638 80.0864 27.5773C79.6307 26.4909 79.396 25.3245 79.396 24.1464C79.396 22.9682 79.6307 21.8019 80.0864 20.7155C80.5421 19.629 81.2096 18.6442 82.0501 17.8186C82.8905 16.993 83.887 16.343 84.9814 15.9067C86.0757 15.4704 87.2461 15.2565 88.424 15.2774Z" fill="#123454"/>
<path opacity="0.3" d="M88.424 15.2774C88.6648 15.2774 88.9028 15.2774 89.1408 15.3082C90.118 13.4519 91.6439 11.9423 93.5106 10.9852C95.3772 10.0281 97.4937 9.67009 99.5713 9.96006C101.649 10.25 103.586 11.1739 105.12 12.6055C106.653 14.0371 107.707 15.9069 108.139 17.9598C109.201 17.6066 110.327 17.4884 111.439 17.6132C112.551 17.738 113.622 18.103 114.579 18.6828C115.537 19.2626 116.356 20.0434 116.982 20.9712C117.608 21.899 118.024 22.9516 118.203 24.0563C118.382 25.161 118.318 26.2913 118.017 27.369C117.716 28.4468 117.184 29.4463 116.459 30.2983C115.733 31.1503 114.831 31.8346 113.816 32.3037C112.8 32.7729 111.694 33.0157 110.575 33.0154H88.424C87.2461 33.0363 86.0757 32.8224 84.9814 32.3861C83.887 31.9498 82.8905 31.2998 82.0501 30.4742C81.2096 29.6485 80.5421 28.6638 80.0864 27.5773C79.6307 26.4909 79.396 25.3245 79.396 24.1464C79.396 22.9682 79.6307 21.8019 80.0864 20.7155C80.5421 19.629 81.2096 18.6442 82.0501 17.8186C82.8905 16.993 83.887 16.343 84.9814 15.9067C86.0757 15.4704 87.2461 15.2565 88.424 15.2774Z" fill="black"/>
<path d="M89.88 22.7171L91.504 19.9003C91.548 19.8241 91.6113 19.7609 91.6874 19.7169C91.7636 19.6729 91.85 19.6498 91.938 19.6498C92.026 19.6498 92.1124 19.6729 92.1886 19.7169C92.2647 19.7609 92.328 19.8241 92.372 19.9003L93.9988 22.7171C94.0424 22.7932 94.0653 22.8795 94.0651 22.9673C94.065 23.0551 94.0418 23.1412 93.9978 23.2172C93.9539 23.2932 93.8907 23.3563 93.8148 23.4002C93.7388 23.4441 93.6526 23.4673 93.5648 23.4675H92.8256C92.9865 24.6753 93.5393 25.797 94.3991 26.6604C95.259 27.5238 96.3784 28.0812 97.5856 28.2471C97.79 28.2725 97.9779 28.3721 98.1137 28.5269C98.2494 28.6818 98.3236 28.8811 98.322 29.0871C98.3208 29.2066 98.2941 29.3245 98.2437 29.4329C98.1932 29.5413 98.1203 29.6376 98.0296 29.7156C97.939 29.7935 97.8328 29.8512 97.718 29.8847C97.6033 29.9183 97.4828 29.927 97.3644 29.9103C95.7535 29.6927 94.2627 28.9391 93.1325 27.7707C92.0023 26.6024 91.2984 25.0875 91.1344 23.4703H90.2944C90.2079 23.4671 90.1237 23.4415 90.05 23.3961C89.9763 23.3506 89.9156 23.2869 89.8739 23.211C89.8322 23.1352 89.8108 23.0498 89.8119 22.9633C89.8129 22.8767 89.8364 22.7919 89.88 22.7171Z" fill="#FAFAFA"/>
<path d="M98.336 16.4031C98.3348 16.2821 98.3597 16.1624 98.4091 16.052C98.4585 15.9415 98.5311 15.8431 98.622 15.7633C98.7129 15.6836 98.82 15.6244 98.9359 15.5898C99.0518 15.5553 99.1738 15.5461 99.2936 15.5631C100.904 15.7816 102.394 16.5356 103.524 17.7037C104.654 18.8718 105.359 20.3862 105.524 22.0031H106.364C106.452 22.003 106.538 22.0261 106.615 22.0702C106.691 22.1142 106.755 22.1777 106.799 22.2541C106.843 22.3305 106.866 22.4171 106.866 22.5053C106.865 22.5935 106.842 22.6801 106.798 22.7563L105.171 25.5563C105.127 25.6325 105.064 25.6957 104.987 25.7397C104.911 25.7836 104.825 25.8068 104.737 25.8068C104.649 25.8068 104.562 25.7836 104.486 25.7397C104.41 25.6957 104.347 25.6325 104.303 25.5563L102.679 22.7563C102.634 22.6801 102.611 22.5935 102.611 22.5053C102.611 22.4171 102.634 22.3305 102.678 22.2541C102.722 22.1777 102.785 22.1142 102.862 22.0702C102.938 22.0261 103.025 22.003 103.113 22.0031H103.849C103.688 20.7952 103.136 19.6735 102.276 18.8101C101.416 17.9467 100.296 17.3893 99.0892 17.2235C98.8851 17.2023 98.6958 17.1072 98.5571 16.9561C98.4183 16.8049 98.3397 16.6082 98.336 16.4031Z" fill="#FAFAFA"/>
<path d="M70.5572 100.213L72.4668 99.6835L71.4308 95.2035L69.5184 95.7355L70.5572 100.213Z" fill="#FF8B7B"/>
<path d="M47.7204 100.151L49.6804 100.459L50.5456 95.9875H48.5632L47.7204 100.151Z" fill="#FF8B7B"/>
<path d="M49.854 100.255L47.6532 99.9075C47.6145 99.901 47.5746 99.908 47.5405 99.9274C47.5063 99.9468 47.4799 99.9773 47.4656 100.014L46.8048 101.694C46.7863 101.735 46.7778 101.779 46.78 101.824C46.7822 101.869 46.7951 101.912 46.8176 101.951C46.8401 101.989 46.8715 102.022 46.9092 102.046C46.9469 102.07 46.9899 102.085 47.0344 102.089C47.8044 102.195 48.1852 102.209 49.154 102.369C49.7504 102.464 50.3188 102.61 52.948 102.61C53.7628 102.61 53.8888 101.789 53.55 101.714C52.0212 101.38 50.568 100.941 50.1536 100.431C50.0788 100.337 49.9722 100.275 49.854 100.255Z" fill="#263238"/>
<path d="M72.394 99.4651L70.3052 100.045C70.2676 100.056 70.2347 100.079 70.2119 100.111C70.1891 100.143 70.1776 100.182 70.1792 100.221L70.2744 102.024C70.2749 102.068 70.2857 102.111 70.306 102.15C70.3262 102.189 70.3554 102.223 70.3911 102.249C70.4269 102.274 70.4681 102.291 70.5115 102.298C70.555 102.305 70.5994 102.301 70.6412 102.287C71.3916 102.066 72.4668 101.727 73.4132 101.447C74.5192 101.142 75.4908 100.938 76.79 100.577C77.574 100.358 77.5712 99.5071 77.224 99.5239C75.6364 99.6135 74.4072 99.9159 72.8952 99.4763C72.7323 99.4266 72.5589 99.4227 72.394 99.4651Z" fill="#263238"/>
<path d="M71.4308 95.2063L71.9656 97.5135L70.0532 98.0427L69.5184 95.7355L71.4308 95.2063Z" fill="#EA7063"/>
<path d="M48.5632 95.9875H50.5456L50.0864 98.3563H48.0816L48.5632 95.9875Z" fill="#EA7063"/>
<path d="M64.5344 32.9987C64.5344 32.9987 66.8752 38.9879 64.652 50.1403H54.04C53.9672 48.5107 54.992 40.5699 53.4212 32.8979C54.5936 32.6708 55.7796 32.5211 56.9716 32.4499C58.473 32.3616 59.9782 32.3616 61.4796 32.4499C62.5106 32.553 63.532 32.7365 64.5344 32.9987Z" fill="#123454"/>
<path opacity="0.1" d="M64.5344 32.9987C64.5344 32.9987 66.8752 38.9879 64.652 50.1403H54.04C53.9672 48.5107 54.992 40.5699 53.4212 32.8979C54.5936 32.6708 55.7796 32.5211 56.9716 32.4499C58.473 32.3616 59.9782 32.3616 61.4796 32.4499C62.5106 32.553 63.532 32.7365 64.5344 32.9987Z" fill="black"/>
<path d="M70.0924 43.5546C70.0506 43.3974 69.9963 43.2439 69.93 43.0954L69.8348 42.863L69.6472 42.3982L69.2692 41.463L68.5076 39.5646C67.998 38.3046 67.4716 37.0446 66.9256 35.807L64.0332 37.0166C64.5428 38.2934 65.086 39.5366 65.6628 40.7966C65.9428 41.421 66.2424 42.0398 66.5448 42.6614C66.696 42.9722 66.8472 43.283 67.0068 43.591L67.228 44.025L67.1664 44.0474C66.6074 44.2432 66.0292 44.3793 65.4416 44.4534C64.1788 44.6382 62.8236 44.7334 61.502 44.8034L61.3648 46.3518C62.763 46.636 64.1857 46.7823 65.6124 46.7886C66.3904 46.7996 67.167 46.7169 67.9252 46.5422C68.1516 46.485 68.3734 46.411 68.5888 46.321C68.8604 46.2075 69.1149 46.0567 69.3448 45.873C69.6767 45.6062 69.9261 45.2509 70.0644 44.8482C70.198 44.4287 70.2078 43.9795 70.0924 43.5546Z" fill="#FF8B7B"/>
<path d="M62.1796 34.3566C61.5132 36.1318 64.8984 41.3566 64.8984 41.3566L68.8632 39.2034C68.2675 37.5787 67.4996 36.0224 66.5728 34.561C65.17 32.4694 62.9132 32.4078 62.1796 34.3566Z" fill="#123454"/>
<path opacity="0.1" d="M62.1796 34.3566C61.5132 36.1318 64.8984 41.3566 64.8984 41.3566L68.8632 39.2034C68.2675 37.5787 67.4996 36.0224 66.5728 34.561C65.17 32.4694 62.9132 32.4078 62.1796 34.3566Z" fill="black"/>
<path d="M58.254 43.7198L58.0692 45.8058L59.9536 46.055L60.27 43.7674L58.254 43.7198Z" fill="#FF8B7B"/>
<path d="M61.7652 44.9238L60.27 43.7646L59.9536 46.0522C59.9536 46.0522 61.2948 47.021 62.2188 46.1166L61.7652 44.9238Z" fill="#FF8B7B"/>
<path d="M57.4224 27.3707C57.7024 28.8239 57.9824 31.4811 56.9772 32.4499C56.9772 32.4499 57.5596 33.9199 60.256 33.9199C62.72 33.9199 61.4852 32.4499 61.4852 32.4499C59.8668 32.0635 59.9872 30.0139 60.3652 28.5131L57.4224 27.3707Z" fill="#FF8B7B"/>
<path d="M57.68 29.3952L58.6516 28.6896C58.7048 28.838 59.5336 29.3952 59.4076 29.692C58.9848 30.6944 58.2008 31.05 57.6324 30.8736C57.6937 30.3833 57.7096 29.8884 57.68 29.3952Z" fill="#EA7063"/>
<path d="M57.2936 24.327L55.6304 23.207C54.8464 23.8762 54.7092 25.6766 55.706 26.8078C57.6996 26.4354 57.2936 24.327 57.2936 24.327Z" fill="#263238"/>
<path d="M60.8664 25.0046C60.8664 27.085 60.9896 28.303 60.0264 29.437C58.5592 31.1422 55.9384 30.3638 55.3056 28.317C54.7456 26.483 54.8128 23.389 56.7868 22.437C57.2207 22.2263 57.7011 22.1296 58.1827 22.156C58.6644 22.1824 59.1313 22.3311 59.5395 22.588C59.9478 22.845 60.2838 23.2017 60.516 23.6245C60.7481 24.0473 60.8687 24.5223 60.8664 25.0046Z" fill="#FF8B7B"/>
<path d="M61.264 23.7026L59.2788 23.3834C58.8504 24.3186 59.4888 26.0098 60.8692 26.6146C62.524 25.4414 61.264 23.7026 61.264 23.7026Z" fill="#263238"/>
<path d="M57.0332 23.9042C56.1792 23.9966 53.2728 23.9182 54.74 20.9698C54.74 21.3254 55.0732 22.2942 55.9048 21.2498C56.6048 20.3678 58.1616 21.555 58.0048 20.6898C58.0048 20.6898 58.5648 20.9698 58.2848 21.317C58.0048 21.6642 60.1244 20.5918 61.32 21.2834C60.7124 21.345 60.6452 22.185 61.53 22.7506C62.37 23.2882 61.7624 24.6714 60.69 24.411C59.6176 24.1506 59.1612 23.6718 57.0332 23.9042Z" fill="#263238"/>
<path d="M61.8212 26.637C61.7183 27.0836 61.445 27.4724 61.0596 27.7206C60.55 28.0454 60.1328 27.6282 60.1412 27.0514C60.1412 26.5334 60.4212 25.741 60.998 25.6514C61.5748 25.5618 61.9444 26.0882 61.8212 26.637Z" fill="#FF8B7B"/>
<path d="M64.652 50.1403C64.652 50.1403 68.6112 65.9127 69.412 71.9103C70.252 78.1459 72.2596 96.6343 72.2596 96.6343L69.16 97.6283C69.16 97.6283 64.7332 79.4675 63.5432 73.4055C62.2356 66.7947 57.68 50.1403 57.68 50.1403H64.652Z" fill="#123454"/>
<path opacity="0.6" d="M64.652 50.1403C64.652 50.1403 68.6112 65.9127 69.412 71.9103C70.252 78.1459 72.2596 96.6343 72.2596 96.6343L69.16 97.6283C69.16 97.6283 64.7332 79.4675 63.5432 73.4055C62.2356 66.7947 57.68 50.1403 57.68 50.1403H64.652Z" fill="#FAFAFA"/>
<path d="M69.0032 97.8467L72.4808 96.7575L72.4332 95.4667L68.6364 96.7043L69.0032 97.8467Z" fill="#123454"/>
<path opacity="0.2" d="M69.0032 97.8467L72.4808 96.7575L72.4332 95.4667L68.6364 96.7043L69.0032 97.8467Z" fill="black"/>
<path d="M59.892 51.3051L58.968 54.9171C59.8248 58.1427 60.9728 62.5163 61.9416 66.4503C62.0337 61.3269 61.3425 56.2196 59.892 51.3051Z" fill="#123454"/>
<path opacity="0.4" d="M59.892 51.3051L58.968 54.9171C59.8248 58.1427 60.9728 62.5163 61.9416 66.4503C62.0337 61.3269 61.3425 56.2196 59.892 51.3051Z" fill="#FAFAFA"/>
<path d="M60.8916 50.1403C60.8916 50.1403 59.99 66.3495 58.7552 72.0251C57.4 78.2439 50.96 97.897 50.96 97.897H47.32C47.32 97.897 52.0324 78.7451 52.8024 72.5907C53.6424 65.9099 54.0428 50.1403 54.0428 50.1403H60.8916Z" fill="#123454"/>
<path opacity="0.6" d="M60.8916 50.1403C60.8916 50.1403 59.99 66.3495 58.7552 72.0251C57.4 78.2439 50.96 97.897 50.96 97.897H47.32C47.32 97.897 52.0324 78.7451 52.8024 72.5907C53.6424 65.9099 54.0428 50.1403 54.0428 50.1403H60.8916Z" fill="#FAFAFA"/>
<path d="M47.0568 97.953H51.2204L51.6012 96.8358H47.0568V97.953Z" fill="#123454"/>
<path opacity="0.2" d="M47.0568 97.953H51.2204L51.6012 96.8358H47.0568V97.953Z" fill="black"/>
<path d="M48.7872 95.7524C48.7828 95.7517 48.7785 95.7501 48.7747 95.7478C48.7708 95.7454 48.7675 95.7423 48.7649 95.7387C48.7623 95.735 48.7604 95.7309 48.7595 95.7265C48.7585 95.7221 48.7584 95.7176 48.7592 95.7132C48.79 95.5284 53.172 78.3532 53.8636 72.812C54.6168 66.8116 54.852 52.4476 54.8688 52.316C54.8701 52.3073 54.8746 52.2994 54.8812 52.2938C54.8879 52.2881 54.8964 52.2851 54.9052 52.2852C54.9099 52.2855 54.9144 52.2868 54.9186 52.289C54.9227 52.2912 54.9264 52.2942 54.9293 52.2979C54.9322 52.3016 54.9343 52.3059 54.9354 52.3104C54.9366 52.315 54.9368 52.3197 54.936 52.3244C54.9192 52.456 54.684 66.82 53.9308 72.8204C53.2392 78.3504 48.8572 95.5396 48.8264 95.7244C48.8257 95.7288 48.8242 95.7331 48.8218 95.7369C48.8195 95.7407 48.8164 95.744 48.8127 95.7466C48.809 95.7493 48.8049 95.7511 48.8005 95.7521C48.7961 95.7531 48.7916 95.7532 48.7872 95.7524Z" fill="#123454"/>
<path opacity="0.4" d="M48.7872 95.7524C48.7828 95.7517 48.7785 95.7501 48.7747 95.7478C48.7708 95.7454 48.7675 95.7423 48.7649 95.7387C48.7623 95.735 48.7604 95.7309 48.7595 95.7265C48.7585 95.7221 48.7584 95.7176 48.7592 95.7132C48.79 95.5284 53.172 78.3532 53.8636 72.812C54.6168 66.8116 54.852 52.4476 54.8688 52.316C54.8701 52.3073 54.8746 52.2994 54.8812 52.2938C54.8879 52.2881 54.8964 52.2851 54.9052 52.2852C54.9099 52.2855 54.9144 52.2868 54.9186 52.289C54.9227 52.2912 54.9264 52.2942 54.9293 52.2979C54.9322 52.3016 54.9343 52.3059 54.9354 52.3104C54.9366 52.315 54.9368 52.3197 54.936 52.3244C54.9192 52.456 54.684 66.82 53.9308 72.8204C53.2392 78.3504 48.8572 95.5396 48.8264 95.7244C48.8257 95.7288 48.8242 95.7331 48.8218 95.7369C48.8195 95.7407 48.8164 95.744 48.8127 95.7466C48.809 95.7493 48.8049 95.7511 48.8005 95.7521C48.7961 95.7531 48.7916 95.7532 48.7872 95.7524Z" fill="#FAFAFA"/>
<path d="M57.7612 25.8054C57.7612 25.9734 57.6912 26.1162 57.582 26.1246C57.4728 26.133 57.372 26.0014 57.3608 25.8306C57.3496 25.6598 57.4308 25.5198 57.54 25.5142C57.6492 25.5086 57.75 25.6374 57.7612 25.8054Z" fill="#263238"/>
<path d="M55.8544 25.9314C55.8544 26.1022 55.7844 26.245 55.6752 26.2506C55.566 26.2562 55.4652 26.1274 55.454 25.9706C55.4428 25.8138 55.524 25.6598 55.6332 25.6514C55.7424 25.643 55.8432 25.7634 55.8544 25.9314Z" fill="#263238"/>
<path d="M56.4648 25.9763C56.2978 26.5055 56.0594 27.0095 55.7564 27.4743C55.8771 27.5486 56.0125 27.5957 56.1533 27.6121C56.294 27.6286 56.4367 27.614 56.5712 27.5695L56.4648 25.9763Z" fill="#FF5652"/>
<path d="M57.0948 28.0035C57.0819 28.0043 57.0691 28.0001 57.0592 27.9917C57.0493 27.9834 57.043 27.9716 57.0416 27.9587C57.0408 27.952 57.0415 27.9452 57.0435 27.9387C57.0455 27.9323 57.0489 27.9264 57.0534 27.9213C57.0579 27.9163 57.0634 27.9123 57.0696 27.9096C57.0758 27.9068 57.0825 27.9054 57.0892 27.9055C57.2992 27.896 57.5041 27.837 57.687 27.7333C57.87 27.6297 58.0259 27.4843 58.142 27.3091C58.1485 27.2977 58.1591 27.2894 58.1716 27.2857C58.1842 27.2821 58.1976 27.2834 58.2092 27.2895C58.2151 27.2924 58.2203 27.2965 58.2245 27.3016C58.2288 27.3066 58.2319 27.3125 58.2337 27.3188C58.2356 27.3251 58.2361 27.3317 58.2352 27.3382C58.2344 27.3448 58.2322 27.351 58.2288 27.3567C58.1055 27.5475 57.9381 27.7059 57.7407 27.8185C57.5434 27.931 57.3218 27.9945 57.0948 28.0035Z" fill="#263238"/>
<path d="M58.2932 25.1531C58.2779 25.153 58.2627 25.1498 58.2487 25.1435C58.2347 25.1372 58.2222 25.1281 58.212 25.1167C58.1321 25.0223 58.0312 24.9478 57.9175 24.8992C57.8038 24.8506 57.6803 24.8292 57.5568 24.8367C57.5439 24.8391 57.5306 24.8387 57.5178 24.8357C57.505 24.8327 57.4929 24.8271 57.4824 24.8192C57.4719 24.8113 57.4631 24.8013 57.4566 24.7899C57.4501 24.7784 57.4461 24.7658 57.4448 24.7527C57.4416 24.7268 57.4485 24.7006 57.4642 24.6797C57.4798 24.6588 57.503 24.6448 57.5288 24.6407C57.6871 24.6281 57.846 24.6539 57.9923 24.7158C58.1385 24.7777 58.2676 24.8739 58.3688 24.9963C58.3781 25.0054 58.3855 25.0163 58.3906 25.0283C58.3956 25.0403 58.3982 25.0532 58.3982 25.0663C58.3982 25.0793 58.3956 25.0922 58.3906 25.1042C58.3855 25.1163 58.3781 25.1271 58.3688 25.1363C58.3464 25.1507 58.3196 25.1566 58.2932 25.1531Z" fill="#263238"/>
<path d="M54.9528 25.3126C54.938 25.3156 54.9228 25.3156 54.908 25.3126C54.8843 25.3006 54.8664 25.2798 54.858 25.2546C54.8496 25.2295 54.8515 25.202 54.8632 25.1782C54.9286 25.035 55.0272 24.9094 55.1509 24.812C55.2746 24.7146 55.4198 24.6482 55.5744 24.6182C55.5873 24.6166 55.6003 24.6175 55.6129 24.6209C55.6254 24.6243 55.6371 24.6301 55.6474 24.638C55.6576 24.646 55.6663 24.6558 55.6727 24.6671C55.6792 24.6784 55.6833 24.6908 55.685 24.7036C55.6866 24.7165 55.6858 24.7296 55.6824 24.7421C55.679 24.7546 55.6731 24.7664 55.6652 24.7766C55.6573 24.7869 55.6474 24.7955 55.6361 24.802C55.6249 24.8084 55.6125 24.8126 55.5996 24.8142C55.4775 24.8403 55.3632 24.8947 55.266 24.973C55.1687 25.0513 55.0912 25.1513 55.0396 25.265C55.0309 25.2802 55.0182 25.2926 55.0029 25.301C54.9876 25.3094 54.9702 25.3134 54.9528 25.3126Z" fill="#263238"/>
<path d="M54.4768 36.1712C53.9392 37.6636 53.3848 39.1616 52.8276 40.6512C52.2704 42.1408 51.7076 43.6388 51.212 45.0724C50.7752 46.45 50.456 48.0208 50.1368 49.5524C49.8176 51.084 49.4984 52.6716 49.1652 54.2284L47.6168 54.0772C47.6168 52.4532 47.6616 50.8432 47.7848 49.222C47.852 48.4156 47.9192 47.6036 48.0284 46.786C48.1285 45.9437 48.2771 45.1079 48.4736 44.2828C48.6808 43.4568 48.9104 42.6812 49.1512 41.9056C49.392 41.13 49.6384 40.3628 49.896 39.5984C50.4112 38.0696 50.9544 36.5632 51.5396 35.0596L54.4768 36.1712Z" fill="#FF8B7B"/>
<path d="M53.4268 32.8979C51.5508 33.1779 49.4004 39.6711 49.4004 39.6711L53.3428 41.9111C53.3428 41.9111 55.076 38.8311 55.9328 36.5239C56.84 34.1019 55.44 32.6039 53.4268 32.8979Z" fill="#123454"/>
<path opacity="0.1" d="M53.4268 32.8979C51.5508 33.1779 49.4004 39.6711 49.4004 39.6711L53.3428 41.9111C53.3428 41.9111 55.076 38.8311 55.9328 36.5239C56.84 34.1019 55.44 32.6039 53.4268 32.8979Z" fill="black"/>
<path d="M50.4476 100.7C50.5793 100.731 50.7175 100.716 50.8396 100.658C50.8798 100.634 50.9134 100.601 50.9374 100.561C50.9614 100.52 50.9749 100.475 50.9768 100.428C50.9807 100.401 50.9774 100.374 50.967 100.349C50.9567 100.324 50.9397 100.302 50.918 100.286C50.7192 100.14 50.0248 100.428 49.9464 100.462C49.9385 100.466 49.9317 100.472 49.9268 100.479C49.9219 100.487 49.919 100.495 49.9184 100.504C49.9185 100.513 49.9211 100.522 49.9261 100.53C49.931 100.538 49.9381 100.545 49.9464 100.549C50.1074 100.618 50.2755 100.668 50.4476 100.7ZM50.8032 100.339C50.8242 100.342 50.8443 100.349 50.862 100.361C50.862 100.361 50.8844 100.384 50.8816 100.42C50.8813 100.452 50.8729 100.483 50.8572 100.511C50.8416 100.539 50.8191 100.563 50.792 100.58C50.5576 100.645 50.3071 100.618 50.092 100.504C50.3164 100.404 50.5578 100.348 50.8032 100.339Z" fill="#123454"/>
<path d="M49.9576 100.551H49.98C50.2012 100.473 50.6604 100.106 50.652 99.8822C50.6511 99.8467 50.6377 99.8126 50.6141 99.786C50.5905 99.7594 50.5584 99.7419 50.5232 99.7366C50.4891 99.7266 50.4532 99.7239 50.418 99.7288C50.3828 99.7336 50.349 99.7458 50.3188 99.7646C50.0612 99.9158 49.924 100.473 49.9184 100.495C49.9171 100.504 49.9177 100.513 49.9201 100.521C49.9225 100.529 49.9267 100.537 49.9324 100.543L49.9576 100.551ZM50.4784 99.8206H50.498C50.5568 99.8374 50.5596 99.8682 50.5596 99.8794C50.5596 100.011 50.2628 100.297 50.036 100.417C50.0865 100.196 50.2015 99.9955 50.3664 99.8402C50.3829 99.8298 50.4012 99.8227 50.4204 99.8193C50.4397 99.8159 50.4594 99.8164 50.4784 99.8206Z" fill="#123454"/>
<path d="M73.2816 99.5771C73.4488 99.547 73.6008 99.4611 73.7128 99.3335C73.7364 99.2974 73.7508 99.2561 73.7548 99.2131C73.7587 99.1701 73.7519 99.1268 73.7352 99.0871C73.7273 99.063 73.7134 99.0414 73.6947 99.0242C73.6761 99.0071 73.6534 98.995 73.6288 98.9891C73.3488 98.9219 72.6992 99.5267 72.6264 99.5939C72.6207 99.6016 72.6176 99.6109 72.6176 99.6205C72.6176 99.6301 72.6207 99.6394 72.6264 99.6471C72.6295 99.6564 72.6355 99.6645 72.6436 99.6701C72.6517 99.6756 72.6614 99.6784 72.6712 99.6779C72.8772 99.6623 73.0815 99.6285 73.2816 99.5771ZM73.5168 99.0871C73.5461 99.0791 73.5771 99.0791 73.6064 99.0871C73.6164 99.09 73.6254 99.0953 73.6328 99.1027C73.6401 99.11 73.6455 99.1191 73.6484 99.1291C73.6609 99.1538 73.6675 99.1812 73.6675 99.2089C73.6675 99.2366 73.6609 99.264 73.6484 99.2887C73.5588 99.4259 73.248 99.5323 72.8084 99.5687C73.016 99.3698 73.2555 99.207 73.5168 99.0871Z" fill="#123454"/>
<path d="M72.6684 99.6751H72.688C72.8896 99.5071 73.2312 98.9667 73.136 98.7595C73.1136 98.7119 73.0604 98.6587 72.9344 98.6811C72.888 98.6877 72.8435 98.704 72.8039 98.7292C72.7643 98.7543 72.7306 98.7875 72.7048 98.8267C72.5877 99.0834 72.5544 99.3704 72.6096 99.6471C72.6151 99.6625 72.626 99.6755 72.6404 99.6835L72.6684 99.6751ZM72.9204 98.7707H72.9484C73.0324 98.7567 73.0464 98.7875 73.052 98.7959C73.108 98.9219 72.8868 99.3307 72.6908 99.5379C72.6522 99.3145 72.6835 99.0847 72.7804 98.8799C72.8125 98.8279 72.8622 98.7891 72.9204 98.7707Z" fill="#123454"/>
<path d="M49.2296 54.0043L48.8488 55.5247L47.152 54.4971C47.152 54.4971 47.3984 52.8619 48.692 52.8339L49.2296 54.0043Z" fill="#FF8B7B"/>
<path d="M47.5384 56.2527L46.2784 55.5163L47.152 54.5083L48.8488 55.5331L47.5384 56.2527Z" fill="#FF8B7B"/>
<path d="M75.53 46.9259C75.4186 46.9259 75.3118 46.8816 75.233 46.8029C75.1543 46.7241 75.11 46.6173 75.11 46.5059V44.8259C75.11 44.7145 75.1543 44.6077 75.233 44.5289C75.3118 44.4501 75.4186 44.4059 75.53 44.4059C75.6414 44.4059 75.7482 44.4501 75.827 44.5289C75.9058 44.6077 75.95 44.7145 75.95 44.8259V46.5059C75.95 46.6173 75.9058 46.7241 75.827 46.8029C75.7482 46.8816 75.6414 46.9259 75.53 46.9259Z" fill="#123454"/>
<path d="M75.53 41.3454C75.4186 41.3454 75.3118 41.3012 75.233 41.2224C75.1543 41.1436 75.11 41.0368 75.11 40.9254V37.5822C75.11 37.4708 75.1543 37.364 75.233 37.2852C75.3118 37.2065 75.4186 37.1622 75.53 37.1622C75.6414 37.1622 75.7482 37.2065 75.827 37.2852C75.9058 37.364 75.95 37.4708 75.95 37.5822V40.9254C75.95 40.9806 75.9392 41.0352 75.918 41.0861C75.8969 41.1371 75.866 41.1834 75.827 41.2224C75.788 41.2614 75.7417 41.2923 75.6907 41.3134C75.6398 41.3345 75.5852 41.3454 75.53 41.3454ZM75.53 34.099C75.4186 34.099 75.3118 34.0548 75.233 33.976C75.1543 33.8972 75.11 33.7904 75.11 33.679V30.3246C75.11 30.2132 75.1543 30.1064 75.233 30.0276C75.3118 29.9489 75.4186 29.9046 75.53 29.9046C75.6414 29.9046 75.7482 29.9489 75.827 30.0276C75.9058 30.1064 75.95 30.2132 75.95 30.3246V33.6846C75.9485 33.795 75.9036 33.9004 75.825 33.978C75.7464 34.0555 75.6404 34.099 75.53 34.099ZM41.538 33.2338C41.4266 33.2338 41.3198 33.1896 41.241 33.1108C41.1623 33.032 41.118 32.9252 41.118 32.8138V29.4678C41.118 29.3564 41.1623 29.2496 41.241 29.1708C41.3198 29.0921 41.4266 29.0478 41.538 29.0478C41.6494 29.0478 41.7562 29.0921 41.835 29.1708C41.9138 29.2496 41.958 29.3564 41.958 29.4678V32.8138C41.958 32.9252 41.9138 33.032 41.835 33.1108C41.7562 33.1896 41.6494 33.2338 41.538 33.2338ZM75.53 26.8526C75.4186 26.8526 75.3118 26.8084 75.233 26.7296C75.1543 26.6508 75.11 26.544 75.11 26.4326V23.0894C75.11 22.978 75.1543 22.8712 75.233 22.7924C75.3118 22.7137 75.4186 22.6694 75.53 22.6694C75.6414 22.6694 75.7482 22.7137 75.827 22.7924C75.9058 22.8712 75.95 22.978 75.95 23.0894V26.4326C75.95 26.544 75.9058 26.6508 75.827 26.7296C75.7482 26.8084 75.6414 26.8526 75.53 26.8526ZM41.538 25.9874C41.4266 25.9874 41.3198 25.9432 41.241 25.8644C41.1623 25.7856 41.118 25.6788 41.118 25.5674V22.2214C41.118 22.11 41.1623 22.0032 41.241 21.9244C41.3198 21.8457 41.4266 21.8014 41.538 21.8014C41.6494 21.8014 41.7562 21.8457 41.835 21.9244C41.9138 22.0032 41.958 22.11 41.958 22.2214V25.5646C41.9584 25.62 41.9478 25.6749 41.9268 25.7262C41.9059 25.7775 41.875 25.8241 41.836 25.8634C41.797 25.9027 41.7505 25.9339 41.6994 25.9552C41.6482 25.9765 41.5934 25.9874 41.538 25.9874ZM75.292 19.6202C75.193 19.6202 75.0973 19.585 75.0219 19.5208C74.9465 19.4567 74.8964 19.3679 74.8804 19.2702C74.6977 18.1976 74.4108 17.1454 74.0236 16.1286C73.9891 16.0258 73.9957 15.9137 74.0419 15.8157C74.0882 15.7176 74.1706 15.6412 74.2718 15.6026C74.3731 15.5639 74.4854 15.5658 74.5853 15.608C74.6851 15.6502 74.7648 15.7294 74.8076 15.829C75.2152 16.8952 75.5163 17.9991 75.7064 19.1246C75.7251 19.2341 75.6997 19.3466 75.6356 19.4373C75.5716 19.5281 75.4742 19.5899 75.3648 19.609L75.292 19.6202ZM41.944 18.7802C41.9133 18.7829 41.8823 18.7829 41.8516 18.7802C41.7977 18.7683 41.7467 18.7458 41.7015 18.7142C41.6563 18.6825 41.6178 18.6423 41.5881 18.5958C41.5585 18.5492 41.5383 18.4973 41.5288 18.4429C41.5192 18.3886 41.5204 18.3329 41.5324 18.279C41.7804 17.1627 42.1387 16.0737 42.602 15.0282C42.6238 14.9766 42.6558 14.93 42.6961 14.8912C42.7364 14.8523 42.7842 14.822 42.8365 14.8021C42.8889 14.7822 42.9447 14.7732 43.0006 14.7754C43.0566 14.7777 43.1115 14.7913 43.162 14.8154C43.2133 14.8376 43.2597 14.8697 43.2984 14.91C43.3371 14.9503 43.3674 14.998 43.3875 15.0501C43.4076 15.1023 43.417 15.1579 43.4153 15.2138C43.4136 15.2696 43.4008 15.3246 43.3776 15.3754C42.9381 16.3661 42.5977 17.3978 42.3612 18.4554C42.3373 18.5473 42.2832 18.6286 42.2075 18.686C42.1318 18.7434 42.039 18.7736 41.944 18.7718V18.7802ZM72.6152 12.9562C72.5466 12.9563 72.479 12.9395 72.4185 12.9073C72.3579 12.8751 72.3062 12.8284 72.268 12.7714C71.6587 11.8697 70.9608 11.0312 70.1848 10.2682C70.1054 10.1899 70.0603 10.0832 70.0595 9.97158C70.0587 9.85999 70.1023 9.75267 70.1806 9.67321C70.259 9.59375 70.3657 9.54867 70.4772 9.54788C70.5888 9.54709 70.6962 9.59066 70.7756 9.66901C71.5886 10.473 72.321 11.3545 72.9624 12.301C72.9936 12.3465 73.0154 12.3977 73.0267 12.4517C73.0379 12.5057 73.0383 12.5614 73.0279 12.6156C73.0175 12.6697 72.9965 12.7213 72.966 12.7673C72.9355 12.8132 72.8962 12.8527 72.8504 12.8834C72.7805 12.9286 72.6984 12.9511 72.6152 12.9478V12.9562ZM44.9568 12.2534C44.8788 12.2534 44.8024 12.2317 44.736 12.1907C44.6697 12.1497 44.616 12.091 44.5811 12.0212C44.5463 11.9515 44.5315 11.8734 44.5385 11.7957C44.5455 11.718 44.574 11.6438 44.6208 11.5814C45.3092 10.6675 46.0858 9.82348 46.9392 9.06141C46.9796 9.02101 47.0277 8.98927 47.0808 8.96811C47.1338 8.94696 47.1906 8.93684 47.2477 8.93837C47.3047 8.93991 47.3609 8.95306 47.4127 8.97703C47.4645 9.00101 47.5109 9.03529 47.549 9.0778C47.5872 9.12031 47.6162 9.17014 47.6344 9.22425C47.6526 9.27836 47.6596 9.33562 47.655 9.39253C47.6503 9.44943 47.6341 9.50479 47.6073 9.55521C47.5805 9.60564 47.5437 9.65008 47.4992 9.68581C46.6874 10.411 45.9484 11.2137 45.2928 12.0826C45.253 12.1336 45.202 12.1747 45.1437 12.2029C45.0854 12.231 45.0215 12.2455 44.9568 12.245V12.2534ZM67.4184 7.98621C67.3413 7.9867 67.2655 7.96534 67.2 7.92461C66.2733 7.35385 65.2922 6.87645 64.2712 6.49941C64.2139 6.48572 64.16 6.46011 64.1132 6.42425C64.0664 6.38839 64.0277 6.34307 63.9996 6.29125C63.9714 6.23943 63.9545 6.18227 63.95 6.12349C63.9454 6.0647 63.9532 6.00561 63.973 5.95006C63.9928 5.89451 64.024 5.84375 64.0647 5.80107C64.1054 5.7584 64.1546 5.72476 64.2091 5.70237C64.2637 5.67997 64.3223 5.6693 64.3813 5.67107C64.4402 5.67283 64.4981 5.68699 64.5512 5.71261C65.6246 6.1083 66.6563 6.60914 67.6312 7.20781C67.7095 7.25565 67.77 7.32781 67.8034 7.41326C67.8368 7.49871 67.8413 7.59276 67.8163 7.68102C67.7912 7.76928 67.7379 7.8469 67.6645 7.90201C67.5912 7.95713 67.5018 7.9867 67.41 7.98621H67.4184ZM50.4 7.54381C50.3063 7.54428 50.2152 7.51343 50.1411 7.45616C50.067 7.39888 50.0141 7.31847 49.9909 7.22772C49.9678 7.13696 49.9756 7.04106 50.0132 6.95526C50.0508 6.86946 50.116 6.7987 50.1984 6.75421C51.202 6.20668 52.2571 5.75933 53.3484 5.41861C53.4525 5.39252 53.5626 5.40726 53.6562 5.45982C53.7498 5.51237 53.8197 5.59874 53.8516 5.70121C53.8834 5.80368 53.8749 5.91446 53.8277 6.01083C53.7804 6.10719 53.6981 6.18183 53.5976 6.21941C52.5597 6.54398 51.5562 6.96975 50.6016 7.49061C50.5401 7.52547 50.4707 7.5438 50.4 7.54381ZM60.634 5.60061H60.5836C59.5033 5.46856 58.4128 5.44137 57.3272 5.51941C57.2158 5.52758 57.1057 5.49116 57.0212 5.41817C56.9367 5.34518 56.8846 5.2416 56.8764 5.13021C56.8682 5.01882 56.9047 4.90875 56.9776 4.8242C57.0506 4.73966 57.1542 4.68758 57.2656 4.67941C58.4053 4.59803 59.5501 4.62616 60.6844 4.76341C60.7958 4.77009 60.9 4.82075 60.974 4.90424C61.0481 4.98774 61.0859 5.09722 61.0792 5.20861C61.0725 5.32 61.0219 5.42417 60.9384 5.49821C60.8549 5.57225 60.7454 5.61009 60.634 5.60341V5.60061Z" fill="#123454"/>
<path d="M41.538 38.8479C41.4266 38.8479 41.3198 38.8036 41.241 38.7249C41.1623 38.6461 41.118 38.5393 41.118 38.4279V36.7479C41.118 36.6365 41.1623 36.5297 41.241 36.4509C41.3198 36.3721 41.4266 36.3279 41.538 36.3279C41.6494 36.3279 41.7562 36.3721 41.835 36.4509C41.9138 36.5297 41.958 36.6365 41.958 36.7479V38.4279C41.958 38.5393 41.9138 38.6461 41.835 38.7249C41.7562 38.8036 41.6494 38.8479 41.538 38.8479Z" fill="#123454"/>
<g opacity="0.6">
<path d="M75.53 46.9259C75.4186 46.9259 75.3118 46.8816 75.233 46.8029C75.1543 46.7241 75.11 46.6173 75.11 46.5059V44.8259C75.11 44.7145 75.1543 44.6077 75.233 44.5289C75.3118 44.4501 75.4186 44.4059 75.53 44.4059C75.6414 44.4059 75.7482 44.4501 75.827 44.5289C75.9058 44.6077 75.95 44.7145 75.95 44.8259V46.5059C75.95 46.6173 75.9058 46.7241 75.827 46.8029C75.7482 46.8816 75.6414 46.9259 75.53 46.9259Z" fill="#FAFAFA"/>
<path d="M75.53 41.3454C75.4186 41.3454 75.3118 41.3012 75.233 41.2224C75.1543 41.1436 75.11 41.0368 75.11 40.9254V37.5822C75.11 37.4708 75.1543 37.364 75.233 37.2852C75.3118 37.2065 75.4186 37.1622 75.53 37.1622C75.6414 37.1622 75.7482 37.2065 75.827 37.2852C75.9058 37.364 75.95 37.4708 75.95 37.5822V40.9254C75.95 40.9806 75.9392 41.0352 75.918 41.0861C75.8969 41.1371 75.866 41.1834 75.827 41.2224C75.788 41.2614 75.7417 41.2923 75.6907 41.3134C75.6398 41.3345 75.5852 41.3454 75.53 41.3454ZM75.53 34.099C75.4186 34.099 75.3118 34.0548 75.233 33.976C75.1543 33.8972 75.11 33.7904 75.11 33.679V30.3246C75.11 30.2132 75.1543 30.1064 75.233 30.0276C75.3118 29.9489 75.4186 29.9046 75.53 29.9046C75.6414 29.9046 75.7482 29.9489 75.827 30.0276C75.9058 30.1064 75.95 30.2132 75.95 30.3246V33.6846C75.9485 33.795 75.9036 33.9004 75.825 33.978C75.7464 34.0555 75.6404 34.099 75.53 34.099ZM41.538 33.2338C41.4266 33.2338 41.3198 33.1896 41.241 33.1108C41.1623 33.032 41.118 32.9252 41.118 32.8138V29.4678C41.118 29.3564 41.1623 29.2496 41.241 29.1708C41.3198 29.0921 41.4266 29.0478 41.538 29.0478C41.6494 29.0478 41.7562 29.0921 41.835 29.1708C41.9138 29.2496 41.958 29.3564 41.958 29.4678V32.8138C41.958 32.9252 41.9138 33.032 41.835 33.1108C41.7562 33.1896 41.6494 33.2338 41.538 33.2338ZM75.53 26.8526C75.4186 26.8526 75.3118 26.8084 75.233 26.7296C75.1543 26.6508 75.11 26.544 75.11 26.4326V23.0894C75.11 22.978 75.1543 22.8712 75.233 22.7924C75.3118 22.7137 75.4186 22.6694 75.53 22.6694C75.6414 22.6694 75.7482 22.7137 75.827 22.7924C75.9058 22.8712 75.95 22.978 75.95 23.0894V26.4326C75.95 26.544 75.9058 26.6508 75.827 26.7296C75.7482 26.8084 75.6414 26.8526 75.53 26.8526ZM41.538 25.9874C41.4266 25.9874 41.3198 25.9432 41.241 25.8644C41.1623 25.7856 41.118 25.6788 41.118 25.5674V22.2214C41.118 22.11 41.1623 22.0032 41.241 21.9244C41.3198 21.8457 41.4266 21.8014 41.538 21.8014C41.6494 21.8014 41.7562 21.8457 41.835 21.9244C41.9138 22.0032 41.958 22.11 41.958 22.2214V25.5646C41.9584 25.62 41.9478 25.6749 41.9268 25.7262C41.9059 25.7775 41.875 25.8241 41.836 25.8634C41.797 25.9027 41.7505 25.9339 41.6994 25.9552C41.6482 25.9765 41.5934 25.9874 41.538 25.9874ZM75.292 19.6202C75.193 19.6202 75.0973 19.585 75.0219 19.5208C74.9465 19.4567 74.8964 19.3679 74.8804 19.2702C74.6977 18.1976 74.4108 17.1454 74.0236 16.1286C73.9891 16.0258 73.9957 15.9137 74.0419 15.8157C74.0882 15.7176 74.1706 15.6412 74.2718 15.6026C74.3731 15.5639 74.4854 15.5658 74.5853 15.608C74.6851 15.6502 74.7648 15.7294 74.8076 15.829C75.2152 16.8952 75.5163 17.9991 75.7064 19.1246C75.7251 19.2341 75.6997 19.3466 75.6356 19.4373C75.5716 19.5281 75.4742 19.5899 75.3648 19.609L75.292 19.6202ZM41.944 18.7802C41.9133 18.7829 41.8823 18.7829 41.8516 18.7802C41.7977 18.7683 41.7467 18.7458 41.7015 18.7142C41.6563 18.6825 41.6178 18.6423 41.5881 18.5958C41.5585 18.5492 41.5383 18.4973 41.5288 18.4429C41.5192 18.3886 41.5204 18.3329 41.5324 18.279C41.7804 17.1627 42.1387 16.0737 42.602 15.0282C42.6238 14.9766 42.6558 14.93 42.6961 14.8912C42.7364 14.8523 42.7842 14.822 42.8365 14.8021C42.8889 14.7822 42.9447 14.7732 43.0006 14.7754C43.0566 14.7777 43.1115 14.7913 43.162 14.8154C43.2133 14.8376 43.2597 14.8697 43.2984 14.91C43.3371 14.9503 43.3674 14.998 43.3875 15.0501C43.4076 15.1023 43.417 15.1579 43.4153 15.2138C43.4136 15.2696 43.4008 15.3246 43.3776 15.3754C42.9381 16.3661 42.5977 17.3978 42.3612 18.4554C42.3373 18.5473 42.2832 18.6286 42.2075 18.686C42.1318 18.7434 42.039 18.7736 41.944 18.7718V18.7802ZM72.6152 12.9562C72.5466 12.9563 72.479 12.9395 72.4185 12.9073C72.3579 12.8751 72.3062 12.8284 72.268 12.7714C71.6587 11.8697 70.9608 11.0312 70.1848 10.2682C70.1054 10.1899 70.0603 10.0832 70.0595 9.97158C70.0587 9.85999 70.1023 9.75267 70.1806 9.67321C70.259 9.59375 70.3657 9.54867 70.4772 9.54788C70.5888 9.54709 70.6962 9.59066 70.7756 9.66901C71.5886 10.473 72.321 11.3545 72.9624 12.301C72.9936 12.3465 73.0154 12.3977 73.0267 12.4517C73.0379 12.5057 73.0383 12.5614 73.0279 12.6156C73.0175 12.6697 72.9965 12.7213 72.966 12.7673C72.9355 12.8132 72.8962 12.8527 72.8504 12.8834C72.7805 12.9286 72.6984 12.9511 72.6152 12.9478V12.9562ZM44.9568 12.2534C44.8788 12.2534 44.8024 12.2317 44.736 12.1907C44.6697 12.1497 44.616 12.091 44.5811 12.0212C44.5463 11.9515 44.5315 11.8734 44.5385 11.7957C44.5455 11.718 44.574 11.6438 44.6208 11.5814C45.3092 10.6675 46.0858 9.82348 46.9392 9.06141C46.9796 9.02101 47.0277 8.98927 47.0808 8.96811C47.1338 8.94696 47.1906 8.93684 47.2477 8.93837C47.3047 8.93991 47.3609 8.95306 47.4127 8.97703C47.4645 9.00101 47.5109 9.03529 47.549 9.0778C47.5872 9.12031 47.6162 9.17014 47.6344 9.22425C47.6526 9.27836 47.6596 9.33562 47.655 9.39253C47.6503 9.44943 47.6341 9.50479 47.6073 9.55521C47.5805 9.60564 47.5437 9.65008 47.4992 9.68581C46.6874 10.411 45.9484 11.2137 45.2928 12.0826C45.253 12.1336 45.202 12.1747 45.1437 12.2029C45.0854 12.231 45.0215 12.2455 44.9568 12.245V12.2534ZM67.4184 7.98621C67.3413 7.9867 67.2655 7.96534 67.2 7.92461C66.2733 7.35385 65.2922 6.87645 64.2712 6.49941C64.2139 6.48572 64.16 6.46011 64.1132 6.42425C64.0664 6.38839 64.0277 6.34307 63.9996 6.29125C63.9714 6.23943 63.9545 6.18227 63.95 6.12349C63.9454 6.0647 63.9532 6.00561 63.973 5.95006C63.9928 5.89451 64.024 5.84375 64.0647 5.80107C64.1054 5.7584 64.1546 5.72476 64.2091 5.70237C64.2637 5.67997 64.3223 5.6693 64.3813 5.67107C64.4402 5.67283 64.4981 5.68699 64.5512 5.71261C65.6246 6.1083 66.6563 6.60914 67.6312 7.20781C67.7095 7.25565 67.77 7.32781 67.8034 7.41326C67.8368 7.49871 67.8413 7.59276 67.8163 7.68102C67.7912 7.76928 67.7379 7.8469 67.6645 7.90201C67.5912 7.95713 67.5018 7.9867 67.41 7.98621H67.4184ZM50.4 7.54381C50.3063 7.54428 50.2152 7.51343 50.1411 7.45616C50.067 7.39888 50.0141 7.31847 49.9909 7.22772C49.9678 7.13696 49.9756 7.04106 50.0132 6.95526C50.0508 6.86946 50.116 6.7987 50.1984 6.75421C51.202 6.20668 52.2571 5.75933 53.3484 5.41861C53.4525 5.39252 53.5626 5.40726 53.6562 5.45982C53.7498 5.51237 53.8197 5.59874 53.8516 5.70121C53.8834 5.80368 53.8749 5.91446 53.8277 6.01083C53.7804 6.10719 53.6981 6.18183 53.5976 6.21941C52.5597 6.54398 51.5562 6.96975 50.6016 7.49061C50.5401 7.52547 50.4707 7.5438 50.4 7.54381ZM60.634 5.60061H60.5836C59.5033 5.46856 58.4128 5.44137 57.3272 5.51941C57.2158 5.52758 57.1057 5.49116 57.0212 5.41817C56.9367 5.34518 56.8846 5.2416 56.8764 5.13021C56.8682 5.01882 56.9047 4.90875 56.9776 4.8242C57.0506 4.73966 57.1542 4.68758 57.2656 4.67941C58.4053 4.59803 59.5501 4.62616 60.6844 4.76341C60.7958 4.77009 60.9 4.82075 60.974 4.90424C61.0481 4.98774 61.0859 5.09722 61.0792 5.20861C61.0725 5.32 61.0219 5.42417 60.9384 5.49821C60.8549 5.57225 60.7454 5.61009 60.634 5.60341V5.60061Z" fill="#FAFAFA"/>
<path d="M41.538 38.8479C41.4266 38.8479 41.3198 38.8036 41.241 38.7249C41.1623 38.6461 41.118 38.5393 41.118 38.4279V36.7479C41.118 36.6365 41.1623 36.5297 41.241 36.4509C41.3198 36.3721 41.4266 36.3279 41.538 36.3279C41.6494 36.3279 41.7562 36.3721 41.835 36.4509C41.9138 36.5297 41.958 36.6365 41.958 36.7479V38.4279C41.958 38.5393 41.9138 38.6461 41.835 38.7249C41.7562 38.8036 41.6494 38.8479 41.538 38.8479Z" fill="#FAFAFA"/>
</g>
<path d="M87.2284 72.3666C84.0158 72.3622 80.936 71.084 78.6643 68.8123C76.3926 66.5406 75.1145 63.4609 75.11 60.2482V49.6446C75.11 49.5332 75.1543 49.4264 75.233 49.3476C75.3118 49.2689 75.4186 49.2246 75.53 49.2246C75.6414 49.2246 75.7482 49.2689 75.827 49.3476C75.9058 49.4264 75.95 49.5332 75.95 49.6446V60.2482C75.95 63.2394 77.1383 66.1081 79.2534 68.2233C81.3685 70.3384 84.2372 71.5266 87.2284 71.5266C90.2196 71.5266 93.0883 70.3384 95.2035 68.2233C97.3186 66.1081 98.5068 63.2394 98.5068 60.2482V31.0302C98.5068 30.9188 98.5511 30.812 98.6298 30.7332C98.7086 30.6545 98.8154 30.6102 98.9268 30.6102C99.0382 30.6102 99.145 30.6545 99.2238 30.7332C99.3026 30.812 99.3468 30.9188 99.3468 31.0302V60.2482C99.3424 63.4609 98.0642 66.5406 95.7925 68.8123C93.5208 71.084 90.4411 72.3622 87.2284 72.3666Z" fill="#123454"/>
<path opacity="0.3" d="M87.2284 72.3666C84.0158 72.3622 80.936 71.084 78.6643 68.8123C76.3926 66.5406 75.1145 63.4609 75.11 60.2482V49.6446C75.11 49.5332 75.1543 49.4264 75.233 49.3476C75.3118 49.2689 75.4186 49.2246 75.53 49.2246C75.6414 49.2246 75.7482 49.2689 75.827 49.3476C75.9058 49.4264 75.95 49.5332 75.95 49.6446V60.2482C75.95 63.2394 77.1383 66.1081 79.2534 68.2233C81.3685 70.3384 84.2372 71.5266 87.2284 71.5266C90.2196 71.5266 93.0883 70.3384 95.2035 68.2233C97.3186 66.1081 98.5068 63.2394 98.5068 60.2482V31.0302C98.5068 30.9188 98.5511 30.812 98.6298 30.7332C98.7086 30.6545 98.8154 30.6102 98.9268 30.6102C99.0382 30.6102 99.145 30.6545 99.2238 30.7332C99.3026 30.812 99.3468 30.9188 99.3468 31.0302V60.2482C99.3424 63.4609 98.0642 66.5406 95.7925 68.8123C93.5208 71.084 90.4411 72.3622 87.2284 72.3666Z" fill="black"/>
<path d="M33.4544 102.845H54.1296C54.5258 102.849 54.9185 102.77 55.2827 102.614C55.6468 102.458 55.9745 102.227 56.2447 101.938C56.515 101.648 56.7219 101.305 56.8524 100.931C56.9828 100.557 57.0339 100.16 57.0024 99.7646L52.92 41.5246C52.8462 40.6936 52.4676 39.9193 51.8571 39.3507C51.2466 38.782 50.4474 38.4593 49.6132 38.4446H28.9492C28.5529 38.4402 28.16 38.5185 27.7956 38.6745C27.4313 38.8305 27.1034 39.0608 26.8331 39.3507C26.5627 39.6405 26.3558 39.9835 26.2255 40.3579C26.0952 40.7322 26.0444 41.1296 26.0764 41.5246L30.1476 99.7646C30.2214 100.596 30.6 101.37 31.2105 101.939C31.821 102.507 32.6202 102.83 33.4544 102.845Z" fill="#123454"/>
<path opacity="0.3" d="M33.4544 102.845H54.1296C54.5258 102.849 54.9185 102.77 55.2827 102.614C55.6468 102.458 55.9745 102.227 56.2447 101.938C56.515 101.648 56.7219 101.305 56.8524 100.931C56.9828 100.557 57.0339 100.16 57.0024 99.7646L52.92 41.5246C52.8462 40.6936 52.4676 39.9193 51.8571 39.3507C51.2466 38.782 50.4474 38.4593 49.6132 38.4446H28.9492C28.5529 38.4402 28.16 38.5185 27.7956 38.6745C27.4313 38.8305 27.1034 39.0608 26.8331 39.3507C26.5627 39.6405 26.3558 39.9835 26.2255 40.3579C26.0952 40.7322 26.0444 41.1296 26.0764 41.5246L30.1476 99.7646C30.2214 100.596 30.6 101.37 31.2105 101.939C31.821 102.507 32.6202 102.83 33.4544 102.845Z" fill="#FAFAFA"/>
<path d="M35.6832 102.845H56.3612C56.7574 102.849 57.1501 102.77 57.5143 102.614C57.8784 102.458 58.2061 102.227 58.4763 101.938C58.7466 101.648 58.9535 101.305 59.084 100.931C59.2144 100.557 59.2655 100.16 59.234 99.7646L55.16 41.5246C55.0874 40.6936 54.7096 39.919 54.0995 39.3502C53.4893 38.7814 52.6901 38.4588 51.856 38.4446H31.1808C30.7845 38.4402 30.3916 38.5185 30.0272 38.6745C29.6629 38.8305 29.3351 39.0608 29.0647 39.3507C28.7944 39.6405 28.5874 39.9835 28.4571 40.3579C28.3269 40.7322 28.2761 41.1296 28.308 41.5246L32.3792 99.7646C32.4524 100.595 32.8304 101.37 33.4404 101.938C34.0505 102.507 34.8494 102.83 35.6832 102.845Z" fill="#123454"/>
<path opacity="0.6" d="M35.6832 102.845H56.3612C56.7574 102.849 57.1501 102.77 57.5143 102.614C57.8784 102.458 58.2061 102.227 58.4763 101.938C58.7466 101.648 58.9535 101.305 59.084 100.931C59.2144 100.557 59.2655 100.16 59.234 99.7646L55.16 41.5246C55.0874 40.6936 54.7096 39.919 54.0995 39.3502C53.4893 38.7814 52.6901 38.4588 51.856 38.4446H31.1808C30.7845 38.4402 30.3916 38.5185 30.0272 38.6745C29.6629 38.8305 29.3351 39.0608 29.0647 39.3507C28.7944 39.6405 28.5874 39.9835 28.4571 40.3579C28.3269 40.7322 28.2761 41.1296 28.308 41.5246L32.3792 99.7646C32.4524 100.595 32.8304 101.37 33.4404 101.938C34.0505 102.507 34.8494 102.83 35.6832 102.845Z" fill="#FAFAFA"/>
<path d="M33.1324 99.4987H58.408C58.4619 99.4988 58.5153 99.4878 58.5648 99.4664C58.6143 99.445 58.6588 99.4136 58.6956 99.3741C58.7324 99.3347 58.7606 99.2881 58.7786 99.2373C58.7966 99.1865 58.8039 99.1325 58.8 99.0787L54.8324 42.3451C54.826 42.2455 54.7819 42.1522 54.7091 42.084C54.6362 42.0159 54.5402 41.9781 54.4404 41.9783H29.1648C29.1108 41.9785 29.0573 41.9899 29.0078 42.0116C28.9584 42.0333 28.9139 42.065 28.8771 42.1046C28.8404 42.1443 28.8121 42.191 28.7942 42.242C28.7763 42.293 28.769 42.3472 28.7728 42.4011L32.7404 99.1319C32.7468 99.2314 32.7909 99.3248 32.8638 99.3929C32.9366 99.4611 33.0327 99.4989 33.1324 99.4987Z" fill="#FAFAFA"/>
<path d="M31.4244 67.4891L33.2752 62.8719C33.4964 62.3259 34.286 62.3259 34.7004 62.8719L38.1808 67.4891C38.5924 68.0491 38.318 68.7239 37.6852 68.7239H36.4756C37.7272 72.7895 41.5156 76.0207 45.6736 76.5639C46.0261 76.6137 46.3547 76.7711 46.6143 77.0147C46.8739 77.2582 47.0519 77.5761 47.124 77.9247C47.1679 78.1094 47.1642 78.3022 47.1131 78.4851C47.0621 78.6679 46.9654 78.8348 46.8321 78.97C46.6989 79.1052 46.5334 79.2043 46.3514 79.258C46.1693 79.3118 45.9765 79.3183 45.7912 79.2771C40.2612 78.5603 35.224 74.1839 33.712 68.7295H32.354C31.7212 68.7239 31.2032 68.0379 31.4244 67.4891Z" fill="#123454"/>
<path d="M43.4588 57.1346C43.4151 56.9502 43.4188 56.7577 43.4698 56.5751C43.5207 56.3926 43.6171 56.2259 43.75 56.0908C43.8829 55.9557 44.0479 55.8565 44.2296 55.8025C44.4113 55.7485 44.6037 55.7415 44.7888 55.7822C50.3188 56.499 55.356 60.8754 56.868 66.3298H58.24C58.8728 66.3298 59.3908 67.0158 59.1696 67.5618L57.3188 72.179C57.1004 72.739 56.308 72.739 55.8936 72.179L52.3992 67.5646C51.9876 67.0186 52.262 66.3326 52.8948 66.3326H54.1072C52.8528 62.267 49.0672 59.0358 44.9064 58.4926C44.5548 58.4425 44.2271 58.2852 43.9681 58.0422C43.7091 57.7992 43.5312 57.4823 43.4588 57.1346Z" fill="#123454"/>
<g opacity="0.3">
<path d="M31.4244 67.4891L33.2752 62.8719C33.4964 62.3259 34.286 62.3259 34.7004 62.8719L38.1808 67.4891C38.5924 68.0491 38.318 68.7239 37.6852 68.7239H36.4756C37.7272 72.7895 41.5156 76.0207 45.6736 76.5639C46.0261 76.6137 46.3547 76.7711 46.6143 77.0147C46.8739 77.2582 47.0519 77.5761 47.124 77.9247C47.1679 78.1094 47.1642 78.3022 47.1131 78.4851C47.0621 78.6679 46.9654 78.8348 46.8321 78.97C46.6989 79.1052 46.5334 79.2043 46.3514 79.258C46.1693 79.3118 45.9765 79.3183 45.7912 79.2771C40.2612 78.5603 35.224 74.1839 33.712 68.7295H32.354C31.7212 68.7239 31.2032 68.0379 31.4244 67.4891Z" fill="black"/>
<path d="M43.4588 57.1346C43.4151 56.9502 43.4188 56.7577 43.4698 56.5751C43.5207 56.3926 43.6171 56.2259 43.75 56.0908C43.8829 55.9557 44.0479 55.8565 44.2296 55.8025C44.4113 55.7485 44.6037 55.7415 44.7888 55.7822C50.3188 56.499 55.356 60.8754 56.868 66.3298H58.24C58.8728 66.3298 59.3908 67.0158 59.1696 67.5618L57.3188 72.179C57.1004 72.739 56.308 72.739 55.8936 72.179L52.3992 67.5646C51.9876 67.0186 52.262 66.3326 52.8948 66.3326H54.1072C52.8528 62.267 49.0672 59.0358 44.9064 58.4926C44.5548 58.4425 44.2271 58.2852 43.9681 58.0422C43.7091 57.7992 43.5312 57.4823 43.4588 57.1346Z" fill="black"/>
</g>
<path d="M37.2652 40.0631C37.275 40.1943 37.3336 40.3172 37.4295 40.4074C37.5254 40.4975 37.6516 40.5485 37.7832 40.5503C37.846 40.5513 37.9082 40.5391 37.966 40.5145C38.0237 40.49 38.0757 40.4535 38.1184 40.4076C38.1612 40.3617 38.1938 40.3073 38.2142 40.2479C38.2346 40.1886 38.2423 40.1256 38.2368 40.0631C38.2284 39.9298 38.1702 39.8045 38.0737 39.7122C37.9772 39.6199 37.8495 39.5672 37.716 39.5647C37.6523 39.5634 37.5891 39.5758 37.5306 39.6011C37.4721 39.6264 37.4198 39.6639 37.377 39.7111C37.3343 39.7584 37.3022 39.8142 37.2829 39.875C37.2636 39.9357 37.2576 39.9998 37.2652 40.0631Z" fill="#123454"/>
<path opacity="0.4" d="M37.2652 40.0631C37.275 40.1943 37.3336 40.3172 37.4295 40.4074C37.5254 40.4975 37.6516 40.5485 37.7832 40.5503C37.846 40.5513 37.9082 40.5391 37.966 40.5145C38.0237 40.49 38.0757 40.4535 38.1184 40.4076C38.1612 40.3617 38.1938 40.3073 38.2142 40.2479C38.2346 40.1886 38.2423 40.1256 38.2368 40.0631C38.2284 39.9298 38.1702 39.8045 38.0737 39.7122C37.9772 39.6199 37.8495 39.5672 37.716 39.5647C37.6523 39.5634 37.5891 39.5758 37.5306 39.6011C37.4721 39.6264 37.4198 39.6639 37.377 39.7111C37.3343 39.7584 37.3022 39.8142 37.2829 39.875C37.2636 39.9357 37.2576 39.9998 37.2652 40.0631Z" fill="#FAFAFA"/>
<path d="M39.76 40.5503H45.1416C45.204 40.5505 45.2658 40.5378 45.323 40.5129C45.3802 40.488 45.4316 40.4515 45.474 40.4057C45.5163 40.3599 45.5487 40.3058 45.5691 40.2468C45.5895 40.1879 45.5974 40.1253 45.5924 40.0631C45.5848 39.931 45.5279 39.8066 45.4331 39.7143C45.3382 39.6221 45.2123 39.5687 45.08 39.5647H39.704C39.6414 39.5641 39.5793 39.5766 39.5218 39.6013C39.4642 39.626 39.4125 39.6625 39.3698 39.7083C39.3271 39.7542 39.2945 39.8084 39.2739 39.8675C39.2534 39.9267 39.2453 39.9895 39.2504 40.0519C39.2592 40.1831 39.3161 40.3065 39.4101 40.3984C39.5041 40.4903 39.6287 40.5444 39.76 40.5503Z" fill="#123454"/>
<path opacity="0.4" d="M39.76 40.5503H45.1416C45.204 40.5505 45.2658 40.5378 45.323 40.5129C45.3802 40.488 45.4316 40.4515 45.474 40.4057C45.5163 40.3599 45.5487 40.3058 45.5691 40.2468C45.5895 40.1879 45.5974 40.1253 45.5924 40.0631C45.5848 39.931 45.5279 39.8066 45.4331 39.7143C45.3382 39.6221 45.2123 39.5687 45.08 39.5647H39.704C39.6414 39.5641 39.5793 39.5766 39.5218 39.6013C39.4642 39.626 39.4125 39.6625 39.3698 39.7083C39.3271 39.7542 39.2945 39.8084 39.2739 39.8675C39.2534 39.9267 39.2453 39.9895 39.2504 40.0519C39.2592 40.1831 39.3161 40.3065 39.4101 40.3984C39.5041 40.4903 39.6287 40.5444 39.76 40.5503Z" fill="#FAFAFA"/>
</svg>
